<?xml version="1.0" standalone="no"?>
<!DOCTYPE svg PUBLIC "-//W3C//DTD SVG 20010904//EN"
 "http://www.w3.org/TR/2001/REC-SVG-20010904/DTD/svg10.dtd">
<svg version="1.0" xmlns="http://www.w3.org/2000/svg"
 width="850.000000pt" height="850.000000pt" viewBox="0 0 850.000000 850.000000"
 preserveAspectRatio="xMidYMid meet">
<metadata>
Created by potrace 1.11, written by Peter Selinger 2001-2013
</metadata>
<g transform="translate(0.000000,850.000000) scale(0.100000,-0.100000)"
fill="#000000" stroke="none">
<path d="M4948 7395 c-2 -1 -34 -5 -73 -9 -249 -22 -577 -112 -890 -243 -138
-58 -413 -193 -483 -237 -23 -14 -46 -26 -52 -26 -5 0 -13 -12 -16 -26 -9 -35
14 -56 68 -61 81 -8 213 -43 278 -76 78 -38 147 -104 180 -172 61 -128 7 -404
-90 -456 -83 -44 -288 -154 -325 -174 -600 -324 -1392 -865 -1902 -1300 l-42
-36 -7 28 c-156 702 -468 1330 -840 1695 -177 173 -397 318 -483 318 -48 0
-100 -34 -124 -80 -26 -49 -16 -102 34 -191 38 -66 128 -250 173 -351 38 -86
107 -274 145 -394 53 -170 124 -459 122 -499 0 -2 4 -19 9 -36 5 -17 12 -57
15 -88 4 -31 8 -63 10 -71 2 -8 7 -40 10 -70 3 -30 7 -71 10 -90 23 -202 23
-706 0 -829 -1 -9 -6 -47 -9 -86 -4 -38 -9 -77 -11 -85 -2 -8 -6 -35 -9 -60
-7 -50 -12 -81 -26 -155 -5 -27 -11 -61 -14 -75 -9 -54 -61 -277 -66 -282 -1
-2 -3 -10 -5 -18 -1 -8 -22 -79 -45 -158 -47 -161 -47 -187 3 -239 27 -29 67
-45 117 -48 23 -1 72 25 92 49 42 50 201 291 268 406 122 210 361 695 407 829
3 9 14 34 24 56 27 63 113 281 149 380 18 50 37 101 41 113 l9 24 34 -34 c65
-64 121 -114 186 -167 36 -29 74 -60 85 -69 49 -40 230 -164 326 -224 212
-133 506 -286 754 -393 61 -26 124 -53 140 -61 155 -70 585 -222 895 -316 328
-100 958 -259 1160 -294 53 -9 276 -55 289 -60 9 -3 -9 -17 -45 -36 -80 -42
-263 -151 -354 -212 -230 -153 -465 -358 -536 -466 -16 -25 -31 -47 -34 -50
-11 -10 -58 -115 -68 -150 -9 -34 -8 -114 2 -156 14 -64 91 -161 172 -215 65
-44 204 -107 284 -129 68 -18 102 -21 171 -18 l85 5 16 -78 c41 -197 141 -307
308 -337 54 -10 197 -8 255 3 226 44 376 137 443 275 40 83 46 113 45 235 -1
223 -110 493 -353 875 -48 75 -113 166 -209 289 -120 154 -129 167 -113 157
21 -13 570 -102 807 -131 28 -4 61 -8 75 -11 14 -2 50 -6 80 -10 73 -7 79 -9
200 -38 159 -39 272 -54 396 -54 173 1 295 37 372 111 24 23 101 167 262 490
126 251 225 457 222 457 -4 0 -23 -5 -42 -11 -19 -5 -46 -12 -60 -15 -14 -3
-33 -7 -42 -10 -68 -20 -162 -29 -333 -29 -195 0 -237 5 -381 45 -414 116
-789 470 -1033 975 -64 132 -141 318 -141 341 0 9 27 -10 64 -44 28 -25 151
-122 241 -190 35 -26 183 -117 255 -155 516 -278 1116 -328 1621 -135 l78 29
25 77 c57 171 116 437 140 629 2 15 8 57 12 93 10 82 11 415 1 495 -7 58 -20
140 -32 199 -15 74 -72 230 -113 309 -147 288 -400 477 -757 566 -44 11 -102
23 -130 27 -27 3 -59 8 -70 10 -120 22 -443 21 -645 -2 -131 -15 -314 -40
-356 -49 -12 -3 -39 -7 -60 -11 -21 -3 -42 -8 -45 -10 -4 -2 -32 26 -62 64
-159 193 -361 323 -607 390 -41 12 -93 24 -115 27 -22 4 -51 8 -65 11 -29 5
-347 14 -352 9z"/>
</g>
</svg>
