<svg id="Spilskærm" xmlns="http://www.w3.org/2000/svg" width="1920" height="1080" viewBox="0 0 1920 1080"><defs><style>.cls-1{fill:#8ac0ff;}.cls-2{fill:#5aa6ff;}</style></defs><title>baggrund</title><rect class="cls-1" width="1921" height="592"/><path class="cls-2" d="M1920,702c-67.14,30.09-164,44-288,44-77,0-156.55,41.4-215.78,28.39a114,114,0,0,0-53.32,1C1299.31,792,1226.26,753,1138,753c-76.73,0-148-7.54-207.09-20.46a113.66,113.66,0,0,0-54.19,1.26C812.29,751.39,729,762,638,762c-84.64,0-162.64-9.18-225-24.62A115.25,115.25,0,0,0,364.08,736C309.64,746.17,246.43,752,179,752c-32.06,0-99.82-17.94-179-40V529.55C55.09,519,110.36,513,179,513c84.64,0,166.64,42.18,229,57.62A115.25,115.25,0,0,0,456.92,572c54.44-10.17,113.65-49,181.08-49,76.73,0,152,40.54,211.09,53.46a113.66,113.66,0,0,0,54.19-1.26C967.71,557.61,1047,514,1138,514c77,0,152.55,40.6,211.78,53.61a114,114,0,0,0,53.32-1C1466.69,550,1543.74,507,1632,507c116.36,0,220.17,17.51,288,44.77V702"/></svg>
