<svg xmlns="http://www.w3.org/2000/svg" width="850" height="850" viewBox="0 0 850 850"><defs><style>.cls-1{fill:#ff911e;}.cls-2{fill:#b06315;}.cls-3{fill:#fff;}</style></defs><title>favicon</title><g id="Levende_fisk" data-name="Levende fisk"><path class="cls-1" d="M551.29,553.73s-178.86,88.55-77.92,136.36S551.29,553.73,551.29,553.73Z"/><path class="cls-2" d="M550.92,553.71s-95.26,207.22,23.39,184.2S550.92,553.71,550.92,553.71Z"/><path class="cls-1" d="M795.68,474l-41.16,82.32c-.62,1.24-1.21,2.49-1.71,3.78-2.29,5.93-17.09,33-91.55,11.86a23.12,23.12,0,0,0-3.86-.76c-28.28-3-361.87-41.35-497.48-178.66,0,0,231.1-206.31,495-238.19S817.81,393.46,817.81,393.46,708,450.13,591.14,342.11C591.14,342.11,640.72,519.2,795.68,474Z"/><path class="cls-2" d="M573.43,557.89a1.49,1.49,0,0,1-1.23-.64c-.27-.38-6.63-9.49-14.65-26.94a339.42,339.42,0,0,1-24.27-77.08c-7.48-38.88-9.06-80-4.68-122.18,5.46-52.71,20.28-107.26,44-162.15a1.5,1.5,0,0,1,2.75,1.19C551.75,224.7,537,279,531.58,331.36c-4.34,41.9-2.78,82.71,4.65,121.3a336.85,336.85,0,0,0,24,76.4c7.92,17.2,14.32,26.37,14.39,26.46a1.5,1.5,0,0,1-.37,2.09A1.45,1.45,0,0,1,573.43,557.89Z"/><path class="cls-2" d="M391,238.92s36-61.21-44.15-68.75a4.21,4.21,0,0,1-1.74-7.82c43.12-25,194.79-102.53,268.48-1.55C613.61,160.8,466.29,198.61,391,238.92Z"/><path class="cls-2" d="M159.92,392.58s-28-153.83-126.16-203c-12.5-6.26-25.56,7.61-18.6,19.72,32.7,56.88,85.29,183.88,31,350.26-5,15.37,15.24,25.85,24.86,12.86C95.83,538.87,127.51,483.33,159.92,392.58Z"/><circle class="cls-3" cx="724.84" cy="256.22" r="61.98"/><circle cx="724.84" cy="256.22" r="14.17"/><path class="cls-2" d="M516.07,415.33a1.52,1.52,0,0,1-1.24-.65c-.27-.39-6.82-10-10.15-27.22-3.06-15.86-3.8-41.45,10-73.34a1.5,1.5,0,1,1,2.75,1.19c-25.8,59.61-.4,97.29-.14,97.66a1.51,1.51,0,0,1-1.23,2.36Z"/><path class="cls-2" d="M496.2,404.7a1.46,1.46,0,0,1-1.2-.6c-.23-.3-22.66-31.16-.16-79.4a1.5,1.5,0,0,1,2.72,1.27c-21.75,46.62-.38,76-.16,76.33a1.5,1.5,0,0,1-.31,2.1A1.41,1.41,0,0,1,496.2,404.7Z"/></g></svg>
