<svg xmlns="http://www.w3.org/2000/svg" width="1170" height="980" viewBox="0 0 1170 980"><defs><style>.cls-1{fill:#e0bda7;}.cls-2{fill:#123f70;}.cls-3{fill:#39b34a;}.cls-4{fill:#88ff98;}.cls-5{fill:#16882d;}.cls-12,.cls-14,.cls-6,.cls-7,.cls-9{fill:none;stroke-miterlimit:10;}.cls-14,.cls-6,.cls-7{stroke:#603813;}.cls-6{stroke-width:2px;}.cls-7,.cls-9{stroke-linecap:round;}.cls-7{stroke-width:6px;}.cls-8{fill:#fff;}.cls-9{stroke:#000;}.cls-10{fill:#a47d65;}.cls-11{fill:#ff7baa;}.cls-12{stroke:#754c24;stroke-width:3px;}.cls-13{fill:#603813;}.cls-15{fill:#d7b09a;}.cls-16{fill:#38a84e;}.cls-17{fill:#247033;}.cls-18{opacity:0.1;}</style></defs><title>figur</title><g id="Figur"><g id="Figur-2" data-name="Figur"><rect id="Hals" class="cls-1" x="171.14" y="566.5" width="27.23" height="64.77"/><g id="Bagerste_arm" data-name="Bagerste arm"><path class="cls-1" d="M329.22,695.72h0c-3.66,7.68-10.06,12.25-14.29,10.22L235,667.55l6.62-13.9Z"/><path class="cls-1" d="M374.4,656.45l4,6.77c1,1.61.82,3.47-.32,4.15L318,703.55l-7.87-13.21,59.71-35.91C371.19,653.6,373.25,654.5,374.4,656.45Z"/><rect class="cls-1" x="377.89" y="627.52" width="10.33" height="25.35" rx="3.23" transform="translate(695.07 -37.47) rotate(55.62)"/><rect class="cls-1" x="384.64" y="637.38" width="10.33" height="25.35" rx="3.23" transform="translate(706.14 -38.74) rotate(55.62)"/><rect class="cls-1" x="363.48" y="647.92" width="34.52" height="16.66" rx="4.63" transform="translate(707.32 -28.56) rotate(55.62)"/><rect class="cls-1" x="391.38" y="647.24" width="10.33" height="25.35" rx="3.23" transform="translate(717.22 -40.02) rotate(55.62)"/></g><g id="Højre_ben" data-name="Højre ben"><path class="cls-1" d="M208.37,956.3h28.55a0,0,0,0,1,0,0v14.9a5.86,5.86,0,0,1-5.86,5.86H214.23a5.86,5.86,0,0,1-5.86-5.86V956.3a0,0,0,0,1,0,0Z"/><path class="cls-2" d="M240.3,961.09H203.58l9.61-62.53a15.92,15.92,0,0,0-.29-2.67L186,822.15h70.26L250,897.71c-.06.73-.08,1.46-.07,2.19Z"/></g><g id="Venstre_ben" data-name="Venstre ben"><path class="cls-1" d="M160.25,956.3v11.4a9.38,9.38,0,0,1-9.34,9.36h-9.84a9.4,9.4,0,0,1-9.36-9.36V956.3Z"/><path class="cls-2" d="M179.62,822.15l-.33,4.08-6,71.49a19.88,19.88,0,0,0-.06,2.19l0,.21-9.58,61H126.92l9.62-62.54a16,16,0,0,0-.29-2.67l-26-71.25-.89-2.48Z"/></g><g id="Trøje"><path class="cls-3" d="M275.34,623.54V801.41A24.87,24.87,0,0,1,256,825.6a23.44,23.44,0,0,1-5.46.63H119a24.43,24.43,0,0,1-8.74-1.6,24.9,24.9,0,0,1-16.08-23.22V623.54A24.88,24.88,0,0,1,119,598.73h40.08a19.54,19.54,0,0,1,8.69,2l3.38,1.69,2.09,1,4.79,2.4,3.58,1.79a7.5,7.5,0,0,0,7-.18l9.73-5.49,1.9-1.07a17,17,0,0,1,8.43-2.22h41.83A24.88,24.88,0,0,1,275.34,623.54Z"/><path class="cls-4" d="M243.92,718.54h-9.11s-11.45-3-2.8-14.49h11.91Z"/><path class="cls-4" d="M227.57,712.7s-.23-5.38,1.64-7.48L237.85,691l3.5,2.1-4.9-12.38-13.79,1.17,2.57,1.63-5.14,10a8.37,8.37,0,0,0,0,6.77Z"/><path class="cls-4" d="M232.4,670.16l4.55-7.89s8.36-8.39,14,4.82l-6,10.31Z"/><path class="cls-4" d="M245.63,658.92s4.77,2.48,5.66,5.15l8,14.62-3.58,2,13.18,1.94,5.88-12.52-2.7,1.41L266,662a8.36,8.36,0,0,0-5.87-3.38Z"/><path class="cls-4" d="M275.34,687.53v14.92c-.54,0-1.13-.07-1.76-.15L267.63,692Z"/><path class="cls-4" d="M275.34,704.12v11.5a8.53,8.53,0,0,1-4.9,2.25l-11.26.58-.14,3-7.89-11.35,8.25-10.43-.06,4.09Z"/><path class="cls-5" d="M128,635s-7.51,23.47,31,53.51l10.32-21.6s-28.16-7.51-30-31.91Z"/></g><g id="Fiskestang"><path class="cls-6" d="M467.85,454.57s17.78,28.63,25.61,16.36S467.85,454.57,467.85,454.57Z"/><path class="cls-7" d="M406.77,600.29S591.17,101,772.54,35.2s333.62,0,333.62,0"/><rect x="390.81" y="598.41" width="17.84" height="73.22" transform="translate(147.17 -71.55) rotate(12.52)"/><path class="cls-6" d="M540.14,310.94s17.77,28.63,25.61,16.35S540.14,310.94,540.14,310.94Z"/><path class="cls-6" d="M625.57,170.13s17.77,28.62,25.61,16.35S625.57,170.13,625.57,170.13Z"/><path class="cls-6" d="M733.23,56.49s7.21,32.91,18.69,23.95S733.23,56.49,733.23,56.49Z"/><path class="cls-6" d="M908.39,7.44s-9.95,32.19,4.46,30.05S908.39,7.44,908.39,7.44Z"/><path class="cls-6" d="M1102.83,35.17s-22.84,24.77-8.92,29S1102.83,35.17,1102.83,35.17Z"/><rect x="408.51" y="631.03" width="39.43" height="6.57" transform="translate(150.34 -78.78) rotate(12.73)"/><circle cx="468.5" cy="643.49" r="23.47"/><circle class="cls-8" cx="464.45" cy="659.27" r="3.29"/><circle class="cls-8" cx="456.63" cy="655.57" r="3.29"/><circle class="cls-8" cx="452.58" cy="647.92" r="3.29"/><circle class="cls-8" cx="452.61" cy="639.27" r="3.29"/><circle class="cls-8" cx="456.44" cy="631.6" r="3.12"/><circle class="cls-8" cx="464.09" cy="627.55" r="3.12"/><circle class="cls-8" cx="472.75" cy="627.59" r="3.12"/><circle class="cls-8" cx="480.58" cy="631.28" r="3.12"/><circle class="cls-8" cx="484.62" cy="638.93" r="3.16"/><circle class="cls-8" cx="484.59" cy="647.59" r="3.12"/><circle class="cls-8" cx="480.9" cy="655.41" r="3.12"/><circle class="cls-8" cx="473.25" cy="659.46" r="3.12"/><path d="M1167,182.49c2.28-5.26.47-7.13.47-7.13a3,3,0,0,0-4.07,0c-2,2.11.63,8.7.63,8.7v19a22.49,22.49,0,0,1-.4,3.91,9,9,0,0,1-10.11,6.11c-5.09-1.48-3.37-8.61-3.37-8.61a2.09,2.09,0,0,0,3,.93c-3.21-4.7-1.8-12.22-1.8-12.22-6.43,11.21-4.08,17.95-4.08,17.95,2,7,10.51,5,10.51,5,9.16-3.13,8.85-10.74,8.85-10.74V184.37Zm-1.65-.79s-2.66-5.48,0-5.48S1165.32,181.7,1165.32,181.7Z"/><path class="cls-9" d="M1166.71,179.25a1.84,1.84,0,0,1-1.88-1.88c0-69.87-71-117.75-71-117.75-113.59,53.51-182-27.15-182-27.15C875.2,132,748.93,77.19,748.93,77.19c11.26,120.16-100.61,107-100.61,107,36.61,96.69-86.23,140.53-86.23,140.53,46,101.39-71.87,143.72-71.87,143.72,38.49,117.35-6,191.47-6,191.47"/><path class="cls-6" d="M467.85,454.57s17.78,28.63,25.61,16.36c.18-.28.33-.55.47-.81"/><path class="cls-6" d="M540.14,310.94s17.77,28.63,25.61,16.35c.13-.21.26-.42.37-.62"/><path class="cls-6" d="M625.57,170.13s17.77,28.62,25.61,16.35l.23-.38"/><path class="cls-6" d="M733.23,56.49S740.09,87.77,751.07,81a8.34,8.34,0,0,0,.85-.6"/><path class="cls-6" d="M908.39,7.44s-9.95,32.19,4.46,30.05l.44-.07"/><path class="cls-6" d="M1102.83,35.17s-22.84,24.77-8.92,29a8.35,8.35,0,0,0,.89.23"/></g><g id="Hoved"><path class="cls-1" d="M333.53,535.1,92,562.73A28.23,28.23,0,0,1,60.79,538L27.72,248.82a28.22,28.22,0,0,1,24.77-31.18L266.08,193.2A28.26,28.26,0,0,1,297.26,218l1.62,38.36.49,11.36.36,8.48v0l.06,1.59.14,3.4s0,0,0,0l.11,2.3.6,14.19.26,6.23L304.74,395,306,424.93l.11,2.75C306,451.32,381.5,524.89,333.53,535.1Z"/><circle class="cls-8" cx="202.99" cy="302.47" r="23.47"/><circle cx="213.25" cy="301.3" r="5.63"/><path class="cls-10" d="M223.37,290.69c1,1.57-43.15,6.77-42.9,4.91.5-3.84,7-15,19.85-16.45S219.93,285.41,223.37,290.69Z"/><path class="cls-8" d="M300.37,281.81l.06,1.58.84,19.9a20.65,20.65,0,1,1-32.11-25.15c.2-.19.39-.37.6-.54q.66-.56,1.38-1.08l.53-.36q.33-.23.66-.42a4.07,4.07,0,0,1,.49-.31l.58-.32.76-.39.28-.12.59-.28.16-.06c.24-.11.49-.21.73-.3l.84-.29.94-.29a20.67,20.67,0,0,1,3.15-.6c.4,0,.79-.08,1.19-.1s.72-.05,1.07,0h.12a20.65,20.65,0,0,1,14.31,5.79,4.89,4.89,0,0,1,.39.4,20,20,0,0,1,2.28,2.74v0Z"/><circle cx="292.23" cy="292.26" r="4.96"/><path class="cls-10" d="M300.36,281.79v0l.06,1.58c-5.11,1.67-35.83,5.18-37,3.95a.12.12,0,0,1,0-.09c.25-1.89,2.15-5.81,5.78-9.11.2-.19.39-.37.6-.54q.66-.56,1.38-1.08l.53-.36q.33-.23.66-.42a4.07,4.07,0,0,1,.49-.31l.58-.32.76-.39.28-.12.59-.28.16-.06c.24-.11.49-.21.73-.3l.84-.29.94-.29a20.67,20.67,0,0,1,3.15-.6c.4,0,.79-.08,1.19-.1s.72-.05,1.07,0h.12a19,19,0,0,1,14.31,5.79,4.89,4.89,0,0,1,.39.4,26.87,26.87,0,0,1,2.28,2.74v0Z"/><path class="cls-8" d="M304.74,395,306,424.93a75.64,75.64,0,0,1-8.6,4.52,98.36,98.36,0,0,1-28.93,7.74,99.55,99.55,0,0,1-27.51-.57c-21.9-3.65-38.05-15-39.77-30l63-6.58Z"/><path class="cls-11" d="M297.41,429.45a98.36,98.36,0,0,1-28.93,7.74,99.55,99.55,0,0,1-27.51-.57c2.56-6,13.62-11.55,27.36-13.12C281.49,422,293.06,424.57,297.41,429.45Z"/><path class="cls-12" d="M249,333.11s1,16.9,12.82,21.21S277,371.48,250.05,367"/><circle class="cls-13" cx="341.3" cy="499.72" r="41.78"/><path class="cls-13" d="M76,333.92a29.56,29.56,0,0,1-19,15.21,30.53,30.53,0,0,1-4,.73,29.24,29.24,0,0,1-13.89-1.74,29.59,29.59,0,0,1-15.89-14.36,29.57,29.57,0,0,1-1.89-21.84,29.57,29.57,0,0,1,11.82-16c.64-.45,1.31-.86,2-1.25A29.57,29.57,0,0,1,76,333.92Z"/><path class="cls-13" d="M75.25,305.75a29.55,29.55,0,0,1-38.84,19,20.32,20.32,0,0,1-2-.85,29.58,29.58,0,0,1-4-51.31,29.58,29.58,0,0,1,45.88,21.18A29.18,29.18,0,0,1,75.25,305.75Z"/><path class="cls-13" d="M74.51,286.46a29.54,29.54,0,0,1-39.39,8.24,28,28,0,0,1-2.34-1.56,29.45,29.45,0,0,1-10-13.05A28.76,28.76,0,0,1,21,272.73a27.83,27.83,0,0,1-.19-3.27,29.19,29.19,0,0,1,2.78-12.6,28.61,28.61,0,0,1,4.29-6.66,29.2,29.2,0,0,1,11.88-8.44A29.93,29.93,0,0,1,47,240a29.2,29.2,0,0,1,7.48.1h0a29.58,29.58,0,0,1,19.13,11,29.25,29.25,0,0,1,5.56,11.64,30.78,30.78,0,0,1,.56,3.26A29.41,29.41,0,0,1,74.51,286.46Z"/><circle class="cls-13" cx="293.79" cy="522.17" r="41.78"/><circle class="cls-13" cx="230.39" cy="537.92" r="41.78"/><path class="cls-13" d="M206.72,549.09c0,.18,0,.36-.05.53a41.56,41.56,0,0,1-6,17.66,37.16,37.16,0,0,1-2.31,3.37A41.6,41.6,0,0,1,178,585.12a38.64,38.64,0,0,1-4.79,1.25c-.68.12-1.39.25-2.09.35-.43.06-.86.13-1.29.17a41.74,41.74,0,0,1-44-55.71,9.58,9.58,0,0,1,.4-1.09,39.73,39.73,0,0,1,3.7-7.23c.5-.8,1-1.58,1.6-2.35a41.64,41.64,0,0,1,28.82-16.62,41.2,41.2,0,0,1,11.76.31c.36.07.75.13,1.11.21a40.57,40.57,0,0,1,4.79,1.25,35.59,35.59,0,0,1,4.87,1.95A41.54,41.54,0,0,1,194.82,516c.15.15.29.31.44.45a35.78,35.78,0,0,1,3.28,3.88,41.26,41.26,0,0,1,8.07,20.3c0,.33.08.67.11,1,.07.69.1,1.37.13,2.06A39.86,39.86,0,0,1,206.72,549.09Z"/><path class="cls-13" d="M146.26,552.37h0a38.3,38.3,0,0,1-.21,4.17,41.79,41.79,0,0,1-81.47,8.19,42.67,42.67,0,0,1-1.6-7.66,42.23,42.23,0,0,1,.15-10.73A41.73,41.73,0,0,1,76.84,521a41.77,41.77,0,0,1,52.94-1.9c.59.45,1.18.92,1.76,1.42a37.4,37.4,0,0,1,4.21,4.14A40.53,40.53,0,0,1,142.51,535,41.54,41.54,0,0,1,146,547.58,40.84,40.84,0,0,1,146.26,552.37Z"/><path class="cls-13" d="M91.69,531.72a41.93,41.93,0,0,1-16.75,27.53,41.26,41.26,0,0,1-10.36,5.49A42.21,42.21,0,0,1,55.12,567a41.77,41.77,0,1,1-9.48-83,40.81,40.81,0,0,1,9-.06,41.69,41.69,0,0,1,21.72,8.83,39.54,39.54,0,0,1,3.75,3.35,41.69,41.69,0,0,1,10.21,17,43.78,43.78,0,0,1,1.6,7.68A41.36,41.36,0,0,1,91.69,531.72Z"/><path class="cls-13" d="M76.33,492.71a41.35,41.35,0,0,1-3.19,3.56,40.53,40.53,0,0,1-6,5,41,41,0,0,1-10,5,42.17,42.17,0,0,1-8.77,2A41.77,41.77,0,1,1,45.85,425h0c.69,0,1.36.08,2,.15A41.89,41.89,0,0,1,81.6,449.19a40.86,40.86,0,0,1,3.07,9.57c.21,1,.37,2.1.49,3.17A41.61,41.61,0,0,1,76.33,492.71Z"/><path class="cls-13" d="M99,420.16h0a41.7,41.7,0,0,1-17.44,29,41.12,41.12,0,0,1-17,7c-.75.15-1.52.24-2.29.34a41.64,41.64,0,0,1-28.45-7.12,41.81,41.81,0,0,1-14.25-16.9,41.11,41.11,0,0,1-2.94-8.92,37.08,37.08,0,0,1-.62-3.82,41.43,41.43,0,0,1,5.65-26.16h0a41.51,41.51,0,0,1,11.85-12.76,39,39,0,0,1,8.71-4.68,40.61,40.61,0,0,1,10.55-2.64,41.18,41.18,0,0,1,19.24,2.33,40.49,40.49,0,0,1,7,3.32,41.59,41.59,0,0,1,18.17,22.63,42.7,42.7,0,0,1,1.87,8.47A41,41,0,0,1,99,420.16Z"/><path class="cls-13" d="M81.39,358.28h0a32.08,32.08,0,0,1-5.71,13.4,29.61,29.61,0,0,1-3.6,4.15,32.14,32.14,0,0,1-18.89,9,31.8,31.8,0,0,1-10-.41,32.37,32.37,0,0,1-20-50.63,32.69,32.69,0,0,1,11.22-9.82c.59-.3,1.2-.59,1.81-.86a32.46,32.46,0,0,1,25.66-.38A32.33,32.33,0,0,1,81.68,349,31.56,31.56,0,0,1,81.39,358.28Z"/><circle class="cls-13" cx="108.12" cy="493.32" r="41.78"/><circle class="cls-13" cx="75.34" cy="454.55" r="41.78"/><circle class="cls-13" cx="171.55" cy="519.14" r="41.78"/><circle class="cls-13" cx="236.87" cy="520.17" r="41.78"/><circle class="cls-13" cx="298.79" cy="499.86" r="41.78"/><path class="cls-13" d="M80.21,388.46a28.53,28.53,0,0,1-1.55,8.48,29.55,29.55,0,0,1-31.52,19.88l-.21,0a29.14,29.14,0,0,1-6-1.41,29.6,29.6,0,0,1-19.2-21.78h0c-.19-.92-.33-1.83-.44-2.77A29.59,29.59,0,0,1,57,358.56a29.67,29.67,0,0,1,18.67,13.13,28.51,28.51,0,0,1,1.59,2.86,29.72,29.72,0,0,1,1.78,4.61,29.07,29.07,0,0,1,.94,4.6l.05.34A29.06,29.06,0,0,1,80.21,388.46Z"/><path class="cls-13" d="M64.63,456.18A29.45,29.45,0,0,1,53,469.82a29.1,29.1,0,0,1-12.28,4.28c-.75.08-1.5.15-2.24.16A29.56,29.56,0,0,1,8,448.09a24.55,24.55,0,0,1-.17-2.83A29.55,29.55,0,0,1,34,415.35a30,30,0,0,1,12.92,1.39l.21.08a28,28,0,0,1,5.56,2.62,29.56,29.56,0,0,1,11.93,36.74Z"/><circle class="cls-13" cx="200.57" cy="549.84" r="29.57"/><circle class="cls-13" cx="211.66" cy="514.55" r="29.57"/><circle class="cls-13" cx="268.95" cy="503.28" r="29.57"/><circle class="cls-13" cx="142.58" cy="505.45" r="29.57"/><rect class="cls-13" x="161.28" y="263.74" width="54.45" height="11.27" rx="3.53" transform="translate(-62.23 56.7) rotate(-14.71)"/><path class="cls-13" d="M299.37,267.71l-34.3-3.15a5.63,5.63,0,0,1,.51-11.24,4.35,4.35,0,0,1,.51,0l32.79,3Z"/><line class="cls-14" x1="191.79" y1="448.21" x2="193.2" y2="452.44"/><line class="cls-14" x1="198.84" y1="439.29" x2="197.9" y2="444.93"/><line class="cls-14" x1="200.24" y1="451.97" x2="198.84" y2="456.19"/><line class="cls-14" x1="180.53" y1="449.15" x2="178.18" y2="452.44"/><line class="cls-14" x1="211.04" y1="448.68" x2="209.16" y2="452.44"/><line class="cls-14" x1="174.43" y1="439.29" x2="171.61" y2="443.05"/><line class="cls-14" x1="185.22" y1="437.88" x2="182.88" y2="441.17"/><line class="cls-14" x1="190.39" y1="439.29" x2="189.45" y2="443.99"/><line class="cls-14" x1="219.49" y1="445.86" x2="218.55" y2="450.56"/><line class="cls-14" x1="209.16" y1="459.95" x2="206.35" y2="462.76"/><line class="cls-14" x1="206.35" y1="439.29" x2="205.41" y2="443.99"/><line class="cls-14" x1="218.55" y1="439.29" x2="215.73" y2="443.05"/><line class="cls-14" x1="219.49" y1="457.13" x2="216.67" y2="460.88"/><line class="cls-14" x1="229.82" y1="453.37" x2="228.88" y2="457.13"/><line class="cls-14" x1="227" y1="443.05" x2="226.06" y2="447.74"/><line class="cls-14" x1="225.12" y1="465.58" x2="222.31" y2="468.39"/><line class="cls-14" x1="212.45" y1="466.99" x2="211.98" y2="470.27"/><line class="cls-14" x1="199.31" y1="465.11" x2="196.02" y2="469.33"/><line class="cls-14" x1="190.86" y1="462.29" x2="190.39" y2="467.46"/><line class="cls-14" x1="182.41" y1="461.35" x2="181.94" y2="466.52"/><line class="cls-14" x1="182.88" y1="429.9" x2="181" y2="433.66"/><line class="cls-14" x1="195.55" y1="425.68" x2="193.2" y2="428.97"/><line class="cls-14" x1="204.47" y1="430.84" x2="202.59" y2="433.66"/><line class="cls-14" x1="214.79" y1="476.84" x2="213.86" y2="480.6"/><line class="cls-14" x1="202.59" y1="475.9" x2="201.65" y2="480.6"/><line class="cls-14" x1="190.86" y1="473.56" x2="188.51" y2="477.78"/><line class="cls-14" x1="174.9" y1="461.35" x2="171.61" y2="464.64"/><line class="cls-14" x1="172.08" y1="451.97" x2="169.73" y2="457.13"/><line class="cls-14" x1="165.51" y1="466.99" x2="165.04" y2="472.15"/><line class="cls-14" x1="176.31" y1="473.09" x2="175.37" y2="477.78"/><line class="cls-14" x1="131.71" y1="441.64" x2="133.12" y2="445.86"/><line class="cls-14" x1="141.1" y1="443.52" x2="139.69" y2="447.74"/><line class="cls-14" x1="121.39" y1="440.7" x2="119.04" y2="443.99"/><line class="cls-14" x1="151.9" y1="440.23" x2="150.02" y2="443.99"/><line class="cls-14" x1="115.28" y1="430.84" x2="112.47" y2="434.6"/><line class="cls-14" x1="126.08" y1="429.44" x2="123.73" y2="432.72"/><line class="cls-14" x1="150.02" y1="451.5" x2="147.2" y2="454.31"/><line class="cls-14" x1="147.2" y1="430.84" x2="146.26" y2="435.54"/><line class="cls-14" x1="160.35" y1="448.68" x2="157.53" y2="452.44"/><line class="cls-14" x1="167.86" y1="434.6" x2="166.92" y2="439.29"/><line class="cls-14" x1="165.98" y1="457.13" x2="163.16" y2="459.95"/><line class="cls-14" x1="153.31" y1="458.54" x2="152.84" y2="461.82"/><line class="cls-14" x1="140.16" y1="456.66" x2="136.88" y2="460.88"/><line class="cls-14" x1="131.71" y1="453.84" x2="131.24" y2="459.01"/><line class="cls-14" x1="123.26" y1="452.9" x2="122.8" y2="458.07"/><line class="cls-14" x1="123.73" y1="421.46" x2="121.86" y2="425.21"/><line class="cls-14" x1="136.41" y1="417.23" x2="134.06" y2="420.52"/><line class="cls-14" x1="145.33" y1="422.39" x2="143.45" y2="425.21"/><line class="cls-14" x1="155.65" y1="468.39" x2="154.71" y2="472.15"/><line class="cls-14" x1="143.45" y1="467.46" x2="142.51" y2="472.15"/><line class="cls-14" x1="131.71" y1="465.11" x2="129.37" y2="469.33"/><line class="cls-14" x1="115.75" y1="452.9" x2="112.47" y2="456.19"/><line class="cls-14" x1="112.94" y1="443.52" x2="110.59" y2="448.68"/><line class="cls-14" x1="106.37" y1="458.54" x2="105.9" y2="463.7"/><line class="cls-14" x1="117.16" y1="464.64" x2="116.22" y2="469.33"/><line class="cls-14" x1="159.88" y1="413.48" x2="161.28" y2="417.7"/><line class="cls-14" x1="166.92" y1="404.56" x2="165.98" y2="410.19"/><line class="cls-14" x1="168.33" y1="417.23" x2="166.92" y2="421.46"/><line class="cls-14" x1="148.61" y1="414.42" x2="146.26" y2="417.7"/><line class="cls-14" x1="179.12" y1="413.95" x2="177.24" y2="417.7"/><line class="cls-14" x1="142.51" y1="404.56" x2="139.69" y2="408.31"/><line class="cls-14" x1="153.31" y1="403.15" x2="150.96" y2="406.44"/><line class="cls-14" x1="158.47" y1="404.56" x2="157.53" y2="409.25"/><line class="cls-14" x1="187.57" y1="411.13" x2="186.63" y2="415.82"/><line class="cls-14" x1="177.24" y1="425.21" x2="174.43" y2="428.03"/><line class="cls-14" x1="174.43" y1="404.56" x2="173.49" y2="409.25"/><line class="cls-14" x1="187.57" y1="422.39" x2="184.75" y2="426.15"/><line class="cls-14" x1="197.9" y1="418.64" x2="196.96" y2="422.39"/><line class="cls-14" x1="195.08" y1="408.31" x2="194.14" y2="413.01"/><line class="cls-14" x1="193.2" y1="430.84" x2="190.39" y2="433.66"/><line class="cls-14" x1="167.39" y1="430.37" x2="164.1" y2="434.6"/><line class="cls-14" x1="158.94" y1="427.56" x2="158.47" y2="432.72"/><line class="cls-14" x1="150.49" y1="426.62" x2="150.02" y2="431.78"/><line class="cls-14" x1="158.94" y1="438.82" x2="156.59" y2="443.05"/><line class="cls-14" x1="140.16" y1="425.68" x2="137.82" y2="430.84"/><line class="cls-14" x1="133.59" y1="432.25" x2="133.12" y2="437.41"/><line class="cls-14" x1="144.39" y1="438.35" x2="143.45" y2="443.05"/><line class="cls-14" x1="252.82" y1="464.17" x2="254.22" y2="468.39"/><line class="cls-14" x1="259.86" y1="455.25" x2="258.92" y2="460.88"/><line class="cls-14" x1="261.26" y1="467.93" x2="259.86" y2="472.15"/><line class="cls-14" x1="241.55" y1="465.11" x2="239.2" y2="468.39"/><line class="cls-14" x1="235.45" y1="455.25" x2="232.63" y2="459.01"/><line class="cls-14" x1="246.24" y1="453.84" x2="243.9" y2="457.13"/><line class="cls-14" x1="251.41" y1="455.25" x2="250.47" y2="459.95"/><line class="cls-14" x1="280.51" y1="461.82" x2="279.57" y2="466.52"/><line class="cls-14" x1="270.18" y1="475.9" x2="267.37" y2="478.72"/><line class="cls-14" x1="267.37" y1="455.25" x2="266.43" y2="459.95"/><line class="cls-14" x1="279.57" y1="455.25" x2="276.75" y2="459.01"/><line class="cls-14" x1="280.51" y1="473.09" x2="277.69" y2="476.84"/><line class="cls-14" x1="290.84" y1="469.33" x2="289.9" y2="473.09"/><line class="cls-14" x1="288.02" y1="459.01" x2="287.08" y2="463.7"/><line class="cls-14" x1="286.14" y1="481.54" x2="283.33" y2="484.35"/><line class="cls-14" x1="273.47" y1="482.95" x2="273" y2="486.23"/><line class="cls-14" x1="260.33" y1="481.07" x2="257.04" y2="485.29"/><line class="cls-14" x1="251.88" y1="478.25" x2="251.41" y2="483.41"/><line class="cls-14" x1="243.43" y1="477.31" x2="242.96" y2="482.48"/><line class="cls-14" x1="243.9" y1="445.86" x2="242.02" y2="449.62"/><line class="cls-14" x1="256.57" y1="441.64" x2="254.22" y2="444.93"/><line class="cls-14" x1="265.49" y1="446.8" x2="263.61" y2="449.62"/><line class="cls-14" x1="275.82" y1="492.8" x2="274.88" y2="496.56"/><line class="cls-14" x1="263.61" y1="491.86" x2="262.67" y2="496.56"/><line class="cls-14" x1="251.88" y1="489.52" x2="249.53" y2="493.74"/><line class="cls-14" x1="235.92" y1="477.31" x2="232.63" y2="480.6"/><line class="cls-14" x1="233.1" y1="467.93" x2="230.75" y2="473.09"/><line class="cls-14" x1="226.53" y1="482.95" x2="226.06" y2="488.11"/><line class="cls-14" x1="237.33" y1="489.05" x2="236.39" y2="493.74"/><line class="cls-14" x1="294.12" y1="457.6" x2="295.53" y2="461.82"/><line class="cls-14" x1="301.16" y1="448.68" x2="300.22" y2="454.31"/><line class="cls-14" x1="302.57" y1="461.35" x2="301.16" y2="465.58"/><line class="cls-14" x1="313.37" y1="458.07" x2="311.49" y2="461.82"/><line class="cls-14" x1="276.75" y1="448.68" x2="273.94" y2="452.44"/><line class="cls-14" x1="287.55" y1="447.27" x2="285.2" y2="450.56"/><line class="cls-14" x1="292.71" y1="448.68" x2="291.77" y2="453.37"/><line class="cls-14" x1="311.49" y1="469.33" x2="308.67" y2="472.15"/><line class="cls-14" x1="308.67" y1="448.68" x2="307.73" y2="453.37"/><line class="cls-14" x1="321.81" y1="466.52" x2="319" y2="470.27"/><line class="cls-14" x1="332.14" y1="462.76" x2="331.2" y2="466.52"/><line class="cls-14" x1="327.45" y1="474.97" x2="324.63" y2="477.78"/><line class="cls-14" x1="314.77" y1="476.37" x2="314.3" y2="479.66"/><line class="cls-14" x1="301.63" y1="474.5" x2="298.35" y2="478.72"/><line class="cls-14" x1="293.18" y1="471.68" x2="292.71" y2="476.84"/><line class="cls-14" x1="284.73" y1="470.74" x2="284.26" y2="475.9"/><line class="cls-14" x1="285.2" y1="439.29" x2="283.33" y2="443.05"/><line class="cls-14" x1="297.88" y1="435.07" x2="295.53" y2="438.35"/><line class="cls-14" x1="306.79" y1="440.23" x2="304.92" y2="443.05"/><line class="cls-14" x1="317.12" y1="486.23" x2="316.18" y2="489.99"/><line class="cls-14" x1="304.92" y1="485.29" x2="303.98" y2="489.99"/><line class="cls-14" x1="293.18" y1="482.95" x2="290.84" y2="487.17"/><line class="cls-14" x1="277.22" y1="470.74" x2="273.94" y2="474.03"/><line class="cls-14" x1="274.41" y1="461.35" x2="272.06" y2="466.52"/><line class="cls-14" x1="267.84" y1="476.37" x2="267.37" y2="481.54"/><line class="cls-14" x1="278.63" y1="482.48" x2="277.69" y2="487.17"/><line class="cls-14" x1="103.13" y1="388.61" x2="102.99" y2="393.06"/><line class="cls-14" x1="112.83" y1="382.69" x2="110" y2="387.65"/><line class="cls-14" x1="109.75" y1="395.07" x2="106.97" y2="398.54"/><line class="cls-14" x1="92.24" y1="385.58" x2="88.9" y2="387.85"/><line class="cls-14" x1="121.02" y1="395.73" x2="117.95" y2="398.6"/><line class="cls-14" x1="89.94" y1="374.22" x2="86" y2="376.76"/><line class="cls-14" x1="100.56" y1="376.65" x2="97.21" y2="378.91"/><line class="cls-14" x1="104.91" y1="379.76" x2="102.4" y2="383.84"/><line class="cls-14" x1="129.92" y1="396.03" x2="127.41" y2="400.1"/><line class="cls-14" x1="115.35" y1="405.65" x2="111.73" y2="407.31"/><line class="cls-14" x1="119.88" y1="385.3" x2="117.37" y2="389.38"/><line class="cls-14" x1="131.32" y1="389.54" x2="127.38" y2="392.08"/><line class="cls-14" x1="126.01" y1="406.59" x2="122.06" y2="409.14"/><line class="cls-14" x1="137" y1="406.66" x2="134.81" y2="409.85"/><line class="cls-14" x1="137.94" y1="395.99" x2="135.43" y2="400.07"/><line class="cls-14" x1="128.36" y1="416.47" x2="124.74" y2="418.13"/><line class="cls-14" x1="115.98" y1="413.39" x2="114.4" y2="416.31"/><line class="cls-14" x1="104.31" y1="407.07" x2="99.76" y2="409.89"/><line class="cls-14" x1="97.36" y1="401.49" x2="95.13" y2="406.17"/><line class="cls-14" x1="89.77" y1="397.68" x2="87.53" y2="402.36"/><line class="cls-14" x1="101.13" y1="368.35" x2="98.06" y2="371.22"/><line class="cls-14" x1="114.76" y1="423.45" x2="112.58" y2="426.65"/><line class="cls-14" x1="103.64" y1="418.33" x2="101.13" y2="422.41"/><line class="cls-14" x1="93.45" y1="412.06" x2="89.79" y2="415.2"/><line class="cls-14" x1="82.72" y1="395.07" x2="78.5" y2="397.01"/><line class="cls-14" x1="83.34" y1="385.29" x2="79.35" y2="389.32"/><line class="cls-14" x1="71.96" y1="397.09" x2="69.73" y2="401.77"/><line class="cls-14" x1="79.97" y1="406.56" x2="77.46" y2="410.64"/><line class="cls-14" x1="57.13" y1="354.82" x2="56.99" y2="359.27"/><line class="cls-14" x1="66.83" y1="348.9" x2="64" y2="353.85"/><line class="cls-14" x1="63.75" y1="361.27" x2="60.97" y2="364.74"/><line class="cls-14" x1="46.24" y1="351.79" x2="42.9" y2="354.05"/><line class="cls-14" x1="75.02" y1="361.94" x2="71.95" y2="364.81"/><line class="cls-14" x1="43.94" y1="340.42" x2="40" y2="342.97"/><line class="cls-14" x1="54.56" y1="342.85" x2="51.21" y2="345.12"/><line class="cls-14" x1="58.91" y1="345.96" x2="56.4" y2="350.04"/><line class="cls-14" x1="83.92" y1="362.23" x2="81.41" y2="366.31"/><line class="cls-14" x1="69.35" y1="371.85" x2="65.73" y2="373.51"/><line class="cls-14" x1="73.88" y1="351.51" x2="71.37" y2="355.58"/><line class="cls-14" x1="85.32" y1="355.74" x2="81.38" y2="358.29"/><line class="cls-14" x1="80.01" y1="372.8" x2="76.06" y2="375.34"/><line class="cls-14" x1="91.94" y1="362.2" x2="89.43" y2="366.27"/><line class="cls-14" x1="82.36" y1="382.67" x2="78.74" y2="384.34"/><line class="cls-14" x1="69.98" y1="379.59" x2="68.4" y2="382.51"/><line class="cls-14" x1="58.31" y1="373.27" x2="53.76" y2="376.09"/><line class="cls-14" x1="51.36" y1="367.7" x2="49.13" y2="372.38"/><line class="cls-14" x1="43.77" y1="363.88" x2="41.53" y2="368.56"/><line class="cls-14" x1="55.13" y1="334.55" x2="52.06" y2="337.42"/><line class="cls-14" x1="68.48" y1="334.99" x2="65.14" y2="337.26"/><line class="cls-14" x1="75.05" y1="342.93" x2="72.31" y2="344.92"/><line class="cls-14" x1="68.76" y1="389.65" x2="66.58" y2="392.85"/><line class="cls-14" x1="57.64" y1="384.54" x2="55.13" y2="388.61"/><line class="cls-14" x1="47.45" y1="378.26" x2="43.79" y2="381.41"/><line class="cls-14" x1="36.72" y1="361.28" x2="32.5" y2="363.22"/><line class="cls-14" x1="37.34" y1="351.49" x2="33.35" y2="355.52"/><line class="cls-14" x1="25.96" y1="363.3" x2="23.73" y2="367.98"/><line class="cls-14" x1="33.97" y1="372.77" x2="31.46" y2="376.84"/><path class="cls-15" d="M144.28,360.75C125.06,336.58,126,303.7,136.16,276c.22-.6-.75-.86-1-.26-10.32,28.1-11.07,61.29,8.38,85.74.41.51,1.11-.2.71-.7Z"/><path class="cls-15" d="M136.76,359.93a57.61,57.61,0,0,1-15.43-38.6,140.26,140.26,0,0,1,6.91-46.08c.2-.62-.76-.88-1-.27a138.31,138.31,0,0,0-6.89,48.23,58.17,58.17,0,0,0,15.66,37.43c.44.47,1.15-.24.71-.71Z"/><path class="cls-15" d="M240.69,279.91a76.53,76.53,0,0,0,2.1,14.91.5.5,0,0,0,1-.26,73.9,73.9,0,0,1-2.07-14.65c0-.64-1-.64-1,0Z"/><path class="cls-15" d="M246.67,280.71a19.63,19.63,0,0,0,2,10.76c.28.58,1.15.07.86-.5a18.68,18.68,0,0,1-1.86-10.26c.06-.65-.94-.64-1,0Z"/></g><g id="Hat"><path class="cls-16" d="M307.9,236.61l-9.82,1.11L178,251.46l-4.79.54-94,10.76L30,268.4l-9.15,1.06h-.18l-1.39-12.12-1.39-12.1-.09-1A48,48,0,0,1,60,192.21l94.87-10.86,1.17-.12.91-.1,16.27-1.87,4.79-.54,74.07-8.48A48,48,0,0,1,305,211.44c0,.32.09.64.12,1l1.39,12.09Z"/><polygon class="cls-17" points="310.23 224.06 306.51 224.49 297.57 225.51 178.02 239.18 173.23 239.72 73.65 251.12 28.57 256.28 23.59 256.86 19.24 257.35 16.45 257.67 14.95 244.61 17.76 244.29 27.64 243.15 39.76 241.76 54.49 240.09 54.52 240.09 173.23 226.5 178.02 225.96 296.05 212.46 305 211.44 308.75 211.01 310.23 224.06"/><path class="cls-17" d="M172.47,176c.2,1.74-6.68,4-15.51,5.09l-.91.1-1.17.12c-8.73.88-15.8.26-16-1.47s7.14-4.12,16.42-5.19S172.26,174.23,172.47,176Z"/></g><g id="Forreste_arm" data-name="Forreste arm"><path class="cls-15" d="M303.07,749.46a10.44,10.44,0,0,0,6.75.84c2.74-.71,5-2.82,7.24-4.45.51-.38,0-1.25-.51-.87-4.11,3-7.62,5.92-13,3.62-.59-.25-1.1.61-.51.86Z"/><path class="cls-15" d="M306.11,747a8,8,0,0,0,5.64-1.8c.5-.4-.21-1.11-.71-.71a7,7,0,0,1-4.93,1.51c-.64,0-.64,1,0,1Z"/><path class="cls-1" d="M321.71,744.54h0a15.34,15.34,0,0,1-20.47,7.27L156.76,682.62l6.61-13.91Z"/><path class="cls-1" d="M381.7,668.39l5.57,5.58a3.42,3.42,0,0,1,0,4.81l-69.81,70.06L306.6,738l69.31-69.56A4.07,4.07,0,0,1,381.7,668.39Z"/><rect class="cls-1" x="381.43" y="639.72" width="10.33" height="25.35" rx="3.23" transform="translate(574.54 -82.28) rotate(45)"/><rect class="cls-1" x="389.88" y="648.17" width="10.33" height="25.35" rx="3.23" transform="translate(582.99 -85.78) rotate(45)"/><rect class="cls-1" x="370.01" y="660.28" width="34.52" height="16.66" rx="4.63" transform="translate(586.21 -78.01) rotate(45)"/><rect class="cls-1" x="398.32" y="656.62" width="10.33" height="25.35" rx="3.23" transform="translate(591.44 -89.28) rotate(45)"/><path class="cls-15" d="M405,666.73a17.79,17.79,0,0,0,1.8,1.78c.49.41,1.2-.29.71-.71a16.81,16.81,0,0,1-1.8-1.78c-.43-.48-1.13.23-.71.71Z"/><path class="cls-15" d="M397,657.15a15,15,0,0,0,1.8,1.77c.48.42,1.2-.29.7-.7a17.79,17.79,0,0,1-1.8-1.78c-.42-.48-1.13.23-.7.71Z"/><path class="cls-15" d="M389,647.57a18.8,18.8,0,0,0,1.8,1.77c.49.42,1.2-.29.71-.71a15.83,15.83,0,0,1-1.8-1.77c-.43-.48-1.13.23-.71.71Z"/></g><path id="Skygge" class="cls-18" d="M173.23,179.26V900.12l-9.58,61h-3.4v6.61a9.38,9.38,0,0,1-9.34,9.36h-9.84a9.4,9.4,0,0,1-9.36-9.36v-6.61h-4.79l9.62-62.54a16,16,0,0,0-.29-2.67l-26-71.25a24.9,24.9,0,0,1-16.08-23.22V623.54A24.88,24.88,0,0,1,119,598.73h40.08a19.54,19.54,0,0,1,8.69,2l3.38,1.69V586.72c-.43.06-.86.13-1.29.17A41.58,41.58,0,0,1,138,577.2a41.79,41.79,0,0,1-73.46-12.46A42.21,42.21,0,0,1,55.12,567a41.78,41.78,0,0,1-37.41-67.54,41.71,41.71,0,0,1-9.9-54.15,29.41,29.41,0,0,1,8.89-21.68,37.08,37.08,0,0,1-.62-3.82,41.43,41.43,0,0,1,5.65-26.16h0c-.19-.92-.33-1.83-.44-2.77a29.38,29.38,0,0,1,3.37-17.44,32.34,32.34,0,0,1-1.47-39.62,29.57,29.57,0,0,1-1.89-21.84,29.57,29.57,0,0,1,1.52-31.83A28.76,28.76,0,0,1,21,272.73a27.83,27.83,0,0,1-.19-3.27h-.18l-1.39-12.12-2.79.32L15,244.61l2.81-.32A48,48,0,0,1,60,192.21l94.87-10.86c-8.73.88-15.8.26-16-1.47s7.14-4.12,16.42-5.19,17-.46,17.17,1.35-6.68,4-15.51,5.09Z"/></g></g></svg>
