<svg id="Spilskærm" xmlns="http://www.w3.org/2000/svg" width="1920" height="1080" viewBox="0 0 1920 1080"><defs><style>.cls-1{fill:#447ec2;}.cls-2{fill:#733101;}.cls-3{fill:#bd733b;}.cls-4{fill:#734727;}.cls-5{fill:#975f34;}.cls-6{fill:#ca7f45;}</style></defs><title>forgrund</title><path class="cls-1" d="M1921,1080l-1-98V851s-82.66,36.69-128.69,43.33a120.28,120.28,0,0,1-43.78-1.66C1687.39,879,1619.1,842,1540,842c-92,0-181.13,39.84-245.85,57.79A120.59,120.59,0,0,1,1235,901c-60.42-13.87-129.28-51-209-51-71.64,0-143.53,35.58-200.19,47a119.25,119.25,0,0,1-51.69-1C712.26,880.9,640.35,843,557,843c-72.34,0-144.82,35.71-201.83,47.29a120.7,120.7,0,0,1-49.61-.16C246.76,877.41,0,848,0,848v232Z"/><g id="Ben_bagerst" data-name="Ben bagerst"><path class="cls-2" d="M486,627.5c0-4.69-7.61-8.5-17-8.5s-17,3.81-17,8.5a4.23,4.23,0,0,0,.05.5H452V776h34V628H486A4.23,4.23,0,0,0,486,627.5Z"/><ellipse class="cls-3" cx="469" cy="627.5" rx="11" ry="5.5"/><path class="cls-2" d="M277,761.5c0-4.69-7.61-8.5-17-8.5s-17,3.81-17,8.5a4.23,4.23,0,0,0,.05.5H243V910h34V762H277A4.23,4.23,0,0,0,277,761.5Z"/><ellipse class="cls-3" cx="260" cy="761.5" rx="11" ry="5.5"/><path class="cls-2" d="M59,901.5c0-4.69-7.61-8.5-17-8.5s-17,3.81-17,8.5a4.23,4.23,0,0,0,.05.5H25v148H59V902h0A4.23,4.23,0,0,0,59,901.5Z"/><ellipse class="cls-3" cx="42" cy="901.5" rx="11" ry="5.5"/></g><polygon class="cls-4" points="737.23 776 419 727.54 419 698.46 737.23 746.92 737.23 776"/><polygon class="cls-5" points="782.46 719.46 737.23 746.92 737.23 776 782.46 748.54 782.46 719.46"/><polygon class="cls-6" points="464.23 671 782.46 719.46 737.23 746.92 419 698.46 464.23 671"/><polygon class="cls-4" points="688.23 808 370 759.54 370 730.46 688.23 778.92 688.23 808"/><polygon class="cls-5" points="733.46 751.46 688.23 778.92 688.23 808 733.46 780.54 733.46 751.46"/><polygon class="cls-6" points="415.23 703 733.46 751.46 688.23 778.92 370 730.46 415.23 703"/><polygon class="cls-4" points="638.23 840 320 791.54 320 762.46 638.23 810.92 638.23 840"/><polygon class="cls-5" points="683.46 783.46 638.23 810.92 638.23 840 683.46 812.54 683.46 783.46"/><polygon class="cls-6" points="365.23 735 683.46 783.46 638.23 810.92 320 762.46 365.23 735"/><polygon class="cls-4" points="588.23 872 270 823.54 270 794.46 588.23 842.92 588.23 872"/><polygon class="cls-5" points="633.46 815.46 588.23 842.92 588.23 872 633.46 844.54 633.46 815.46"/><polygon class="cls-6" points="315.23 767 633.46 815.46 588.23 842.92 270 794.46 315.23 767"/><polygon class="cls-4" points="537.23 905 219 856.54 219 827.46 537.23 875.92 537.23 905"/><polygon class="cls-5" points="582.46 848.46 537.23 875.92 537.23 905 582.46 877.54 582.46 848.46"/><polygon class="cls-6" points="264.23 800 582.46 848.46 537.23 875.92 219 827.46 264.23 800"/><polygon class="cls-4" points="487.23 936 169 887.54 169 858.46 487.23 906.92 487.23 936"/><polygon class="cls-5" points="532.46 879.46 487.23 906.92 487.23 936 532.46 908.54 532.46 879.46"/><polygon class="cls-6" points="214.23 831 532.46 879.46 487.23 906.92 169 858.46 214.23 831"/><polygon class="cls-4" points="438.23 968 120 919.54 120 890.46 438.23 938.92 438.23 968"/><polygon class="cls-5" points="483.46 911.46 438.23 938.92 438.23 968 483.46 940.54 483.46 911.46"/><polygon class="cls-6" points="165.23 863 483.46 911.46 438.23 938.92 120 890.46 165.23 863"/><polygon class="cls-4" points="388.23 1000 70 951.54 70 922.46 388.23 970.92 388.23 1000"/><polygon class="cls-5" points="433.46 943.46 388.23 970.92 388.23 1000 433.46 972.54 433.46 943.46"/><polygon class="cls-6" points="115.23 895 433.46 943.46 388.23 970.92 70 922.46 115.23 895"/><polygon class="cls-4" points="338.23 1032 20 983.54 20 954.46 338.23 1002.92 338.23 1032"/><polygon class="cls-5" points="383.46 975.46 338.23 1002.92 338.23 1032 383.46 1004.54 383.46 975.46"/><polygon class="cls-6" points="65.23 927 383.46 975.46 338.23 1002.92 20 954.46 65.23 927"/><polygon class="cls-4" points="287.23 1065 -31 1016.54 -31 987.46 287.23 1035.92 287.23 1065"/><polygon class="cls-5" points="332.46 1008.46 287.23 1035.92 287.23 1065 332.46 1037.54 332.46 1008.46"/><polygon class="cls-6" points="14.23 960 332.46 1008.46 287.23 1035.92 -31 987.46 14.23 960"/><polygon class="cls-4" points="236.23 1098 -82 1049.54 -82 1020.46 236.23 1068.92 236.23 1098"/><polygon class="cls-5" points="281.46 1041.46 236.23 1068.92 236.23 1098 281.46 1070.54 281.46 1041.46"/><polygon class="cls-6" points="-36.77 993 281.46 1041.46 236.23 1068.92 -82 1020.46 -36.77 993"/><polygon class="cls-4" points="187.23 1130 -131 1081.54 -131 1052.46 187.23 1100.92 187.23 1130"/><polygon class="cls-5" points="232.46 1073.46 187.23 1100.92 187.23 1130 232.46 1102.54 232.46 1073.46"/><polygon class="cls-6" points="-85.77 1025 232.46 1073.46 187.23 1100.92 -131 1052.46 -85.77 1025"/><polygon class="cls-6" points="182.46 1105.46 137.23 1132.92 -146 1089.79 -146 1063.21 -135.77 1057 182.46 1105.46"/><path class="cls-2" d="M799,676.5c0-4.69-7.61-8.5-17-8.5s-17,3.81-17,8.5a4.23,4.23,0,0,0,0,.5h0V825h34V677h0A4.23,4.23,0,0,0,799,676.5Z"/><ellipse class="cls-3" cx="782" cy="676.5" rx="11" ry="5.5"/><path class="cls-2" d="M601,805.5c0-4.69-7.61-8.5-17-8.5s-17,3.81-17,8.5a4.23,4.23,0,0,0,0,.5h0V954h34V806h0A4.23,4.23,0,0,0,601,805.5Z"/><ellipse class="cls-3" cx="584" cy="805.5" rx="11" ry="5.5"/><path class="cls-2" d="M401,933.5c0-4.69-7.61-8.5-17-8.5s-17,3.81-17,8.5a4.23,4.23,0,0,0,.05.5H367v148h34V934H401A4.23,4.23,0,0,0,401,933.5Z"/><ellipse class="cls-3" cx="384" cy="933.5" rx="11" ry="5.5"/><path class="cls-2" d="M186,1073H186v92H152v-92h.05a4.23,4.23,0,0,1-.05-.5c0-4.69,7.61-8.5,17-8.5s17,3.81,17,8.5A4.23,4.23,0,0,1,186,1073Z"/><ellipse class="cls-3" cx="169" cy="1072.5" rx="11" ry="5.5"/></svg>
