<svg xmlns="http://www.w3.org/2000/svg" width="1470" height="830" viewBox="0 0 1470 830"><defs><style>.cls-1{fill:#1c63b2;}.cls-2{fill:#b0d5ff;}.cls-3{fill:#ff911e;}.cls-4{fill:#b06315;}.cls-5{fill:#136641;}.cls-6{fill:#1d9660;}.cls-7{fill:#22b573;}.cls-8{fill:#156e46;}</style></defs><title>game_over</title><g id="Game_over" data-name="Game over"><rect class="cls-1" x="5.31" width="1458.24" height="830" rx="28.89"/><path class="cls-2" d="M291.3,165.25h34v49a79,79,0,0,1-23.86,10.94A98.53,98.53,0,0,1,274.73,229q-18.56,0-33.3-7.71a57.5,57.5,0,0,1-23.11-21.53A59.45,59.45,0,0,1,210,168.4a59.47,59.47,0,0,1,8.37-31.4,57.19,57.19,0,0,1,23.36-21.54q15-7.69,33.88-7.7,17.07,0,30.57,5.71a57.51,57.51,0,0,1,22.45,16.66l-25,22q-10.94-12.75-26-12.76-12.93,0-20.55,7.79t-7.62,21.21q0,13.1,7.54,21t20.13,7.95a36.8,36.8,0,0,0,14.25-2.81Z"/><path class="cls-2" d="M421,206.17H377l-7.79,20.22H329.41l50.7-116h38.44l50.7,116H428.82ZM410.26,178,399,148.85,387.73,178Z"/><path class="cls-2" d="M579.1,226.39l-.34-52.85L553.58,216H536.35l-25.18-40.59v51H475.54v-116h32.15l37.77,61.8,36.78-61.8h32.15l.33,116Z"/><path class="cls-2" d="M730,196.9v29.49H633.61v-116h94.27V139.9H672v13.59h49.05v28.16H672V196.9Z"/><path class="cls-2" d="M822,221.25a59.45,59.45,0,0,1,0-105.71q14.91-7.79,33.63-7.78t33.63,7.78a59.45,59.45,0,0,1,0,105.71Q874.34,229,855.62,229T822,221.25Zm46.8-27.42a25.45,25.45,0,0,0,9.36-10.11,35.48,35.48,0,0,0,0-30.65,25.48,25.48,0,0,0-9.36-10.1,26.08,26.08,0,0,0-26.34,0,25.48,25.48,0,0,0-9.36,10.1,35.48,35.48,0,0,0,0,30.65,25.45,25.45,0,0,0,9.36,10.11,26.14,26.14,0,0,0,26.34,0Z"/><path class="cls-2" d="M1055.1,110.41l-49,116H967.62l-49-116h42.08l27.67,67.76,28.34-67.76Z"/><path class="cls-2" d="M1155.34,196.9v29.49h-96.42v-116h94.27V139.9h-55.84v13.59h49.05v28.16h-49.05V196.9Z"/><path class="cls-2" d="M1220.12,197.23h-10.6v29.16h-39.1v-116h55.83q16.08,0,28,5.3a40.1,40.1,0,0,1,24.86,38.44q0,12.42-5.64,21.7a39.73,39.73,0,0,1-16.23,14.75l24.35,35.79h-41.75Zm15.58-53.1q-4-3.57-11.93-3.57h-14.25v27.18h14.25q7.95,0,11.93-3.57t4-10Q1239.67,147.69,1235.7,144.13Z"/><path class="cls-3" d="M1295.35,427s133-19.74,50.63-44.42S1295.35,427,1295.35,427Z"/><path class="cls-4" d="M1295.64,427s44.48-73.82-43.13-42.55S1295.64,427,1295.64,427Z"/><path class="cls-3" d="M1463.55,445v195.6c-11.71,8.6-24,17.14-36.73,25.46-31.55,20.6-66.12,39.86-102.9,55.4l-2.34,1q-13.8,5.75-28,10.75l-.09,0c-10.09,3.54-20.31,6.79-30.68,9.67-197.08,54.85-151.69-163-151.69-163s139.33-.71,123.43-50.68c0,0-89.18,48.06-115.93-13.19l21.77-67.41c.33-1,.63-2.05.86-3.09,1.06-4.76,9.18-27.11,68.3-19.63a17.85,17.85,0,0,0,3,.13c6.42-.29,33.12-1.3,70.68-.37,3.77.1,7.65.21,11.64.35l1.3,0,4.34.16C1347.15,428,1406.28,432.88,1463.55,445Z"/><path class="cls-4" d="M1322.79,723.11a1,1,0,0,1-.45,0,1.12,1.12,0,0,1-.8-1.37c11.66-44.29,16.58-87.29,14.64-127.8a319.87,319.87,0,0,0-17.61-91.77,259.06,259.06,0,0,0-27.16-55.35,143.58,143.58,0,0,0-14-18.47,1.12,1.12,0,1,1,1.61-1.55c.25.26,6.14,6.45,14.27,18.79a261.88,261.88,0,0,1,27.4,55.83,322.2,322.2,0,0,1,17.73,92.42c1.95,40.73-3,84-14.71,128.47A1.09,1.09,0,0,1,1322.79,723.11Z"/><path class="cls-4" d="M1463.55,689.75c-21.46-12.53-9.75-41.79-9.75-41.79-7.91,5.93-17.08,12-26.93,18l0,0c-33.36,20.45-74.66,40.54-102.37,53.33l-2.61,1.2c-15.82,7.28-26.68,11.94-28.17,12.57l-.18.08c51.18,51.56,124.4,20.55,170.06-8.09Z"/><path class="cls-4" d="M1350,605.9a1.14,1.14,0,0,1-.45,0,1.12,1.12,0,0,1-.8-1.37c12.73-48.37-11-74.11-11.22-74.36a1.12,1.12,0,0,1,1.62-1.54c.26.27,6.35,6.79,10.88,19.53,4.16,11.7,7.69,31.07.88,56.94A1.11,1.11,0,0,1,1350,605.9Z"/><path class="cls-4" d="M1363.93,595.51a1.11,1.11,0,0,1-1.24-1.42c5.81-19.84,3.13-34.58-.15-43.46C1359,541,1354,536,1354,536a1.12,1.12,0,1,1,1.57-1.59c.2.21,20.83,21.07,9.31,60.36A1.11,1.11,0,0,1,1363.93,595.51Z"/><rect x="1199.27" y="622.19" width="14.99" height="91.32" rx="4.1" transform="translate(630.34 -585.16) rotate(36.34)"/><rect x="1199.27" y="622.19" width="14.99" height="91.32" rx="4.1" transform="translate(-46.25 1244.27) rotate(-53.66)"/><path class="cls-5" d="M305,468.63c-39.56,28.64,29.63,34.1,29.63,34.1S344.51,440,305,468.63Z"/><path class="cls-6" d="M347.35,464.63c-45.13-.33-12.89,38.16-12.89,38.16S392.48,465,347.35,464.63Z"/><path class="cls-7" d="M551.49,567.74c-4.91,14-26.57,52.42-121.11,95.89l-.51.24q-10,4.61-21.1,9.25l-2.06.86q-5.93,2.44-12.12,4.86l-.24.08c-41.43,16-91.47,29.82-144.1,40.33l-.25,0C166.88,735.88,77.36,744.22,5.31,739.94V632.4c74.8-53.07,187-113.78,324.08-130.23l4.18-.49,1.2-.14,1.83-.2A600.17,600.17,0,0,1,525.67,511a13.19,13.19,0,0,1,4.84,2.11c5.57,3.91,18.92,14.3,16.71,22.67,0,0-19.45,12.83-46.17,2.25.67.58,23.51,20.08,48.21,17.93C553.55,555.53,552.92,563.68,551.49,567.74Z"/><path class="cls-5" d="M288.5,732.35S270.32,765,247.1,767c0,0-21.17-2.94,2.9-47.71,0,0,13-.5,37.29-7.38S288.5,732.35,288.5,732.35Z"/><path class="cls-6" d="M408.77,673.12S407.56,745,383,747.41s-71.18,10.83-133.45-28.58C249.58,718.83,363.36,693.35,408.77,673.12Z"/><path class="cls-8" d="M386.06,498.19a.89.89,0,0,1,.51,0,.88.88,0,0,1,.56,1.12c-9.06,27.16-12.43,52.63-10,75.7a120.11,120.11,0,0,0,16.69,50.38C409.37,651,430,662.1,430.18,662.21a.89.89,0,0,1-.83,1.57c-.21-.11-21.24-11.5-37.05-37.44a122.06,122.06,0,0,1-16.94-51.12c-2.45-23.33.95-49.05,10.09-76.45A.91.91,0,0,1,386.06,498.19Z"/><path class="cls-8" d="M365.09,569.71a.88.88,0,0,1,1.07,1.14c-4.05,12.15-3.47,23.07,1.68,31.58a27.41,27.41,0,0,0,9.14,9.33.88.88,0,0,1,.35,1.2.89.89,0,0,1-1.2.36,28.85,28.85,0,0,1-9.76-9.89c-3.82-6.27-7.25-17.1-1.89-33.15A.87.87,0,0,1,365.09,569.71Z"/><path class="cls-8" d="M353.46,577.64a.91.91,0,0,1,.54,0,.88.88,0,0,1,.52,1.14c-8.62,23.11,7.69,31.52,8.39,31.87a.9.9,0,0,1,.4,1.19.89.89,0,0,1-1.19.4c-.18-.09-18.46-9.43-9.26-34.08A.89.89,0,0,1,353.46,577.64Z"/><rect x="454.56" y="554.7" width="11.9" height="72.47" rx="3.25" transform="translate(357.38 -151.11) rotate(30.02)"/><rect x="454.56" y="554.7" width="11.9" height="72.47" rx="3.25" transform="translate(-281.54 694.07) rotate(-59.98)"/></g></svg>
