<svg xmlns="http://www.w3.org/2000/svg" xmlns:xlink="http://www.w3.org/1999/xlink" width="1920" height="1080" viewBox="0 0 1920 1080"><defs><style>.cls-1{fill:#8ac0ff;}.cls-2{fill:url(#radial-gradient);}.cls-3{fill:#5aa6ff;}.cls-4{fill:#4e90de;}.cls-5{fill:#447ec2;}.cls-6{fill:#733101;}.cls-7{fill:#bd733b;}.cls-8{fill:#734727;}.cls-9{fill:#975f34;}.cls-10{fill:#ca7f45;}.cls-11{fill:#e0bda7;}.cls-12{fill:#123f70;}.cls-13{fill:#39b34a;}.cls-14{fill:#88ff98;}.cls-15{fill:#16882d;}.cls-16,.cls-17,.cls-19,.cls-22,.cls-24{fill:none;stroke-miterlimit:10;}.cls-16,.cls-17,.cls-24{stroke:#603813;}.cls-16{stroke-width:1.47px;}.cls-17,.cls-19{stroke-linecap:round;}.cls-17{stroke-width:4.41px;}.cls-18{fill:#fff;}.cls-19{stroke:#000;}.cls-19,.cls-24{stroke-width:0.73px;}.cls-20{fill:#a47d65;}.cls-21{fill:#ff7baa;}.cls-22{stroke:#754c24;stroke-width:2.2px;}.cls-23{fill:#603813;}.cls-25{fill:#d7b09a;}.cls-26{fill:#38a84e;}.cls-27{fill:#247033;}.cls-28{opacity:0.1;}</style><radialGradient id="radial-gradient" cx="233.5" cy="180.5" r="102.5" gradientUnits="userSpaceOnUse"><stop offset="0" stop-color="#f5911e"/><stop offset="1" stop-color="#ffe65c"/></radialGradient></defs><title>game_screen_instructions</title><g id="Game_rules" data-name="Game rules"><rect class="cls-1" y="-2" width="1921" height="592"/><circle class="cls-2" cx="233.5" cy="180.5" r="102.5"/><path class="cls-3" d="M1920,702c-67.14,30.09-164,44-288,44-77,0-156.55,41.4-215.78,28.39a114,114,0,0,0-53.32,1C1299.31,792,1226.26,753,1138,753c-76.73,0-148-7.54-207.09-20.46a113.66,113.66,0,0,0-54.19,1.26C812.29,751.39,729,762,638,762c-84.64,0-162.64-9.18-225-24.62A115.25,115.25,0,0,0,364.08,736C309.64,746.17,246.43,752,179,752c-32.06,0-99.82-17.94-179-40V529.55C55.09,519,110.36,513,179,513c84.64,0,166.64,42.18,229,57.62A115.25,115.25,0,0,0,456.92,572c54.44-10.17,113.65-49,181.08-49,76.73,0,152,40.54,211.09,53.46a113.66,113.66,0,0,0,54.19-1.26C967.71,557.61,1047,514,1138,514c77,0,152.55,40.6,211.78,53.61a114,114,0,0,0,53.32-1C1466.69,550,1543.74,507,1632,507c116.36,0,220.17,17.51,288,44.77V702"/><path class="cls-4" d="M0,712c29.27,5.63,122.16,24.31,151.72,20.5C194.17,727,242.49,675,291,675c72.95,0,139,55.82,196.27,67.59a281.13,281.13,0,0,0,118-1.33C665.08,727.86,739.7,671,818,671c61.91,0,118.27,53.91,169.54,62.59a278.94,278.94,0,0,0,86.52.77C1120.15,727.7,1173.24,675,1227,675c75.81,0,144.29,56.36,203,69a278.58,278.58,0,0,0,120.69-1.15C1611,729.09,1686.55,672,1766,672c102.17,0,138.67,9.37,154,30V876c-13.78,23.66-48.14,35-154,35-75.81,0-146.29-7.36-205-20a278.58,278.58,0,0,0-120.69,1.15C1380.05,905.91,1306.45,914,1227,914c-61.91,0-120.27-4.91-171.54-13.59a278.94,278.94,0,0,0-86.52-.77A1064.22,1064.22,0,0,1,818,910c-73,0-141-6.82-198.27-18.59a281.13,281.13,0,0,0-118,1.33C441.92,906.14,369.3,914,291,914c-69,0-133.63-6.1-188.93-16.73C72.8,891.64,29.56,893.18,0,897Z"/><path class="cls-5" d="M1921,1080l-1-98V851s-82.66,36.69-128.69,43.33a120.28,120.28,0,0,1-43.78-1.66C1687.39,879,1619.1,842,1540,842c-92,0-181.13,39.84-245.85,57.79A120.59,120.59,0,0,1,1235,901c-60.42-13.87-129.28-51-209-51-71.64,0-143.53,35.58-200.19,47a119.25,119.25,0,0,1-51.69-1C712.26,880.9,640.35,843,557,843c-72.34,0-144.82,35.71-201.83,47.29a120.7,120.7,0,0,1-49.61-.16C246.76,877.41,0,848,0,848v232Z"/><g id="Ben_bagerst" data-name="Ben bagerst"><path class="cls-6" d="M486,627.5c0-4.69-7.61-8.5-17-8.5s-17,3.81-17,8.5a4.23,4.23,0,0,0,.05.5H452V776h34V628H486A4.23,4.23,0,0,0,486,627.5Z"/><ellipse class="cls-7" cx="469" cy="627.5" rx="11" ry="5.5"/><path class="cls-6" d="M277,761.5c0-4.69-7.61-8.5-17-8.5s-17,3.81-17,8.5a4.23,4.23,0,0,0,.05.5H243V910h34V762H277A4.23,4.23,0,0,0,277,761.5Z"/><ellipse class="cls-7" cx="260" cy="761.5" rx="11" ry="5.5"/><path class="cls-6" d="M59,901.5c0-4.69-7.61-8.5-17-8.5s-17,3.81-17,8.5a4.23,4.23,0,0,0,.05.5H25v148H59V902h0A4.23,4.23,0,0,0,59,901.5Z"/><ellipse class="cls-7" cx="42" cy="901.5" rx="11" ry="5.5"/></g><polygon class="cls-8" points="737.23 776 419 727.54 419 698.46 737.23 746.92 737.23 776"/><polygon class="cls-9" points="782.46 719.46 737.23 746.92 737.23 776 782.46 748.54 782.46 719.46"/><polygon class="cls-10" points="464.23 671 782.46 719.46 737.23 746.92 419 698.46 464.23 671"/><polygon class="cls-8" points="688.23 808 370 759.54 370 730.46 688.23 778.92 688.23 808"/><polygon class="cls-9" points="733.46 751.46 688.23 778.92 688.23 808 733.46 780.54 733.46 751.46"/><polygon class="cls-10" points="415.23 703 733.46 751.46 688.23 778.92 370 730.46 415.23 703"/><polygon class="cls-8" points="638.23 840 320 791.54 320 762.46 638.23 810.92 638.23 840"/><polygon class="cls-9" points="683.46 783.46 638.23 810.92 638.23 840 683.46 812.54 683.46 783.46"/><polygon class="cls-10" points="365.23 735 683.46 783.46 638.23 810.92 320 762.46 365.23 735"/><polygon class="cls-8" points="588.23 872 270 823.54 270 794.46 588.23 842.92 588.23 872"/><polygon class="cls-9" points="633.46 815.46 588.23 842.92 588.23 872 633.46 844.54 633.46 815.46"/><polygon class="cls-10" points="315.23 767 633.46 815.46 588.23 842.92 270 794.46 315.23 767"/><polygon class="cls-8" points="537.23 905 219 856.54 219 827.46 537.23 875.92 537.23 905"/><polygon class="cls-9" points="582.46 848.46 537.23 875.92 537.23 905 582.46 877.54 582.46 848.46"/><polygon class="cls-10" points="264.23 800 582.46 848.46 537.23 875.92 219 827.46 264.23 800"/><polygon class="cls-8" points="487.23 936 169 887.54 169 858.46 487.23 906.92 487.23 936"/><polygon class="cls-9" points="532.46 879.46 487.23 906.92 487.23 936 532.46 908.54 532.46 879.46"/><polygon class="cls-10" points="214.23 831 532.46 879.46 487.23 906.92 169 858.46 214.23 831"/><polygon class="cls-8" points="438.23 968 120 919.54 120 890.46 438.23 938.92 438.23 968"/><polygon class="cls-9" points="483.46 911.46 438.23 938.92 438.23 968 483.46 940.54 483.46 911.46"/><polygon class="cls-10" points="165.23 863 483.46 911.46 438.23 938.92 120 890.46 165.23 863"/><polygon class="cls-8" points="388.23 1000 70 951.54 70 922.46 388.23 970.92 388.23 1000"/><polygon class="cls-9" points="433.46 943.46 388.23 970.92 388.23 1000 433.46 972.54 433.46 943.46"/><polygon class="cls-10" points="115.23 895 433.46 943.46 388.23 970.92 70 922.46 115.23 895"/><polygon class="cls-8" points="338.23 1032 20 983.54 20 954.46 338.23 1002.92 338.23 1032"/><polygon class="cls-9" points="383.46 975.46 338.23 1002.92 338.23 1032 383.46 1004.54 383.46 975.46"/><polygon class="cls-10" points="65.23 927 383.46 975.46 338.23 1002.92 20 954.46 65.23 927"/><polygon class="cls-8" points="287.23 1065 -31 1016.54 -31 987.46 287.23 1035.92 287.23 1065"/><polygon class="cls-9" points="332.46 1008.46 287.23 1035.92 287.23 1065 332.46 1037.54 332.46 1008.46"/><polygon class="cls-10" points="14.23 960 332.46 1008.46 287.23 1035.92 -31 987.46 14.23 960"/><polygon class="cls-8" points="236.23 1098 -82 1049.54 -82 1020.46 236.23 1068.92 236.23 1098"/><polygon class="cls-9" points="281.46 1041.46 236.23 1068.92 236.23 1098 281.46 1070.54 281.46 1041.46"/><polygon class="cls-10" points="-36.77 993 281.46 1041.46 236.23 1068.92 -82 1020.46 -36.77 993"/><polygon class="cls-8" points="187.23 1130 -131 1081.54 -131 1052.46 187.23 1100.92 187.23 1130"/><polygon class="cls-9" points="232.46 1073.46 187.23 1100.92 187.23 1130 232.46 1102.54 232.46 1073.46"/><polygon class="cls-10" points="-85.77 1025 232.46 1073.46 187.23 1100.92 -131 1052.46 -85.77 1025"/><polygon class="cls-10" points="182.46 1105.46 137.23 1132.92 -146 1089.79 -146 1063.21 -135.77 1057 182.46 1105.46"/><path class="cls-6" d="M799,676.5c0-4.69-7.61-8.5-17-8.5s-17,3.81-17,8.5a4.23,4.23,0,0,0,0,.5h0V825h34V677h0A4.23,4.23,0,0,0,799,676.5Z"/><ellipse class="cls-7" cx="782" cy="676.5" rx="11" ry="5.5"/><path class="cls-6" d="M601,805.5c0-4.69-7.61-8.5-17-8.5s-17,3.81-17,8.5a4.23,4.23,0,0,0,0,.5h0V954h34V806h0A4.23,4.23,0,0,0,601,805.5Z"/><ellipse class="cls-7" cx="584" cy="805.5" rx="11" ry="5.5"/><path class="cls-6" d="M401,933.5c0-4.69-7.61-8.5-17-8.5s-17,3.81-17,8.5a4.23,4.23,0,0,0,.05.5H367v148h34V934H401A4.23,4.23,0,0,0,401,933.5Z"/><ellipse class="cls-7" cx="384" cy="933.5" rx="11" ry="5.5"/><path class="cls-6" d="M186,1073H186v92H152v-92h.05a4.23,4.23,0,0,1-.05-.5c0-4.69,7.61-8.5,17-8.5s17,3.81,17,8.5A4.23,4.23,0,0,1,186,1073Z"/><ellipse class="cls-7" cx="169" cy="1072.5" rx="11" ry="5.5"/><g id="Figur"><rect id="Hals" class="cls-11" x="205.38" y="699.56" width="20.01" height="47.6"/><g id="Bagerste_arm" data-name="Bagerste arm"><path class="cls-11" d="M321.54,794.52h0c-2.69,5.64-7.39,9-10.5,7.51l-58.73-28.21,4.86-10.21Z"/><path class="cls-11" d="M354.75,765.66l3,5c.71,1.18.6,2.54-.23,3.05l-44.2,26.58-5.79-9.7,43.88-26.4C352.38,763.57,353.89,764.23,354.75,765.66Z"/><rect class="cls-11" x="357.31" y="744.4" width="7.59" height="18.63" rx="2.38" transform="matrix(0.56, 0.83, -0.83, 0.56, 779.2, 30.06)"/><rect class="cls-11" x="362.26" y="751.65" width="7.59" height="18.63" rx="2.38" transform="translate(787.34 29.13) rotate(55.62)"/><rect class="cls-11" x="346.72" y="759.4" width="25.37" height="12.24" rx="3.4" transform="translate(788.2 36.61) rotate(55.62)"/><rect class="cls-11" x="367.22" y="758.89" width="7.59" height="18.63" rx="2.38" transform="translate(795.48 28.19) rotate(55.62)"/></g><g id="Højre_ben" data-name="Højre ben"><path class="cls-11" d="M232.73,986h21a0,0,0,0,1,0,0v10.95a4.31,4.31,0,0,1-4.31,4.31H237a4.31,4.31,0,0,1-4.31-4.31V986A0,0,0,0,1,232.73,986Z"/><path class="cls-12" d="M256.2,989.52h-27l7.07-45.95a12.77,12.77,0,0,0-.21-2l-19.76-54.18h51.63L263.31,943a14.43,14.43,0,0,0,0,1.61Z"/></g><g id="Venstre_ben" data-name="Venstre ben"><path class="cls-11" d="M197.38,986v8.38a6.89,6.89,0,0,1-6.87,6.87h-7.23a6.89,6.89,0,0,1-6.87-6.87V986Z"/><path class="cls-12" d="M211.61,887.43l-.24,3L207,943a14.11,14.11,0,0,0-.05,1.6l0,.16-7,44.8h-27L180,943.57a10.69,10.69,0,0,0-.21-2l-19.1-52.36-.66-1.82Z"/></g><g id="Trøje"><path class="cls-13" d="M282,741.48v130.7A18.28,18.28,0,0,1,267.73,890a17.15,17.15,0,0,1-4,.46H167.05a18,18,0,0,1-6.41-1.17,18.31,18.31,0,0,1-11.82-17.07V741.48a18.29,18.29,0,0,1,18.23-18.24h29.46a14.26,14.26,0,0,1,6.38,1.51l2.49,1.24,1.54.76,3.52,1.76,2.63,1.32a5.5,5.5,0,0,0,5.17-.13l7.15-4,1.4-.79a12.53,12.53,0,0,1,6.19-1.63h30.73A18.29,18.29,0,0,1,282,741.48Z"/><path class="cls-14" d="M258.86,811.28h-6.69s-8.41-2.23-2.06-10.64h8.75Z"/><path class="cls-14" d="M246.85,807s-.18-4,1.2-5.49L254.4,791l2.58,1.54-3.61-9.1-10.13.86,1.89,1.2-3.78,7.39a6.13,6.13,0,0,0,0,5Z"/><path class="cls-14" d="M250.39,775.74l3.35-5.8s6.14-6.17,10.25,3.54l-4.38,7.58Z"/><path class="cls-14" d="M260.12,767.48s3.5,1.82,4.16,3.78L270.17,782l-2.63,1.46,9.68,1.43,4.33-9.21-2,1-4.5-7a6.12,6.12,0,0,0-4.32-2.49Z"/><path class="cls-14" d="M282,788.5v11c-.4,0-.83-.05-1.29-.1l-4.38-7.58Z"/><path class="cls-14" d="M282,800.69v8.45a6.27,6.27,0,0,1-3.6,1.66l-8.27.42-.11,2.23-5.8-8.34,6.07-7.67-.05,3Z"/><path class="cls-15" d="M173.65,749.92s-5.52,17.24,22.76,39.32L204,773.37s-20.69-5.52-22.07-23.45Z"/></g><g id="Fiskestang"><path class="cls-16" d="M423.42,617.32s13.06,21,18.82,12S423.42,617.32,423.42,617.32Z"/><path class="cls-17" d="M378.53,724.39S514,357.52,647.31,309.14s245.16,0,245.16,0"/><rect x="366.81" y="723.01" width="13.11" height="53.81" transform="translate(171.45 -63.1) rotate(12.52)"/><path class="cls-16" d="M476.53,511.77s13.07,21,18.82,12S476.53,511.77,476.53,511.77Z"/><path class="cls-16" d="M539.31,408.29s13.06,21,18.82,12S539.31,408.29,539.31,408.29Z"/><path class="cls-16" d="M618.43,324.79s5.3,24.18,13.73,17.6S618.43,324.79,618.43,324.79Z"/><path class="cls-16" d="M747.14,288.74s-7.31,23.66,3.27,22.09S747.14,288.74,747.14,288.74Z"/><path class="cls-16" d="M890,309.12s-16.78,18.2-6.55,21.34S890,309.12,890,309.12Z"/><rect x="379.81" y="746.98" width="28.97" height="4.83" transform="translate(174.87 -68.48) rotate(12.73)"/><circle cx="423.89" cy="756.14" r="17.25"/><circle class="cls-18" cx="420.92" cy="767.73" r="2.41"/><circle class="cls-18" cx="415.17" cy="765.02" r="2.41"/><circle class="cls-18" cx="412.19" cy="759.39" r="2.41"/><circle class="cls-18" cx="412.22" cy="753.03" r="2.41"/><circle class="cls-18" cx="415.03" cy="747.4" r="2.29"/><circle class="cls-18" cx="420.65" cy="744.43" r="2.29"/><circle class="cls-18" cx="427.01" cy="744.45" r="2.29"/><circle class="cls-18" cx="432.77" cy="747.17" r="2.29"/><circle class="cls-18" cx="435.74" cy="752.79" r="2.32"/><circle class="cls-18" cx="435.72" cy="759.15" r="2.29"/><circle class="cls-18" cx="433" cy="764.9" r="2.29"/><circle class="cls-18" cx="427.38" cy="767.87" r="2.29"/><path d="M937.16,417.38c1.67-3.87.34-5.25.34-5.25a2.2,2.2,0,0,0-3,0c-1.44,1.56.46,6.4.46,6.4v14a16,16,0,0,1-.29,2.88,6.66,6.66,0,0,1-7.43,4.49c-3.74-1.09-2.48-6.34-2.48-6.34a1.54,1.54,0,0,0,2.19.69c-2.36-3.45-1.32-9-1.32-9-4.72,8.24-3,13.19-3,13.19,1.5,5.12,7.72,3.69,7.72,3.69,6.73-2.31,6.51-7.9,6.51-7.9V418.76Zm-1.22-.58s-2-4,0-4S935.94,416.8,935.94,416.8Z"/><path class="cls-19" d="M937,415a1.35,1.35,0,0,1-1.38-1.38c0-51.35-52.15-86.53-52.15-86.53C800,366.41,749.66,307.14,749.66,307.14,722.75,380.26,630,340,630,340,638.24,428.3,556,418.62,556,418.62c26.9,71.05-63.37,103.27-63.37,103.27,33.8,74.5-52.8,105.61-52.8,105.61,28.28,86.23-4.42,140.7-4.42,140.7"/><path class="cls-16" d="M423.42,617.32s13.06,21,18.82,12c.12-.2.24-.4.34-.59"/><path class="cls-16" d="M476.53,511.77s13.07,21,18.82,12c.1-.15.19-.3.28-.46"/><path class="cls-16" d="M539.31,408.29s13.06,21,18.82,12l.17-.28"/><path class="cls-16" d="M618.43,324.79s5,23,13.1,18c.21-.13.42-.28.63-.44"/><path class="cls-16" d="M747.14,288.74s-7.31,23.66,3.27,22.09l.33-.06"/><path class="cls-16" d="M890,309.12s-16.78,18.2-6.55,21.34a5.68,5.68,0,0,0,.65.17"/></g><g id="Hoved"><path class="cls-11" d="M324.71,676.49,147.2,696.79a20.75,20.75,0,0,1-22.91-18.21L100,466.12a20.74,20.74,0,0,1,18.2-22.91l157-18a20.76,20.76,0,0,1,22.91,18.21l1.19,28.19.36,8.35.26,6.23v0l.05,1.16.1,2.51h0l.08,1.69.44,10.43.19,4.58,2.82,66.91.94,22,.08,2C304.48,614.92,360,669,324.71,676.49Z"/><circle class="cls-18" cx="228.78" cy="505.54" r="17.25"/><circle cx="236.32" cy="504.68" r="4.14"/><path class="cls-20" d="M243.76,496.89c.75,1.15-31.71,5-31.53,3.6.38-2.82,5.13-11,14.59-12.08S241.24,493,243.76,496.89Z"/><path class="cls-18" d="M300.34,490.36l.05,1.16.62,14.63a15.18,15.18,0,0,1-28.36-5.62,15,15,0,0,1,.54-6.11,15.2,15.2,0,0,1,4.22-6.76,5.34,5.34,0,0,1,.44-.39c.32-.28.66-.54,1-.79l.39-.27.49-.31a3.13,3.13,0,0,1,.36-.22l.42-.24.56-.29.21-.09.43-.2.12-.05.54-.21.61-.22.69-.21a16.71,16.71,0,0,1,2.32-.45c.29,0,.58-.06.87-.07l.79,0h.08a15.27,15.27,0,0,1,10.52,4.25,4,4,0,0,1,.29.3,14.11,14.11,0,0,1,1.67,2h0A.91.91,0,0,1,300.34,490.36Z"/><circle cx="294.36" cy="498.04" r="3.64"/><path class="cls-20" d="M300.34,490.35h0l.05,1.16c-3.76,1.23-26.33,3.81-27.2,2.9a.09.09,0,0,1,0-.06c.18-1.39,1.58-4.27,4.25-6.7a5.34,5.34,0,0,1,.44-.39c.32-.28.66-.54,1-.79l.39-.27.49-.31a3.13,3.13,0,0,1,.36-.22l.42-.24.56-.29.21-.09.43-.2.12-.05.54-.21.61-.22.69-.21a16.71,16.71,0,0,1,2.32-.45c.29,0,.58-.06.87-.07l.79,0h.08a14,14,0,0,1,10.52,4.25,4,4,0,0,1,.29.3,18.37,18.37,0,0,1,1.67,2h0Z"/><path class="cls-18" d="M303.56,573.53l.93,22a57,57,0,0,1-6.32,3.32,72.51,72.51,0,0,1-21.26,5.69,73.25,73.25,0,0,1-20.22-.42c-16.09-2.68-28-11-29.22-22l46.31-4.84Z"/><path class="cls-21" d="M298.17,598.85a72.51,72.51,0,0,1-21.26,5.69,73.25,73.25,0,0,1-20.22-.42c1.89-4.44,10-8.48,20.11-9.64C286.47,593.38,295,595.26,298.17,598.85Z"/><path class="cls-22" d="M262.6,528.06s.73,12.42,9.42,15.59,11.17,12.61-8.65,9.32"/><circle class="cls-23" cx="330.42" cy="650.49" r="30.7"/><path class="cls-23" d="M135.43,528.66a21.71,21.71,0,0,1-14,11.17,23.46,23.46,0,0,1-2.94.54,21.56,21.56,0,0,1-10.21-1.28,21.79,21.79,0,0,1-11.67-10.55,21.82,21.82,0,0,1-1.39-16A21.73,21.73,0,0,1,104,500.75a16.93,16.93,0,0,1,1.46-.91A21.74,21.74,0,0,1,134.91,508a21.65,21.65,0,0,1,.52,20.7Z"/><path class="cls-23" d="M134.91,508a21.67,21.67,0,0,1-18.33,15.27,21.43,21.43,0,0,1-10.21-1.29,12.28,12.28,0,0,1-1.46-.62,21.7,21.7,0,0,1-8.52-32.22,21.19,21.19,0,0,1,5.61-5.48,21.49,21.49,0,0,1,9.64-3.56,21.73,21.73,0,0,1,22.73,13.72,21.64,21.64,0,0,1,.54,14.18Z"/><path class="cls-23" d="M134.37,493.78a21.72,21.72,0,0,1-28.95,6.06c-.58-.36-1.16-.74-1.71-1.15a21.68,21.68,0,0,1-7.32-9.59,21,21,0,0,1-1.34-5.41A21.78,21.78,0,0,1,97,472a21.21,21.21,0,0,1,3.16-4.89,21.7,21.7,0,0,1,19.55-7.43h0a21.78,21.78,0,0,1,14.06,8.11,21.25,21.25,0,0,1,4.08,8.56,20.19,20.19,0,0,1,.41,2.39A21.52,21.52,0,0,1,134.37,493.78Z"/><circle class="cls-23" cx="295.51" cy="666.98" r="30.7"/><circle class="cls-23" cx="248.92" cy="678.56" r="30.7"/><path class="cls-23" d="M231.53,686.77l0,.39a30.65,30.65,0,0,1-4.4,13c-.53.85-1.09,1.68-1.7,2.47a30.49,30.49,0,0,1-14.95,10.64,28.81,28.81,0,0,1-3.52.91c-.51.09-1,.19-1.54.26l-.95.13a30.65,30.65,0,0,1-34-27,30.16,30.16,0,0,1,1.64-13.92c.08-.27.18-.53.29-.8a30.29,30.29,0,0,1,2.72-5.32c.37-.59.77-1.16,1.18-1.72a30.64,30.64,0,0,1,21.18-12.22,30,30,0,0,1,8.64.24c.27,0,.55.09.82.15a29.79,29.79,0,0,1,3.52.91,27.82,27.82,0,0,1,3.58,1.43,30.61,30.61,0,0,1,8.76,6.19c.11.1.21.22.32.33a26.39,26.39,0,0,1,2.42,2.85,30.31,30.31,0,0,1,5.92,14.91c0,.25.06.5.09.76,0,.5.07,1,.09,1.51A30.41,30.41,0,0,1,231.53,686.77Z"/><path class="cls-23" d="M187.1,689.18h0q0,1.54-.15,3.06a30.72,30.72,0,0,1-59.88,6,31.41,31.41,0,0,1-1.17-5.63,31,31,0,0,1,.11-7.89,30.75,30.75,0,0,1,20-24.49,30.68,30.68,0,0,1,29,4.46c.43.33.87.68,1.29,1a27,27,0,0,1,3.1,3,30.12,30.12,0,0,1,5,7.62,30.8,30.8,0,0,1,2.56,9.23A29.91,29.91,0,0,1,187.1,689.18Z"/><path class="cls-23" d="M147,674a30.81,30.81,0,0,1-12.31,20.24,30.35,30.35,0,0,1-7.62,4,30.7,30.7,0,1,1-13.91-59.38,30.73,30.73,0,0,1,15.57,2.28A30.76,30.76,0,0,1,146,660.26a31.63,31.63,0,0,1,1.17,5.65A30.34,30.34,0,0,1,147,674Z"/><path class="cls-23" d="M135.71,645.34a29,29,0,0,1-2.35,2.61,29.33,29.33,0,0,1-4.42,3.66,29.76,29.76,0,0,1-7.31,3.65,30.7,30.7,0,1,1-13.41-59.55,29,29,0,0,1,5.09-.15h0c.51,0,1,.06,1.49.1a30.78,30.78,0,0,1,24.77,17.7,29.94,29.94,0,0,1,2.26,7c.15.76.27,1.55.36,2.33A30.59,30.59,0,0,1,135.71,645.34Z"/><path class="cls-23" d="M152.4,592v0a30.66,30.66,0,0,1-12.82,21.32,30.29,30.29,0,0,1-12.47,5.14c-.55.1-1.12.17-1.68.24a30.44,30.44,0,0,1-20.91-5.23A30.85,30.85,0,0,1,94.05,601.1a30.22,30.22,0,0,1-2.16-6.56,26.11,26.11,0,0,1-.45-2.81,30.37,30.37,0,0,1,4.15-19.22h0a30.48,30.48,0,0,1,8.71-9.38,29.11,29.11,0,0,1,6.39-3.44,29.83,29.83,0,0,1,7.76-1.93,30.91,30.91,0,0,1,19.26,4.15,30.5,30.5,0,0,1,13.35,16.63A30.93,30.93,0,0,1,152.4,592Z"/><path class="cls-23" d="M139.43,546.55h0a23.56,23.56,0,0,1-4.2,9.85,23.2,23.2,0,0,1-2.64,3.05A23.7,23.7,0,0,1,118.71,566a23.84,23.84,0,0,1-14.41-2.92,23.84,23.84,0,0,1,.61-41.8c.43-.22.88-.43,1.32-.63a23.81,23.81,0,0,1,33.2,25.86Z"/><circle class="cls-23" cx="159.07" cy="645.79" r="30.7"/><circle class="cls-23" cx="134.98" cy="617.3" r="30.7"/><circle class="cls-23" cx="205.68" cy="664.76" r="30.7"/><circle class="cls-23" cx="253.68" cy="665.52" r="30.7"/><circle class="cls-23" cx="299.19" cy="650.59" r="30.7"/><path class="cls-23" d="M138.56,568.73a21.2,21.2,0,0,1-1.14,6.23,21.68,21.68,0,0,1-18.1,14.62,21.4,21.4,0,0,1-5.06,0l-.15,0a21.55,21.55,0,0,1-4.42-1,21.8,21.8,0,0,1-14.1-16h0c-.14-.67-.25-1.34-.33-2a21.74,21.74,0,0,1,14-22.86,21.33,21.33,0,0,1,5.07-1.21,21.68,21.68,0,0,1,20.85,10,20.46,20.46,0,0,1,1.17,2.1,21.63,21.63,0,0,1,1.31,3.39,22,22,0,0,1,.69,3.38l0,.25A20.26,20.26,0,0,1,138.56,568.73Z"/><path class="cls-23" d="M127.11,618.5a21.72,21.72,0,0,1-8.54,10,21.36,21.36,0,0,1-9,3.14c-.55.06-1.1.11-1.64.12a21.71,21.71,0,0,1-22.41-19.23,16.25,16.25,0,0,1-.13-2.08,21.72,21.72,0,0,1,19.25-22,20.54,20.54,0,0,1,5.08,0,21,21,0,0,1,4.42,1l.15.06a20.31,20.31,0,0,1,4.08,1.93,21.71,21.71,0,0,1,8.77,27Z"/><circle class="cls-23" cx="227.01" cy="687.32" r="21.73"/><circle class="cls-23" cx="235.15" cy="661.39" r="21.73"/><circle class="cls-23" cx="277.25" cy="653.1" r="21.73"/><circle class="cls-23" cx="184.39" cy="654.7" r="21.73"/><rect class="cls-23" x="198.14" y="477.08" width="40.01" height="8.28" rx="2.59" transform="translate(-115.05 71.17) rotate(-14.71)"/><path class="cls-23" d="M299.61,480l-25.21-2.32a4.13,4.13,0,0,1,.38-8.25h.37l24.1,2.21Z"/><line class="cls-24" x1="220.56" y1="612.64" x2="221.59" y2="615.74"/><line class="cls-24" x1="225.73" y1="606.09" x2="225.04" y2="610.22"/><line class="cls-24" x1="226.77" y1="615.4" x2="225.73" y2="618.5"/><line class="cls-24" x1="212.28" y1="613.33" x2="210.55" y2="615.74"/><line class="cls-24" x1="234.7" y1="612.98" x2="233.32" y2="615.74"/><line class="cls-24" x1="207.8" y1="606.09" x2="205.73" y2="608.84"/><line class="cls-24" x1="215.73" y1="605.05" x2="214" y2="607.47"/><line class="cls-24" x1="219.52" y1="606.09" x2="218.83" y2="609.53"/><line class="cls-24" x1="240.91" y1="610.91" x2="240.22" y2="614.36"/><line class="cls-24" x1="233.32" y1="621.26" x2="231.25" y2="623.33"/><line class="cls-24" x1="231.25" y1="606.09" x2="230.56" y2="609.53"/><line class="cls-24" x1="240.22" y1="606.09" x2="238.15" y2="608.84"/><line class="cls-24" x1="240.91" y1="619.19" x2="238.84" y2="621.95"/><line class="cls-24" x1="248.5" y1="616.43" x2="247.81" y2="619.19"/><line class="cls-24" x1="246.43" y1="608.84" x2="245.74" y2="612.29"/><line class="cls-24" x1="245.05" y1="625.4" x2="242.98" y2="627.47"/><line class="cls-24" x1="235.73" y1="626.44" x2="235.39" y2="628.85"/><line class="cls-24" x1="226.08" y1="625.06" x2="223.66" y2="628.16"/><line class="cls-24" x1="219.87" y1="622.99" x2="219.52" y2="626.78"/><line class="cls-24" x1="213.66" y1="622.3" x2="213.31" y2="626.09"/><line class="cls-24" x1="214" y1="599.19" x2="212.62" y2="601.95"/><line class="cls-24" x1="223.32" y1="596.08" x2="221.59" y2="598.5"/><line class="cls-24" x1="229.87" y1="599.88" x2="228.49" y2="601.95"/><line class="cls-24" x1="237.46" y1="633.68" x2="236.77" y2="636.44"/><line class="cls-24" x1="228.49" y1="632.99" x2="227.8" y2="636.44"/><line class="cls-24" x1="219.87" y1="631.26" x2="218.14" y2="634.37"/><line class="cls-24" x1="208.14" y1="622.3" x2="205.73" y2="624.71"/><line class="cls-24" x1="206.07" y1="615.4" x2="204.35" y2="619.19"/><line class="cls-24" x1="201.24" y1="626.44" x2="200.9" y2="630.23"/><line class="cls-24" x1="209.18" y1="630.92" x2="208.49" y2="634.37"/><line class="cls-24" x1="176.41" y1="607.81" x2="177.44" y2="610.91"/><line class="cls-24" x1="183.31" y1="609.19" x2="182.27" y2="612.29"/><line class="cls-24" x1="168.82" y1="607.12" x2="167.09" y2="609.53"/><line class="cls-24" x1="191.24" y1="606.78" x2="189.86" y2="609.53"/><line class="cls-24" x1="164.34" y1="599.88" x2="162.27" y2="602.64"/><line class="cls-24" x1="172.27" y1="598.84" x2="170.54" y2="601.26"/><line class="cls-24" x1="189.86" y1="615.05" x2="187.79" y2="617.12"/><line class="cls-24" x1="187.79" y1="599.88" x2="187.1" y2="603.33"/><line class="cls-24" x1="197.45" y1="612.98" x2="195.38" y2="615.74"/><line class="cls-24" x1="202.97" y1="602.64" x2="202.28" y2="606.09"/><line class="cls-24" x1="201.59" y1="619.19" x2="199.52" y2="621.26"/><line class="cls-24" x1="192.27" y1="620.23" x2="191.93" y2="622.64"/><line class="cls-24" x1="182.62" y1="618.85" x2="180.2" y2="621.95"/><line class="cls-24" x1="176.41" y1="616.78" x2="176.06" y2="620.57"/><line class="cls-24" x1="170.2" y1="616.09" x2="169.85" y2="619.88"/><line class="cls-24" x1="170.54" y1="592.98" x2="169.16" y2="595.74"/><line class="cls-24" x1="179.86" y1="589.87" x2="178.13" y2="592.29"/><line class="cls-24" x1="186.41" y1="593.67" x2="185.03" y2="595.74"/><line class="cls-24" x1="194" y1="627.47" x2="193.31" y2="630.23"/><line class="cls-24" x1="185.03" y1="626.78" x2="184.34" y2="630.23"/><line class="cls-24" x1="176.41" y1="625.06" x2="174.68" y2="628.16"/><line class="cls-24" x1="164.68" y1="616.09" x2="162.27" y2="618.5"/><line class="cls-24" x1="162.61" y1="609.19" x2="160.89" y2="612.98"/><line class="cls-24" x1="157.78" y1="620.23" x2="157.44" y2="624.02"/><line class="cls-24" x1="165.71" y1="624.71" x2="165.03" y2="628.16"/><line class="cls-24" x1="197.1" y1="587.11" x2="198.14" y2="590.22"/><line class="cls-24" x1="202.28" y1="580.56" x2="201.59" y2="584.7"/><line class="cls-24" x1="203.31" y1="589.87" x2="202.28" y2="592.98"/><line class="cls-24" x1="188.82" y1="587.8" x2="187.1" y2="590.22"/><line class="cls-24" x1="211.24" y1="587.46" x2="209.87" y2="590.22"/><line class="cls-24" x1="184.34" y1="580.56" x2="182.27" y2="583.32"/><line class="cls-24" x1="192.27" y1="579.53" x2="190.55" y2="581.94"/><line class="cls-24" x1="196.07" y1="580.56" x2="195.38" y2="584.01"/><line class="cls-24" x1="217.45" y1="585.39" x2="216.76" y2="588.84"/><line class="cls-24" x1="209.87" y1="595.74" x2="207.8" y2="597.81"/><line class="cls-24" x1="207.8" y1="580.56" x2="207.11" y2="584.01"/><line class="cls-24" x1="217.45" y1="593.67" x2="215.38" y2="596.43"/><line class="cls-24" x1="225.04" y1="590.91" x2="224.35" y2="593.67"/><line class="cls-24" x1="222.97" y1="583.32" x2="222.28" y2="586.77"/><line class="cls-24" x1="221.59" y1="599.88" x2="219.52" y2="601.95"/><line class="cls-24" x1="202.62" y1="599.53" x2="200.21" y2="602.64"/><line class="cls-24" x1="196.41" y1="597.46" x2="196.07" y2="601.26"/><line class="cls-24" x1="190.2" y1="596.77" x2="189.86" y2="600.57"/><line class="cls-24" x1="196.41" y1="605.74" x2="194.69" y2="608.84"/><line class="cls-24" x1="182.62" y1="596.08" x2="180.89" y2="599.88"/><line class="cls-24" x1="177.79" y1="600.91" x2="177.44" y2="604.71"/><line class="cls-24" x1="185.72" y1="605.4" x2="185.03" y2="608.84"/><line class="cls-24" x1="265.4" y1="624.37" x2="266.43" y2="627.47"/><line class="cls-24" x1="270.57" y1="617.81" x2="269.88" y2="621.95"/><line class="cls-24" x1="271.61" y1="627.13" x2="270.57" y2="630.23"/><line class="cls-24" x1="257.12" y1="625.06" x2="255.39" y2="627.47"/><line class="cls-24" x1="252.64" y1="617.81" x2="250.57" y2="620.57"/><line class="cls-24" x1="260.57" y1="616.78" x2="258.84" y2="619.19"/><line class="cls-24" x1="264.36" y1="617.81" x2="263.67" y2="621.26"/><line class="cls-24" x1="285.75" y1="622.64" x2="285.06" y2="626.09"/><line class="cls-24" x1="278.16" y1="632.99" x2="276.09" y2="635.06"/><line class="cls-24" x1="276.09" y1="617.81" x2="275.4" y2="621.26"/><line class="cls-24" x1="285.06" y1="617.81" x2="282.99" y2="620.57"/><line class="cls-24" x1="285.75" y1="630.92" x2="283.68" y2="633.68"/><line class="cls-24" x1="293.34" y1="628.16" x2="292.65" y2="630.92"/><line class="cls-24" x1="291.27" y1="620.57" x2="290.58" y2="624.02"/><line class="cls-24" x1="289.89" y1="637.13" x2="287.82" y2="639.2"/><line class="cls-24" x1="280.57" y1="638.16" x2="280.23" y2="640.58"/><line class="cls-24" x1="270.92" y1="636.78" x2="268.5" y2="639.89"/><line class="cls-24" x1="264.71" y1="634.71" x2="264.36" y2="638.51"/><line class="cls-24" x1="258.5" y1="634.02" x2="258.15" y2="637.82"/><line class="cls-24" x1="258.84" y1="610.91" x2="257.46" y2="613.67"/><line class="cls-24" x1="268.16" y1="607.81" x2="266.43" y2="610.22"/><line class="cls-24" x1="274.71" y1="611.6" x2="273.33" y2="613.67"/><line class="cls-24" x1="282.3" y1="645.41" x2="281.61" y2="648.17"/><line class="cls-24" x1="273.33" y1="644.72" x2="272.64" y2="648.17"/><line class="cls-24" x1="264.71" y1="642.99" x2="262.98" y2="646.1"/><line class="cls-24" x1="252.98" y1="634.02" x2="250.57" y2="636.44"/><line class="cls-24" x1="250.91" y1="627.13" x2="249.19" y2="630.92"/><line class="cls-24" x1="246.08" y1="638.16" x2="245.74" y2="641.96"/><line class="cls-24" x1="254.02" y1="642.65" x2="253.33" y2="646.1"/><line class="cls-24" x1="295.75" y1="619.54" x2="296.79" y2="622.64"/><line class="cls-24" x1="300.92" y1="612.98" x2="300.23" y2="617.12"/><line class="cls-24" x1="301.96" y1="622.3" x2="300.92" y2="625.4"/><line class="cls-24" x1="309.89" y1="619.88" x2="308.51" y2="622.64"/><line class="cls-24" x1="282.99" y1="612.98" x2="280.92" y2="615.74"/><line class="cls-24" x1="290.92" y1="611.95" x2="289.2" y2="614.36"/><line class="cls-24" x1="294.72" y1="612.98" x2="294.03" y2="616.43"/><line class="cls-24" x1="308.51" y1="628.16" x2="306.44" y2="630.23"/><line class="cls-24" x1="306.44" y1="612.98" x2="305.75" y2="616.43"/><line class="cls-24" x1="316.1" y1="626.09" x2="314.03" y2="628.85"/><line class="cls-24" x1="323.69" y1="623.33" x2="323" y2="626.09"/><line class="cls-24" x1="320.24" y1="632.3" x2="318.17" y2="634.37"/><line class="cls-24" x1="310.93" y1="633.33" x2="310.58" y2="635.75"/><line class="cls-24" x1="301.27" y1="631.95" x2="298.86" y2="635.06"/><line class="cls-24" x1="295.06" y1="629.89" x2="294.72" y2="633.68"/><line class="cls-24" x1="288.85" y1="629.2" x2="288.51" y2="632.99"/><line class="cls-24" x1="289.2" y1="606.09" x2="287.82" y2="608.84"/><line class="cls-24" x1="298.51" y1="602.98" x2="296.79" y2="605.4"/><line class="cls-24" x1="305.06" y1="606.78" x2="303.68" y2="608.84"/><line class="cls-24" x1="312.65" y1="640.58" x2="311.96" y2="643.34"/><line class="cls-24" x1="303.68" y1="639.89" x2="302.99" y2="643.34"/><line class="cls-24" x1="295.06" y1="638.16" x2="293.34" y2="641.27"/><line class="cls-24" x1="283.33" y1="629.2" x2="280.92" y2="631.61"/><line class="cls-24" x1="281.26" y1="622.3" x2="279.54" y2="626.09"/><line class="cls-24" x1="276.44" y1="633.33" x2="276.09" y2="637.13"/><line class="cls-24" x1="284.37" y1="637.82" x2="283.68" y2="641.27"/><line class="cls-24" x1="155.41" y1="568.84" x2="155.3" y2="572.11"/><line class="cls-24" x1="162.53" y1="564.49" x2="160.45" y2="568.14"/><line class="cls-24" x1="160.27" y1="573.59" x2="158.22" y2="576.14"/><line class="cls-24" x1="147.4" y1="566.62" x2="144.95" y2="568.28"/><line class="cls-24" x1="168.55" y1="574.08" x2="166.3" y2="576.19"/><line class="cls-24" x1="145.71" y1="558.27" x2="142.81" y2="560.14"/><line class="cls-24" x1="153.51" y1="560.05" x2="151.06" y2="561.72"/><line class="cls-24" x1="156.71" y1="562.34" x2="154.87" y2="565.33"/><line class="cls-24" x1="175.09" y1="574.29" x2="173.24" y2="577.29"/><line class="cls-24" x1="164.38" y1="581.36" x2="161.72" y2="582.58"/><line class="cls-24" x1="167.71" y1="566.41" x2="165.86" y2="569.41"/><line class="cls-24" x1="176.12" y1="569.52" x2="173.22" y2="571.39"/><line class="cls-24" x1="172.22" y1="582.06" x2="169.32" y2="583.92"/><line class="cls-24" x1="180.29" y1="582.1" x2="178.68" y2="584.45"/><line class="cls-24" x1="180.98" y1="574.27" x2="179.14" y2="577.26"/><line class="cls-24" x1="173.94" y1="589.31" x2="171.28" y2="590.54"/><line class="cls-24" x1="164.85" y1="587.05" x2="163.69" y2="589.2"/><line class="cls-24" x1="156.27" y1="582.4" x2="152.93" y2="584.48"/><line class="cls-24" x1="151.17" y1="578.31" x2="149.53" y2="581.75"/><line class="cls-24" x1="145.58" y1="575.51" x2="143.94" y2="578.94"/><line class="cls-24" x1="153.93" y1="553.95" x2="151.68" y2="556.06"/><line class="cls-24" x1="163.95" y1="594.44" x2="162.35" y2="596.79"/><line class="cls-24" x1="155.78" y1="590.68" x2="153.94" y2="593.68"/><line class="cls-24" x1="148.29" y1="586.07" x2="145.6" y2="588.38"/><line class="cls-24" x1="140.41" y1="573.59" x2="137.31" y2="575.02"/><line class="cls-24" x1="140.86" y1="566.4" x2="137.93" y2="569.36"/><line class="cls-24" x1="132.5" y1="575.08" x2="130.86" y2="578.51"/><line class="cls-24" x1="138.38" y1="582.04" x2="136.54" y2="585.03"/><line class="cls-24" x1="121.6" y1="544.01" x2="121.5" y2="547.28"/><line class="cls-24" x1="128.73" y1="539.66" x2="126.65" y2="543.3"/><line class="cls-24" x1="126.47" y1="548.75" x2="124.42" y2="551.3"/><line class="cls-24" x1="113.6" y1="541.78" x2="111.14" y2="543.45"/><line class="cls-24" x1="134.75" y1="549.24" x2="132.49" y2="551.35"/><line class="cls-24" x1="111.91" y1="533.43" x2="109.01" y2="535.3"/><line class="cls-24" x1="119.71" y1="535.22" x2="117.25" y2="536.88"/><line class="cls-24" x1="122.91" y1="537.5" x2="121.06" y2="540.5"/><line class="cls-24" x1="141.29" y1="549.46" x2="139.44" y2="552.45"/><line class="cls-24" x1="130.58" y1="556.53" x2="127.92" y2="557.75"/><line class="cls-24" x1="133.91" y1="541.58" x2="132.06" y2="544.57"/><line class="cls-24" x1="142.32" y1="544.69" x2="139.42" y2="546.56"/><line class="cls-24" x1="138.41" y1="557.22" x2="135.51" y2="559.09"/><line class="cls-24" x1="147.18" y1="549.43" x2="145.34" y2="552.43"/><line class="cls-24" x1="140.14" y1="564.48" x2="137.48" y2="565.7"/><line class="cls-24" x1="131.05" y1="562.22" x2="129.88" y2="564.36"/><line class="cls-24" x1="122.47" y1="557.57" x2="119.13" y2="559.64"/><line class="cls-24" x1="117.36" y1="553.47" x2="115.72" y2="556.91"/><line class="cls-24" x1="111.78" y1="550.67" x2="110.14" y2="554.11"/><line class="cls-24" x1="120.13" y1="529.12" x2="117.88" y2="531.23"/><line class="cls-24" x1="129.94" y1="529.44" x2="127.48" y2="531.11"/><line class="cls-24" x1="134.77" y1="535.27" x2="132.76" y2="536.74"/><line class="cls-24" x1="130.15" y1="569.61" x2="128.54" y2="571.96"/><line class="cls-24" x1="121.98" y1="565.85" x2="120.13" y2="568.84"/><line class="cls-24" x1="114.49" y1="561.24" x2="111.79" y2="563.55"/><line class="cls-24" x1="106.61" y1="548.76" x2="103.5" y2="550.18"/><line class="cls-24" x1="107.06" y1="541.57" x2="104.13" y2="544.53"/><line class="cls-24" x1="98.7" y1="550.24" x2="97.06" y2="553.68"/><line class="cls-24" x1="104.58" y1="557.2" x2="102.74" y2="560.2"/><path class="cls-25" d="M185.64,548.37c-14.1-17.82-13.44-41.87-6-62.3.16-.44-.55-.63-.71-.19-7.57,20.7-8.11,45,6.16,63,.3.37.81-.16.52-.52Z"/><path class="cls-25" d="M180.11,547.77a42.44,42.44,0,0,1-11.33-28.33,102.91,102.91,0,0,1,5.08-33.9c.14-.45-.57-.65-.71-.2a101,101,0,0,0-5,35.89,42.77,42.77,0,0,0,11.48,27.06c.33.34.85-.18.52-.52Z"/><path class="cls-25" d="M256.48,489A57,57,0,0,0,258,499.92a.37.37,0,0,0,.71-.19A55.8,55.8,0,0,1,257.22,489c0-.47-.76-.48-.74,0Z"/><path class="cls-25" d="M260.88,489.55a14.44,14.44,0,0,0,1.47,7.91c.21.42.84.05.64-.37a13.65,13.65,0,0,1-1.37-7.54c0-.47-.69-.47-.74,0Z"/></g><g id="Hat"><path class="cls-26" d="M305.88,457.14l-7.22.83-88.22,10.09-3.52.4-69.1,7.91-36.19,4.14-6.72.77h-.13l-1-8.9-1-8.9c0-.23,0-.47-.07-.7a35.31,35.31,0,0,1,31.05-38.27l69.71-8,.86-.09.67-.07,12-1.38,3.52-.39,54.42-6.24a35.3,35.3,0,0,1,38.88,30.28c0,.23.07.47.1.7l1,8.89Z"/><polygon class="cls-27" points="307.59 447.92 304.86 448.24 298.29 448.99 210.44 459.03 206.92 459.43 133.74 467.81 100.61 471.6 96.95 472.02 93.76 472.39 91.7 472.62 90.6 463.02 92.67 462.79 99.93 461.95 108.84 460.93 119.66 459.7 119.68 459.7 206.92 449.72 210.44 449.32 297.17 439.4 303.74 438.65 306.5 438.33 307.59 447.92"/><path class="cls-27" d="M206.35,412.63c.16,1.28-4.9,2.93-11.39,3.75l-.67.07-.86.09c-6.41.65-11.61.19-11.75-1.08s5.24-3,12.06-3.81S206.2,411.31,206.35,412.63Z"/></g><g id="Forreste_arm" data-name="Forreste arm"><path class="cls-25" d="M302.33,834a7.64,7.64,0,0,0,5.21.54c1.9-.57,3.5-2,5.07-3.2.37-.27,0-.91-.37-.63-3,2.21-5.6,4.33-9.54,2.66-.43-.19-.8.45-.37.63Z"/><path class="cls-25" d="M304.56,832.19a5.9,5.9,0,0,0,4.15-1.33c.37-.29-.16-.81-.52-.52a5.11,5.11,0,0,1-3.63,1.11c-.47,0-.47.7,0,.74Z"/><path class="cls-11" d="M316,830.39h0a11.26,11.26,0,0,1-15,5.34L194.81,784.89l4.86-10.22Z"/><path class="cls-11" d="M360.11,774.43l4.09,4.11a2.5,2.5,0,0,1,0,3.53l-51.3,51.48-8-8,50.94-51.12A3,3,0,0,1,360.11,774.43Z"/><rect class="cls-11" x="359.91" y="753.37" width="7.59" height="18.63" rx="2.38" transform="translate(645.82 -33.79) rotate(45)"/><rect class="cls-11" x="366.12" y="759.58" width="7.59" height="18.63" rx="2.38" transform="translate(652.03 -36.36) rotate(45)"/><rect class="cls-11" x="351.52" y="768.48" width="25.37" height="12.24" rx="3.4" transform="translate(654.39 -30.66) rotate(45)"/><rect class="cls-11" x="372.32" y="765.78" width="7.59" height="18.63" rx="2.38" transform="translate(658.24 -38.93) rotate(45)"/><path class="cls-25" d="M377.2,773.22a13.5,13.5,0,0,0,1.32,1.3c.36.31.88-.21.52-.52a13.5,13.5,0,0,1-1.32-1.3c-.31-.36-.83.16-.52.52Z"/><path class="cls-25" d="M371.33,766.18a13.63,13.63,0,0,0,1.33,1.3c.35.3.88-.21.52-.52a12.57,12.57,0,0,1-1.33-1.3c-.31-.36-.83.16-.52.52Z"/><path class="cls-25" d="M365.47,759.13a13.6,13.6,0,0,0,1.32,1.31c.36.3.88-.21.52-.52a14.94,14.94,0,0,1-1.33-1.31c-.31-.35-.83.17-.51.52Z"/></g><path id="Skygge" class="cls-28" d="M206.92,415V944.72l-7,44.8h-2.5v4.86a6.89,6.89,0,0,1-6.87,6.87h-7.23a6.89,6.89,0,0,1-6.87-6.87v-4.86h-3.52L180,943.57a10.69,10.69,0,0,0-.21-2l-19.1-52.36a18.31,18.31,0,0,1-11.82-17.07V741.48a18.29,18.29,0,0,1,18.23-18.24h29.46a14.26,14.26,0,0,1,6.38,1.51l2.49,1.24V714.42l-.95.13a30.61,30.61,0,0,1-23.38-7.12,30.71,30.71,0,0,1-54-9.16,30.7,30.7,0,0,1-34.44-48,30.65,30.65,0,0,1-7.27-39.79,21.64,21.64,0,0,1,6.53-15.93,26.11,26.11,0,0,1-.45-2.81,30.37,30.37,0,0,1,4.15-19.22h0c-.14-.67-.25-1.34-.33-2a21.58,21.58,0,0,1,2.48-12.82,23.74,23.74,0,0,1-1.08-29.11,21.82,21.82,0,0,1-1.39-16,21.77,21.77,0,0,1,1.12-23.39,21,21,0,0,1-1.34-5.41,21.78,21.78,0,0,1-.14-2.41h-.13l-1-8.9-2.05.23L90.6,463l2.07-.23a35.31,35.31,0,0,1,31.05-38.27l69.71-8c-6.41.65-11.61.19-11.75-1.08s5.24-3,12.06-3.81,12.46-.34,12.61,1-4.9,2.93-11.39,3.75Z"/></g><circle class="cls-18" cx="1623.9" cy="334.31" r="86.69"/><circle class="cls-18" cx="1544.37" cy="332.72" r="86.69"/><circle class="cls-18" cx="1464.83" cy="332.72" r="86.69"/><circle class="cls-18" cx="1673.21" cy="256.36" r="86.69"/><circle class="cls-18" cx="1343.94" cy="334.31" r="86.69"/><circle class="cls-18" cx="1278.72" cy="304.08" r="86.69"/><circle class="cls-18" cx="1536.41" cy="245.23" r="86.69"/><circle class="cls-18" cx="1439.38" cy="273.86" r="86.69"/><circle class="cls-18" cx="1278.72" cy="226.14" r="86.69"/><circle class="cls-18" cx="1248.72" cy="139.14" r="86.69"/><circle class="cls-18" cx="1174.72" cy="211.14" r="86.69"/><circle class="cls-18" cx="1181.72" cy="317.14" r="86.69"/><circle class="cls-18" cx="1274.72" cy="359.14" r="86.69"/><circle class="cls-18" cx="1394.84" cy="168.87" r="86.69"/><circle class="cls-18" cx="1509.37" cy="130.69" r="86.69"/><circle class="cls-18" cx="1623.9" cy="168.87" r="86.69"/><path d="M1176.41,178.25a9.42,9.42,0,0,1-3.47-1.9l1.11-2.34a9.21,9.21,0,0,0,3.08,1.75,11.28,11.28,0,0,0,3.85.68,6.94,6.94,0,0,0,3.9-.89,2.72,2.72,0,0,0,1.29-2.35,2.33,2.33,0,0,0-.7-1.76,4.71,4.71,0,0,0-1.74-1c-.69-.24-1.67-.51-2.93-.81a30,30,0,0,1-3.82-1.14,6.34,6.34,0,0,1-2.49-1.76,4.68,4.68,0,0,1-1-3.19,5.41,5.41,0,0,1,.89-3,6.06,6.06,0,0,1,2.68-2.16,10.89,10.89,0,0,1,4.47-.81,14.14,14.14,0,0,1,3.66.48,9.74,9.74,0,0,1,3.09,1.38l-1,2.4a10.88,10.88,0,0,0-2.82-1.28,10.52,10.52,0,0,0-2.94-.43,6.46,6.46,0,0,0-3.82.93,2.85,2.85,0,0,0-1.28,2.4,2.28,2.28,0,0,0,.72,1.75,5,5,0,0,0,1.79,1.05,27.56,27.56,0,0,0,2.89.8,29.32,29.32,0,0,1,3.81,1.14,6.43,6.43,0,0,1,2.48,1.74,4.58,4.58,0,0,1,1,3.15,5.35,5.35,0,0,1-.9,3,6,6,0,0,1-2.73,2.16,11.29,11.29,0,0,1-4.5.8A14.35,14.35,0,0,1,1176.41,178.25Z"/><path d="M1203.92,164.32a6.25,6.25,0,0,1,1.75,4.83v9.6h-2.73v-2.1a4.53,4.53,0,0,1-2,1.69,7.87,7.87,0,0,1-3.17.59,6.61,6.61,0,0,1-4.27-1.29,4.14,4.14,0,0,1-1.61-3.39,4.18,4.18,0,0,1,1.53-3.38q1.53-1.27,4.86-1.27h4.56V169a3.67,3.67,0,0,0-1.08-2.85,4.56,4.56,0,0,0-3.18-1,8.41,8.41,0,0,0-2.76.46,7.12,7.12,0,0,0-2.28,1.25l-1.2-2.16a8.72,8.72,0,0,1,2.94-1.52,12.3,12.3,0,0,1,3.63-.52A7.2,7.2,0,0,1,1203.92,164.32ZM1201.05,176a4.19,4.19,0,0,0,1.74-2.08v-2.22h-4.44q-3.66,0-3.66,2.46a2.23,2.23,0,0,0,.93,1.89,4.25,4.25,0,0,0,2.58.69A5.35,5.35,0,0,0,1201.05,176Z"/><path d="M1235.66,164.44a7,7,0,0,1,1.75,5.16v9.15h-2.88v-8.82a5,5,0,0,0-1.06-3.48,3.92,3.92,0,0,0-3-1.17,4.56,4.56,0,0,0-3.48,1.36,5.5,5.5,0,0,0-1.29,3.92v8.19h-2.88v-8.82a5,5,0,0,0-1.06-3.48,3.92,3.92,0,0,0-3-1.17,4.56,4.56,0,0,0-3.48,1.36,5.5,5.5,0,0,0-1.29,3.92v8.19H1211v-15.9h2.76v2.37a5.59,5.59,0,0,1,2.28-1.88,7.63,7.63,0,0,1,3.21-.64,7,7,0,0,1,3.3.75,5.21,5.21,0,0,1,2.22,2.19,6.11,6.11,0,0,1,2.51-2.16,8.14,8.14,0,0,1,3.61-.78A6.47,6.47,0,0,1,1235.66,164.44Z"/><path d="M1242.72,156.49h2.88v22.26h-2.88Z"/><path d="M1260,178.4a8.23,8.23,0,0,1-2.82-1.33l1.2-2.28a8.61,8.61,0,0,0,2.55,1.2,10.49,10.49,0,0,0,3,.45q3.78,0,3.78-2.16a1.4,1.4,0,0,0-.51-1.14,3.21,3.21,0,0,0-1.27-.62c-.51-.13-1.24-.27-2.18-.43a21.23,21.23,0,0,1-3.13-.69,4.85,4.85,0,0,1-2.09-1.32,3.67,3.67,0,0,1-.87-2.61,4.09,4.09,0,0,1,1.8-3.47,8.06,8.06,0,0,1,4.83-1.3,13.31,13.31,0,0,1,3.18.39,8.55,8.55,0,0,1,2.61,1l-1.23,2.28a8.27,8.27,0,0,0-4.59-1.26,5.31,5.31,0,0,0-2.79.6,1.81,1.81,0,0,0-1,1.59,1.52,1.52,0,0,0,.54,1.23,3.44,3.44,0,0,0,1.34.66c.53.14,1.27.3,2.23.48a24.47,24.47,0,0,1,3.11.7,4.63,4.63,0,0,1,2,1.28,3.55,3.55,0,0,1,.84,2.52,4,4,0,0,1-1.84,3.43,8.73,8.73,0,0,1-5,1.28A13.33,13.33,0,0,1,1260,178.4Z"/><path d="M1285,164.32a6.25,6.25,0,0,1,1.75,4.83v9.6h-2.73v-2.1a4.53,4.53,0,0,1-2,1.69,7.87,7.87,0,0,1-3.17.59,6.61,6.61,0,0,1-4.27-1.29,4.14,4.14,0,0,1-1.61-3.39,4.18,4.18,0,0,1,1.53-3.38q1.53-1.27,4.86-1.27h4.56V169a3.67,3.67,0,0,0-1.08-2.85,4.56,4.56,0,0,0-3.18-1,8.41,8.41,0,0,0-2.76.46,7.12,7.12,0,0,0-2.28,1.25l-1.2-2.16a8.72,8.72,0,0,1,2.94-1.52,12.3,12.3,0,0,1,3.63-.52A7.2,7.2,0,0,1,1285,164.32ZM1282.17,176a4.19,4.19,0,0,0,1.74-2.08v-2.22h-4.44q-3.66,0-3.66,2.46a2.23,2.23,0,0,0,.93,1.89,4.25,4.25,0,0,0,2.58.69A5.35,5.35,0,0,0,1282.17,176Zm-4.35-16a3.09,3.09,0,0,1-1-2.29,3.21,3.21,0,0,1,1-2.33,3.16,3.16,0,0,1,2.34-1,3.3,3.3,0,0,1,3.33,3.3,3.09,3.09,0,0,1-1,2.29,3.25,3.25,0,0,1-2.37,1A3.21,3.21,0,0,1,1277.82,160Zm3.77-.88a2.09,2.09,0,0,0,0-2.85,1.92,1.92,0,0,0-1.41-.57,1.85,1.85,0,0,0-1.39.57,2,2,0,0,0-.56,1.44,2,2,0,0,0,.56,1.41,1.85,1.85,0,0,0,1.39.57A1.91,1.91,0,0,0,1281.59,159.1Z"/><path d="M1324.85,164.44a7,7,0,0,1,1.75,5.16v9.15h-2.88v-8.82a5,5,0,0,0-1.06-3.48,3.92,3.92,0,0,0-3.05-1.17,4.56,4.56,0,0,0-3.48,1.36,5.5,5.5,0,0,0-1.29,3.92v8.19H1312v-8.82a5,5,0,0,0-1.06-3.48,3.92,3.92,0,0,0-3.05-1.17,4.56,4.56,0,0,0-3.48,1.36,5.5,5.5,0,0,0-1.29,3.92v8.19h-2.88v-15.9H1303v2.37a5.59,5.59,0,0,1,2.28-1.88,7.63,7.63,0,0,1,3.21-.64,7,7,0,0,1,3.3.75,5.21,5.21,0,0,1,2.22,2.19,6.11,6.11,0,0,1,2.51-2.16,8.14,8.14,0,0,1,3.61-.78A6.47,6.47,0,0,1,1324.85,164.44Z"/><path d="M1346.31,171.76h-12.9a5,5,0,0,0,1.85,3.37,6,6,0,0,0,3.91,1.28,5.9,5.9,0,0,0,4.59-1.92l1.59,1.86a7,7,0,0,1-2.68,1.92,10.11,10.11,0,0,1-8.06-.38,7.36,7.36,0,0,1-3-2.89,8.3,8.3,0,0,1-1.07-4.2,8.43,8.43,0,0,1,1-4.17,7.43,7.43,0,0,1,2.85-2.9,8.1,8.1,0,0,1,4.09-1,8,8,0,0,1,4.07,1,7.28,7.28,0,0,1,2.79,2.9,8.82,8.82,0,0,1,1,4.26A8.25,8.25,0,0,1,1346.31,171.76Zm-11.26-5.37a5.08,5.08,0,0,0-1.64,3.3h10.2a5.12,5.12,0,0,0-1.63-3.29,5.38,5.38,0,0,0-6.93,0Z"/><path d="M1365.57,162.85v13.74q0,4.17-2.07,6.16t-6.18,2a14.79,14.79,0,0,1-4.29-.62,8.49,8.49,0,0,1-3.3-1.75l1.38-2.22a8.16,8.16,0,0,0,2.75,1.51,10.4,10.4,0,0,0,3.37.56,5.67,5.67,0,0,0,4.13-1.32,5.43,5.43,0,0,0,1.33-4v-1.26a6.35,6.35,0,0,1-2.5,1.84,8.37,8.37,0,0,1-3.23.62,8.67,8.67,0,0,1-4.12-1,7.27,7.27,0,0,1-2.9-2.73,8.16,8.16,0,0,1,0-8,7.15,7.15,0,0,1,2.9-2.71,8.78,8.78,0,0,1,4.12-1,8.45,8.45,0,0,1,3.35.66,6.19,6.19,0,0,1,2.53,1.95v-2.46Zm-5.47,12.06a4.89,4.89,0,0,0,2-1.85,5.13,5.13,0,0,0,.7-2.68,4.88,4.88,0,0,0-1.53-3.74,6.19,6.19,0,0,0-7.89,0,4.88,4.88,0,0,0-1.53,3.74,5.14,5.14,0,0,0,.71,2.68,4.89,4.89,0,0,0,2,1.85,6.35,6.35,0,0,0,5.64,0Z"/><path d="M1385.37,171.76h-12.9a5,5,0,0,0,1.85,3.37,6,6,0,0,0,3.91,1.28,5.9,5.9,0,0,0,4.59-1.92l1.59,1.86a7,7,0,0,1-2.68,1.92,10.11,10.11,0,0,1-8.06-.38,7.36,7.36,0,0,1-3-2.89,8.3,8.3,0,0,1-1.07-4.2,8.43,8.43,0,0,1,1-4.17,7.43,7.43,0,0,1,2.85-2.9,8.1,8.1,0,0,1,4.09-1,8,8,0,0,1,4.07,1,7.28,7.28,0,0,1,2.79,2.9,8.82,8.82,0,0,1,1,4.26A8.25,8.25,0,0,1,1385.37,171.76Zm-11.26-5.37a5.08,5.08,0,0,0-1.64,3.3h10.2a5.12,5.12,0,0,0-1.63-3.29,5.38,5.38,0,0,0-6.93,0Z"/><path d="M1398.36,177.82a4.29,4.29,0,0,1-1.56.82,6.52,6.52,0,0,1-1.92.29,5.1,5.1,0,0,1-3.72-1.29,4.93,4.93,0,0,1-1.32-3.69v-8.73h-2.7v-2.37h2.7v-3.48h2.88v3.48h4.56v2.37h-4.56v8.61a2.79,2.79,0,0,0,.65,2,2.39,2.39,0,0,0,1.84.69,3.47,3.47,0,0,0,2.25-.75Z"/><path d="M1422.48,163.72a7.35,7.35,0,0,1,2.87,2.85,9.22,9.22,0,0,1,0,8.47,7.33,7.33,0,0,1-2.87,2.87,8.36,8.36,0,0,1-4.14,1,7.35,7.35,0,0,1-3.13-.66,6.54,6.54,0,0,1-2.42-1.92v8.22h-2.88V162.85h2.76v2.52a6.13,6.13,0,0,1,2.43-2,7.67,7.67,0,0,1,3.24-.67A8.36,8.36,0,0,1,1422.48,163.72Zm-1.63,12a5.08,5.08,0,0,0,1.92-2,6.46,6.46,0,0,0,0-5.85,5,5,0,0,0-1.92-2,5.48,5.48,0,0,0-2.75-.69,5.29,5.29,0,0,0-2.71.7,5.12,5.12,0,0,0-1.92,2,5.86,5.86,0,0,0-.71,2.91,6,6,0,0,0,.69,2.92,5,5,0,0,0,1.92,2,5.64,5.64,0,0,0,5.48,0Z"/><path d="M1430.37,156.49h2.88v22.26h-2.88Z"/><path d="M1449.59,164.32a6.25,6.25,0,0,1,1.75,4.83v9.6h-2.73v-2.1a4.58,4.58,0,0,1-2,1.69,7.87,7.87,0,0,1-3.17.59,6.61,6.61,0,0,1-4.27-1.29,4.12,4.12,0,0,1-1.61-3.39,4.18,4.18,0,0,1,1.53-3.38q1.53-1.27,4.86-1.27h4.56V169a3.67,3.67,0,0,0-1.08-2.85,4.56,4.56,0,0,0-3.18-1,8.41,8.41,0,0,0-2.76.46,7.12,7.12,0,0,0-2.28,1.25l-1.2-2.16a8.72,8.72,0,0,1,2.94-1.52,12.3,12.3,0,0,1,3.63-.52A7.2,7.2,0,0,1,1449.59,164.32ZM1446.72,176a4.19,4.19,0,0,0,1.74-2.08v-2.22H1444q-3.66,0-3.66,2.46a2.23,2.23,0,0,0,.93,1.89,4.25,4.25,0,0,0,2.58.69A5.35,5.35,0,0,0,1446.72,176Z"/><path d="M1457.49,178.4a8.23,8.23,0,0,1-2.82-1.33l1.2-2.28a8.61,8.61,0,0,0,2.55,1.2,10.49,10.49,0,0,0,3,.45q3.78,0,3.78-2.16a1.4,1.4,0,0,0-.51-1.14,3.26,3.26,0,0,0-1.28-.62c-.51-.13-1.23-.27-2.17-.43a21.4,21.4,0,0,1-3.14-.69,4.82,4.82,0,0,1-2.08-1.32,3.67,3.67,0,0,1-.87-2.61A4.09,4.09,0,0,1,1457,164a8.06,8.06,0,0,1,4.83-1.3,13.31,13.31,0,0,1,3.18.39,8.55,8.55,0,0,1,2.61,1l-1.23,2.28a8.27,8.27,0,0,0-4.59-1.26,5.31,5.31,0,0,0-2.79.6,1.81,1.81,0,0,0-1,1.59,1.52,1.52,0,0,0,.54,1.23,3.39,3.39,0,0,0,1.33.66c.53.14,1.28.3,2.24.48a24.26,24.26,0,0,1,3.1.7,4.66,4.66,0,0,1,2,1.28,3.55,3.55,0,0,1,.84,2.52,4,4,0,0,1-1.85,3.43,8.7,8.7,0,0,1-5,1.28A13.33,13.33,0,0,1,1457.49,178.4Z"/><path d="M1480.65,177.82a4.29,4.29,0,0,1-1.56.82,6.52,6.52,0,0,1-1.92.29,5.1,5.1,0,0,1-3.72-1.29,4.93,4.93,0,0,1-1.32-3.69v-8.73h-2.7v-2.37h2.7v-3.48H1475v3.48h4.56v2.37H1475v8.61a2.79,2.79,0,0,0,.64,2,2.41,2.41,0,0,0,1.85.69,3.47,3.47,0,0,0,2.25-.75Z"/><path d="M1484.17,159.25a1.77,1.77,0,0,1-.55-1.32,1.83,1.83,0,0,1,.55-1.34,1.9,1.9,0,0,1,1.4-.55,1.93,1.93,0,0,1,1.39.52,1.74,1.74,0,0,1,.56,1.31,1.85,1.85,0,0,1-.56,1.36,1.88,1.88,0,0,1-1.39.56A1.93,1.93,0,0,1,1484.17,159.25Zm0,3.6H1487v15.9h-2.88Z"/><path d="M1498.68,171.34l-3.3,3.06v4.35h-2.88V156.49h2.88v14.28l8.67-7.92h3.48l-6.69,6.57,7.35,9.33h-3.54Z"/><path d="M1534.05,156.49v22.26h-2.76v-2.52a6.24,6.24,0,0,1-2.43,2,7.53,7.53,0,0,1-3.24.69,8.36,8.36,0,0,1-4.14-1,7.33,7.33,0,0,1-2.87-2.87,9.22,9.22,0,0,1,0-8.47,7.35,7.35,0,0,1,2.87-2.85,8.36,8.36,0,0,1,4.14-1,7.61,7.61,0,0,1,3.15.64,6.13,6.13,0,0,1,2.4,1.91v-8.76Zm-5.46,19.21a5,5,0,0,0,1.92-2,6.54,6.54,0,0,0,0-5.85,4.83,4.83,0,0,0-1.92-2,5.79,5.79,0,0,0-5.48,0,5,5,0,0,0-1.92,2,6.46,6.46,0,0,0,0,5.85,5.08,5.08,0,0,0,1.92,2,5.64,5.64,0,0,0,5.48,0Z"/><path d="M1554.33,162.85v15.9h-2.73v-2.4a5.79,5.79,0,0,1-2.3,1.9,7.14,7.14,0,0,1-3.1.68,6.94,6.94,0,0,1-5-1.76,6.83,6.83,0,0,1-1.83-5.17v-9.15h2.88v8.82a4.92,4.92,0,0,0,1.11,3.49,4.15,4.15,0,0,0,3.18,1.19,4.75,4.75,0,0,0,3.6-1.38,5.42,5.42,0,0,0,1.32-3.9v-8.22Z"/><path d="M1574.07,171.34l-3.3,3.06v4.35h-2.88V156.49h2.88v14.28l8.67-7.92h3.48l-6.69,6.57,7.35,9.33H1580Z"/><path d="M1596.91,164.32a6.26,6.26,0,0,1,1.76,4.83v9.6h-2.73v-2.1a4.56,4.56,0,0,1-2.06,1.69,7.82,7.82,0,0,1-3.16.59,6.64,6.64,0,0,1-4.28-1.29,4.13,4.13,0,0,1-1.6-3.39,4.18,4.18,0,0,1,1.53-3.38q1.53-1.27,4.86-1.27h4.56V169a3.67,3.67,0,0,0-1.08-2.85,4.56,4.56,0,0,0-3.18-1,8.41,8.41,0,0,0-2.76.46,7.12,7.12,0,0,0-2.28,1.25l-1.2-2.16a8.72,8.72,0,0,1,2.94-1.52,12.3,12.3,0,0,1,3.63-.52A7.18,7.18,0,0,1,1596.91,164.32ZM1594.05,176a4.19,4.19,0,0,0,1.74-2.08v-2.22h-4.44q-3.66,0-3.66,2.46a2.23,2.23,0,0,0,.93,1.89,4.25,4.25,0,0,0,2.58.69A5.35,5.35,0,0,0,1594.05,176Z"/><path d="M1617.31,164.45a6.92,6.92,0,0,1,1.79,5.15v9.15h-2.88v-8.82a4.88,4.88,0,0,0-1.11-3.48,4.17,4.17,0,0,0-3.18-1.17,5,5,0,0,0-3.69,1.36,5.35,5.35,0,0,0-1.35,3.92v8.19H1604v-15.9h2.76v2.4a5.58,5.58,0,0,1,2.35-1.89,8.25,8.25,0,0,1,3.38-.66A6.55,6.55,0,0,1,1617.31,164.45Z"/><path d="M1645.81,164.45a6.92,6.92,0,0,1,1.79,5.15v9.15h-2.88v-8.82a4.88,4.88,0,0,0-1.11-3.48,4.17,4.17,0,0,0-3.18-1.17,5,5,0,0,0-3.69,1.36,5.35,5.35,0,0,0-1.35,3.92v8.19h-2.88v-15.9h2.76v2.4a5.58,5.58,0,0,1,2.35-1.89,8.25,8.25,0,0,1,3.38-.66A6.55,6.55,0,0,1,1645.81,164.45Z"/><path d="M1663.78,164.32a6.26,6.26,0,0,1,1.76,4.83v9.6h-2.73v-2.1a4.56,4.56,0,0,1-2.06,1.69,7.82,7.82,0,0,1-3.16.59,6.64,6.64,0,0,1-4.28-1.29,4.13,4.13,0,0,1-1.6-3.39,4.18,4.18,0,0,1,1.53-3.38q1.53-1.27,4.86-1.27h4.56V169a3.67,3.67,0,0,0-1.08-2.85,4.56,4.56,0,0,0-3.18-1,8.41,8.41,0,0,0-2.76.46,7.12,7.12,0,0,0-2.28,1.25l-1.2-2.16a8.72,8.72,0,0,1,2.94-1.52,12.3,12.3,0,0,1,3.63-.52A7.18,7.18,0,0,1,1663.78,164.32ZM1660.92,176a4.19,4.19,0,0,0,1.74-2.08v-2.22h-4.44q-3.66,0-3.66,2.46a2.23,2.23,0,0,0,.93,1.89,4.25,4.25,0,0,0,2.58.69A5.35,5.35,0,0,0,1660.92,176Zm-4.35-16a3.09,3.09,0,0,1-1-2.29,3.21,3.21,0,0,1,1-2.33,3.16,3.16,0,0,1,2.34-1,3.3,3.3,0,0,1,3.33,3.3,3.09,3.09,0,0,1-1,2.29,3.25,3.25,0,0,1-2.37,1A3.21,3.21,0,0,1,1656.57,160Zm3.76-.88a2.08,2.08,0,0,0,0-2.85,1.92,1.92,0,0,0-1.41-.57,1.88,1.88,0,0,0-1.4.57,2,2,0,0,0-.55,1.44,1.94,1.94,0,0,0,.55,1.41,2,2,0,0,0,2.82,0Z"/><path d="M1148.64,195.25a1.77,1.77,0,0,1-.55-1.32,1.83,1.83,0,0,1,.55-1.34,1.9,1.9,0,0,1,1.4-.55,1.93,1.93,0,0,1,1.39.52,1.74,1.74,0,0,1,.56,1.31,1.85,1.85,0,0,1-.56,1.36,1.88,1.88,0,0,1-1.39.56A1.93,1.93,0,0,1,1148.64,195.25Zm0,3.6h2.88v15.9h-2.88Z"/><path d="M1170.27,200.45a6.92,6.92,0,0,1,1.79,5.15v9.15h-2.88v-8.82a4.88,4.88,0,0,0-1.11-3.48,4.17,4.17,0,0,0-3.18-1.17,5,5,0,0,0-3.69,1.36,5.35,5.35,0,0,0-1.35,3.92v8.19H1157v-15.9h2.76v2.4a5.58,5.58,0,0,1,2.35-1.89,8.25,8.25,0,0,1,3.38-.66A6.55,6.55,0,0,1,1170.27,200.45Z"/><path d="M1192.49,192.49v22.26h-2.76v-2.52a6.24,6.24,0,0,1-2.43,2,7.53,7.53,0,0,1-3.24.69,8.36,8.36,0,0,1-4.14-1,7.33,7.33,0,0,1-2.87-2.87,9.22,9.22,0,0,1,0-8.47,7.35,7.35,0,0,1,2.87-2.85,8.36,8.36,0,0,1,4.14-1,7.61,7.61,0,0,1,3.15.64,6.13,6.13,0,0,1,2.4,1.91v-8.76ZM1187,211.7a5,5,0,0,0,1.92-2,6.54,6.54,0,0,0,0-5.85,4.83,4.83,0,0,0-1.92-2,5.79,5.79,0,0,0-5.48,0,5,5,0,0,0-1.92,2,6.46,6.46,0,0,0,0,5.85,5.08,5.08,0,0,0,1.92,2,5.64,5.64,0,0,0,5.48,0Z"/><path d="M1212.26,207.76h-12.9a5,5,0,0,0,1.84,3.37,6,6,0,0,0,3.92,1.28,5.9,5.9,0,0,0,4.59-1.92l1.59,1.86a7,7,0,0,1-2.69,1.92,10.09,10.09,0,0,1-8-.38,7.38,7.38,0,0,1-3-2.89,8.3,8.3,0,0,1-1.06-4.2,8.43,8.43,0,0,1,1-4.17,7.43,7.43,0,0,1,2.85-2.9,8.13,8.13,0,0,1,4.1-1,7.93,7.93,0,0,1,4.06,1,7.28,7.28,0,0,1,2.79,2.9,8.82,8.82,0,0,1,1,4.26A8.25,8.25,0,0,1,1212.26,207.76ZM1201,202.39a5.07,5.07,0,0,0-1.63,3.3h10.2a5.13,5.13,0,0,0-1.64-3.29,4.93,4.93,0,0,0-3.46-1.27A5,5,0,0,0,1201,202.39Z"/><path d="M1229.61,200.45a6.92,6.92,0,0,1,1.79,5.15v9.15h-2.88v-8.82a4.88,4.88,0,0,0-1.11-3.48,4.17,4.17,0,0,0-3.18-1.17,5,5,0,0,0-3.69,1.36,5.35,5.35,0,0,0-1.35,3.92v8.19h-2.88v-15.9h2.76v2.4a5.58,5.58,0,0,1,2.35-1.89,8.25,8.25,0,0,1,3.38-.66A6.55,6.55,0,0,1,1229.61,200.45Z"/><path d="M1253.75,213.82a4.29,4.29,0,0,1-1.56.82,6.52,6.52,0,0,1-1.92.29,5.1,5.1,0,0,1-3.72-1.29,4.93,4.93,0,0,1-1.32-3.69v-8.73h-2.7v-2.37h2.7v-3.48h2.88v3.48h4.56v2.37h-4.56v8.61a2.79,2.79,0,0,0,.64,2,2.41,2.41,0,0,0,1.85.69,3.47,3.47,0,0,0,2.25-.75Z"/><path d="M1257.27,195.25a1.77,1.77,0,0,1-.55-1.32,1.83,1.83,0,0,1,.55-1.34,1.9,1.9,0,0,1,1.4-.55,1.93,1.93,0,0,1,1.39.52,1.74,1.74,0,0,1,.56,1.31,1.85,1.85,0,0,1-.56,1.36,1.88,1.88,0,0,1-1.39.56A1.93,1.93,0,0,1,1257.27,195.25Zm0,3.6h2.88v15.9h-2.88Z"/><path d="M1280.6,192.49v22.26h-2.76v-2.52a6.24,6.24,0,0,1-2.43,2,7.53,7.53,0,0,1-3.24.69,8.36,8.36,0,0,1-4.14-1,7.33,7.33,0,0,1-2.87-2.87,9.22,9.22,0,0,1,0-8.47,7.35,7.35,0,0,1,2.87-2.85,8.36,8.36,0,0,1,4.14-1,7.61,7.61,0,0,1,3.15.64,6.13,6.13,0,0,1,2.4,1.91v-8.76Zm-5.46,19.21a5,5,0,0,0,1.92-2,6.54,6.54,0,0,0,0-5.85,4.83,4.83,0,0,0-1.92-2,5.79,5.79,0,0,0-5.48,0,5,5,0,0,0-1.92,2,6.46,6.46,0,0,0,0,5.85,5.08,5.08,0,0,0,1.92,2,5.64,5.64,0,0,0,5.48,0Z"/><path d="M1300.37,207.76h-12.9a5,5,0,0,0,1.84,3.37,6,6,0,0,0,3.92,1.28,5.9,5.9,0,0,0,4.59-1.92l1.59,1.86a7,7,0,0,1-2.69,1.92,10.09,10.09,0,0,1-8-.38,7.38,7.38,0,0,1-3-2.89,8.3,8.3,0,0,1-1.06-4.2,8.43,8.43,0,0,1,1-4.17,7.43,7.43,0,0,1,2.85-2.9,8.13,8.13,0,0,1,4.1-1,7.93,7.93,0,0,1,4.06,1,7.28,7.28,0,0,1,2.79,2.9,8.82,8.82,0,0,1,1,4.26A8.25,8.25,0,0,1,1300.37,207.76Zm-11.27-5.37a5.07,5.07,0,0,0-1.63,3.3h10.2a5.13,5.13,0,0,0-1.64-3.29,4.93,4.93,0,0,0-3.46-1.27A5,5,0,0,0,1289.1,202.39Z"/><path d="M1317.72,200.45a6.92,6.92,0,0,1,1.79,5.15v9.15h-2.88v-8.82a4.88,4.88,0,0,0-1.11-3.48,4.17,4.17,0,0,0-3.18-1.17,5,5,0,0,0-3.69,1.36,5.35,5.35,0,0,0-1.35,3.92v8.19h-2.88v-15.9h2.76v2.4a5.58,5.58,0,0,1,2.35-1.89,8.25,8.25,0,0,1,3.38-.66A6.55,6.55,0,0,1,1317.72,200.45Z"/><path d="M1332.92,192.49h2.88v22.26h-2.88Z"/><path d="M1343.84,213.88a7.64,7.64,0,0,1-3-2.9,8.79,8.79,0,0,1,0-8.37,7.52,7.52,0,0,1,3-2.88,8.72,8.72,0,0,1,4.26-1,8.61,8.61,0,0,1,4.24,1,7.54,7.54,0,0,1,2.94,2.88,8.72,8.72,0,0,1,0,8.37,7.66,7.66,0,0,1-2.94,2.9,8.52,8.52,0,0,1-4.24,1.05A8.62,8.62,0,0,1,1343.84,213.88Zm10-17.07h1.77l-13.2,20.07h-1.8Zm-3,14.89a5,5,0,0,0,1.91-2,6.54,6.54,0,0,0,0-5.85,4.87,4.87,0,0,0-1.91-2,5.81,5.81,0,0,0-5.49,0,5,5,0,0,0-1.92,2,6.46,6.46,0,0,0,0,5.85,5.08,5.08,0,0,0,1.92,2,5.66,5.66,0,0,0,5.49,0Z"/><path d="M1372.91,199.72a7.32,7.32,0,0,1,2.86,2.85,9.14,9.14,0,0,1,0,8.47,7.31,7.31,0,0,1-2.86,2.87,8.36,8.36,0,0,1-4.14,1,7.53,7.53,0,0,1-3.24-.69,6.24,6.24,0,0,1-2.43-2v2.52h-2.76V192.49h2.88v8.76a6.13,6.13,0,0,1,2.4-1.91,7.61,7.61,0,0,1,3.15-.64A8.36,8.36,0,0,1,1372.91,199.72Zm-1.64,12a5.08,5.08,0,0,0,1.92-2,6.38,6.38,0,0,0,0-5.85,5,5,0,0,0-1.92-2,5.77,5.77,0,0,0-5.47,0,4.83,4.83,0,0,0-1.92,2,6.54,6.54,0,0,0,0,5.85,5,5,0,0,0,1.92,2,5.62,5.62,0,0,0,5.47,0Z"/><path d="M1395.11,207.76h-12.9a5,5,0,0,0,1.84,3.37,6,6,0,0,0,3.92,1.28,5.9,5.9,0,0,0,4.59-1.92l1.59,1.86a7,7,0,0,1-2.69,1.92,10.09,10.09,0,0,1-8-.38,7.38,7.38,0,0,1-3-2.89,8.3,8.3,0,0,1-1.06-4.2,8.43,8.43,0,0,1,1-4.17,7.43,7.43,0,0,1,2.85-2.9,8.13,8.13,0,0,1,4.1-1,7.93,7.93,0,0,1,4.06,1,7.28,7.28,0,0,1,2.79,2.9,8.82,8.82,0,0,1,1,4.26A8.25,8.25,0,0,1,1395.11,207.76Zm-11.27-5.37a5.07,5.07,0,0,0-1.63,3.3h10.2a5.13,5.13,0,0,0-1.64-3.29,4.93,4.93,0,0,0-3.46-1.27A5,5,0,0,0,1383.84,202.39Z"/><path d="M1404.14,199.42a8.06,8.06,0,0,1,3.57-.72v2.79a5.62,5.62,0,0,0-.66,0,4.85,4.85,0,0,0-3.68,1.39,5.53,5.53,0,0,0-1.33,4v7.92h-2.88v-15.9h2.76v2.67A4.91,4.91,0,0,1,1404.14,199.42Z"/><path d="M1434.35,198.85v15.9h-2.73v-2.4a5.79,5.79,0,0,1-2.3,1.9,7.14,7.14,0,0,1-3.1.68,6.94,6.94,0,0,1-5-1.76,6.83,6.83,0,0,1-1.83-5.17v-9.15h2.88v8.82a4.92,4.92,0,0,0,1.11,3.49,4.15,4.15,0,0,0,3.18,1.19,4.75,4.75,0,0,0,3.6-1.38,5.42,5.42,0,0,0,1.32-3.9v-8.22Z"/><path d="M1454.84,192.49v22.26h-2.76v-2.52a6.24,6.24,0,0,1-2.43,2,7.53,7.53,0,0,1-3.24.69,8.36,8.36,0,0,1-4.14-1,7.33,7.33,0,0,1-2.87-2.87,9.22,9.22,0,0,1,0-8.47,7.35,7.35,0,0,1,2.87-2.85,8.36,8.36,0,0,1,4.14-1,7.61,7.61,0,0,1,3.15.64,6.13,6.13,0,0,1,2.4,1.91v-8.76Zm-5.46,19.21a5,5,0,0,0,1.92-2,6.54,6.54,0,0,0,0-5.85,4.83,4.83,0,0,0-1.92-2,5.79,5.79,0,0,0-5.48,0,5,5,0,0,0-1.92,2,6.46,6.46,0,0,0,0,5.85,5.08,5.08,0,0,0,1.92,2,5.64,5.64,0,0,0,5.48,0Z"/><path d="M1459.55,214.34a2.05,2.05,0,0,1,1.44-3.52,1.93,1.93,0,0,1,1.41.57,2,2,0,0,1,.57,1.47,2,2,0,0,1-.59,1.48,1.9,1.9,0,0,1-1.39.59A2,2,0,0,1,1459.55,214.34Z"/><path d="M1493.65,193.75v21h-3v-9.36h-12.06v9.36h-3v-21h3v9h12.06v-9Z"/><path d="M1513.6,198.85l-6.95,15.9h-2.94l-7-15.9h3l5.46,12.75,5.58-12.75Z"/><path d="M1516.35,195.25a1.78,1.78,0,0,1-.56-1.32,1.84,1.84,0,0,1,.56-1.34,1.88,1.88,0,0,1,1.39-.55,2,2,0,0,1,1.4.52,1.73,1.73,0,0,1,.55,1.31,1.84,1.84,0,0,1-.55,1.36,2,2,0,0,1-2.79,0Zm0,3.6h2.88v15.9h-2.88Z"/><path d="M1525.48,214.4a8.23,8.23,0,0,1-2.82-1.33l1.2-2.28a8.61,8.61,0,0,0,2.55,1.2,10.49,10.49,0,0,0,3,.45q3.78,0,3.78-2.16a1.4,1.4,0,0,0-.51-1.14,3.21,3.21,0,0,0-1.27-.62c-.51-.13-1.24-.27-2.18-.43a21.23,21.23,0,0,1-3.13-.69,4.85,4.85,0,0,1-2.09-1.32,3.67,3.67,0,0,1-.87-2.61A4.09,4.09,0,0,1,1525,200a8.06,8.06,0,0,1,4.83-1.3,13.31,13.31,0,0,1,3.18.39,8.55,8.55,0,0,1,2.61,1l-1.23,2.28a8.27,8.27,0,0,0-4.59-1.26,5.31,5.31,0,0,0-2.79.6,1.81,1.81,0,0,0-1,1.59,1.52,1.52,0,0,0,.54,1.23,3.44,3.44,0,0,0,1.34.66c.53.14,1.27.3,2.23.48a24.47,24.47,0,0,1,3.11.7,4.63,4.63,0,0,1,2,1.28,3.55,3.55,0,0,1,.84,2.52,4,4,0,0,1-1.84,3.43,8.73,8.73,0,0,1-5,1.28A13.33,13.33,0,0,1,1525.48,214.4Z"/><path d="M1562.77,192.49v22.26H1560v-2.52a6.24,6.24,0,0,1-2.43,2,7.53,7.53,0,0,1-3.24.69,8.36,8.36,0,0,1-4.14-1,7.31,7.31,0,0,1-2.86-2.87,9.14,9.14,0,0,1,0-8.47,7.32,7.32,0,0,1,2.86-2.85,8.36,8.36,0,0,1,4.14-1,7.61,7.61,0,0,1,3.15.64,6.13,6.13,0,0,1,2.4,1.91v-8.76Zm-5.46,19.21a5,5,0,0,0,1.92-2,6.54,6.54,0,0,0,0-5.85,4.83,4.83,0,0,0-1.92-2,5.77,5.77,0,0,0-5.47,0,5,5,0,0,0-1.92,2,6.38,6.38,0,0,0,0,5.85,5.08,5.08,0,0,0,1.92,2,5.62,5.62,0,0,0,5.47,0Z"/><path d="M1583.05,198.85v15.9h-2.73v-2.4a5.76,5.76,0,0,1-2.29,1.9,7.19,7.19,0,0,1-3.11.68,6.94,6.94,0,0,1-5-1.76,6.83,6.83,0,0,1-1.83-5.17v-9.15H1571v8.82a4.92,4.92,0,0,0,1.11,3.49,4.15,4.15,0,0,0,3.18,1.19,4.75,4.75,0,0,0,3.6-1.38,5.42,5.42,0,0,0,1.32-3.9v-8.22Z"/><path d="M1599.85,197.47v1.38h4.62v2.37h-4.56v13.53H1597V201.22h-2.7v-2.37h2.7v-1.41a5.07,5.07,0,0,1,1.38-3.75,5.23,5.23,0,0,1,3.87-1.38,6.53,6.53,0,0,1,1.8.24,4.38,4.38,0,0,1,1.44.69l-.87,2.19a3.59,3.59,0,0,0-2.22-.75Q1599.85,194.68,1599.85,197.47Z"/><path d="M1617.75,200.32a6.25,6.25,0,0,1,1.75,4.83v9.6h-2.73v-2.1a4.53,4.53,0,0,1-2,1.69,7.87,7.87,0,0,1-3.17.59,6.61,6.61,0,0,1-4.27-1.29,4.14,4.14,0,0,1-1.61-3.39,4.18,4.18,0,0,1,1.53-3.38q1.53-1.27,4.86-1.27h4.56V205a3.67,3.67,0,0,0-1.08-2.85,4.56,4.56,0,0,0-3.18-1,8.41,8.41,0,0,0-2.76.46,7.12,7.12,0,0,0-2.28,1.25l-1.2-2.16a8.72,8.72,0,0,1,2.94-1.52,12.3,12.3,0,0,1,3.63-.52A7.2,7.2,0,0,1,1617.75,200.32ZM1614.88,212a4.19,4.19,0,0,0,1.74-2.08v-2.22h-4.44q-3.66,0-3.66,2.46a2.23,2.23,0,0,0,.93,1.89,4.25,4.25,0,0,0,2.58.69A5.35,5.35,0,0,0,1614.88,212Z"/><path d="M1638.15,200.45a6.91,6.91,0,0,1,1.78,5.15v9.15h-2.88v-8.82a4.88,4.88,0,0,0-1.11-3.48,4.17,4.17,0,0,0-3.18-1.17,5,5,0,0,0-3.69,1.36,5.35,5.35,0,0,0-1.35,3.92v8.19h-2.88v-15.9h2.76v2.4a5.61,5.61,0,0,1,2.36-1.89,8.21,8.21,0,0,1,3.37-.66A6.58,6.58,0,0,1,1638.15,200.45Z"/><path d="M1660.57,198.85v13.74q0,4.17-2.07,6.16t-6.18,2a14.79,14.79,0,0,1-4.29-.62,8.49,8.49,0,0,1-3.3-1.75l1.38-2.22a8.16,8.16,0,0,0,2.75,1.51,10.4,10.4,0,0,0,3.37.56,5.67,5.67,0,0,0,4.13-1.32,5.43,5.43,0,0,0,1.33-4v-1.26a6.35,6.35,0,0,1-2.5,1.84,8.37,8.37,0,0,1-3.23.62,8.67,8.67,0,0,1-4.12-1,7.27,7.27,0,0,1-2.9-2.73,8.16,8.16,0,0,1,0-8,7.15,7.15,0,0,1,2.9-2.71,8.78,8.78,0,0,1,4.12-1,8.45,8.45,0,0,1,3.35.66,6.19,6.19,0,0,1,2.53,1.95v-2.46Zm-5.47,12.06a4.89,4.89,0,0,0,2-1.85,5.13,5.13,0,0,0,.7-2.68,4.88,4.88,0,0,0-1.53-3.74,6.19,6.19,0,0,0-7.89,0,4.88,4.88,0,0,0-1.53,3.74,5.14,5.14,0,0,0,.71,2.68,4.89,4.89,0,0,0,2,1.85,6.35,6.35,0,0,0,5.64,0Z"/><path d="M1680.37,207.76h-12.9a5,5,0,0,0,1.85,3.37,6,6,0,0,0,3.91,1.28,5.9,5.9,0,0,0,4.59-1.92l1.59,1.86a7,7,0,0,1-2.68,1.92,10.11,10.11,0,0,1-8.06-.38,7.36,7.36,0,0,1-3-2.89,8.3,8.3,0,0,1-1.07-4.2,8.43,8.43,0,0,1,1-4.17,7.43,7.43,0,0,1,2.85-2.9,8.1,8.1,0,0,1,4.09-1,8,8,0,0,1,4.07,1,7.28,7.28,0,0,1,2.79,2.9,8.82,8.82,0,0,1,1,4.26A8.25,8.25,0,0,1,1680.37,207.76Zm-11.26-5.37a5.08,5.08,0,0,0-1.64,3.3h10.2a5.12,5.12,0,0,0-1.63-3.29,5.38,5.38,0,0,0-6.93,0Z"/><path d="M1689.4,199.42a8.06,8.06,0,0,1,3.57-.72v2.79a5.62,5.62,0,0,0-.66,0,4.83,4.83,0,0,0-3.67,1.39,5.54,5.54,0,0,0-1.34,4v7.92h-2.88v-15.9h2.76v2.67A4.91,4.91,0,0,1,1689.4,199.42Z"/><path d="M1141.93,233.47v1.38h4.62v2.37H1142v13.53h-2.88V237.22h-2.7v-2.37h2.7v-1.41a5.07,5.07,0,0,1,1.38-3.75,5.23,5.23,0,0,1,3.87-1.38,6.53,6.53,0,0,1,1.8.24,4.38,4.38,0,0,1,1.44.69l-.87,2.19a3.59,3.59,0,0,0-2.22-.75Q1141.93,230.68,1141.93,233.47Zm9.79-2.22a1.77,1.77,0,0,1-.55-1.32,1.83,1.83,0,0,1,.55-1.34,1.9,1.9,0,0,1,1.4-.55,1.93,1.93,0,0,1,1.39.52,1.74,1.74,0,0,1,.56,1.31,1.85,1.85,0,0,1-.56,1.36,1.88,1.88,0,0,1-1.39.56A1.93,1.93,0,0,1,1151.72,231.25Zm0,3.6h2.88v15.9h-2.88Z"/><path d="M1160.86,250.4a8.23,8.23,0,0,1-2.82-1.33l1.2-2.28a8.61,8.61,0,0,0,2.55,1.2,10.49,10.49,0,0,0,3,.45q3.78,0,3.78-2.16a1.4,1.4,0,0,0-.51-1.14,3.26,3.26,0,0,0-1.28-.62c-.51-.13-1.23-.27-2.17-.43a21.4,21.4,0,0,1-3.14-.69,4.82,4.82,0,0,1-2.08-1.32,3.63,3.63,0,0,1-.87-2.61,4.09,4.09,0,0,1,1.8-3.47,8.06,8.06,0,0,1,4.83-1.3,13.37,13.37,0,0,1,3.18.39,8.55,8.55,0,0,1,2.61,1l-1.23,2.28a8.27,8.27,0,0,0-4.59-1.26,5.31,5.31,0,0,0-2.79.6,1.81,1.81,0,0,0-1,1.59,1.52,1.52,0,0,0,.54,1.23,3.39,3.39,0,0,0,1.33.66c.53.14,1.28.3,2.24.48a24.26,24.26,0,0,1,3.1.7,4.66,4.66,0,0,1,2,1.28,3.55,3.55,0,0,1,.84,2.52,4,4,0,0,1-1.85,3.43,8.7,8.7,0,0,1-5,1.28A13.33,13.33,0,0,1,1160.86,250.4Z"/><path d="M1181.26,243.34l-3.3,3.06v4.35h-2.88V228.49H1178v14.28l8.66-7.92h3.48l-6.68,6.57,7.35,9.33h-3.54Z"/><path d="M1226.27,236.44a7,7,0,0,1,1.75,5.16v9.15h-2.87v-8.82a5,5,0,0,0-1.07-3.48,3.91,3.91,0,0,0-3-1.17,4.53,4.53,0,0,0-3.48,1.36,5.45,5.45,0,0,0-1.29,3.92v8.19h-2.88v-8.82a5,5,0,0,0-1.07-3.48,3.91,3.91,0,0,0-3-1.17,4.56,4.56,0,0,0-3.48,1.36,5.54,5.54,0,0,0-1.29,3.92v8.19h-2.88v-15.9h2.77v2.37a5.47,5.47,0,0,1,2.28-1.88,7.57,7.57,0,0,1,3.21-.64,7,7,0,0,1,3.29.75,5.24,5.24,0,0,1,2.23,2.19,6.08,6.08,0,0,1,2.5-2.16,8.15,8.15,0,0,1,3.62-.78A6.46,6.46,0,0,1,1226.27,236.44Z"/><path d="M1233.38,231.25a1.78,1.78,0,0,1-.56-1.32,1.84,1.84,0,0,1,.56-1.34,1.88,1.88,0,0,1,1.39-.55,2,2,0,0,1,1.4.52,1.73,1.73,0,0,1,.55,1.31,1.84,1.84,0,0,1-.55,1.36,2,2,0,0,1-2.79,0Zm-.05,3.6h2.88v15.9h-2.88Z"/><path d="M1242.51,250.4a8.23,8.23,0,0,1-2.82-1.33l1.2-2.28a8.61,8.61,0,0,0,2.55,1.2,10.49,10.49,0,0,0,3,.45q3.78,0,3.78-2.16a1.4,1.4,0,0,0-.51-1.14,3.21,3.21,0,0,0-1.27-.62c-.51-.13-1.24-.27-2.18-.43a21.23,21.23,0,0,1-3.13-.69,4.85,4.85,0,0,1-2.09-1.32,3.67,3.67,0,0,1-.87-2.61A4.09,4.09,0,0,1,1242,236a8.06,8.06,0,0,1,4.83-1.3,13.31,13.31,0,0,1,3.18.39,8.55,8.55,0,0,1,2.61,1l-1.23,2.28a8.27,8.27,0,0,0-4.59-1.26,5.31,5.31,0,0,0-2.79.6,1.81,1.81,0,0,0-1,1.59,1.52,1.52,0,0,0,.54,1.23,3.44,3.44,0,0,0,1.34.66c.53.14,1.27.3,2.23.48a24.47,24.47,0,0,1,3.11.7,4.63,4.63,0,0,1,2,1.28,3.55,3.55,0,0,1,.84,2.52,4,4,0,0,1-1.84,3.43,8.73,8.73,0,0,1-5,1.28A13.33,13.33,0,0,1,1242.51,250.4Z"/><path d="M1265.67,249.82a4.29,4.29,0,0,1-1.56.82,6.52,6.52,0,0,1-1.92.29,5.1,5.1,0,0,1-3.72-1.29,4.93,4.93,0,0,1-1.32-3.69v-8.73h-2.7v-2.37h2.7v-3.48H1260v3.48h4.56v2.37H1260v8.61a2.79,2.79,0,0,0,.65,2,2.39,2.39,0,0,0,1.84.69,3.47,3.47,0,0,0,2.25-.75Z"/><path d="M1282.92,243.76H1270a5,5,0,0,0,1.85,3.37,6,6,0,0,0,3.91,1.28,5.9,5.9,0,0,0,4.59-1.92l1.59,1.86a7,7,0,0,1-2.68,1.92,10.11,10.11,0,0,1-8.06-.38,7.36,7.36,0,0,1-3-2.89,8.3,8.3,0,0,1-1.07-4.2,8.43,8.43,0,0,1,1-4.17,7.43,7.43,0,0,1,2.85-2.9,8.1,8.1,0,0,1,4.09-1,8,8,0,0,1,4.07,1,7.28,7.28,0,0,1,2.79,2.9,8.82,8.82,0,0,1,1,4.26A8.25,8.25,0,0,1,1282.92,243.76Zm-11.26-5.37a5.08,5.08,0,0,0-1.64,3.3h10.2a5.12,5.12,0,0,0-1.63-3.29,5.38,5.38,0,0,0-6.93,0Z"/><path d="M1292,235.42a8.06,8.06,0,0,1,3.57-.72v2.79a5.62,5.62,0,0,0-.66,0,4.83,4.83,0,0,0-3.67,1.39,5.54,5.54,0,0,0-1.34,4v7.92H1287v-15.9h2.76v2.67A4.91,4.91,0,0,1,1292,235.42Z"/><path d="M1322.34,228.49v22.26h-2.76v-2.52a6.24,6.24,0,0,1-2.43,2,7.53,7.53,0,0,1-3.24.69,8.36,8.36,0,0,1-4.14-1,7.31,7.31,0,0,1-2.86-2.87,9.14,9.14,0,0,1,0-8.47,7.32,7.32,0,0,1,2.86-2.85,8.36,8.36,0,0,1,4.14-1,7.61,7.61,0,0,1,3.15.64,6.13,6.13,0,0,1,2.4,1.91v-8.76Zm-5.46,19.21a5,5,0,0,0,1.92-2,6.54,6.54,0,0,0,0-5.85,4.83,4.83,0,0,0-1.92-2,5.77,5.77,0,0,0-5.47,0,5,5,0,0,0-1.92,2,6.38,6.38,0,0,0,0,5.85,5.08,5.08,0,0,0,1.92,2,5.62,5.62,0,0,0,5.47,0Z"/><path d="M1342.62,234.85v15.9h-2.73v-2.4a5.76,5.76,0,0,1-2.29,1.9,7.19,7.19,0,0,1-3.11.68,6.94,6.94,0,0,1-5-1.76,6.83,6.83,0,0,1-1.83-5.17v-9.15h2.88v8.82a4.92,4.92,0,0,0,1.11,3.49,4.15,4.15,0,0,0,3.18,1.19,4.75,4.75,0,0,0,3.6-1.38,5.42,5.42,0,0,0,1.32-3.9v-8.22Z"/><path d="M1356.18,228.49h2.88v22.26h-2.88Z"/><path d="M1364.6,231.25a1.78,1.78,0,0,1-.56-1.32,1.84,1.84,0,0,1,.56-1.34A1.88,1.88,0,0,1,1366,228a2,2,0,0,1,1.4.52,1.73,1.73,0,0,1,.55,1.31,1.84,1.84,0,0,1-.55,1.36,2,2,0,0,1-2.79,0Zm0,3.6h2.88v15.9h-2.88Z"/><path d="M1387,234.85l-7,15.9h-2.94l-7-15.9h3l5.46,12.75,5.58-12.75Z"/><path d="M1390.82,247.4a2,2,0,0,1,.55,1.46,3.57,3.57,0,0,1-.1.87c-.07.28-.21.71-.41,1.29l-1.41,4.17h-1.89l1.11-4.47a1.88,1.88,0,0,1-.91-.71,2,2,0,0,1-.35-1.15,2,2,0,0,1,.57-1.47,2,2,0,0,1,1.44-.57A1.85,1.85,0,0,1,1390.82,247.4Z"/><path d="M1406.13,249.88a7.61,7.61,0,0,1-3-2.9,8.72,8.72,0,0,1,0-8.37,7.5,7.5,0,0,1,3-2.88,9.3,9.3,0,0,1,8.51,0,7.54,7.54,0,0,1,2.94,2.88,8.79,8.79,0,0,1,0,8.37,7.66,7.66,0,0,1-2.94,2.9,9.15,9.15,0,0,1-8.51,0Zm7-2.18a5,5,0,0,0,1.9-2,6.54,6.54,0,0,0,0-5.85,4.85,4.85,0,0,0-1.9-2,5.81,5.81,0,0,0-5.49,0,5,5,0,0,0-1.92,2,6.38,6.38,0,0,0,0,5.85,5.08,5.08,0,0,0,1.92,2,5.66,5.66,0,0,0,5.49,0Z"/><path d="M1437.84,234.85v13.74q0,4.17-2.07,6.16t-6.18,2a14.79,14.79,0,0,1-4.29-.62,8.49,8.49,0,0,1-3.3-1.75l1.38-2.22a8.16,8.16,0,0,0,2.75,1.51,10.4,10.4,0,0,0,3.37.56,5.67,5.67,0,0,0,4.13-1.32,5.43,5.43,0,0,0,1.33-4v-1.26a6.35,6.35,0,0,1-2.5,1.84,8.37,8.37,0,0,1-3.23.62,8.67,8.67,0,0,1-4.12-1,7.27,7.27,0,0,1-2.9-2.73,8.16,8.16,0,0,1,0-8,7.15,7.15,0,0,1,2.9-2.71,8.78,8.78,0,0,1,4.12-1,8.45,8.45,0,0,1,3.35.66,6.19,6.19,0,0,1,2.53,1.95v-2.46Zm-5.47,12.06a4.89,4.89,0,0,0,2-1.85,5.13,5.13,0,0,0,.7-2.68,4.88,4.88,0,0,0-1.53-3.74,6.19,6.19,0,0,0-7.89,0,4.88,4.88,0,0,0-1.53,3.74,5.14,5.14,0,0,0,.71,2.68,4.89,4.89,0,0,0,2,1.85,6.35,6.35,0,0,0,5.64,0Z"/><path d="M1466.4,228.49v22.26h-2.76v-2.52a6.24,6.24,0,0,1-2.43,2,7.53,7.53,0,0,1-3.24.69,8.36,8.36,0,0,1-4.14-1A7.31,7.31,0,0,1,1451,247a9.14,9.14,0,0,1,0-8.47,7.32,7.32,0,0,1,2.86-2.85,8.36,8.36,0,0,1,4.14-1,7.61,7.61,0,0,1,3.15.64,6.13,6.13,0,0,1,2.4,1.91v-8.76Zm-5.46,19.21a5,5,0,0,0,1.92-2,6.54,6.54,0,0,0,0-5.85,4.83,4.83,0,0,0-1.92-2,5.77,5.77,0,0,0-5.47,0,5,5,0,0,0-1.92,2,6.38,6.38,0,0,0,0,5.85,5.08,5.08,0,0,0,1.92,2,5.62,5.62,0,0,0,5.47,0Z"/><path d="M1486.68,234.85v15.9H1484v-2.4a5.76,5.76,0,0,1-2.29,1.9,7.19,7.19,0,0,1-3.11.68,6.94,6.94,0,0,1-5-1.76,6.83,6.83,0,0,1-1.83-5.17v-9.15h2.88v8.82a4.92,4.92,0,0,0,1.11,3.49,4.15,4.15,0,0,0,3.18,1.19,4.75,4.75,0,0,0,3.6-1.38,5.42,5.42,0,0,0,1.32-3.9v-8.22Z"/><path d="M1512.81,235.72a7.35,7.35,0,0,1,2.87,2.85,9.22,9.22,0,0,1,0,8.47,7.33,7.33,0,0,1-2.87,2.87,8.36,8.36,0,0,1-4.14,1,7.53,7.53,0,0,1-3.24-.69,6.24,6.24,0,0,1-2.43-2v2.52h-2.76V228.49h2.88v8.76a6.13,6.13,0,0,1,2.4-1.91,7.61,7.61,0,0,1,3.15-.64A8.36,8.36,0,0,1,1512.81,235.72Zm-1.63,12a5.08,5.08,0,0,0,1.92-2,6.46,6.46,0,0,0,0-5.85,5,5,0,0,0-1.92-2,5.79,5.79,0,0,0-5.48,0,4.83,4.83,0,0,0-1.92,2,6.54,6.54,0,0,0,0,5.85,5,5,0,0,0,1.92,2,5.64,5.64,0,0,0,5.48,0Z"/><path d="M1520.75,231.25a1.78,1.78,0,0,1-.56-1.32,1.84,1.84,0,0,1,.56-1.34,1.88,1.88,0,0,1,1.39-.55,2,2,0,0,1,1.4.52,1.73,1.73,0,0,1,.55,1.31,1.84,1.84,0,0,1-.55,1.36,2,2,0,0,1-2.79,0Zm0,3.6h2.88v15.9h-2.88Z"/><path d="M1544.07,228.49v22.26h-2.76v-2.52a6.24,6.24,0,0,1-2.43,2,7.53,7.53,0,0,1-3.24.69,8.36,8.36,0,0,1-4.14-1,7.31,7.31,0,0,1-2.86-2.87,9.14,9.14,0,0,1,0-8.47,7.32,7.32,0,0,1,2.86-2.85,8.36,8.36,0,0,1,4.14-1,7.61,7.61,0,0,1,3.15.64,6.13,6.13,0,0,1,2.4,1.91v-8.76Zm-5.46,19.21a5,5,0,0,0,1.92-2,6.54,6.54,0,0,0,0-5.85,4.83,4.83,0,0,0-1.92-2,5.77,5.77,0,0,0-5.47,0,5,5,0,0,0-1.92,2,6.38,6.38,0,0,0,0,5.85,5.08,5.08,0,0,0,1.92,2,5.62,5.62,0,0,0,5.47,0Z"/><path d="M1554.51,235.42a8.06,8.06,0,0,1,3.57-.72v2.79a5.62,5.62,0,0,0-.66,0,4.85,4.85,0,0,0-3.68,1.39,5.53,5.53,0,0,0-1.33,4v7.92h-2.88v-15.9h2.76v2.67A4.91,4.91,0,0,1,1554.51,235.42Z"/><path d="M1572.44,236.32a6.29,6.29,0,0,1,1.75,4.83v9.6h-2.73v-2.1a4.56,4.56,0,0,1-2.06,1.69,7.82,7.82,0,0,1-3.16.59,6.64,6.64,0,0,1-4.28-1.29,4.13,4.13,0,0,1-1.6-3.39,4.18,4.18,0,0,1,1.53-3.38q1.53-1.27,4.86-1.27h4.56V241a3.67,3.67,0,0,0-1.08-2.85,4.56,4.56,0,0,0-3.18-1,8.41,8.41,0,0,0-2.76.46,7.12,7.12,0,0,0-2.28,1.25l-1.2-2.16a8.72,8.72,0,0,1,2.94-1.52,12.3,12.3,0,0,1,3.63-.52A7.22,7.22,0,0,1,1572.44,236.32ZM1569.57,248a4.19,4.19,0,0,0,1.74-2.08v-2.22h-4.44q-3.66,0-3.66,2.46a2.23,2.23,0,0,0,.93,1.89,4.25,4.25,0,0,0,2.58.69A5.35,5.35,0,0,0,1569.57,248Z"/><path d="M1594.83,234.85v13.74q0,4.17-2.07,6.16t-6.18,2a14.79,14.79,0,0,1-4.29-.62,8.49,8.49,0,0,1-3.3-1.75l1.38-2.22a8.11,8.11,0,0,0,2.74,1.51,10.46,10.46,0,0,0,3.38.56,5.65,5.65,0,0,0,4.12-1.32,5.43,5.43,0,0,0,1.34-4v-1.26a6.38,6.38,0,0,1-2.51,1.84,8.32,8.32,0,0,1-3.22.62,8.71,8.71,0,0,1-4.13-1,7.24,7.24,0,0,1-2.89-2.73,8.16,8.16,0,0,1,0-8,7.12,7.12,0,0,1,2.89-2.71,8.82,8.82,0,0,1,4.13-1,8.4,8.4,0,0,1,3.34.66,6.22,6.22,0,0,1,2.54,1.95v-2.46Zm-5.48,12.06a4.89,4.89,0,0,0,2-1.85,5.14,5.14,0,0,0,.71-2.68,4.88,4.88,0,0,0-1.53-3.74,6.19,6.19,0,0,0-7.89,0,4.88,4.88,0,0,0-1.53,3.74,5.13,5.13,0,0,0,.7,2.68,4.89,4.89,0,0,0,2,1.85,6,6,0,0,0,2.84.66A5.88,5.88,0,0,0,1589.35,246.91Z"/><path d="M1614.63,243.76h-12.9a5,5,0,0,0,1.84,3.37,6,6,0,0,0,3.92,1.28,5.9,5.9,0,0,0,4.59-1.92l1.59,1.86a7,7,0,0,1-2.69,1.92,10.09,10.09,0,0,1-8-.38,7.38,7.38,0,0,1-3-2.89,8.3,8.3,0,0,1-1.06-4.2,8.43,8.43,0,0,1,1-4.17,7.43,7.43,0,0,1,2.85-2.9,8.13,8.13,0,0,1,4.1-1,7.93,7.93,0,0,1,4.06,1,7.28,7.28,0,0,1,2.79,2.9,8.82,8.82,0,0,1,1,4.26A8.25,8.25,0,0,1,1614.63,243.76Zm-11.27-5.37a5.07,5.07,0,0,0-1.63,3.3h10.2a5.13,5.13,0,0,0-1.64-3.29,4.93,4.93,0,0,0-3.46-1.27A5,5,0,0,0,1603.36,238.39Z"/><path d="M1623.66,235.42a8.06,8.06,0,0,1,3.57-.72v2.79a5.62,5.62,0,0,0-.66,0,4.85,4.85,0,0,0-3.68,1.39,5.53,5.53,0,0,0-1.33,4v7.92h-2.88v-15.9h2.76v2.67A4.91,4.91,0,0,1,1623.66,235.42Z"/><path d="M1648,249.82a4.29,4.29,0,0,1-1.56.82,6.52,6.52,0,0,1-1.92.29,5.1,5.1,0,0,1-3.72-1.29,4.93,4.93,0,0,1-1.32-3.69v-8.73h-2.7v-2.37h2.7v-3.48h2.88v3.48h4.56v2.37h-4.56v8.61a2.79,2.79,0,0,0,.64,2,2.41,2.41,0,0,0,1.85.69,3.47,3.47,0,0,0,2.25-.75Z"/><path d="M1651.51,231.25a1.77,1.77,0,0,1-.55-1.32,1.83,1.83,0,0,1,.55-1.34,1.9,1.9,0,0,1,1.4-.55,1.93,1.93,0,0,1,1.39.52,1.74,1.74,0,0,1,.56,1.31,1.85,1.85,0,0,1-.56,1.36,1.88,1.88,0,0,1-1.39.56A1.93,1.93,0,0,1,1651.51,231.25Zm0,3.6h2.88v15.9h-2.88Z"/><path d="M1659.84,228.49h2.88v22.26h-2.88Z"/><path d="M1687.12,236.32a6.26,6.26,0,0,1,1.76,4.83v9.6h-2.73v-2.1a4.56,4.56,0,0,1-2.06,1.69,7.82,7.82,0,0,1-3.16.59,6.64,6.64,0,0,1-4.28-1.29,4.13,4.13,0,0,1-1.6-3.39,4.18,4.18,0,0,1,1.53-3.38q1.53-1.27,4.86-1.27H1686V241a3.67,3.67,0,0,0-1.08-2.85,4.56,4.56,0,0,0-3.18-1,8.41,8.41,0,0,0-2.76.46,7.12,7.12,0,0,0-2.28,1.25l-1.2-2.16a8.72,8.72,0,0,1,2.94-1.52,12.3,12.3,0,0,1,3.63-.52A7.18,7.18,0,0,1,1687.12,236.32ZM1684.26,248a4.19,4.19,0,0,0,1.74-2.08v-2.22h-4.44q-3.66,0-3.66,2.46a2.23,2.23,0,0,0,.93,1.89,4.25,4.25,0,0,0,2.58.69A5.35,5.35,0,0,0,1684.26,248Z"/><path d="M1703.16,249.82a4.29,4.29,0,0,1-1.56.82,6.52,6.52,0,0,1-1.92.29,5.1,5.1,0,0,1-3.72-1.29,4.93,4.93,0,0,1-1.32-3.69v-8.73h-2.7v-2.37h2.7v-3.48h2.88v3.48h4.56v2.37h-4.56v8.61a2.79,2.79,0,0,0,.64,2,2.41,2.41,0,0,0,1.85.69,3.47,3.47,0,0,0,2.25-.75Z"/><path d="M1260.51,269.47v1.38h4.62v2.37h-4.56v13.53h-2.88V273.22H1255v-2.37h2.7v-1.41a5.07,5.07,0,0,1,1.38-3.75,5.23,5.23,0,0,1,3.87-1.38,6.53,6.53,0,0,1,1.8.24,4.38,4.38,0,0,1,1.44.69l-.87,2.19a3.59,3.59,0,0,0-2.22-.75Q1260.51,266.68,1260.51,269.47Zm9.8-2.22a1.78,1.78,0,0,1-.56-1.32,1.84,1.84,0,0,1,.56-1.34,1.88,1.88,0,0,1,1.39-.55,2,2,0,0,1,1.4.52,1.73,1.73,0,0,1,.55,1.31,1.84,1.84,0,0,1-.55,1.36,2,2,0,0,1-2.79,0Zm0,3.6h2.88v15.9h-2.88Z"/><path d="M1279.44,286.4a8.23,8.23,0,0,1-2.82-1.33l1.2-2.28a8.61,8.61,0,0,0,2.55,1.2,10.49,10.49,0,0,0,3,.45q3.78,0,3.78-2.16a1.4,1.4,0,0,0-.51-1.14,3.21,3.21,0,0,0-1.27-.62c-.51-.13-1.24-.27-2.18-.43a21.23,21.23,0,0,1-3.13-.69,4.85,4.85,0,0,1-2.09-1.32,3.67,3.67,0,0,1-.87-2.61,4.09,4.09,0,0,1,1.8-3.47,8.06,8.06,0,0,1,4.83-1.3,13.31,13.31,0,0,1,3.18.39,8.55,8.55,0,0,1,2.61,1.05l-1.23,2.28a8.27,8.27,0,0,0-4.59-1.26,5.31,5.31,0,0,0-2.79.6,1.81,1.81,0,0,0-1,1.59,1.52,1.52,0,0,0,.54,1.23,3.44,3.44,0,0,0,1.34.66c.53.14,1.27.3,2.23.48a24.47,24.47,0,0,1,3.11.7,4.63,4.63,0,0,1,2,1.28,3.55,3.55,0,0,1,.84,2.52,4,4,0,0,1-1.84,3.43,8.73,8.73,0,0,1-5,1.28A13.33,13.33,0,0,1,1279.44,286.4Z"/><path d="M1299.84,279.34l-3.3,3.06v4.35h-2.88V264.49h2.88v14.28l8.67-7.92h3.48l-6.69,6.57,7.35,9.33h-3.54Z"/><path d="M1325.79,279.76h-12.9a5,5,0,0,0,1.85,3.37,6,6,0,0,0,3.91,1.28,5.9,5.9,0,0,0,4.59-1.92l1.59,1.86a7,7,0,0,1-2.68,1.92,10.11,10.11,0,0,1-8.06-.38,7.36,7.36,0,0,1-3-2.89,8.3,8.3,0,0,1-1.07-4.2,8.43,8.43,0,0,1,1-4.17,7.43,7.43,0,0,1,2.85-2.9,8.1,8.1,0,0,1,4.09-1,8,8,0,0,1,4.07,1,7.28,7.28,0,0,1,2.79,2.9,8.82,8.82,0,0,1,1,4.26A8.25,8.25,0,0,1,1325.79,279.76Zm-11.26-5.37a5.08,5.08,0,0,0-1.64,3.3h10.2a5.12,5.12,0,0,0-1.63-3.29,5.38,5.38,0,0,0-6.93,0Z"/><path d="M1342.41,271.72a7.35,7.35,0,0,1,2.87,2.85,9.22,9.22,0,0,1,0,8.47,7.33,7.33,0,0,1-2.87,2.87,8.36,8.36,0,0,1-4.14,1,7.53,7.53,0,0,1-3.24-.69,6.24,6.24,0,0,1-2.43-2v2.52h-2.76V264.49h2.88v8.76a6.13,6.13,0,0,1,2.4-1.91,7.61,7.61,0,0,1,3.15-.64A8.36,8.36,0,0,1,1342.41,271.72Zm-1.63,12a5.08,5.08,0,0,0,1.92-2,6.46,6.46,0,0,0,0-5.85,5,5,0,0,0-1.92-2,5.79,5.79,0,0,0-5.48,0,4.83,4.83,0,0,0-1.92,2,6.54,6.54,0,0,0,0,5.85,5,5,0,0,0,1.92,2,5.64,5.64,0,0,0,5.48,0Z"/><path d="M1364.61,279.76h-12.9a5,5,0,0,0,1.85,3.37,6,6,0,0,0,3.91,1.28,5.9,5.9,0,0,0,4.59-1.92l1.59,1.86a7,7,0,0,1-2.68,1.92,10.11,10.11,0,0,1-8.06-.38,7.36,7.36,0,0,1-3-2.89,8.3,8.3,0,0,1-1.07-4.2,8.43,8.43,0,0,1,1-4.17,7.43,7.43,0,0,1,2.85-2.9,8.1,8.1,0,0,1,4.09-1,8,8,0,0,1,4.07,1,7.28,7.28,0,0,1,2.79,2.9,8.82,8.82,0,0,1,1,4.26A8.25,8.25,0,0,1,1364.61,279.76Zm-11.26-5.37a5.08,5.08,0,0,0-1.64,3.3h10.2a5.12,5.12,0,0,0-1.63-3.29,5.38,5.38,0,0,0-6.93,0Z"/><path d="M1369.47,286.4a8.23,8.23,0,0,1-2.82-1.33l1.2-2.28a8.61,8.61,0,0,0,2.55,1.2,10.49,10.49,0,0,0,3,.45q3.78,0,3.78-2.16a1.4,1.4,0,0,0-.51-1.14,3.21,3.21,0,0,0-1.27-.62c-.51-.13-1.24-.27-2.18-.43a21.23,21.23,0,0,1-3.13-.69,4.85,4.85,0,0,1-2.09-1.32,3.67,3.67,0,0,1-.87-2.61A4.09,4.09,0,0,1,1369,272a8.06,8.06,0,0,1,4.83-1.3,13.31,13.31,0,0,1,3.18.39,8.55,8.55,0,0,1,2.61,1.05l-1.23,2.28a8.27,8.27,0,0,0-4.59-1.26,5.31,5.31,0,0,0-2.79.6,1.81,1.81,0,0,0-1,1.59,1.52,1.52,0,0,0,.54,1.23,3.44,3.44,0,0,0,1.34.66c.53.14,1.27.3,2.23.48a24.47,24.47,0,0,1,3.11.7,4.63,4.63,0,0,1,2,1.28,3.55,3.55,0,0,1,.84,2.52,4,4,0,0,1-1.84,3.43,8.73,8.73,0,0,1-5,1.28A13.33,13.33,0,0,1,1369.47,286.4Z"/><path d="M1392.63,285.82a4.29,4.29,0,0,1-1.56.82,6.52,6.52,0,0,1-1.92.29,5.1,5.1,0,0,1-3.72-1.29,4.93,4.93,0,0,1-1.32-3.69v-8.73h-2.7v-2.37h2.7v-3.48H1387v3.48h4.56v2.37H1387v8.61a2.79,2.79,0,0,0,.65,2,2.39,2.39,0,0,0,1.84.69,3.47,3.47,0,0,0,2.25-.75Z"/><path d="M1407,272.32a6.25,6.25,0,0,1,1.75,4.83v9.6H1406v-2.1a4.53,4.53,0,0,1-2,1.69,7.87,7.87,0,0,1-3.17.59,6.61,6.61,0,0,1-4.27-1.29,4.14,4.14,0,0,1-1.61-3.39,4.18,4.18,0,0,1,1.53-3.38q1.53-1.28,4.86-1.27h4.56V277a3.67,3.67,0,0,0-1.08-2.85,4.56,4.56,0,0,0-3.18-1,8.41,8.41,0,0,0-2.76.46,7.12,7.12,0,0,0-2.28,1.25l-1.2-2.16a8.72,8.72,0,0,1,2.94-1.52,12.3,12.3,0,0,1,3.63-.52A7.2,7.2,0,0,1,1407,272.32ZM1404.09,284a4.19,4.19,0,0,0,1.74-2.08v-2.22h-4.44q-3.66,0-3.66,2.46a2.23,2.23,0,0,0,.93,1.89,4.25,4.25,0,0,0,2.58.69A5.35,5.35,0,0,0,1404.09,284Z"/><path d="M1427.36,272.45a6.91,6.91,0,0,1,1.78,5.15v9.15h-2.88v-8.82a4.88,4.88,0,0,0-1.11-3.48,4.17,4.17,0,0,0-3.18-1.17,5,5,0,0,0-3.69,1.36,5.35,5.35,0,0,0-1.35,3.92v8.19h-2.88v-15.9h2.76v2.4a5.61,5.61,0,0,1,2.36-1.89,8.21,8.21,0,0,1,3.37-.66A6.58,6.58,0,0,1,1427.36,272.45Z"/><path d="M1449.57,264.49v22.26h-2.76v-2.52a6.24,6.24,0,0,1-2.43,2,7.53,7.53,0,0,1-3.24.69,8.36,8.36,0,0,1-4.14-1,7.31,7.31,0,0,1-2.86-2.87,9.14,9.14,0,0,1,0-8.47,7.32,7.32,0,0,1,2.86-2.85,8.36,8.36,0,0,1,4.14-1,7.61,7.61,0,0,1,3.15.64,6.13,6.13,0,0,1,2.4,1.91v-8.76Zm-5.46,19.21a5,5,0,0,0,1.92-2,6.54,6.54,0,0,0,0-5.85,4.83,4.83,0,0,0-1.92-2,5.77,5.77,0,0,0-5.47,0,5,5,0,0,0-1.92,2,6.38,6.38,0,0,0,0,5.85,5.08,5.08,0,0,0,1.92,2,5.62,5.62,0,0,0,5.47,0Z"/><path d="M1469.34,279.76h-12.9a5,5,0,0,0,1.85,3.37,6,6,0,0,0,3.91,1.28,5.9,5.9,0,0,0,4.59-1.92l1.59,1.86a7,7,0,0,1-2.68,1.92,10.11,10.11,0,0,1-8.06-.38,7.3,7.3,0,0,1-3-2.89,8.3,8.3,0,0,1-1.07-4.2,8.43,8.43,0,0,1,1-4.17,7.36,7.36,0,0,1,2.85-2.9,8.1,8.1,0,0,1,4.09-1,8,8,0,0,1,4.07,1,7.35,7.35,0,0,1,2.79,2.9,8.93,8.93,0,0,1,1,4.26A8.25,8.25,0,0,1,1469.34,279.76Zm-11.26-5.37a5.08,5.08,0,0,0-1.64,3.3h10.2a5.12,5.12,0,0,0-1.63-3.29,5.38,5.38,0,0,0-6.93,0Z"/><path d="M1486.7,272.45a6.91,6.91,0,0,1,1.78,5.15v9.15h-2.88v-8.82a4.88,4.88,0,0,0-1.11-3.48,4.17,4.17,0,0,0-3.18-1.17,5,5,0,0,0-3.69,1.36,5.35,5.35,0,0,0-1.35,3.92v8.19h-2.88v-15.9h2.76v2.4a5.61,5.61,0,0,1,2.36-1.89,8.21,8.21,0,0,1,3.37-.66A6.58,6.58,0,0,1,1486.7,272.45Z"/><path d="M1505.13,269.47v1.38h4.62v2.37h-4.56v13.53h-2.88V273.22h-2.7v-2.37h2.7v-1.41a5.07,5.07,0,0,1,1.38-3.75,5.23,5.23,0,0,1,3.87-1.38,6.53,6.53,0,0,1,1.8.24,4.38,4.38,0,0,1,1.44.69l-.87,2.19a3.59,3.59,0,0,0-2.22-.75Q1505.13,266.68,1505.13,269.47Z"/><path d="M1523,272.32a6.25,6.25,0,0,1,1.75,4.83v9.6h-2.73v-2.1a4.53,4.53,0,0,1-2,1.69,7.87,7.87,0,0,1-3.17.59,6.61,6.61,0,0,1-4.27-1.29,4.14,4.14,0,0,1-1.61-3.39,4.18,4.18,0,0,1,1.53-3.38q1.53-1.28,4.86-1.27h4.56V277a3.67,3.67,0,0,0-1.08-2.85,4.56,4.56,0,0,0-3.18-1,8.41,8.41,0,0,0-2.76.46,7.12,7.12,0,0,0-2.28,1.25l-1.2-2.16a8.72,8.72,0,0,1,2.94-1.52,12.3,12.3,0,0,1,3.63-.52A7.2,7.2,0,0,1,1523,272.32ZM1520.16,284a4.19,4.19,0,0,0,1.74-2.08v-2.22h-4.44q-3.66,0-3.66,2.46a2.23,2.23,0,0,0,.93,1.89,4.25,4.25,0,0,0,2.58.69A5.35,5.35,0,0,0,1520.16,284Z"/><path d="M1530.12,264.49H1533v22.26h-2.88Z"/><path d="M1553.49,264.49v22.26h-2.76v-2.52a6.24,6.24,0,0,1-2.43,2,7.53,7.53,0,0,1-3.24.69,8.36,8.36,0,0,1-4.14-1,7.33,7.33,0,0,1-2.87-2.87,9.22,9.22,0,0,1,0-8.47,7.35,7.35,0,0,1,2.87-2.85,8.36,8.36,0,0,1,4.14-1,7.61,7.61,0,0,1,3.15.64,6.13,6.13,0,0,1,2.4,1.91v-8.76ZM1548,283.7a5,5,0,0,0,1.92-2,6.54,6.54,0,0,0,0-5.85,4.83,4.83,0,0,0-1.92-2,5.79,5.79,0,0,0-5.48,0,5,5,0,0,0-1.92,2,6.46,6.46,0,0,0,0,5.85,5.08,5.08,0,0,0,1.92,2,5.64,5.64,0,0,0,5.48,0Z"/><path d="M1573.26,279.76h-12.9a5,5,0,0,0,1.84,3.37,6,6,0,0,0,3.92,1.28,5.9,5.9,0,0,0,4.59-1.92l1.59,1.86a7,7,0,0,1-2.69,1.92,10.09,10.09,0,0,1-8-.38,7.38,7.38,0,0,1-3-2.89,8.3,8.3,0,0,1-1.06-4.2,8.43,8.43,0,0,1,1-4.17,7.43,7.43,0,0,1,2.85-2.9,8.13,8.13,0,0,1,4.1-1,7.93,7.93,0,0,1,4.06,1,7.28,7.28,0,0,1,2.79,2.9,8.82,8.82,0,0,1,1,4.26A8.25,8.25,0,0,1,1573.26,279.76ZM1562,274.39a5.07,5.07,0,0,0-1.63,3.3h10.2a5.13,5.13,0,0,0-1.64-3.29,4.93,4.93,0,0,0-3.46-1.27A5,5,0,0,0,1562,274.39Z"/><path d="M1582.29,271.42a8.06,8.06,0,0,1,3.57-.72v2.79a5.62,5.62,0,0,0-.66,0,4.85,4.85,0,0,0-3.68,1.39,5.53,5.53,0,0,0-1.33,4v7.92h-2.88v-15.9h2.76v2.67A4.91,4.91,0,0,1,1582.29,271.42Z"/><path d="M1588.56,286.34a2.05,2.05,0,0,1,1.44-3.52,1.92,1.92,0,0,1,1.41.57,2.17,2.17,0,0,1,0,2.95,1.9,1.9,0,0,1-1.39.59A2,2,0,0,1,1588.56,286.34Z"/><path d="M1329.05,360.15a27.26,27.26,0,0,1-8.13-3.15l4.56-10.32a29.08,29.08,0,0,0,6.72,2.79,26.27,26.27,0,0,0,7.14,1,11.07,11.07,0,0,0,4.2-.57,1.83,1.83,0,0,0,1.26-1.71q0-1.32-1.65-2a35.48,35.48,0,0,0-5.43-1.44,61.58,61.58,0,0,1-8.1-2.19,13.8,13.8,0,0,1-5.64-3.84,10.41,10.41,0,0,1-2.4-7.23,12.45,12.45,0,0,1,2.22-7.2,14.67,14.67,0,0,1,6.63-5.1,27.54,27.54,0,0,1,10.71-1.86,38.88,38.88,0,0,1,8.49.93,26.6,26.6,0,0,1,7.35,2.73l-4.26,10.26a26,26,0,0,0-11.7-3.12q-5.46,0-5.46,2.64,0,1.26,1.62,1.89a34.31,34.31,0,0,0,5.34,1.35,54.91,54.91,0,0,1,8.1,2.07,14.09,14.09,0,0,1,5.73,3.81,10.22,10.22,0,0,1,2.43,7.2,12.32,12.32,0,0,1-2.22,7.17,14.94,14.94,0,0,1-6.63,5.1,27.15,27.15,0,0,1-10.71,1.89A44.06,44.06,0,0,1,1329.05,360.15Z"/><path d="M1371.5,329.34h-12.3v-11H1398v11h-12.3v31H1371.5Z"/><path d="M1428.14,353h-16l-2.82,7.32H1395l18.36-42h13.92l18.36,42H1431Zm-3.9-10.2-4.08-10.56-4.08,10.56Z"/><path d="M1465.88,349.8H1462v10.56h-14.16v-42h20.22a24.79,24.79,0,0,1,10.14,1.92,15.52,15.52,0,0,1,7,21.78,14.4,14.4,0,0,1-5.88,5.34l8.82,13H1473Zm5.64-19.23a6.3,6.3,0,0,0-4.32-1.29H1462v9.84h5.16a6.3,6.3,0,0,0,4.32-1.29,5.3,5.3,0,0,0,0-7.26Z"/><path d="M1501.1,329.34h-12.3v-11h38.76v11h-12.3v31H1501.1Z"/></g></svg>
