<svg id="Spilskærm" xmlns="http://www.w3.org/2000/svg" xmlns:xlink="http://www.w3.org/1999/xlink" width="1920" height="1080" viewBox="0 0 1920 1080"><defs><style>.cls-1{fill:#8ac0ff;}.cls-2{fill:#5aa6ff;}.cls-3{fill:#ff911e;}.cls-4{fill:#b06315;}.cls-5{fill:#fff;}.cls-6{fill:#ffb841;}.cls-7{fill:#4e90de;}.cls-8{fill:#aed3ff;}.cls-9{fill:#bf272d;}.cls-10,.cls-22,.cls-28,.cls-29,.cls-30,.cls-33,.cls-35{fill:none;stroke-miterlimit:10;}.cls-10,.cls-22{stroke:#7f272d;}.cls-10{stroke-width:0.23px;}.cls-11{fill:#136641;}.cls-12{fill:#1d9660;}.cls-13{fill:#22b573;}.cls-14{fill:#156e46;}.cls-15{fill:#447ec2;}.cls-16{fill:#733101;}.cls-17{fill:#bd733b;}.cls-18{fill:#734727;}.cls-19{fill:#975f34;}.cls-20{fill:#ca7f45;}.cls-21{fill:url(#radial-gradient);}.cls-22{stroke-width:0.12px;}.cls-23{fill:#e0bda7;}.cls-24{fill:#123f70;}.cls-25{fill:#39b34a;}.cls-26{fill:#88ff98;}.cls-27{fill:#16882d;}.cls-28,.cls-29,.cls-35{stroke:#603813;}.cls-28{stroke-width:1.47px;}.cls-29,.cls-30{stroke-linecap:round;}.cls-29{stroke-width:4.41px;}.cls-30{stroke:#000;}.cls-30,.cls-35{stroke-width:0.73px;}.cls-31{fill:#a47d65;}.cls-32{fill:#ff7baa;}.cls-33{stroke:#754c24;stroke-width:2.2px;}.cls-34{fill:#603813;}.cls-36{fill:#d7b09a;}.cls-37{fill:#38a84e;}.cls-38{fill:#247033;}.cls-39{opacity:0.1;}.cls-40{fill:#1c63b2;}</style><radialGradient id="radial-gradient" cx="233.5" cy="182.5" r="102.5" gradientUnits="userSpaceOnUse"><stop offset="0" stop-color="#f5911e"/><stop offset="1" stop-color="#ffe65c"/></radialGradient></defs><title>game_screen</title><rect class="cls-1" width="1921" height="592"/><path class="cls-2" d="M1920,702c-67.14,30.09-164,44-288,44-77,0-156.55,41.4-215.78,28.39a114,114,0,0,0-53.32,1C1299.31,792,1226.26,753,1138,753c-76.73,0-148-7.54-207.09-20.46a113.66,113.66,0,0,0-54.19,1.26C812.29,751.39,729,762,638,762c-84.64,0-162.64-9.18-225-24.62A115.25,115.25,0,0,0,364.08,736C309.64,746.17,246.43,752,179,752c-32.06,0-99.82-17.94-179-40V529.55C55.09,519,110.36,513,179,513c84.64,0,166.64,42.18,229,57.62A115.25,115.25,0,0,0,456.92,572c54.44-10.17,113.65-49,181.08-49,76.73,0,152,40.54,211.09,53.46a113.66,113.66,0,0,0,54.19-1.26C967.71,557.61,1047,514,1138,514c77,0,152.55,40.6,211.78,53.61a114,114,0,0,0,53.32-1C1466.69,550,1543.74,507,1632,507c116.36,0,220.17,17.51,288,44.77V702"/><path class="cls-3" d="M1029.5,758.84s-37,24.58-13.35,32.29S1029.5,758.84,1029.5,758.84Z"/><path class="cls-4" d="M1029.41,758.85s-15.17,48.41,10.36,40S1029.41,758.85,1029.41,758.85Z"/><path class="cls-3" d="M1081.17,734.37l-6.76,19.32a8.94,8.94,0,0,0-.27.88c-.34,1.38-2.84,7.78-19.87,5.2a6.25,6.25,0,0,0-.87-.06c-6.32.13-81,1.08-114.8-25.39,0,0,45.17-52,102.49-66.51S1083.78,716,1083.78,716s-22.62,15.6-51.46-4.94C1032.32,711,1048.25,748.7,1081.17,734.37Z"/><path class="cls-4" d="M1034.5,759.13a.32.32,0,0,1-.29-.1,41.62,41.62,0,0,1-4-5.53,75.19,75.19,0,0,1-7.53-16.32,92.85,92.85,0,0,1-4.48-26.83,123.3,123.3,0,0,1,5.14-37,.34.34,0,0,1,.42-.23.33.33,0,0,1,.22.41,122.65,122.65,0,0,0-5.11,36.82,92.55,92.55,0,0,0,4.44,26.64,75.58,75.58,0,0,0,7.46,16.18,40.94,40.94,0,0,0,3.92,5.43.32.32,0,0,1,0,.47A.27.27,0,0,1,1034.5,759.13Z"/><path class="cls-4" d="M985.26,693.9s6.22-14.52-11.68-13.92a.94.94,0,0,1-.61-1.68c8.81-6.74,40.09-28.12,59.2-7.91C1032.17,670.39,1000.73,682.88,985.26,693.9Z"/><path class="cls-4" d="M938.6,734.32S928.09,701.17,905,693.09a3.15,3.15,0,0,0-3.54,4.87c8.82,11.63,24,38.17,16.71,76.41a3.15,3.15,0,0,0,5.85,2.14C928.58,768.41,934,755.26,938.6,734.32Z"/><circle class="cls-5" cx="1059.4" cy="688.3" r="13.79"/><circle cx="1059.4" cy="688.3" r="3.15"/><path class="cls-4" d="M1017.82,729.3a.37.37,0,0,1-.29-.11,17,17,0,0,1-3-5.72c-1.12-3.41-2-9,.14-16.47a.34.34,0,0,1,.42-.22.33.33,0,0,1,.22.41c-4,13.88,2.66,21.48,2.73,21.55a.33.33,0,0,1,0,.47A.31.31,0,0,1,1017.82,729.3Z"/><path class="cls-4" d="M1013.14,727.51a.35.35,0,0,1-.29-.09c-.05-.07-5.87-6.24-2.27-17.52a.34.34,0,0,1,.42-.22.34.34,0,0,1,.22.42c-3.49,10.9,2.06,16.79,2.11,16.85a.33.33,0,0,1,0,.47A.37.37,0,0,1,1013.14,727.51Z"/><path id="Plastikpose" class="cls-6" d="M1734.32,584.93l-23.85,49-19.73,41.67-8.58,21s-4.78,15.91,7,21.95,83.34,33.72,124.69,1.91c0,0,12.41-10.82-1.27-45.49,0,0-17.81-56.94-12.72-98.92l-9.86-1.28-1.91,47.72s1,5.41-4.14,5.72-32.76,4.46-53.12-1.91c0,0-4.13,0-1.27-6.36l10.82-33.4Z"/><path class="cls-7" d="M0,712c29.27,5.63,122.16,24.31,151.72,20.5C194.17,727,242.49,675,291,675c72.95,0,139,55.82,196.27,67.59a281.13,281.13,0,0,0,118-1.33C665.08,727.86,739.7,671,818,671c61.91,0,118.27,53.91,169.54,62.59a278.94,278.94,0,0,0,86.52.77C1120.15,727.7,1173.24,675,1227,675c75.81,0,144.29,56.36,203,69a278.58,278.58,0,0,0,120.69-1.15C1611,729.09,1686.55,672,1766,672c102.17,0,138.67,9.37,154,30V876c-13.78,23.66-48.14,35-154,35-75.81,0-146.29-7.36-205-20a278.58,278.58,0,0,0-120.69,1.15C1380.05,905.91,1306.45,914,1227,914c-61.91,0-120.27-4.91-171.54-13.59a278.94,278.94,0,0,0-86.52-.77A1064.22,1064.22,0,0,1,818,910c-73,0-141-6.82-198.27-18.59a281.13,281.13,0,0,0-118,1.33C441.92,906.14,369.3,914,291,914c-69,0-133.63-6.1-188.93-16.73C72.8,891.64,29.56,893.18,0,897Z"/><g id="Plastikflaske"><path class="cls-8" d="M1347.26,817.15a4.51,4.51,0,0,0-1.2-1.93l-38.13-30.49a4.43,4.43,0,0,0-4.29-1.05l-11.77,3.44a4.38,4.38,0,0,0-3,2.91l-15.31,46.1a4.44,4.44,0,0,0,0,2.55h0l35.59,121.8h0a3.12,3.12,0,0,0,.55,1.13l7.54,9.89c2.75,3.25,5.51,6.82,9.47,5.67l6-1.74c3.95-1.16,6.17-5.6,4.92-9.87l1,3.37a4.58,4.58,0,0,0,5.68,3.11l15.25-4.45a4.59,4.59,0,0,0,3.11-5.68l-1-3.38c1.24,4.28,5.5,6.83,9.46,5.67l6-1.74c4-1.15,4.36-5.65,4.92-9.87l1-12.39a3.06,3.06,0,0,0-.15-1.25h0l-35.59-121.8Z"/><rect class="cls-9" x="1288.7" y="840.25" width="77.61" height="92.4" transform="translate(-195.32 407.86) rotate(-16.29)"/><rect class="cls-9" x="1283.04" y="783.69" width="29.98" height="3.7" transform="translate(-168.21 395.54) rotate(-16.29)"/><path class="cls-5" d="M1310.87,893.71a14.67,14.67,0,0,1-5.93.5,10.29,10.29,0,0,1-5.25-2.11,10.85,10.85,0,0,1-3.34-4.27,21.6,21.6,0,0,1-.87-2.42,26.94,26.94,0,0,1-.7-3.66,19.61,19.61,0,0,1,.08-5.22,22,22,0,0,1,1.38-5.37,19.54,19.54,0,0,1-2-4.43,16.46,16.46,0,0,1-.67-4.1.83.83,0,0,1,.12-.5c.09-.12.16-.19.21-.2.25-.07.41.21.49.85a17.5,17.5,0,0,0,.62,2.67,25.12,25.12,0,0,0,1.75,4.18,18.72,18.72,0,0,1,5.39-7.68,17,17,0,0,1,6.13-3.25,19.87,19.87,0,0,1,2-.48q6-1,9.08,2.15a7.22,7.22,0,0,1,1.78,3,9.12,9.12,0,0,1,.23,3.72,11,11,0,0,1-4.1,7,14.56,14.56,0,0,1-5.33,2.77,19.74,19.74,0,0,1-2.71.59q-7,1-11.15-3.65a17.31,17.31,0,0,0-.6,4.81,23.87,23.87,0,0,0,.24,4.93c.21,1.1.42,2,.63,2.74a17.35,17.35,0,0,0,.81,2.2,7.75,7.75,0,0,0,2.66,3.27,7.13,7.13,0,0,0,4.18,1.3,13.84,13.84,0,0,0,4-.46,17.81,17.81,0,0,0,8.24-4.76,12.34,12.34,0,0,0,2.6-4,30.34,30.34,0,0,0,1.33-5.37c.06-.37.18-.53.37-.48s.26.3.19.72a33.69,33.69,0,0,1-1.3,5.34,14.2,14.2,0,0,1-2.4,4.11A16.13,16.13,0,0,1,1310.87,893.71Zm-12.33-21.35q4.64,6,13.06,3.54a11.23,11.23,0,0,0,6.85-4.88,8.38,8.38,0,0,0,1.1-6.87,6.15,6.15,0,0,0-4.45-4.39,10.18,10.18,0,0,0-5.76.18,13.42,13.42,0,0,0-5.87,3.71A21.51,21.51,0,0,0,1298.54,872.36Z"/><path class="cls-5" d="M1327.28,870.59c1.83-.53,3.07.35,3.74,2.65a8.53,8.53,0,0,1,.17,3.61,14,14,0,0,1-1.86,5.33,1.89,1.89,0,0,0,2,.43A2.67,2.67,0,0,0,1333,881a10.79,10.79,0,0,0,1-2.51c.16-.69.27-1.19.34-1.5s.14-.77.23-1.35.14-.94.16-1.07a.29.29,0,0,1,.21-.24c.24-.1.4,0,.45.15a.47.47,0,0,1,0,.29l-.07.59c0,.39-.08.67-.11.84s-.09.48-.16.92-.15.8-.22,1.06-.17.62-.3,1.07a10.15,10.15,0,0,1-.37,1.08c-.13.28-.28.6-.48,1a4.12,4.12,0,0,1-.6.87,3.53,3.53,0,0,1-1.6,1.07,3.16,3.16,0,0,1-2.68-.27,5.69,5.69,0,0,1-2.81,2.2c-1.82.54-3.07-.35-3.74-2.64a8.55,8.55,0,0,1-.16-3.61,13.13,13.13,0,0,1,1.86-5.38A6.29,6.29,0,0,1,1327.28,870.59Zm.76,1a4,4,0,0,0-2,2,12.89,12.89,0,0,0-1.4,4.39,11.26,11.26,0,0,0,0,4.8c.34,1.15.94,1.6,1.82,1.34a3.52,3.52,0,0,0,1.8-1.62,3.29,3.29,0,0,1-1.14-1.66c-.26-1.09,0-1.76.84-2a1.11,1.11,0,0,1,.91.11,1,1,0,0,1,.5.52,2.89,2.89,0,0,1,.09.6,22.67,22.67,0,0,0,.69-3.08,9,9,0,0,0-.16-4C1329.6,871.84,1329,871.36,1328,871.63Z"/><path class="cls-5" d="M1336.75,875.32c0,.65,0,1.26,0,1.83a7,7,0,0,0,.26,1.67,3.22,3.22,0,0,0,.82,1.39,1.29,1.29,0,0,0,1.4.34c.9-.26,1.59-1.12,2.09-2.58a40.62,40.62,0,0,0,1.34-5.41c.1-.41.25-.6.44-.58a.33.33,0,0,1,.2.38c0,.18-.09.57-.17,1.18s-.14,1-.19,1.28l-.27,1.3a8.57,8.57,0,0,1-.4,1.41c-.14.33-.33.75-.57,1.27a4.77,4.77,0,0,1-.76,1.21,4.88,4.88,0,0,1-2.23,1.55,3,3,0,0,1-2,0,2.05,2.05,0,0,1-1.08-.86,4.5,4.5,0,0,1-.43-1c-.09-.3-.19-.69-.3-1.18a12,12,0,0,1-.22-2.45c0-.82,0-1.28,0-1.39a52.68,52.68,0,0,1,.47-7.5,55.92,55.92,0,0,1,1.08-6.31,17.13,17.13,0,0,1,1-3,3.79,3.79,0,0,1,2.12-2.09c.57-.16,1.08.14,1.52.9a3.09,3.09,0,0,1,.2.55,8.45,8.45,0,0,1,0,3.49,35.1,35.1,0,0,1-4.39,13.47C1336.79,874.3,1336.78,874.68,1336.75,875.32Zm2.34-8.42a37.93,37.93,0,0,0,1.28-5.85,9.51,9.51,0,0,0,.05-3.08c-.14-.5-.3-.72-.48-.67s-.58.7-1,1.89a39.66,39.66,0,0,0-1.27,6.15c-.44,2.9-.75,5.43-.94,7.57A31.14,31.14,0,0,0,1339.09,866.9Z"/><path class="cls-5" d="M1352.18,869.84a16.24,16.24,0,0,0-.44,4,9.94,9.94,0,0,0,.32,2c.14.48.4.67.77.57s.93-.75,1.38-1.83a27.79,27.79,0,0,0,1.58-5.87.59.59,0,0,1,.22-.47c.18-.13.3-.09.37.14a1.21,1.21,0,0,1,0,.48q-1.41,8-3.77,8.66a2.13,2.13,0,0,1-2.07-.53,3.06,3.06,0,0,1-.77-1.4,9.25,9.25,0,0,1-.29-2.4q-1.59,5.72-3.76,6.34a1.83,1.83,0,0,1-1.2,0,3.2,3.2,0,0,1-1.91-2.37c-.71-2.45-.38-5.24,1-8.38a8.61,8.61,0,0,1,3.62-4,5.59,5.59,0,0,1,1.29-.58,4.1,4.1,0,0,1,3.27.35.78.78,0,0,1,.46.72c0,.28-.21.44-.55.48a1.8,1.8,0,0,0-2.19-.82c-1.08.31-2.15,1.55-3.23,3.71a21,21,0,0,0-1.48,4.25,8.59,8.59,0,0,0-.32,4.32c.28,1,.74,1.37,1.36,1.19q2.25-.66,3.87-8.61a9.09,9.09,0,0,1,.64-2.24,1.75,1.75,0,0,1,1.09-.87,5.63,5.63,0,0,1,.8-.11,2.53,2.53,0,0,0,.93-.23A14.71,14.71,0,0,0,1352.18,869.84Z"/><rect class="cls-8" x="1288.29" y="782.2" width="17.66" height="1.64" transform="translate(-167.54 395.18) rotate(-16.29)"/><rect class="cls-9" x="1279.88" y="768.15" width="29.98" height="14.37" rx="1.14" transform="translate(-165.47 394.25) rotate(-16.29)"/><line class="cls-10" x1="1283.63" y1="771.99" x2="1287.2" y2="784.21"/><line class="cls-10" x1="1282.05" y1="772.45" x2="1285.62" y2="784.67"/><line class="cls-10" x1="1285.2" y1="771.53" x2="1288.77" y2="783.75"/><line class="cls-10" x1="1280.47" y1="772.91" x2="1284.04" y2="785.13"/><line class="cls-10" x1="1289.93" y1="770.15" x2="1293.5" y2="782.37"/><line class="cls-10" x1="1288.36" y1="770.61" x2="1291.93" y2="782.83"/><line class="cls-10" x1="1291.51" y1="769.69" x2="1295.08" y2="781.91"/><line class="cls-10" x1="1286.78" y1="771.07" x2="1290.35" y2="783.29"/><line class="cls-10" x1="1296.24" y1="768.31" x2="1299.81" y2="780.52"/><line class="cls-10" x1="1294.66" y1="768.77" x2="1298.23" y2="780.99"/><line class="cls-10" x1="1297.82" y1="767.84" x2="1301.39" y2="780.06"/><line class="cls-10" x1="1293.09" y1="769.23" x2="1296.66" y2="781.45"/><line class="cls-10" x1="1302.55" y1="766.46" x2="1306.12" y2="778.68"/><line class="cls-10" x1="1300.97" y1="766.92" x2="1304.54" y2="779.14"/><line class="cls-10" x1="1304.12" y1="766" x2="1307.69" y2="778.22"/><line class="cls-10" x1="1299.39" y1="767.38" x2="1302.96" y2="779.6"/><line class="cls-10" x1="1305.7" y1="765.54" x2="1309.27" y2="777.76"/></g><path class="cls-11" d="M1692.32,896.94c16.54,1,3.26-25.24,3.26-25.24"/><path class="cls-11" d="M1695.58,871.7s-19.79,24.2-3.26,25.24"/><path class="cls-12" d="M1680.59,887.12c11.73,9.82,15-15.4,15-15.4"/><path class="cls-12" d="M1695.63,871.72s-26.78,5.57-15,15.4"/><path class="cls-13" d="M1855.26,908.17S1726,926.84,1647.35,828.31a4.57,4.57,0,0,1-.81-1.6c-.61-2.22-1.87-7.82.52-9.54,0,0,8.28,13.85,16.24,13,0,0-12.21-10.89-12.42-18.67a4,4,0,0,1,2-3.57c4.64-2.8,20.53-8.85,60.82,3.44C1763.61,826.56,1838.9,874.52,1855.26,908.17Z"/><circle class="cls-5" cx="1670.6" cy="816.34" r="7.33"/><circle cx="1670.6" cy="816.34" r="2.17"/><path class="cls-11" d="M1757.21,821.57s11.8-4.63,18.31-.14c0,0,4.9,5.34-11.06,11.86,0,0-3.5-2.68-11.35-6.12S1757.21,821.57,1757.21,821.57Z"/><path class="cls-12" d="M1713,811.1s15.84-18.55,22.77-13.88,21,12.53,28.75,36.28C1764.47,833.5,1729.2,815.61,1713,811.1Z"/><path class="cls-11" d="M1855.73,907.38,1911,870.14a1.69,1.69,0,0,1,2.25,2.46l-36.42,44.92a1.66,1.66,0,0,0-.35.8l-8.14,52.52a1.69,1.69,0,0,1-3.33,0L1855,909A1.69,1.69,0,0,1,1855.73,907.38Z"/><path class="cls-14" d="M1681.13,861.78a.28.28,0,0,1-.13-.11.31.31,0,0,1,.1-.42c8.23-5.15,14.61-11.09,19-17.65a40.66,40.66,0,0,0,6.5-16.78,36.56,36.56,0,0,0-1.57-17.48.31.31,0,0,1,.16-.4.29.29,0,0,1,.39.17,37,37,0,0,1,1.62,17.79,41.29,41.29,0,0,1-6.6,17c-4.4,6.64-10.84,12.64-19.14,17.83A.3.3,0,0,1,1681.13,861.78Z"/><path class="cls-14" d="M1702.06,847.59a.24.24,0,0,1-.13-.11.31.31,0,0,1,.09-.42c3.69-2.3,5.89-5.28,6.38-8.62A9.28,9.28,0,0,0,1708,834a.3.3,0,0,1,.56-.22,9.8,9.8,0,0,1,.42,4.69c-.35,2.47-1.79,6-6.66,9.08A.28.28,0,0,1,1702.06,847.59Z"/><path class="cls-14" d="M1706.81,848a.33.33,0,0,1-.13-.13.29.29,0,0,1,.11-.41c7.24-4.18,4.79-9.91,4.68-10.15a.29.29,0,0,1,.15-.39.3.3,0,0,1,.4.15c0,.06,2.8,6.45-4.93,10.91A.28.28,0,0,1,1706.81,848Z"/><path class="cls-15" d="M1921,1080l-1-98V851s-82.66,36.69-128.69,43.33a120.28,120.28,0,0,1-43.78-1.66C1687.39,879,1619.1,842,1540,842c-92,0-181.13,39.84-245.85,57.79A120.59,120.59,0,0,1,1235,901c-60.42-13.87-129.28-51-209-51-71.64,0-143.53,35.58-200.19,47a119.25,119.25,0,0,1-51.69-1C712.26,880.9,640.35,843,557,843c-72.34,0-144.82,35.71-201.83,47.29a120.7,120.7,0,0,1-49.61-.16C246.76,877.41,0,848,0,848v232Z"/><g id="Ben_bagerst" data-name="Ben bagerst"><path class="cls-16" d="M486,627.5c0-4.69-7.61-8.5-17-8.5s-17,3.81-17,8.5a4.23,4.23,0,0,0,.05.5H452V776h34V628H486A4.23,4.23,0,0,0,486,627.5Z"/><ellipse class="cls-17" cx="469" cy="627.5" rx="11" ry="5.5"/><path class="cls-16" d="M277,761.5c0-4.69-7.61-8.5-17-8.5s-17,3.81-17,8.5a4.23,4.23,0,0,0,.05.5H243V910h34V762H277A4.23,4.23,0,0,0,277,761.5Z"/><ellipse class="cls-17" cx="260" cy="761.5" rx="11" ry="5.5"/><path class="cls-16" d="M59,901.5c0-4.69-7.61-8.5-17-8.5s-17,3.81-17,8.5a4.23,4.23,0,0,0,.05.5H25v148H59V902h0A4.23,4.23,0,0,0,59,901.5Z"/><ellipse class="cls-17" cx="42" cy="901.5" rx="11" ry="5.5"/></g><polygon class="cls-18" points="737.23 776 419 727.54 419 698.46 737.23 746.92 737.23 776"/><polygon class="cls-19" points="782.46 719.46 737.23 746.92 737.23 776 782.46 748.54 782.46 719.46"/><polygon class="cls-20" points="464.23 671 782.46 719.46 737.23 746.92 419 698.46 464.23 671"/><polygon class="cls-18" points="688.23 808 370 759.54 370 730.46 688.23 778.92 688.23 808"/><polygon class="cls-19" points="733.46 751.46 688.23 778.92 688.23 808 733.46 780.54 733.46 751.46"/><polygon class="cls-20" points="415.23 703 733.46 751.46 688.23 778.92 370 730.46 415.23 703"/><polygon class="cls-18" points="638.23 840 320 791.54 320 762.46 638.23 810.92 638.23 840"/><polygon class="cls-19" points="683.46 783.46 638.23 810.92 638.23 840 683.46 812.54 683.46 783.46"/><polygon class="cls-20" points="365.23 735 683.46 783.46 638.23 810.92 320 762.46 365.23 735"/><polygon class="cls-18" points="588.23 872 270 823.54 270 794.46 588.23 842.92 588.23 872"/><polygon class="cls-19" points="633.46 815.46 588.23 842.92 588.23 872 633.46 844.54 633.46 815.46"/><polygon class="cls-20" points="315.23 767 633.46 815.46 588.23 842.92 270 794.46 315.23 767"/><polygon class="cls-18" points="537.23 905 219 856.54 219 827.46 537.23 875.92 537.23 905"/><polygon class="cls-19" points="582.46 848.46 537.23 875.92 537.23 905 582.46 877.54 582.46 848.46"/><polygon class="cls-20" points="264.23 800 582.46 848.46 537.23 875.92 219 827.46 264.23 800"/><polygon class="cls-18" points="487.23 936 169 887.54 169 858.46 487.23 906.92 487.23 936"/><polygon class="cls-19" points="532.46 879.46 487.23 906.92 487.23 936 532.46 908.54 532.46 879.46"/><polygon class="cls-20" points="214.23 831 532.46 879.46 487.23 906.92 169 858.46 214.23 831"/><polygon class="cls-18" points="438.23 968 120 919.54 120 890.46 438.23 938.92 438.23 968"/><polygon class="cls-19" points="483.46 911.46 438.23 938.92 438.23 968 483.46 940.54 483.46 911.46"/><polygon class="cls-20" points="165.23 863 483.46 911.46 438.23 938.92 120 890.46 165.23 863"/><polygon class="cls-18" points="388.23 1000 70 951.54 70 922.46 388.23 970.92 388.23 1000"/><polygon class="cls-19" points="433.46 943.46 388.23 970.92 388.23 1000 433.46 972.54 433.46 943.46"/><polygon class="cls-20" points="115.23 895 433.46 943.46 388.23 970.92 70 922.46 115.23 895"/><polygon class="cls-18" points="338.23 1032 20 983.54 20 954.46 338.23 1002.92 338.23 1032"/><polygon class="cls-19" points="383.46 975.46 338.23 1002.92 338.23 1032 383.46 1004.54 383.46 975.46"/><polygon class="cls-20" points="65.23 927 383.46 975.46 338.23 1002.92 20 954.46 65.23 927"/><polygon class="cls-18" points="287.23 1065 -31 1016.54 -31 987.46 287.23 1035.92 287.23 1065"/><polygon class="cls-19" points="332.46 1008.46 287.23 1035.92 287.23 1065 332.46 1037.54 332.46 1008.46"/><polygon class="cls-20" points="14.23 960 332.46 1008.46 287.23 1035.92 -31 987.46 14.23 960"/><polygon class="cls-18" points="236.23 1098 -82 1049.54 -82 1020.46 236.23 1068.92 236.23 1098"/><polygon class="cls-19" points="281.46 1041.46 236.23 1068.92 236.23 1098 281.46 1070.54 281.46 1041.46"/><polygon class="cls-20" points="-36.77 993 281.46 1041.46 236.23 1068.92 -82 1020.46 -36.77 993"/><polygon class="cls-18" points="187.23 1130 -131 1081.54 -131 1052.46 187.23 1100.92 187.23 1130"/><polygon class="cls-19" points="232.46 1073.46 187.23 1100.92 187.23 1130 232.46 1102.54 232.46 1073.46"/><polygon class="cls-20" points="-85.77 1025 232.46 1073.46 187.23 1100.92 -131 1052.46 -85.77 1025"/><polygon class="cls-20" points="182.46 1105.46 137.23 1132.92 -146 1089.79 -146 1063.21 -135.77 1057 182.46 1105.46"/><path class="cls-16" d="M799,676.5c0-4.69-7.61-8.5-17-8.5s-17,3.81-17,8.5a4.23,4.23,0,0,0,0,.5h0V825h34V677h0A4.23,4.23,0,0,0,799,676.5Z"/><ellipse class="cls-17" cx="782" cy="676.5" rx="11" ry="5.5"/><path class="cls-16" d="M601,805.5c0-4.69-7.61-8.5-17-8.5s-17,3.81-17,8.5a4.23,4.23,0,0,0,0,.5h0V954h34V806h0A4.23,4.23,0,0,0,601,805.5Z"/><ellipse class="cls-17" cx="584" cy="805.5" rx="11" ry="5.5"/><path class="cls-16" d="M401,933.5c0-4.69-7.61-8.5-17-8.5s-17,3.81-17,8.5a4.23,4.23,0,0,0,.05.5H367v148h34V934H401A4.23,4.23,0,0,0,401,933.5Z"/><ellipse class="cls-17" cx="384" cy="933.5" rx="11" ry="5.5"/><path class="cls-16" d="M186,1073H186v92H152v-92h.05a4.23,4.23,0,0,1-.05-.5c0-4.69,7.61-8.5,17-8.5s17,3.81,17,8.5A4.23,4.23,0,0,1,186,1073Z"/><ellipse class="cls-17" cx="169" cy="1072.5" rx="11" ry="5.5"/><circle class="cls-21" cx="233.5" cy="182.5" r="102.5"/><circle class="cls-5" cx="1622.14" cy="333.31" r="86.69"/><circle class="cls-5" cx="1542.6" cy="331.72" r="86.69"/><circle class="cls-5" cx="1463.07" cy="331.72" r="86.69"/><circle class="cls-5" cx="1671.45" cy="255.36" r="86.69"/><circle class="cls-5" cx="1342.17" cy="333.31" r="86.69"/><circle class="cls-5" cx="1276.95" cy="303.08" r="86.69"/><circle class="cls-5" cx="1534.65" cy="244.23" r="86.69"/><circle class="cls-5" cx="1437.61" cy="272.86" r="86.69"/><circle class="cls-5" cx="1276.95" cy="225.14" r="86.69"/><circle class="cls-5" cx="1246.95" cy="138.14" r="86.69"/><circle class="cls-5" cx="1172.95" cy="210.14" r="86.69"/><circle class="cls-5" cx="1179.95" cy="316.14" r="86.69"/><circle class="cls-5" cx="1272.95" cy="358.14" r="86.69"/><circle class="cls-5" cx="1393.07" cy="167.87" r="86.69"/><circle class="cls-5" cx="1507.61" cy="129.69" r="86.69"/><circle class="cls-5" cx="1622.14" cy="167.87" r="86.69"/><rect x="1419.91" y="187.64" width="4.63" height="53.52" rx="2.32" transform="translate(568.17 -942.87) rotate(45)"/><rect x="1419.91" y="187.64" width="4.63" height="53.52" rx="2.32" transform="translate(2579.5 -639.66) rotate(135)"/><path d="M1513.21,214.19q5.8,5.15,5.8,13.59a18.77,18.77,0,0,1-2.68,10,18.15,18.15,0,0,1-8,6.86,29.91,29.91,0,0,1-12.82,2.5,38.25,38.25,0,0,1-13.72-2.45,24.14,24.14,0,0,1-10-6.58l2.5-3.74a23.64,23.64,0,0,0,8.88,5.95,32.08,32.08,0,0,0,12.33,2.31q8.94,0,13.73-4a13.39,13.39,0,0,0,4.8-10.89c0-4.68-1.63-8.32-4.89-10.95s-8.16-3.93-14.69-3.93h-4.23v-3.56l19.88-25.44h-35.81v-4.41h42.14v3.45l-20.16,25.83Q1507.41,209.06,1513.21,214.19Z"/><g id="Plastikflaske-2" data-name="Plastikflaske"><path class="cls-8" d="M1371.78,185.78a2.45,2.45,0,0,0-.33-1.18L1356.27,163a2.39,2.39,0,0,0-2.07-1.19h-6.64a2.4,2.4,0,0,0-2,1.06l-14.94,21.62a2.45,2.45,0,0,0-.42,1.32h0v68.66h0a1.62,1.62,0,0,0,.11.68l2.42,6.28c.93,2.1,1.82,4.38,4,4.38h3.36a4.23,4.23,0,0,0,4-4.38v1.9a2.49,2.49,0,0,0,2.48,2.48h8.6a2.49,2.49,0,0,0,2.48-2.48v-1.9a4.23,4.23,0,0,0,4,4.38h3.36c2.23,0,3.12-2.28,4-4.38l2.42-6.28a1.62,1.62,0,0,0,.11-.68h0V185.78Z"/><rect class="cls-9" x="1330" y="193.78" width="42" height="50"/><rect class="cls-9" x="1342.89" y="160.89" width="16.22" height="2"/><path class="cls-5" d="M1341.26,220a8,8,0,0,1-3.16-.65,5.61,5.61,0,0,1-2.41-1.89,5.85,5.85,0,0,1-1.08-2.72,9.94,9.94,0,0,1-.09-1.39,15,15,0,0,1,.19-2,10.89,10.89,0,0,1,.84-2.7,12,12,0,0,1,1.53-2.58,10.59,10.59,0,0,1-.36-2.6,8.79,8.79,0,0,1,.27-2.23.46.46,0,0,1,.14-.24.29.29,0,0,1,.14-.08c.14,0,.18.18.12.52a10.94,10.94,0,0,0-.08,1.48,14.15,14.15,0,0,0,.27,2.44,10.15,10.15,0,0,1,4-3.17,9.12,9.12,0,0,1,3.68-.76q.54,0,1.14.06c2.16.24,3.63,1.07,4.39,2.49a4,4,0,0,1,.46,1.84,5,5,0,0,1-.44,2,5.88,5.88,0,0,1-3.19,3,7.94,7.94,0,0,1-3.19.64,11,11,0,0,1-1.5-.11,6.39,6.39,0,0,1-5.23-3.59,9.31,9.31,0,0,0-1.05,2.41,13.52,13.52,0,0,0-.62,2.59c-.06.61-.08,1.12-.08,1.52a9.22,9.22,0,0,0,.08,1.27,4.11,4.11,0,0,0,.89,2.1,3.83,3.83,0,0,0,2,1.31,7.51,7.51,0,0,0,2.14.37,9.74,9.74,0,0,0,5-1.22,6.82,6.82,0,0,0,2-1.68,16.83,16.83,0,0,0,1.51-2.59c.08-.18.17-.24.26-.19s.09.19,0,.4a17.82,17.82,0,0,1-1.49,2.58,7.73,7.73,0,0,1-1.86,1.77A8.76,8.76,0,0,1,1341.26,220Zm-3.17-13c1,2.54,3.08,3.82,6.25,3.82a6.07,6.07,0,0,0,4.3-1.5,4.55,4.55,0,0,0,1.61-3.4,3.33,3.33,0,0,0-1.65-3,5.49,5.49,0,0,0-3-.78,7.27,7.27,0,0,0-3.61,1A11.64,11.64,0,0,0,1338.09,207.07Z"/><path class="cls-5" d="M1353.29,210.51c1,0,1.54.64,1.54,1.94a4.58,4.58,0,0,1-.46,1.9,7.68,7.68,0,0,1-1.78,2.49,1,1,0,0,0,1,.53,1.46,1.46,0,0,0,1.08-.57,5.91,5.91,0,0,0,.91-1.15l.4-.73c.09-.16.19-.38.33-.67l.24-.52a.15.15,0,0,1,.15-.1q.21,0,.21.15a.34.34,0,0,1,0,.15l-.13.29c-.08.2-.15.34-.19.42s-.12.24-.22.46-.2.39-.28.52l-.31.5q-.21.31-.36.51t-.39.42a2.18,2.18,0,0,1-.44.36,2,2,0,0,1-1,.32,1.75,1.75,0,0,1-1.35-.55,3.09,3.09,0,0,1-1.79.72c-1,0-1.54-.65-1.54-2a4.58,4.58,0,0,1,.46-1.9,7.17,7.17,0,0,1,1.78-2.51A3.38,3.38,0,0,1,1353.29,210.51Zm.23.65a2.14,2.14,0,0,0-1.35.76,7.12,7.12,0,0,0-1.39,2.07,5.93,5.93,0,0,0-.74,2.49c0,.65.24,1,.74,1a1.91,1.91,0,0,0,1.18-.57,1.74,1.74,0,0,1-.34-1c0-.61.28-.91.74-.91a.57.57,0,0,1,.45.19.54.54,0,0,1,.18.35,1.35,1.35,0,0,1,0,.33,13,13,0,0,0,.83-1.5,4.79,4.79,0,0,0,.52-2.11C1354.3,211.51,1354,211.16,1353.52,211.16Z"/><path class="cls-5" d="M1357.49,214.4c-.11.33-.21.65-.28.95a3.56,3.56,0,0,0-.12.91,1.74,1.74,0,0,0,.21.84.72.72,0,0,0,.68.39,1.92,1.92,0,0,0,1.47-1,20.41,20.41,0,0,0,1.52-2.61c.12-.19.22-.27.32-.23a.16.16,0,0,1,0,.22l-.26.59a6.06,6.06,0,0,1-.3.64l-.33.63a5.58,5.58,0,0,1-.43.68l-.48.57a2.81,2.81,0,0,1-.58.51,2.65,2.65,0,0,1-1.4.47,1.6,1.6,0,0,1-1-.29,1.1,1.1,0,0,1-.43-.61,2.67,2.67,0,0,1-.08-.58c0-.17,0-.39,0-.65a6.33,6.33,0,0,1,.26-1.31c.13-.43.21-.66.22-.72a30.07,30.07,0,0,1,1.38-3.82,30.92,30.92,0,0,1,1.52-3.12,9.24,9.24,0,0,1,1-1.42,2,2,0,0,1,1.41-.76c.32,0,.54.23.65.7a1.35,1.35,0,0,1,0,.31,4.55,4.55,0,0,1-.51,1.82,18.91,18.91,0,0,1-4.33,6.33C1357.67,213.88,1357.6,214.07,1357.49,214.4Zm2.49-4a19.68,19.68,0,0,0,1.55-2.84,5.28,5.28,0,0,0,.5-1.59c0-.28,0-.43-.15-.43s-.41.28-.8.84a20.18,20.18,0,0,0-1.59,3c-.67,1.44-1.22,2.7-1.64,3.79A16.84,16.84,0,0,0,1360,210.38Z"/><path class="cls-5" d="M1366.34,213.9a8.61,8.61,0,0,0-.84,2,5.55,5.55,0,0,0-.13,1.08c0,.27.1.41.31.41s.6-.25,1-.74a14.62,14.62,0,0,0,1.71-2.81c.06-.12.12-.19.19-.21s.17,0,.17.13a.69.69,0,0,1-.06.25q-2,3.93-3.27,3.93a1.14,1.14,0,0,1-1-.59,1.62,1.62,0,0,1-.19-.85,5,5,0,0,1,.21-1.29c-1.13,1.82-2.1,2.73-2.92,2.73a1,1,0,0,1-.61-.21,1.74,1.74,0,0,1-.63-1.52,6.6,6.6,0,0,1,1.79-4.2,4.7,4.7,0,0,1,2.49-1.55,3,3,0,0,1,.76-.1,2.24,2.24,0,0,1,1.65.67.44.44,0,0,1,.13.45.31.31,0,0,1-.36.17,1,1,0,0,0-1-.76,3.58,3.58,0,0,0-2.23,1.43,11.92,11.92,0,0,0-1.42,2,4.63,4.63,0,0,0-.82,2.19c0,.55.17.83.53.83.84,0,2-1.3,3.31-3.89a4.4,4.4,0,0,1,.68-1.06.91.91,0,0,1,.69-.29l.44.06a1.13,1.13,0,0,0,.51,0A8.25,8.25,0,0,0,1366.34,213.9Z"/><rect class="cls-8" x="1346.13" y="160" width="9.56" height="0.89"/><rect class="cls-9" x="1342.8" y="152.22" width="16.22" height="7.78" rx="0.62"/><line class="cls-22" x1="1345.58" y1="152.67" x2="1345.58" y2="159.56"/><line class="cls-22" x1="1344.69" y1="152.67" x2="1344.69" y2="159.56"/><line class="cls-22" x1="1346.47" y1="152.67" x2="1346.47" y2="159.56"/><line class="cls-22" x1="1343.8" y1="152.67" x2="1343.8" y2="159.56"/><line class="cls-22" x1="1349.13" y1="152.67" x2="1349.13" y2="159.56"/><line class="cls-22" x1="1348.24" y1="152.67" x2="1348.24" y2="159.56"/><line class="cls-22" x1="1350.02" y1="152.67" x2="1350.02" y2="159.56"/><line class="cls-22" x1="1347.35" y1="152.67" x2="1347.35" y2="159.56"/><line class="cls-22" x1="1352.69" y1="152.67" x2="1352.69" y2="159.56"/><line class="cls-22" x1="1351.8" y1="152.67" x2="1351.8" y2="159.56"/><line class="cls-22" x1="1353.58" y1="152.67" x2="1353.58" y2="159.56"/><line class="cls-22" x1="1350.91" y1="152.67" x2="1350.91" y2="159.56"/><line class="cls-22" x1="1356.24" y1="152.67" x2="1356.24" y2="159.56"/><line class="cls-22" x1="1355.35" y1="152.67" x2="1355.35" y2="159.56"/><line class="cls-22" x1="1357.13" y1="152.67" x2="1357.13" y2="159.56"/><line class="cls-22" x1="1354.47" y1="152.67" x2="1354.47" y2="159.56"/><line class="cls-22" x1="1358.02" y1="152.67" x2="1358.02" y2="159.56"/></g><path class="cls-3" d="M1314.24,349.28s-22.15,11-9.65,16.89S1314.24,349.28,1314.24,349.28Z"/><path class="cls-4" d="M1314.19,349.27s-11.79,25.67,2.9,22.82S1314.19,349.27,1314.19,349.27Z"/><path class="cls-3" d="M1344.51,339.41l-5.1,10.19a4.84,4.84,0,0,0-.21.47c-.29.73-2.12,4.09-11.34,1.47a2,2,0,0,0-.48-.09c-3.5-.38-44.82-5.13-61.61-22.13,0,0,28.62-25.55,61.3-29.5s20.18,29.61,20.18,29.61-13.6,7-28.08-6.36C1319.17,323.07,1325.32,345,1344.51,339.41Z"/><path class="cls-4" d="M1317,349.79a.19.19,0,0,1-.15-.08,22.92,22.92,0,0,1-1.82-3.33,42.11,42.11,0,0,1-3-9.55,51.75,51.75,0,0,1-.58-15.13,68.46,68.46,0,0,1,5.45-20.09.19.19,0,0,1,.25-.09.18.18,0,0,1,.09.24,68.41,68.41,0,0,0-5.42,20,51.35,51.35,0,0,0,.57,15,41.57,41.57,0,0,0,3,9.46,24.23,24.23,0,0,0,1.78,3.28.19.19,0,0,1,0,.26A.2.2,0,0,1,1317,349.79Z"/><path class="cls-4" d="M1294.39,310.29s4.46-7.58-5.47-8.52a.52.52,0,0,1-.21-1c5.34-3.1,24.12-12.7,33.25-.19C1322,300.61,1303.71,305.29,1294.39,310.29Z"/><path class="cls-4" d="M1265.77,329.32s-3.47-19.05-15.63-25.14a1.75,1.75,0,0,0-2.3,2.44c4.05,7,10.56,22.77,3.84,43.38a1.75,1.75,0,0,0,3.08,1.59C1257.83,347.44,1261.75,340.56,1265.77,329.32Z"/><circle class="cls-5" cx="1335.73" cy="312.43" r="7.68"/><circle cx="1335.73" cy="312.43" r="1.75"/><path class="cls-4" d="M1309.88,332.14a.21.21,0,0,1-.16-.08,9.62,9.62,0,0,1-1.25-3.38,15.37,15.37,0,0,1,1.24-9.08.19.19,0,0,1,.24-.1.2.2,0,0,1,.1.25c-3.2,7.38,0,12.05,0,12.09a.18.18,0,0,1,0,.26A.21.21,0,0,1,1309.88,332.14Z"/><path class="cls-4" d="M1307.42,330.82a.2.2,0,0,1-.15-.07s-2.81-3.86,0-9.84a.18.18,0,0,1,.24-.09.18.18,0,0,1,.09.25c-2.69,5.77,0,9.42,0,9.45a.18.18,0,0,1,0,.26A.19.19,0,0,1,1307.42,330.82Z"/><path class="cls-3" d="M1438.24,349.28s-22.15,11-9.65,16.89S1438.24,349.28,1438.24,349.28Z"/><path class="cls-4" d="M1438.19,349.27s-11.79,25.67,2.9,22.82S1438.19,349.27,1438.19,349.27Z"/><path class="cls-3" d="M1468.51,339.41l-5.1,10.19a4.84,4.84,0,0,0-.21.47c-.29.73-2.12,4.09-11.34,1.47a2,2,0,0,0-.48-.09c-3.5-.38-44.82-5.13-61.61-22.13,0,0,28.62-25.55,61.3-29.5s20.18,29.61,20.18,29.61-13.6,7-28.08-6.36C1443.17,323.07,1449.32,345,1468.51,339.41Z"/><path class="cls-4" d="M1441,349.79a.19.19,0,0,1-.15-.08,22.92,22.92,0,0,1-1.82-3.33,42.11,42.11,0,0,1-3-9.55,51.75,51.75,0,0,1-.58-15.13,68.46,68.46,0,0,1,5.45-20.09.19.19,0,0,1,.25-.09.18.18,0,0,1,.09.24,68.41,68.41,0,0,0-5.42,20,51.35,51.35,0,0,0,.57,15,41.57,41.57,0,0,0,3,9.46,24.23,24.23,0,0,0,1.78,3.28.19.19,0,0,1,0,.26A.2.2,0,0,1,1441,349.79Z"/><path class="cls-4" d="M1418.39,310.29s4.46-7.58-5.47-8.52a.52.52,0,0,1-.21-1c5.34-3.1,24.12-12.7,33.25-.19C1446,300.61,1427.71,305.29,1418.39,310.29Z"/><path class="cls-4" d="M1389.77,329.32s-3.47-19.05-15.63-25.14a1.75,1.75,0,0,0-2.3,2.44c4.05,7,10.56,22.77,3.84,43.38a1.75,1.75,0,0,0,3.08,1.59C1381.83,347.44,1385.75,340.56,1389.77,329.32Z"/><circle class="cls-5" cx="1459.73" cy="312.43" r="7.68"/><circle cx="1459.73" cy="312.43" r="1.75"/><path class="cls-4" d="M1433.88,332.14a.21.21,0,0,1-.16-.08,9.62,9.62,0,0,1-1.25-3.38,15.37,15.37,0,0,1,1.24-9.08.19.19,0,0,1,.24-.1.2.2,0,0,1,.1.25c-3.2,7.38,0,12.05,0,12.09a.18.18,0,0,1,0,.26A.21.21,0,0,1,1433.88,332.14Z"/><path class="cls-4" d="M1431.42,330.82a.2.2,0,0,1-.15-.07s-2.81-3.86,0-9.84a.18.18,0,0,1,.24-.09.18.18,0,0,1,.09.25c-2.69,5.77,0,9.42,0,9.45a.18.18,0,0,1,0,.26A.19.19,0,0,1,1431.42,330.82Z"/><path d="M1561.25,349.29s-22.17,11-9.66,16.9S1561.25,349.29,1561.25,349.29Z"/><path d="M1561.2,349.28s-11.8,25.69,2.9,22.83S1561.2,349.28,1561.2,349.28Z"/><path d="M1591.54,339.41l-5.1,10.2c-.08.16-.15.31-.22.47-.28.74-2.11,4.1-11.34,1.47a2.7,2.7,0,0,0-.48-.09c-3.51-.38-44.85-5.13-61.65-22.14,0,0,28.64-25.57,61.34-29.52s20.19,29.62,20.19,29.62-13.61,7-28.09-6.36C1566.19,323.06,1572.33,345,1591.54,339.41Z"/><path d="M1564,349.8a.19.19,0,0,1-.15-.08,22.92,22.92,0,0,1-1.82-3.33,42.4,42.4,0,0,1-3-9.56,51.46,51.46,0,0,1-.58-15.14,68.6,68.6,0,0,1,5.45-20.1.2.2,0,0,1,.25-.09.19.19,0,0,1,.1.24,68.11,68.11,0,0,0-5.43,20,51.4,51.4,0,0,0,.57,15,41.68,41.68,0,0,0,3,9.47,24.23,24.23,0,0,0,1.78,3.28.19.19,0,0,1,0,.26A.2.2,0,0,1,1564,349.8Z"/><path d="M1541.39,310.27s4.46-7.58-5.47-8.52a.52.52,0,0,1-.22-1c5.34-3.1,24.14-12.7,33.27-.19C1569,300.59,1550.71,305.28,1541.39,310.27Z"/><path d="M1512.75,329.32s-3.47-19.07-15.64-25.16a1.75,1.75,0,0,0-2.3,2.44c4,7,10.57,22.79,3.84,43.41a1.75,1.75,0,0,0,3.08,1.59C1504.8,347.44,1508.73,340.56,1512.75,329.32Z"/><circle cx="1582.76" cy="312.42" r="7.68"/><circle cx="1582.76" cy="312.42" r="1.76"/><path d="M1556.88,332.13a.18.18,0,0,1-.15-.08,9.3,9.3,0,0,1-1.26-3.37,15.4,15.4,0,0,1,1.24-9.09.2.2,0,0,1,.25-.1.19.19,0,0,1,.09.25c-3.19,7.39,0,12.06,0,12.1a.19.19,0,0,1,0,.26A.2.2,0,0,1,1556.88,332.13Z"/><path d="M1554.42,330.82a.19.19,0,0,1-.15-.08s-2.81-3.86,0-9.84a.19.19,0,0,1,.34.16c-2.7,5.78,0,9.42,0,9.46a.19.19,0,0,1,0,.26A.15.15,0,0,1,1554.42,330.82Z"/><g id="Figur"><rect id="Hals" class="cls-23" x="205.38" y="699.56" width="20.01" height="47.6"/><g id="Bagerste_arm" data-name="Bagerste arm"><path class="cls-23" d="M321.54,794.52h0c-2.69,5.64-7.39,9-10.5,7.51l-58.73-28.21,4.86-10.21Z"/><path class="cls-23" d="M354.75,765.66l3,5c.71,1.18.6,2.54-.23,3.05l-44.2,26.58-5.79-9.7,43.88-26.4C352.38,763.57,353.89,764.23,354.75,765.66Z"/><rect class="cls-23" x="357.31" y="744.4" width="7.59" height="18.63" rx="2.38" transform="translate(779.2 30.06) rotate(55.62)"/><rect class="cls-23" x="362.26" y="751.65" width="7.59" height="18.63" rx="2.38" transform="translate(787.34 29.13) rotate(55.62)"/><rect class="cls-23" x="346.72" y="759.4" width="25.37" height="12.24" rx="3.4" transform="translate(788.2 36.61) rotate(55.62)"/><rect class="cls-23" x="367.22" y="758.89" width="7.59" height="18.63" rx="2.38" transform="translate(795.48 28.19) rotate(55.62)"/></g><g id="Højre_ben" data-name="Højre ben"><path class="cls-23" d="M232.73,986h21a0,0,0,0,1,0,0v10.95a4.31,4.31,0,0,1-4.31,4.31H237a4.31,4.31,0,0,1-4.31-4.31V986A0,0,0,0,1,232.73,986Z"/><path class="cls-24" d="M256.2,989.52h-27l7.07-45.95a12.77,12.77,0,0,0-.21-2l-19.76-54.18h51.63L263.31,943a14.43,14.43,0,0,0,0,1.61Z"/></g><g id="Venstre_ben" data-name="Venstre ben"><path class="cls-23" d="M197.38,986v8.38a6.89,6.89,0,0,1-6.87,6.87h-7.23a6.89,6.89,0,0,1-6.87-6.87V986Z"/><path class="cls-24" d="M211.61,887.43l-.24,3L207,943a14.11,14.11,0,0,0-.05,1.6l0,.16-7,44.8h-27L180,943.57a10.69,10.69,0,0,0-.21-2l-19.1-52.36-.66-1.82Z"/></g><g id="Trøje"><path class="cls-25" d="M282,741.48v130.7A18.28,18.28,0,0,1,267.73,890a17.15,17.15,0,0,1-4,.46H167.05a18,18,0,0,1-6.41-1.17,18.31,18.31,0,0,1-11.82-17.07V741.48a18.29,18.29,0,0,1,18.23-18.24h29.46a14.26,14.26,0,0,1,6.38,1.51l2.49,1.24,1.54.76,3.52,1.76,2.63,1.32a5.5,5.5,0,0,0,5.17-.13l7.15-4,1.4-.79a12.53,12.53,0,0,1,6.19-1.63h30.73A18.29,18.29,0,0,1,282,741.48Z"/><path class="cls-26" d="M258.86,811.28h-6.69s-8.41-2.23-2.06-10.64h8.75Z"/><path class="cls-26" d="M246.85,807s-.18-4,1.2-5.49L254.4,791l2.58,1.54-3.61-9.1-10.13.86,1.89,1.2-3.78,7.39a6.13,6.13,0,0,0,0,5Z"/><path class="cls-26" d="M250.39,775.74l3.35-5.8s6.14-6.17,10.25,3.54l-4.38,7.58Z"/><path class="cls-26" d="M260.12,767.48s3.5,1.82,4.16,3.78L270.17,782l-2.63,1.46,9.68,1.43,4.33-9.21-2,1-4.5-7a6.12,6.12,0,0,0-4.32-2.49Z"/><path class="cls-26" d="M282,788.5v11c-.4,0-.83-.05-1.29-.1l-4.38-7.58Z"/><path class="cls-26" d="M282,800.69v8.45a6.27,6.27,0,0,1-3.6,1.66l-8.27.42-.11,2.23-5.8-8.34,6.07-7.67-.05,3Z"/><path class="cls-27" d="M173.65,749.92s-5.52,17.24,22.76,39.32L204,773.37s-20.69-5.52-22.07-23.45Z"/></g><g id="Fiskestang"><path class="cls-28" d="M423.42,617.32s13.06,21,18.82,12S423.42,617.32,423.42,617.32Z"/><path class="cls-29" d="M378.53,724.39S514,357.52,647.31,309.14s245.16,0,245.16,0"/><rect x="366.81" y="723.01" width="13.11" height="53.81" transform="translate(171.45 -63.1) rotate(12.52)"/><path class="cls-28" d="M476.53,511.77s13.07,21,18.82,12S476.53,511.77,476.53,511.77Z"/><path class="cls-28" d="M539.31,408.29s13.06,21,18.82,12S539.31,408.29,539.31,408.29Z"/><path class="cls-28" d="M618.43,324.79s5.3,24.18,13.73,17.6S618.43,324.79,618.43,324.79Z"/><path class="cls-28" d="M747.14,288.74s-7.31,23.66,3.27,22.09S747.14,288.74,747.14,288.74Z"/><path class="cls-28" d="M890,309.12s-16.78,18.2-6.55,21.34S890,309.12,890,309.12Z"/><rect x="379.81" y="746.98" width="28.97" height="4.83" transform="translate(174.87 -68.48) rotate(12.73)"/><circle cx="423.89" cy="756.14" r="17.25"/><circle class="cls-5" cx="420.92" cy="767.73" r="2.41"/><circle class="cls-5" cx="415.17" cy="765.02" r="2.41"/><circle class="cls-5" cx="412.19" cy="759.39" r="2.41"/><circle class="cls-5" cx="412.22" cy="753.03" r="2.41"/><circle class="cls-5" cx="415.03" cy="747.4" r="2.29"/><circle class="cls-5" cx="420.65" cy="744.43" r="2.29"/><circle class="cls-5" cx="427.01" cy="744.45" r="2.29"/><circle class="cls-5" cx="432.77" cy="747.17" r="2.29"/><circle class="cls-5" cx="435.74" cy="752.79" r="2.32"/><circle class="cls-5" cx="435.72" cy="759.15" r="2.29"/><circle class="cls-5" cx="433" cy="764.9" r="2.29"/><circle class="cls-5" cx="427.38" cy="767.87" r="2.29"/><path d="M937.16,417.38c1.67-3.87.34-5.25.34-5.25a2.2,2.2,0,0,0-3,0c-1.44,1.56.46,6.4.46,6.4v14a16,16,0,0,1-.29,2.88,6.66,6.66,0,0,1-7.43,4.49c-3.74-1.09-2.48-6.34-2.48-6.34a1.54,1.54,0,0,0,2.19.69c-2.36-3.45-1.32-9-1.32-9-4.72,8.24-3,13.19-3,13.19,1.5,5.12,7.72,3.69,7.72,3.69,6.73-2.31,6.51-7.9,6.51-7.9V418.76Zm-1.22-.58s-2-4,0-4S935.94,416.8,935.94,416.8Z"/><path class="cls-30" d="M937,415a1.35,1.35,0,0,1-1.38-1.38c0-51.35-52.15-86.53-52.15-86.53C800,366.41,749.66,307.14,749.66,307.14,722.75,380.26,630,340,630,340,638.24,428.3,556,418.62,556,418.62c26.9,71.05-63.37,103.27-63.37,103.27,33.8,74.5-52.8,105.61-52.8,105.61,28.28,86.23-4.42,140.7-4.42,140.7"/><path class="cls-28" d="M423.42,617.32s13.06,21,18.82,12c.12-.2.24-.4.34-.59"/><path class="cls-28" d="M476.53,511.77s13.07,21,18.82,12c.1-.15.19-.3.28-.46"/><path class="cls-28" d="M539.31,408.29s13.06,21,18.82,12l.17-.28"/><path class="cls-28" d="M618.43,324.79s5,23,13.1,18c.21-.13.42-.28.63-.44"/><path class="cls-28" d="M747.14,288.74s-7.31,23.66,3.27,22.09l.33-.06"/><path class="cls-28" d="M890,309.12s-16.78,18.2-6.55,21.34a5.68,5.68,0,0,0,.65.17"/></g><g id="Hoved"><path class="cls-23" d="M324.71,676.49,147.2,696.79a20.75,20.75,0,0,1-22.91-18.21L100,466.12a20.74,20.74,0,0,1,18.2-22.91l157-18a20.76,20.76,0,0,1,22.91,18.21l1.19,28.19.36,8.35.26,6.23v0l.05,1.16.1,2.51h0l.08,1.69.44,10.43.19,4.58,2.82,66.91.94,22,.08,2C304.48,614.92,360,669,324.71,676.49Z"/><circle class="cls-5" cx="228.78" cy="505.54" r="17.25"/><circle cx="236.32" cy="504.68" r="4.14"/><path class="cls-31" d="M243.76,496.89c.75,1.15-31.71,5-31.53,3.6.38-2.82,5.13-11,14.59-12.08S241.24,493,243.76,496.89Z"/><path class="cls-5" d="M300.34,490.36l.05,1.16.62,14.63a15.18,15.18,0,0,1-28.36-5.62,15,15,0,0,1,.54-6.11,15.2,15.2,0,0,1,4.22-6.76,5.34,5.34,0,0,1,.44-.39c.32-.28.66-.54,1-.79l.39-.27.49-.31a3.13,3.13,0,0,1,.36-.22l.42-.24.56-.29.21-.09.43-.2.12-.05.54-.21.61-.22.69-.21a16.71,16.71,0,0,1,2.32-.45c.29,0,.58-.06.87-.07l.79,0h.08a15.27,15.27,0,0,1,10.52,4.25,4,4,0,0,1,.29.3,14.11,14.11,0,0,1,1.67,2h0A.91.91,0,0,1,300.34,490.36Z"/><circle cx="294.36" cy="498.04" r="3.64"/><path class="cls-31" d="M300.34,490.35h0l.05,1.16c-3.76,1.23-26.33,3.81-27.2,2.9a.09.09,0,0,1,0-.06c.18-1.39,1.58-4.27,4.25-6.7a5.34,5.34,0,0,1,.44-.39c.32-.28.66-.54,1-.79l.39-.27.49-.31a3.13,3.13,0,0,1,.36-.22l.42-.24.56-.29.21-.09.43-.2.12-.05.54-.21.61-.22.69-.21a16.71,16.71,0,0,1,2.32-.45c.29,0,.58-.06.87-.07l.79,0h.08a14,14,0,0,1,10.52,4.25,4,4,0,0,1,.29.3,18.37,18.37,0,0,1,1.67,2h0Z"/><path class="cls-5" d="M303.56,573.53l.93,22a57,57,0,0,1-6.32,3.32,72.51,72.51,0,0,1-21.26,5.69,73.25,73.25,0,0,1-20.22-.42c-16.09-2.68-28-11-29.22-22l46.31-4.84Z"/><path class="cls-32" d="M298.17,598.85a72.51,72.51,0,0,1-21.26,5.69,73.25,73.25,0,0,1-20.22-.42c1.89-4.44,10-8.48,20.11-9.64C286.47,593.38,295,595.26,298.17,598.85Z"/><path class="cls-33" d="M262.6,528.06s.73,12.42,9.42,15.59,11.17,12.61-8.65,9.32"/><circle class="cls-34" cx="330.42" cy="650.49" r="30.7"/><path class="cls-34" d="M135.43,528.66a21.71,21.71,0,0,1-14,11.17,23.46,23.46,0,0,1-2.94.54,21.56,21.56,0,0,1-10.21-1.28,21.79,21.79,0,0,1-11.67-10.55,21.82,21.82,0,0,1-1.39-16A21.73,21.73,0,0,1,104,500.75a16.93,16.93,0,0,1,1.46-.91A21.74,21.74,0,0,1,134.91,508a21.65,21.65,0,0,1,.52,20.7Z"/><path class="cls-34" d="M134.91,508a21.67,21.67,0,0,1-18.33,15.27,21.43,21.43,0,0,1-10.21-1.29,12.28,12.28,0,0,1-1.46-.62,21.7,21.7,0,0,1-8.52-32.22,21.19,21.19,0,0,1,5.61-5.48,21.49,21.49,0,0,1,9.64-3.56,21.73,21.73,0,0,1,22.73,13.72,21.64,21.64,0,0,1,.54,14.18Z"/><path class="cls-34" d="M134.37,493.78a21.72,21.72,0,0,1-28.95,6.06c-.58-.36-1.16-.74-1.71-1.15a21.68,21.68,0,0,1-7.32-9.59,21,21,0,0,1-1.34-5.41A21.78,21.78,0,0,1,97,472a21.21,21.21,0,0,1,3.16-4.89,21.7,21.7,0,0,1,19.55-7.43h0a21.78,21.78,0,0,1,14.06,8.11,21.25,21.25,0,0,1,4.08,8.56,20.19,20.19,0,0,1,.41,2.39A21.52,21.52,0,0,1,134.37,493.78Z"/><circle class="cls-34" cx="295.51" cy="666.98" r="30.7"/><circle class="cls-34" cx="248.92" cy="678.56" r="30.7"/><path class="cls-34" d="M231.53,686.77l0,.39a30.65,30.65,0,0,1-4.4,13c-.53.85-1.09,1.68-1.7,2.47a30.49,30.49,0,0,1-14.95,10.64,28.81,28.81,0,0,1-3.52.91c-.51.09-1,.19-1.54.26l-.95.13a30.65,30.65,0,0,1-34-27,30.16,30.16,0,0,1,1.64-13.92c.08-.27.18-.53.29-.8a30.29,30.29,0,0,1,2.72-5.32c.37-.59.77-1.16,1.18-1.72a30.64,30.64,0,0,1,21.18-12.22,30,30,0,0,1,8.64.24c.27,0,.55.09.82.15a29.79,29.79,0,0,1,3.52.91,27.82,27.82,0,0,1,3.58,1.43,30.61,30.61,0,0,1,8.76,6.19c.11.1.21.22.32.33a26.39,26.39,0,0,1,2.42,2.85,30.31,30.31,0,0,1,5.92,14.91c0,.25.06.5.09.76,0,.5.07,1,.09,1.51A30.41,30.41,0,0,1,231.53,686.77Z"/><path class="cls-34" d="M187.1,689.18h0q0,1.54-.15,3.06a30.72,30.72,0,0,1-59.88,6,31.41,31.41,0,0,1-1.17-5.63,31,31,0,0,1,.11-7.89,30.75,30.75,0,0,1,20-24.49,30.68,30.68,0,0,1,29,4.46c.43.33.87.68,1.29,1a27,27,0,0,1,3.1,3,30.12,30.12,0,0,1,5,7.62,30.8,30.8,0,0,1,2.56,9.23A29.91,29.91,0,0,1,187.1,689.18Z"/><path class="cls-34" d="M147,674a30.81,30.81,0,0,1-12.31,20.24,30.35,30.35,0,0,1-7.62,4,30.7,30.7,0,1,1-13.91-59.38,30.73,30.73,0,0,1,15.57,2.28A30.76,30.76,0,0,1,146,660.26a31.63,31.63,0,0,1,1.17,5.65A30.34,30.34,0,0,1,147,674Z"/><path class="cls-34" d="M135.71,645.34a29,29,0,0,1-2.35,2.61,29.33,29.33,0,0,1-4.42,3.66,29.76,29.76,0,0,1-7.31,3.65,30.7,30.7,0,1,1-13.41-59.55,29,29,0,0,1,5.09-.15h0c.51,0,1,.06,1.49.1a30.78,30.78,0,0,1,24.77,17.7,29.94,29.94,0,0,1,2.26,7c.15.76.27,1.55.36,2.33A30.59,30.59,0,0,1,135.71,645.34Z"/><path class="cls-34" d="M152.4,592v0a30.66,30.66,0,0,1-12.82,21.32,30.29,30.29,0,0,1-12.47,5.14c-.55.1-1.12.17-1.68.24a30.44,30.44,0,0,1-20.91-5.23A30.85,30.85,0,0,1,94.05,601.1a30.22,30.22,0,0,1-2.16-6.56,26.11,26.11,0,0,1-.45-2.81,30.37,30.37,0,0,1,4.15-19.22h0a30.48,30.48,0,0,1,8.71-9.38,29.11,29.11,0,0,1,6.39-3.44,29.83,29.83,0,0,1,7.76-1.93,30.91,30.91,0,0,1,19.26,4.15,30.5,30.5,0,0,1,13.35,16.63A30.93,30.93,0,0,1,152.4,592Z"/><path class="cls-34" d="M139.43,546.55h0a23.56,23.56,0,0,1-4.2,9.85,23.2,23.2,0,0,1-2.64,3.05A23.7,23.7,0,0,1,118.71,566a23.84,23.84,0,0,1-14.41-2.92,23.84,23.84,0,0,1,.61-41.8c.43-.22.88-.43,1.32-.63a23.81,23.81,0,0,1,33.2,25.86Z"/><circle class="cls-34" cx="159.07" cy="645.79" r="30.7"/><circle class="cls-34" cx="134.98" cy="617.3" r="30.7"/><circle class="cls-34" cx="205.68" cy="664.76" r="30.7"/><circle class="cls-34" cx="253.68" cy="665.52" r="30.7"/><circle class="cls-34" cx="299.19" cy="650.59" r="30.7"/><path class="cls-34" d="M138.56,568.73a21.2,21.2,0,0,1-1.14,6.23,21.68,21.68,0,0,1-18.1,14.62,21.4,21.4,0,0,1-5.06,0l-.15,0a21.55,21.55,0,0,1-4.42-1,21.8,21.8,0,0,1-14.1-16h0c-.14-.67-.25-1.34-.33-2a21.74,21.74,0,0,1,14-22.86,21.33,21.33,0,0,1,5.07-1.21,21.68,21.68,0,0,1,20.85,10,20.46,20.46,0,0,1,1.17,2.1,21.63,21.63,0,0,1,1.31,3.39,22,22,0,0,1,.69,3.38l0,.25A20.26,20.26,0,0,1,138.56,568.73Z"/><path class="cls-34" d="M127.11,618.5a21.72,21.72,0,0,1-8.54,10,21.36,21.36,0,0,1-9,3.14c-.55.06-1.1.11-1.64.12a21.71,21.71,0,0,1-22.41-19.23,16.25,16.25,0,0,1-.13-2.08,21.72,21.72,0,0,1,19.25-22,20.54,20.54,0,0,1,5.08,0,21,21,0,0,1,4.42,1l.15.06a20.31,20.31,0,0,1,4.08,1.93,21.71,21.71,0,0,1,8.77,27Z"/><circle class="cls-34" cx="227.01" cy="687.32" r="21.73"/><circle class="cls-34" cx="235.15" cy="661.39" r="21.73"/><circle class="cls-34" cx="277.25" cy="653.1" r="21.73"/><circle class="cls-34" cx="184.39" cy="654.7" r="21.73"/><rect class="cls-34" x="198.14" y="477.08" width="40.01" height="8.28" rx="2.59" transform="translate(-115.05 71.17) rotate(-14.71)"/><path class="cls-34" d="M299.61,480l-25.21-2.32a4.13,4.13,0,0,1,.38-8.25h.37l24.1,2.21Z"/><line class="cls-35" x1="220.56" y1="612.64" x2="221.59" y2="615.74"/><line class="cls-35" x1="225.73" y1="606.09" x2="225.04" y2="610.22"/><line class="cls-35" x1="226.77" y1="615.4" x2="225.73" y2="618.5"/><line class="cls-35" x1="212.28" y1="613.33" x2="210.55" y2="615.74"/><line class="cls-35" x1="234.7" y1="612.98" x2="233.32" y2="615.74"/><line class="cls-35" x1="207.8" y1="606.09" x2="205.73" y2="608.84"/><line class="cls-35" x1="215.73" y1="605.05" x2="214" y2="607.47"/><line class="cls-35" x1="219.52" y1="606.09" x2="218.83" y2="609.53"/><line class="cls-35" x1="240.91" y1="610.91" x2="240.22" y2="614.36"/><line class="cls-35" x1="233.32" y1="621.26" x2="231.25" y2="623.33"/><line class="cls-35" x1="231.25" y1="606.09" x2="230.56" y2="609.53"/><line class="cls-35" x1="240.22" y1="606.09" x2="238.15" y2="608.84"/><line class="cls-35" x1="240.91" y1="619.19" x2="238.84" y2="621.95"/><line class="cls-35" x1="248.5" y1="616.43" x2="247.81" y2="619.19"/><line class="cls-35" x1="246.43" y1="608.84" x2="245.74" y2="612.29"/><line class="cls-35" x1="245.05" y1="625.4" x2="242.98" y2="627.47"/><line class="cls-35" x1="235.73" y1="626.44" x2="235.39" y2="628.85"/><line class="cls-35" x1="226.08" y1="625.06" x2="223.66" y2="628.16"/><line class="cls-35" x1="219.87" y1="622.99" x2="219.52" y2="626.78"/><line class="cls-35" x1="213.66" y1="622.3" x2="213.31" y2="626.09"/><line class="cls-35" x1="214" y1="599.19" x2="212.62" y2="601.95"/><line class="cls-35" x1="223.32" y1="596.08" x2="221.59" y2="598.5"/><line class="cls-35" x1="229.87" y1="599.88" x2="228.49" y2="601.95"/><line class="cls-35" x1="237.46" y1="633.68" x2="236.77" y2="636.44"/><line class="cls-35" x1="228.49" y1="632.99" x2="227.8" y2="636.44"/><line class="cls-35" x1="219.87" y1="631.26" x2="218.14" y2="634.37"/><line class="cls-35" x1="208.14" y1="622.3" x2="205.73" y2="624.71"/><line class="cls-35" x1="206.07" y1="615.4" x2="204.35" y2="619.19"/><line class="cls-35" x1="201.24" y1="626.44" x2="200.9" y2="630.23"/><line class="cls-35" x1="209.18" y1="630.92" x2="208.49" y2="634.37"/><line class="cls-35" x1="176.41" y1="607.81" x2="177.44" y2="610.91"/><line class="cls-35" x1="183.31" y1="609.19" x2="182.27" y2="612.29"/><line class="cls-35" x1="168.82" y1="607.12" x2="167.09" y2="609.53"/><line class="cls-35" x1="191.24" y1="606.78" x2="189.86" y2="609.53"/><line class="cls-35" x1="164.34" y1="599.88" x2="162.27" y2="602.64"/><line class="cls-35" x1="172.27" y1="598.84" x2="170.54" y2="601.26"/><line class="cls-35" x1="189.86" y1="615.05" x2="187.79" y2="617.12"/><line class="cls-35" x1="187.79" y1="599.88" x2="187.1" y2="603.33"/><line class="cls-35" x1="197.45" y1="612.98" x2="195.38" y2="615.74"/><line class="cls-35" x1="202.97" y1="602.64" x2="202.28" y2="606.09"/><line class="cls-35" x1="201.59" y1="619.19" x2="199.52" y2="621.26"/><line class="cls-35" x1="192.27" y1="620.23" x2="191.93" y2="622.64"/><line class="cls-35" x1="182.62" y1="618.85" x2="180.2" y2="621.95"/><line class="cls-35" x1="176.41" y1="616.78" x2="176.06" y2="620.57"/><line class="cls-35" x1="170.2" y1="616.09" x2="169.85" y2="619.88"/><line class="cls-35" x1="170.54" y1="592.98" x2="169.16" y2="595.74"/><line class="cls-35" x1="179.86" y1="589.87" x2="178.13" y2="592.29"/><line class="cls-35" x1="186.41" y1="593.67" x2="185.03" y2="595.74"/><line class="cls-35" x1="194" y1="627.47" x2="193.31" y2="630.23"/><line class="cls-35" x1="185.03" y1="626.78" x2="184.34" y2="630.23"/><line class="cls-35" x1="176.41" y1="625.06" x2="174.68" y2="628.16"/><line class="cls-35" x1="164.68" y1="616.09" x2="162.27" y2="618.5"/><line class="cls-35" x1="162.61" y1="609.19" x2="160.89" y2="612.98"/><line class="cls-35" x1="157.78" y1="620.23" x2="157.44" y2="624.02"/><line class="cls-35" x1="165.71" y1="624.71" x2="165.03" y2="628.16"/><line class="cls-35" x1="197.1" y1="587.11" x2="198.14" y2="590.22"/><line class="cls-35" x1="202.28" y1="580.56" x2="201.59" y2="584.7"/><line class="cls-35" x1="203.31" y1="589.87" x2="202.28" y2="592.98"/><line class="cls-35" x1="188.82" y1="587.8" x2="187.1" y2="590.22"/><line class="cls-35" x1="211.24" y1="587.46" x2="209.87" y2="590.22"/><line class="cls-35" x1="184.34" y1="580.56" x2="182.27" y2="583.32"/><line class="cls-35" x1="192.27" y1="579.53" x2="190.55" y2="581.94"/><line class="cls-35" x1="196.07" y1="580.56" x2="195.38" y2="584.01"/><line class="cls-35" x1="217.45" y1="585.39" x2="216.76" y2="588.84"/><line class="cls-35" x1="209.87" y1="595.74" x2="207.8" y2="597.81"/><line class="cls-35" x1="207.8" y1="580.56" x2="207.11" y2="584.01"/><line class="cls-35" x1="217.45" y1="593.67" x2="215.38" y2="596.43"/><line class="cls-35" x1="225.04" y1="590.91" x2="224.35" y2="593.67"/><line class="cls-35" x1="222.97" y1="583.32" x2="222.28" y2="586.77"/><line class="cls-35" x1="221.59" y1="599.88" x2="219.52" y2="601.95"/><line class="cls-35" x1="202.62" y1="599.53" x2="200.21" y2="602.64"/><line class="cls-35" x1="196.41" y1="597.46" x2="196.07" y2="601.26"/><line class="cls-35" x1="190.2" y1="596.77" x2="189.86" y2="600.57"/><line class="cls-35" x1="196.41" y1="605.74" x2="194.69" y2="608.84"/><line class="cls-35" x1="182.62" y1="596.08" x2="180.89" y2="599.88"/><line class="cls-35" x1="177.79" y1="600.91" x2="177.44" y2="604.71"/><line class="cls-35" x1="185.72" y1="605.4" x2="185.03" y2="608.84"/><line class="cls-35" x1="265.4" y1="624.37" x2="266.43" y2="627.47"/><line class="cls-35" x1="270.57" y1="617.81" x2="269.88" y2="621.95"/><line class="cls-35" x1="271.61" y1="627.13" x2="270.57" y2="630.23"/><line class="cls-35" x1="257.12" y1="625.06" x2="255.39" y2="627.47"/><line class="cls-35" x1="252.64" y1="617.81" x2="250.57" y2="620.57"/><line class="cls-35" x1="260.57" y1="616.78" x2="258.84" y2="619.19"/><line class="cls-35" x1="264.36" y1="617.81" x2="263.67" y2="621.26"/><line class="cls-35" x1="285.75" y1="622.64" x2="285.06" y2="626.09"/><line class="cls-35" x1="278.16" y1="632.99" x2="276.09" y2="635.06"/><line class="cls-35" x1="276.09" y1="617.81" x2="275.4" y2="621.26"/><line class="cls-35" x1="285.06" y1="617.81" x2="282.99" y2="620.57"/><line class="cls-35" x1="285.75" y1="630.92" x2="283.68" y2="633.68"/><line class="cls-35" x1="293.34" y1="628.16" x2="292.65" y2="630.92"/><line class="cls-35" x1="291.27" y1="620.57" x2="290.58" y2="624.02"/><line class="cls-35" x1="289.89" y1="637.13" x2="287.82" y2="639.2"/><line class="cls-35" x1="280.57" y1="638.16" x2="280.23" y2="640.58"/><line class="cls-35" x1="270.92" y1="636.78" x2="268.5" y2="639.89"/><line class="cls-35" x1="264.71" y1="634.71" x2="264.36" y2="638.51"/><line class="cls-35" x1="258.5" y1="634.02" x2="258.15" y2="637.82"/><line class="cls-35" x1="258.84" y1="610.91" x2="257.46" y2="613.67"/><line class="cls-35" x1="268.16" y1="607.81" x2="266.43" y2="610.22"/><line class="cls-35" x1="274.71" y1="611.6" x2="273.33" y2="613.67"/><line class="cls-35" x1="282.3" y1="645.41" x2="281.61" y2="648.17"/><line class="cls-35" x1="273.33" y1="644.72" x2="272.64" y2="648.17"/><line class="cls-35" x1="264.71" y1="642.99" x2="262.98" y2="646.1"/><line class="cls-35" x1="252.98" y1="634.02" x2="250.57" y2="636.44"/><line class="cls-35" x1="250.91" y1="627.13" x2="249.19" y2="630.92"/><line class="cls-35" x1="246.08" y1="638.16" x2="245.74" y2="641.96"/><line class="cls-35" x1="254.02" y1="642.65" x2="253.33" y2="646.1"/><line class="cls-35" x1="295.75" y1="619.54" x2="296.79" y2="622.64"/><line class="cls-35" x1="300.92" y1="612.98" x2="300.23" y2="617.12"/><line class="cls-35" x1="301.96" y1="622.3" x2="300.92" y2="625.4"/><line class="cls-35" x1="309.89" y1="619.88" x2="308.51" y2="622.64"/><line class="cls-35" x1="282.99" y1="612.98" x2="280.92" y2="615.74"/><line class="cls-35" x1="290.92" y1="611.95" x2="289.2" y2="614.36"/><line class="cls-35" x1="294.72" y1="612.98" x2="294.03" y2="616.43"/><line class="cls-35" x1="308.51" y1="628.16" x2="306.44" y2="630.23"/><line class="cls-35" x1="306.44" y1="612.98" x2="305.75" y2="616.43"/><line class="cls-35" x1="316.1" y1="626.09" x2="314.03" y2="628.85"/><line class="cls-35" x1="323.69" y1="623.33" x2="323" y2="626.09"/><line class="cls-35" x1="320.24" y1="632.3" x2="318.17" y2="634.37"/><line class="cls-35" x1="310.93" y1="633.33" x2="310.58" y2="635.75"/><line class="cls-35" x1="301.27" y1="631.95" x2="298.86" y2="635.06"/><line class="cls-35" x1="295.06" y1="629.89" x2="294.72" y2="633.68"/><line class="cls-35" x1="288.85" y1="629.2" x2="288.51" y2="632.99"/><line class="cls-35" x1="289.2" y1="606.09" x2="287.82" y2="608.84"/><line class="cls-35" x1="298.51" y1="602.98" x2="296.79" y2="605.4"/><line class="cls-35" x1="305.06" y1="606.78" x2="303.68" y2="608.84"/><line class="cls-35" x1="312.65" y1="640.58" x2="311.96" y2="643.34"/><line class="cls-35" x1="303.68" y1="639.89" x2="302.99" y2="643.34"/><line class="cls-35" x1="295.06" y1="638.16" x2="293.34" y2="641.27"/><line class="cls-35" x1="283.33" y1="629.2" x2="280.92" y2="631.61"/><line class="cls-35" x1="281.26" y1="622.3" x2="279.54" y2="626.09"/><line class="cls-35" x1="276.44" y1="633.33" x2="276.09" y2="637.13"/><line class="cls-35" x1="284.37" y1="637.82" x2="283.68" y2="641.27"/><line class="cls-35" x1="155.41" y1="568.84" x2="155.3" y2="572.11"/><line class="cls-35" x1="162.53" y1="564.49" x2="160.45" y2="568.14"/><line class="cls-35" x1="160.27" y1="573.59" x2="158.22" y2="576.14"/><line class="cls-35" x1="147.4" y1="566.62" x2="144.95" y2="568.28"/><line class="cls-35" x1="168.55" y1="574.08" x2="166.3" y2="576.19"/><line class="cls-35" x1="145.71" y1="558.27" x2="142.81" y2="560.14"/><line class="cls-35" x1="153.51" y1="560.05" x2="151.06" y2="561.72"/><line class="cls-35" x1="156.71" y1="562.34" x2="154.87" y2="565.33"/><line class="cls-35" x1="175.09" y1="574.29" x2="173.24" y2="577.29"/><line class="cls-35" x1="164.38" y1="581.36" x2="161.72" y2="582.58"/><line class="cls-35" x1="167.71" y1="566.41" x2="165.86" y2="569.41"/><line class="cls-35" x1="176.12" y1="569.52" x2="173.22" y2="571.39"/><line class="cls-35" x1="172.22" y1="582.06" x2="169.32" y2="583.92"/><line class="cls-35" x1="180.29" y1="582.1" x2="178.68" y2="584.45"/><line class="cls-35" x1="180.98" y1="574.27" x2="179.14" y2="577.26"/><line class="cls-35" x1="173.94" y1="589.31" x2="171.28" y2="590.54"/><line class="cls-35" x1="164.85" y1="587.05" x2="163.69" y2="589.2"/><line class="cls-35" x1="156.27" y1="582.4" x2="152.93" y2="584.48"/><line class="cls-35" x1="151.17" y1="578.31" x2="149.53" y2="581.75"/><line class="cls-35" x1="145.58" y1="575.51" x2="143.94" y2="578.94"/><line class="cls-35" x1="153.93" y1="553.95" x2="151.68" y2="556.06"/><line class="cls-35" x1="163.95" y1="594.44" x2="162.35" y2="596.79"/><line class="cls-35" x1="155.78" y1="590.68" x2="153.94" y2="593.68"/><line class="cls-35" x1="148.29" y1="586.07" x2="145.6" y2="588.38"/><line class="cls-35" x1="140.41" y1="573.59" x2="137.31" y2="575.02"/><line class="cls-35" x1="140.86" y1="566.4" x2="137.93" y2="569.36"/><line class="cls-35" x1="132.5" y1="575.08" x2="130.86" y2="578.51"/><line class="cls-35" x1="138.38" y1="582.04" x2="136.54" y2="585.03"/><line class="cls-35" x1="121.6" y1="544.01" x2="121.5" y2="547.28"/><line class="cls-35" x1="128.73" y1="539.66" x2="126.65" y2="543.3"/><line class="cls-35" x1="126.47" y1="548.75" x2="124.42" y2="551.3"/><line class="cls-35" x1="113.6" y1="541.78" x2="111.14" y2="543.45"/><line class="cls-35" x1="134.75" y1="549.24" x2="132.49" y2="551.35"/><line class="cls-35" x1="111.91" y1="533.43" x2="109.01" y2="535.3"/><line class="cls-35" x1="119.71" y1="535.22" x2="117.25" y2="536.88"/><line class="cls-35" x1="122.91" y1="537.5" x2="121.06" y2="540.5"/><line class="cls-35" x1="141.29" y1="549.46" x2="139.44" y2="552.45"/><line class="cls-35" x1="130.58" y1="556.53" x2="127.92" y2="557.75"/><line class="cls-35" x1="133.91" y1="541.58" x2="132.06" y2="544.57"/><line class="cls-35" x1="142.32" y1="544.69" x2="139.42" y2="546.56"/><line class="cls-35" x1="138.41" y1="557.22" x2="135.51" y2="559.09"/><line class="cls-35" x1="147.18" y1="549.43" x2="145.34" y2="552.43"/><line class="cls-35" x1="140.14" y1="564.48" x2="137.48" y2="565.7"/><line class="cls-35" x1="131.05" y1="562.22" x2="129.88" y2="564.36"/><line class="cls-35" x1="122.47" y1="557.57" x2="119.13" y2="559.64"/><line class="cls-35" x1="117.36" y1="553.47" x2="115.72" y2="556.91"/><line class="cls-35" x1="111.78" y1="550.67" x2="110.14" y2="554.11"/><line class="cls-35" x1="120.13" y1="529.12" x2="117.88" y2="531.23"/><line class="cls-35" x1="129.94" y1="529.44" x2="127.48" y2="531.11"/><line class="cls-35" x1="134.77" y1="535.27" x2="132.76" y2="536.74"/><line class="cls-35" x1="130.15" y1="569.61" x2="128.54" y2="571.96"/><line class="cls-35" x1="121.98" y1="565.85" x2="120.13" y2="568.84"/><line class="cls-35" x1="114.49" y1="561.24" x2="111.79" y2="563.55"/><line class="cls-35" x1="106.61" y1="548.76" x2="103.5" y2="550.18"/><line class="cls-35" x1="107.06" y1="541.57" x2="104.13" y2="544.53"/><line class="cls-35" x1="98.7" y1="550.24" x2="97.06" y2="553.68"/><line class="cls-35" x1="104.58" y1="557.2" x2="102.74" y2="560.2"/><path class="cls-36" d="M185.64,548.37c-14.1-17.82-13.44-41.87-6-62.3.16-.44-.55-.63-.71-.19-7.57,20.7-8.11,45,6.16,63,.3.37.81-.16.52-.52Z"/><path class="cls-36" d="M180.11,547.77a42.44,42.44,0,0,1-11.33-28.33,102.91,102.91,0,0,1,5.08-33.9c.14-.45-.57-.65-.71-.2a101,101,0,0,0-5,35.89,42.77,42.77,0,0,0,11.48,27.06c.33.34.85-.18.52-.52Z"/><path class="cls-36" d="M256.48,489A57,57,0,0,0,258,499.92a.37.37,0,0,0,.71-.19A55.8,55.8,0,0,1,257.22,489c0-.47-.76-.48-.74,0Z"/><path class="cls-36" d="M260.88,489.55a14.44,14.44,0,0,0,1.47,7.91c.21.42.84.05.64-.37a13.65,13.65,0,0,1-1.37-7.54c0-.47-.69-.47-.74,0Z"/></g><g id="Hat"><path class="cls-37" d="M305.88,457.14l-7.22.83-88.22,10.09-3.52.4-69.1,7.91-36.19,4.14-6.72.77h-.13l-1-8.9-1-8.9c0-.23,0-.47-.07-.7a35.31,35.31,0,0,1,31.05-38.27l69.71-8,.86-.09.67-.07,12-1.38,3.52-.39,54.42-6.24a35.3,35.3,0,0,1,38.88,30.28c0,.23.07.47.1.7l1,8.89Z"/><polygon class="cls-38" points="307.59 447.92 304.86 448.24 298.29 448.99 210.44 459.03 206.92 459.43 133.74 467.81 100.61 471.6 96.95 472.02 93.76 472.39 91.7 472.62 90.6 463.02 92.67 462.79 99.93 461.95 108.84 460.93 119.66 459.7 119.68 459.7 206.92 449.72 210.44 449.32 297.17 439.4 303.74 438.65 306.5 438.33 307.59 447.92"/><path class="cls-38" d="M206.35,412.63c.16,1.28-4.9,2.93-11.39,3.75l-.67.07-.86.09c-6.41.65-11.61.19-11.75-1.08s5.24-3,12.06-3.81S206.2,411.31,206.35,412.63Z"/></g><g id="Forreste_arm" data-name="Forreste arm"><path class="cls-36" d="M302.33,834a7.64,7.64,0,0,0,5.21.54c1.9-.57,3.5-2,5.07-3.2.37-.27,0-.91-.37-.63-3,2.21-5.6,4.33-9.54,2.66-.43-.19-.8.45-.37.63Z"/><path class="cls-36" d="M304.56,832.19a5.9,5.9,0,0,0,4.15-1.33c.37-.29-.16-.81-.52-.52a5.11,5.11,0,0,1-3.63,1.11c-.47,0-.47.7,0,.74Z"/><path class="cls-23" d="M316,830.39h0a11.26,11.26,0,0,1-15,5.34L194.81,784.89l4.86-10.22Z"/><path class="cls-23" d="M360.11,774.43l4.09,4.11a2.5,2.5,0,0,1,0,3.53l-51.3,51.48-8-8,50.94-51.12A3,3,0,0,1,360.11,774.43Z"/><rect class="cls-23" x="359.91" y="753.37" width="7.59" height="18.63" rx="2.38" transform="translate(645.82 -33.79) rotate(45)"/><rect class="cls-23" x="366.12" y="759.58" width="7.59" height="18.63" rx="2.38" transform="translate(652.03 -36.36) rotate(45)"/><rect class="cls-23" x="351.52" y="768.48" width="25.37" height="12.24" rx="3.4" transform="translate(654.39 -30.66) rotate(45)"/><rect class="cls-23" x="372.32" y="765.78" width="7.59" height="18.63" rx="2.38" transform="translate(658.24 -38.93) rotate(45)"/><path class="cls-36" d="M377.2,773.22a13.5,13.5,0,0,0,1.32,1.3c.36.31.88-.21.52-.52a13.5,13.5,0,0,1-1.32-1.3c-.31-.36-.83.16-.52.52Z"/><path class="cls-36" d="M371.33,766.18a13.63,13.63,0,0,0,1.33,1.3c.35.3.88-.21.52-.52a12.57,12.57,0,0,1-1.33-1.3c-.31-.36-.83.16-.52.52Z"/><path class="cls-36" d="M365.47,759.13a13.6,13.6,0,0,0,1.32,1.31c.36.3.88-.21.52-.52a14.94,14.94,0,0,1-1.33-1.31c-.31-.35-.83.17-.51.52Z"/></g><path id="Skygge" class="cls-39" d="M206.92,415V944.72l-7,44.8h-2.5v4.86a6.89,6.89,0,0,1-6.87,6.87h-7.23a6.89,6.89,0,0,1-6.87-6.87v-4.86h-3.52L180,943.57a10.69,10.69,0,0,0-.21-2l-19.1-52.36a18.31,18.31,0,0,1-11.82-17.07V741.48a18.29,18.29,0,0,1,18.23-18.24h29.46a14.26,14.26,0,0,1,6.38,1.51l2.49,1.24V714.42l-.95.13a30.61,30.61,0,0,1-23.38-7.12,30.71,30.71,0,0,1-54-9.16,30.7,30.7,0,0,1-34.44-48,30.65,30.65,0,0,1-7.27-39.79,21.64,21.64,0,0,1,6.53-15.93,26.11,26.11,0,0,1-.45-2.81,30.37,30.37,0,0,1,4.15-19.22h0c-.14-.67-.25-1.34-.33-2a21.58,21.58,0,0,1,2.48-12.82,23.74,23.74,0,0,1-1.08-29.11,21.82,21.82,0,0,1-1.39-16,21.77,21.77,0,0,1,1.12-23.39,21,21,0,0,1-1.34-5.41,21.78,21.78,0,0,1-.14-2.41h-.13l-1-8.9-2.05.23L90.6,463l2.07-.23a35.31,35.31,0,0,1,31.05-38.27l69.71-8c-6.41.65-11.61.19-11.75-1.08s5.24-3,12.06-3.81,12.46-.34,12.61,1-4.9,2.93-11.39,3.75Z"/></g><rect class="cls-5" x="1831" y="43" width="27" height="402" rx="13.5"/><path class="cls-40" d="M1831,163h27a0,0,0,0,1,0,0V433.69A11.31,11.31,0,0,1,1846.69,445h-4.39A11.31,11.31,0,0,1,1831,433.69V163A0,0,0,0,1,1831,163Z"/></svg>
