<svg xmlns="http://www.w3.org/2000/svg" width="1330" height="590" viewBox="0 0 1330 590"><defs><style>.cls-1{fill:#136641;}.cls-2{fill:#1d9660;}.cls-3{fill:#22b573;}.cls-4{fill:#fff;}.cls-5{fill:#156e46;}</style></defs><title>green_fish</title><g id="Fisk"><path class="cls-1" d="M337.78,461s-39.66,150.7,37.48,121.2S337.78,461,337.78,461Z"/><path class="cls-2" d="M338,460.92s-109.93,80.7-36.35,101S338,460.92,338,460.92Z"/><path class="cls-3" d="M1137.42,295.82S589.63,648.14,29.24,364a22.26,22.26,0,0,1-7-5.58c-7.39-8.82-24.66-31.62-17.4-44.33,0,0,66.22,45.67,100.47,25.12,0,0-77.91-24.12-95-59a20.24,20.24,0,0,1,1.53-20.31c15.24-22.28,74.78-82.61,283-110.25C552.87,115.43,993.57,177.09,1137.42,295.82Z"/><circle class="cls-4" cx="109.89" cy="261.57" r="36.53"/><circle cx="109.89" cy="261.57" r="10.8"/><path class="cls-1" d="M513.48,106s44-45.39,82.78-38.54c0,0,33.29,14.07-25.6,76.68,0,0-21.45-4.87-64.14-4.24S513.48,106,513.48,106Z"/><path class="cls-2" d="M291.11,150.19s33.42-117,74.52-110.11,121,13.43,205.51,105C571.14,145.12,374.14,137,291.11,150.19Z"/><path class="cls-1" d="M1137.94,291.25,1311.32,8.06c5-8.22,17.68-2.85,15.27,6.48l-72.15,279.09a8.41,8.41,0,0,0,0,4.37l71.79,255c2.59,9.2-9.75,14.87-15,6.93L1138.11,300.28A8.38,8.38,0,0,1,1137.94,291.25Z"/><path class="cls-5" d="M251.72,445.87a1.47,1.47,0,0,1-.83-.25,1.5,1.5,0,0,1-.42-2.08c26.68-40.4,43.31-80.54,49.44-119.29,4.89-30.95,3.13-61.09-5.24-89.6-14.24-48.51-43-75.74-43.32-76a1.5,1.5,0,0,1,2.05-2.2c.3.28,29.68,28.08,44.15,77.37,8.49,28.93,10.29,59.52,5.32,90.91-6.19,39.18-23,79.71-49.9,120.48A1.52,1.52,0,0,1,251.72,445.87Z"/><path class="cls-5" d="M317.25,338.21a1.5,1.5,0,0,1-1.25-2.32c11.93-18.08,15.76-36.17,11.06-52.33a46.56,46.56,0,0,0-10.84-19.24,1.5,1.5,0,0,1,2.06-2.18,48.71,48.71,0,0,1,11.62,20.43c3.5,11.9,4.36,31.1-11.4,55A1.49,1.49,0,0,1,317.25,338.21Z"/><path class="cls-5" d="M339.72,330.34a1.48,1.48,0,0,1-.87-.28,1.5,1.5,0,0,1-.35-2.09c24.18-34,1.22-54.86.23-55.73a1.5,1.5,0,1,1,2-2.26c.26.23,26,23.47.23,59.72A1.47,1.47,0,0,1,339.72,330.34Z"/></g></svg>
