<svg xmlns="http://www.w3.org/2000/svg" width="1330" height="590" viewBox="0 0 1330 590"><defs><style>.cls-1{fill:#136641;}.cls-2{fill:#1d9660;}.cls-3{fill:#22b573;}.cls-4{fill:#156e46;}</style></defs><title>green_fish_dead</title><g id="Død_fisk_2" data-name="Død fisk 2"><path class="cls-1" d="M958.72,60.37c-77.14,29.5,33.5,68.67,33.5,68.67S1035.86,30.87,958.72,60.37Z"/><path class="cls-2" d="M1029.72,72.37C956.14,52.1,992,129.08,992,129.08S1103.3,92.64,1029.72,72.37Z"/><path class="cls-3" d="M192.58,294.18S740.37-58.14,1300.76,226a22.26,22.26,0,0,1,7,5.58c7.39,8.82,24.66,31.62,17.4,44.33,0,0-37.43,12.46-76.43-16.54,0,0,29,43,70.92,50.39,7.17,1.27,2.58,14.29-1.53,20.31-15.24,22.28-74.78,82.61-282.95,110.25C777.13,474.57,336.43,412.91,192.58,294.18Z"/><path class="cls-1" d="M816.52,484s-44,45.39-82.78,38.54c0,0-33.29-14.07,25.6-76.68,0,0,21.45,4.87,64.14,4.24S816.52,484,816.52,484Z"/><path class="cls-2" d="M1038.89,439.81s-33.42,117-74.52,110.11-121-13.43-205.51-105C758.86,444.88,955.86,453,1038.89,439.81Z"/><path class="cls-1" d="M192.06,298.75,18.68,581.94c-5,8.22-17.68,2.85-15.27-6.48L75.56,296.37a8.41,8.41,0,0,0,0-4.37L3.72,37C1.13,27.77,13.47,22.1,18.77,30L191.89,289.72A8.38,8.38,0,0,1,192.06,298.75Z"/><path class="cls-4" d="M1078.28,144.13a1.47,1.47,0,0,1,.83.25,1.5,1.5,0,0,1,.42,2.08c-26.68,40.4-43.31,80.54-49.44,119.29-4.89,30.95-3.13,61.09,5.24,89.6,14.24,48.51,43,75.74,43.32,76a1.5,1.5,0,0,1-2.05,2.2c-.3-.28-29.68-28.08-44.15-77.37-8.49-28.93-10.29-59.52-5.32-90.91,6.19-39.18,23-79.71,49.9-120.48A1.52,1.52,0,0,1,1078.28,144.13Z"/><path class="cls-4" d="M1012.75,251.79a1.5,1.5,0,0,1,1.25,2.32c-11.93,18.08-15.76,36.17-11.06,52.33a46.56,46.56,0,0,0,10.84,19.24,1.5,1.5,0,1,1-2.06,2.18,48.71,48.71,0,0,1-11.62-20.43c-3.5-11.9-4.36-31.1,11.4-55A1.49,1.49,0,0,1,1012.75,251.79Z"/><path class="cls-4" d="M990.28,259.66a1.48,1.48,0,0,1,.87.28,1.5,1.5,0,0,1,.35,2.09c-24.18,34-1.22,54.86-.23,55.73a1.5,1.5,0,1,1-2,2.26c-.26-.23-26-23.47-.23-59.72A1.47,1.47,0,0,1,990.28,259.66Z"/><rect x="1149.28" y="266.91" width="20.12" height="122.55" rx="5.5" transform="translate(571.63 -723.66) rotate(45)"/><rect x="1149.28" y="266.91" width="20.12" height="122.55" rx="5.5" transform="translate(107.5 915.9) rotate(-45)"/></g></svg>
