<svg xmlns="http://www.w3.org/2000/svg" width="680" height="410" viewBox="0 0 680 410"><defs><style>.cls-1{fill:#fff;}</style></defs><title>instruktioner</title><g id="Game_rules" data-name="Game rules"><circle class="cls-1" cx="542.95" cy="294.39" r="86.69"/><circle class="cls-1" cx="463.41" cy="292.8" r="86.69"/><circle class="cls-1" cx="383.88" cy="292.8" r="86.69"/><circle class="cls-1" cx="592.26" cy="216.45" r="86.69"/><circle class="cls-1" cx="262.98" cy="294.39" r="86.69"/><circle class="cls-1" cx="197.76" cy="264.17" r="86.69"/><circle class="cls-1" cx="455.46" cy="205.31" r="86.69"/><circle class="cls-1" cx="358.42" cy="233.94" r="86.69"/><circle class="cls-1" cx="197.76" cy="186.22" r="86.69"/><circle class="cls-1" cx="167.76" cy="99.22" r="86.69"/><circle class="cls-1" cx="93.76" cy="171.22" r="86.69"/><circle class="cls-1" cx="100.76" cy="277.22" r="86.69"/><circle class="cls-1" cx="193.76" cy="319.22" r="86.69"/><circle class="cls-1" cx="313.88" cy="128.96" r="86.69"/><circle class="cls-1" cx="428.42" cy="90.78" r="86.69"/><circle class="cls-1" cx="542.95" cy="128.96" r="86.69"/><path d="M95.45,138.34A9.37,9.37,0,0,1,92,136.43l1.11-2.34a9.17,9.17,0,0,0,3.07,1.76,11.32,11.32,0,0,0,3.86.67,7,7,0,0,0,3.9-.88,2.74,2.74,0,0,0,1.29-2.36,2.31,2.31,0,0,0-.71-1.75,4.72,4.72,0,0,0-1.74-1c-.69-.24-1.66-.51-2.92-.81A30.25,30.25,0,0,1,96,128.54a6.31,6.31,0,0,1-2.49-1.75,4.7,4.7,0,0,1-1-3.2,5.4,5.4,0,0,1,.88-3,6.09,6.09,0,0,1,2.69-2.16,10.89,10.89,0,0,1,4.47-.81,14.14,14.14,0,0,1,3.66.48,9.74,9.74,0,0,1,3.09,1.38l-1,2.4a10.85,10.85,0,0,0-2.82-1.27,10.54,10.54,0,0,0-2.94-.44,6.5,6.5,0,0,0-3.83.93,2.84,2.84,0,0,0-1.27,2.4,2.31,2.31,0,0,0,.72,1.76,5,5,0,0,0,1.78,1,28.23,28.23,0,0,0,2.9.79,29.32,29.32,0,0,1,3.81,1.14,6.4,6.4,0,0,1,2.47,1.74,4.58,4.58,0,0,1,1,3.15,5.38,5.38,0,0,1-.9,3,6,6,0,0,1-2.73,2.16,11.3,11.3,0,0,1-4.5.79A14.4,14.4,0,0,1,95.45,138.34Z"/><path d="M123,124.4a6.26,6.26,0,0,1,1.76,4.83v9.6H122v-2.1a4.58,4.58,0,0,1-2.06,1.7,7.82,7.82,0,0,1-3.16.58,6.64,6.64,0,0,1-4.28-1.29,4.43,4.43,0,0,1-.07-6.76,7.54,7.54,0,0,1,4.86-1.28h4.56v-.57a3.67,3.67,0,0,0-1.08-2.85,4.56,4.56,0,0,0-3.18-1,8.42,8.42,0,0,0-2.76.47,7.1,7.1,0,0,0-2.28,1.24l-1.2-2.16a8.7,8.7,0,0,1,2.94-1.51,12.3,12.3,0,0,1,3.63-.53A7.18,7.18,0,0,1,123,124.4Zm-2.86,11.66a4.22,4.22,0,0,0,1.74-2.09v-2.22H117.4q-3.66,0-3.66,2.46a2.23,2.23,0,0,0,.93,1.89,4.25,4.25,0,0,0,2.58.69A5.35,5.35,0,0,0,120.1,136.06Z"/><path d="M154.7,124.52a7,7,0,0,1,1.76,5.16v9.15h-2.88V130a5,5,0,0,0-1.07-3.48,3.9,3.9,0,0,0-3-1.17,4.56,4.56,0,0,0-3.48,1.37,5.47,5.47,0,0,0-1.29,3.91v8.19h-2.88V130a5,5,0,0,0-1.07-3.48,3.9,3.9,0,0,0-3-1.17,4.56,4.56,0,0,0-3.48,1.37,5.47,5.47,0,0,0-1.29,3.91v8.19h-2.88v-15.9h2.76v2.37a5.57,5.57,0,0,1,2.28-1.87,7.64,7.64,0,0,1,3.21-.65,7,7,0,0,1,3.3.75,5.21,5.21,0,0,1,2.22,2.19,6.08,6.08,0,0,1,2.5-2.16,8.19,8.19,0,0,1,3.62-.78A6.44,6.44,0,0,1,154.7,124.52Z"/><path d="M161.77,116.57h2.88v22.26h-2.88Z"/><path d="M179,138.49a8.23,8.23,0,0,1-2.82-1.34l1.2-2.28a8.61,8.61,0,0,0,2.55,1.2,10.49,10.49,0,0,0,3,.45q3.78,0,3.78-2.16a1.4,1.4,0,0,0-.51-1.14,3.25,3.25,0,0,0-1.28-.61c-.51-.13-1.23-.28-2.17-.44a21.4,21.4,0,0,1-3.14-.69,4.82,4.82,0,0,1-2.08-1.32,3.67,3.67,0,0,1-.87-2.61,4.07,4.07,0,0,1,1.8-3.46,8.06,8.06,0,0,1,4.83-1.31,13.31,13.31,0,0,1,3.18.39,8.55,8.55,0,0,1,2.61,1l-1.23,2.28a8.27,8.27,0,0,0-4.59-1.26,5.31,5.31,0,0,0-2.79.6,1.81,1.81,0,0,0-1,1.59,1.52,1.52,0,0,0,.54,1.23,3.39,3.39,0,0,0,1.33.66c.53.14,1.28.3,2.24.48a24,24,0,0,1,3.1.71,4.64,4.64,0,0,1,2,1.27,3.55,3.55,0,0,1,.84,2.52,4,4,0,0,1-1.85,3.44,8.7,8.7,0,0,1-5,1.27A13.32,13.32,0,0,1,179,138.49Z"/><path d="M204.08,124.4a6.26,6.26,0,0,1,1.76,4.83v9.6h-2.73v-2.1a4.58,4.58,0,0,1-2.06,1.7,7.82,7.82,0,0,1-3.16.58,6.64,6.64,0,0,1-4.28-1.29,4.43,4.43,0,0,1-.07-6.76,7.54,7.54,0,0,1,4.86-1.28H203v-.57a3.67,3.67,0,0,0-1.08-2.85,4.56,4.56,0,0,0-3.18-1,8.42,8.42,0,0,0-2.76.47,7.1,7.1,0,0,0-2.28,1.24l-1.2-2.16a8.7,8.7,0,0,1,2.94-1.51,12.3,12.3,0,0,1,3.63-.53A7.18,7.18,0,0,1,204.08,124.4Zm-2.86,11.66A4.22,4.22,0,0,0,203,134v-2.22h-4.44q-3.66,0-3.66,2.46a2.23,2.23,0,0,0,.93,1.89,4.25,4.25,0,0,0,2.58.69A5.35,5.35,0,0,0,201.22,136.06Zm-4.35-16a3.11,3.11,0,0,1-1-2.3,3.32,3.32,0,0,1,6.63,0,3.11,3.11,0,0,1-1,2.3,3.24,3.24,0,0,1-2.37.94A3.21,3.21,0,0,1,196.87,120.07Zm3.76-.89a2.08,2.08,0,0,0,0-2.85,1.92,1.92,0,0,0-1.41-.57,1.88,1.88,0,0,0-1.4.57,2,2,0,0,0-.55,1.44,1.94,1.94,0,0,0,.55,1.41,2,2,0,0,0,2.82,0Z"/><path d="M243.89,124.52a7,7,0,0,1,1.76,5.16v9.15h-2.88V130a5,5,0,0,0-1.07-3.48,3.9,3.9,0,0,0-3-1.17,4.56,4.56,0,0,0-3.48,1.37,5.47,5.47,0,0,0-1.29,3.91v8.19H231V130a5,5,0,0,0-1.07-3.48,3.9,3.9,0,0,0-3-1.17,4.56,4.56,0,0,0-3.48,1.37,5.47,5.47,0,0,0-1.29,3.91v8.19h-2.88v-15.9H222v2.37a5.57,5.57,0,0,1,2.28-1.87,7.64,7.64,0,0,1,3.21-.65,7,7,0,0,1,3.3.75,5.21,5.21,0,0,1,2.22,2.19,6.08,6.08,0,0,1,2.5-2.16,8.19,8.19,0,0,1,3.62-.78A6.44,6.44,0,0,1,243.89,124.52Z"/><path d="M265.36,131.84h-12.9a5,5,0,0,0,1.84,3.38,6,6,0,0,0,3.92,1.27,5.9,5.9,0,0,0,4.59-1.92l1.59,1.86a7,7,0,0,1-2.69,1.92,10.14,10.14,0,0,1-8-.37,7.41,7.41,0,0,1-3-2.9,8.3,8.3,0,0,1-1.06-4.2,8.43,8.43,0,0,1,1-4.17,7.4,7.4,0,0,1,2.85-2.89,8.14,8.14,0,0,1,4.1-1,7.94,7.94,0,0,1,4.06,1,7.26,7.26,0,0,1,2.79,2.89,8.82,8.82,0,0,1,1,4.26A8.25,8.25,0,0,1,265.36,131.84Zm-11.27-5.37a5.07,5.07,0,0,0-1.63,3.3h10.2a5.11,5.11,0,0,0-1.64-3.28,4.93,4.93,0,0,0-3.46-1.28A5,5,0,0,0,254.09,126.47Z"/><path d="M284.62,122.93v13.74q0,4.17-2.07,6.17t-6.18,2a14.78,14.78,0,0,1-4.29-.61,8.5,8.5,0,0,1-3.3-1.76l1.38-2.22a8.13,8.13,0,0,0,2.74,1.52,10.45,10.45,0,0,0,3.38.55A5.65,5.65,0,0,0,280.4,141a5.43,5.43,0,0,0,1.34-4v-1.26a6.4,6.4,0,0,1-2.51,1.85,8.32,8.32,0,0,1-3.22.61,8.71,8.71,0,0,1-4.13-1,7.24,7.24,0,0,1-2.89-2.73,8.16,8.16,0,0,1,0-8,7.15,7.15,0,0,1,2.89-2.72,8.82,8.82,0,0,1,4.13-1,8.4,8.4,0,0,1,3.34.66,6.22,6.22,0,0,1,2.54,2v-2.46ZM279.14,135a4.87,4.87,0,0,0,1.95-1.84,5.17,5.17,0,0,0,.71-2.69,4.86,4.86,0,0,0-1.53-3.73,6.16,6.16,0,0,0-7.89,0,4.86,4.86,0,0,0-1.53,3.73,5.16,5.16,0,0,0,.7,2.69A4.87,4.87,0,0,0,273.5,135a6,6,0,0,0,2.84.66A5.88,5.88,0,0,0,279.14,135Z"/><path d="M304.42,131.84h-12.9a5,5,0,0,0,1.84,3.38,6,6,0,0,0,3.92,1.27,5.9,5.9,0,0,0,4.59-1.92l1.59,1.86a7,7,0,0,1-2.69,1.92,10.14,10.14,0,0,1-8-.37,7.41,7.41,0,0,1-3-2.9,8.3,8.3,0,0,1-1.06-4.2,8.43,8.43,0,0,1,1-4.17,7.4,7.4,0,0,1,2.85-2.89,8.14,8.14,0,0,1,4.1-1,7.94,7.94,0,0,1,4.06,1,7.26,7.26,0,0,1,2.79,2.89,8.82,8.82,0,0,1,1,4.26A8.25,8.25,0,0,1,304.42,131.84Zm-11.27-5.37a5.07,5.07,0,0,0-1.63,3.3h10.2a5.11,5.11,0,0,0-1.64-3.28,4.93,4.93,0,0,0-3.46-1.28A5,5,0,0,0,293.15,126.47Z"/><path d="M317.41,137.9a4.3,4.3,0,0,1-1.56.83,6.51,6.51,0,0,1-1.92.28,5.1,5.1,0,0,1-3.72-1.29,4.93,4.93,0,0,1-1.32-3.69V125.3h-2.7v-2.37h2.7v-3.48h2.88v3.48h4.56v2.37h-4.56v8.61a2.79,2.79,0,0,0,.64,2,2.41,2.41,0,0,0,1.85.69,3.47,3.47,0,0,0,2.25-.75Z"/><path d="M341.53,123.8a7.32,7.32,0,0,1,2.86,2.85,8.45,8.45,0,0,1,1,4.23,8.55,8.55,0,0,1-1,4.25,7.28,7.28,0,0,1-2.86,2.86,8.36,8.36,0,0,1-4.14,1,7.39,7.39,0,0,1-3.14-.66,6.5,6.5,0,0,1-2.41-1.92v8.22H329V122.93h2.76v2.52a6.1,6.1,0,0,1,2.43-2,7.67,7.67,0,0,1,3.24-.68A8.36,8.36,0,0,1,341.53,123.8Zm-1.64,12a5.08,5.08,0,0,0,1.92-2,6.38,6.38,0,0,0,0-5.85,5,5,0,0,0-1.92-2,5.44,5.44,0,0,0-2.74-.69,5.33,5.33,0,0,0-2.72.71,5.09,5.09,0,0,0-1.92,2,5.86,5.86,0,0,0-.7,2.91,6.07,6.07,0,0,0,.69,2.93,5,5,0,0,0,1.92,2,5.69,5.69,0,0,0,5.47,0Z"/><path d="M349.42,116.57h2.88v22.26h-2.88Z"/><path d="M368.63,124.4a6.26,6.26,0,0,1,1.76,4.83v9.6h-2.73v-2.1a4.58,4.58,0,0,1-2.06,1.7,7.82,7.82,0,0,1-3.16.58,6.64,6.64,0,0,1-4.28-1.29,4.43,4.43,0,0,1-.07-6.76,7.54,7.54,0,0,1,4.86-1.28h4.56v-.57a3.67,3.67,0,0,0-1.08-2.85,4.56,4.56,0,0,0-3.18-1,8.42,8.42,0,0,0-2.76.47,7.1,7.1,0,0,0-2.28,1.24l-1.2-2.16a8.7,8.7,0,0,1,2.94-1.51,12.3,12.3,0,0,1,3.63-.53A7.18,7.18,0,0,1,368.63,124.4Zm-2.86,11.66a4.22,4.22,0,0,0,1.74-2.09v-2.22h-4.44q-3.66,0-3.66,2.46a2.23,2.23,0,0,0,.93,1.89,4.25,4.25,0,0,0,2.58.69A5.35,5.35,0,0,0,365.77,136.06Z"/><path d="M376.54,138.49a8.23,8.23,0,0,1-2.82-1.34l1.2-2.28a8.38,8.38,0,0,0,2.55,1.2,10.44,10.44,0,0,0,3,.45q3.78,0,3.78-2.16a1.4,1.4,0,0,0-.51-1.14,3.31,3.31,0,0,0-1.28-.61c-.51-.13-1.23-.28-2.17-.44a21.4,21.4,0,0,1-3.14-.69,4.76,4.76,0,0,1-2.08-1.32,3.63,3.63,0,0,1-.87-2.61,4.07,4.07,0,0,1,1.8-3.46,8.06,8.06,0,0,1,4.83-1.31,13.37,13.37,0,0,1,3.18.39,8.77,8.77,0,0,1,2.61,1l-1.23,2.28a8.29,8.29,0,0,0-4.59-1.26,5.28,5.28,0,0,0-2.79.6,1.81,1.81,0,0,0-1,1.59,1.52,1.52,0,0,0,.54,1.23,3.39,3.39,0,0,0,1.33.66c.53.14,1.28.3,2.24.48a24.45,24.45,0,0,1,3.1.71,4.64,4.64,0,0,1,2,1.27,3.55,3.55,0,0,1,.84,2.52,4,4,0,0,1-1.85,3.44,8.72,8.72,0,0,1-5,1.27A13.27,13.27,0,0,1,376.54,138.49Z"/><path d="M399.69,137.9a4.22,4.22,0,0,1-1.56.83,6.46,6.46,0,0,1-1.92.28,5.06,5.06,0,0,1-3.71-1.29,4.89,4.89,0,0,1-1.33-3.69V125.3h-2.69v-2.37h2.69v-3.48h2.88v3.48h4.56v2.37h-4.56v8.61a2.79,2.79,0,0,0,.65,2,2.4,2.4,0,0,0,1.85.69,3.51,3.51,0,0,0,2.25-.75Z"/><path d="M403.22,119.33a1.77,1.77,0,0,1-.55-1.32,1.8,1.8,0,0,1,.55-1.33,1.88,1.88,0,0,1,1.39-.56,2,2,0,0,1,1.4.53,1.72,1.72,0,0,1,.56,1.3,1.87,1.87,0,0,1-.56,1.37,2.06,2.06,0,0,1-2.79,0Zm-.05,3.6h2.88v15.9h-2.88Z"/><path d="M417.72,131.42l-3.3,3.06v4.35h-2.88V116.57h2.88v14.28l8.67-7.92h3.48l-6.69,6.57,7.35,9.33h-3.54Z"/><path d="M453.09,116.57v22.26h-2.76v-2.52a6.24,6.24,0,0,1-2.43,2,7.53,7.53,0,0,1-3.24.69,8.36,8.36,0,0,1-4.14-1,7.28,7.28,0,0,1-2.86-2.86,8.55,8.55,0,0,1-1-4.25,8.45,8.45,0,0,1,1-4.23,7.32,7.32,0,0,1,2.86-2.85,8.36,8.36,0,0,1,4.14-1,7.62,7.62,0,0,1,3.15.65,6.1,6.1,0,0,1,2.4,1.9v-8.76Zm-5.46,19.22a5,5,0,0,0,1.92-2,6.54,6.54,0,0,0,0-5.85,4.86,4.86,0,0,0-1.92-2,5.77,5.77,0,0,0-5.47,0,5,5,0,0,0-1.92,2,6.38,6.38,0,0,0,0,5.85,5.08,5.08,0,0,0,1.92,2,5.69,5.69,0,0,0,5.47,0Z"/><path d="M473.37,122.93v15.9h-2.73v-2.4a5.78,5.78,0,0,1-2.29,1.91,7.18,7.18,0,0,1-3.11.67,6.94,6.94,0,0,1-5-1.75,6.86,6.86,0,0,1-1.83-5.18v-9.15h2.88v8.82a5,5,0,0,0,1.11,3.5,4.14,4.14,0,0,0,3.18,1.18,4.75,4.75,0,0,0,3.6-1.38,5.42,5.42,0,0,0,1.32-3.9v-8.22Z"/><path d="M493.11,131.42l-3.3,3.06v4.35h-2.88V116.57h2.88v14.28l8.67-7.92H502l-6.69,6.57,7.35,9.33h-3.54Z"/><path d="M516,124.4a6.25,6.25,0,0,1,1.75,4.83v9.6H515v-2.1a4.55,4.55,0,0,1-2.05,1.7,7.87,7.87,0,0,1-3.17.58,6.61,6.61,0,0,1-4.27-1.29,4.42,4.42,0,0,1-.08-6.76,7.54,7.54,0,0,1,4.86-1.28h4.56v-.57a3.67,3.67,0,0,0-1.08-2.85,4.56,4.56,0,0,0-3.18-1,8.42,8.42,0,0,0-2.76.47,7.1,7.1,0,0,0-2.28,1.24l-1.2-2.16a8.7,8.7,0,0,1,2.94-1.51,12.3,12.3,0,0,1,3.63-.53A7.2,7.2,0,0,1,516,124.4Zm-2.87,11.66a4.22,4.22,0,0,0,1.74-2.09v-2.22h-4.44q-3.66,0-3.66,2.46a2.23,2.23,0,0,0,.93,1.89,4.25,4.25,0,0,0,2.58.69A5.35,5.35,0,0,0,513.09,136.06Z"/><path d="M536.36,124.54a6.89,6.89,0,0,1,1.78,5.14v9.15h-2.88V130a4.88,4.88,0,0,0-1.11-3.48,4.17,4.17,0,0,0-3.18-1.17,5,5,0,0,0-3.69,1.37,5.32,5.32,0,0,0-1.35,3.91v8.19h-2.88v-15.9h2.76v2.4a5.61,5.61,0,0,1,2.36-1.89,8.21,8.21,0,0,1,3.37-.66A6.58,6.58,0,0,1,536.36,124.54Z"/><path d="M564.86,124.54a6.89,6.89,0,0,1,1.78,5.14v9.15h-2.88V130a4.88,4.88,0,0,0-1.11-3.48,4.17,4.17,0,0,0-3.18-1.17,5,5,0,0,0-3.69,1.37,5.32,5.32,0,0,0-1.35,3.91v8.19h-2.88v-15.9h2.76v2.4a5.61,5.61,0,0,1,2.36-1.89,8.21,8.21,0,0,1,3.37-.66A6.58,6.58,0,0,1,564.86,124.54Z"/><path d="M582.83,124.4a6.25,6.25,0,0,1,1.75,4.83v9.6h-2.73v-2.1a4.55,4.55,0,0,1-2.05,1.7,7.87,7.87,0,0,1-3.17.58,6.61,6.61,0,0,1-4.27-1.29,4.42,4.42,0,0,1-.08-6.76,7.54,7.54,0,0,1,4.86-1.28h4.56v-.57a3.67,3.67,0,0,0-1.08-2.85,4.56,4.56,0,0,0-3.18-1,8.42,8.42,0,0,0-2.76.47A7.1,7.1,0,0,0,572.4,127l-1.2-2.16a8.7,8.7,0,0,1,2.94-1.51,12.3,12.3,0,0,1,3.63-.53A7.2,7.2,0,0,1,582.83,124.4ZM580,136.06A4.22,4.22,0,0,0,581.7,134v-2.22h-4.44q-3.66,0-3.66,2.46a2.23,2.23,0,0,0,.93,1.89,4.25,4.25,0,0,0,2.58.69A5.35,5.35,0,0,0,580,136.06Zm-4.35-16a3.11,3.11,0,0,1-1-2.3,3.32,3.32,0,0,1,6.63,0,3.11,3.11,0,0,1-1,2.3A3.24,3.24,0,0,1,578,121,3.21,3.21,0,0,1,575.61,120.07Zm3.77-.89a2.09,2.09,0,0,0,0-2.85,1.92,1.92,0,0,0-1.41-.57,1.85,1.85,0,0,0-1.39.57,2,2,0,0,0-.56,1.44,2,2,0,0,0,.56,1.41,1.85,1.85,0,0,0,1.39.57A1.91,1.91,0,0,0,579.38,119.18Z"/><path d="M67.69,155.33a1.78,1.78,0,0,1-.56-1.32,1.81,1.81,0,0,1,.56-1.33,1.88,1.88,0,0,1,1.39-.56,2,2,0,0,1,1.4.53A1.71,1.71,0,0,1,71,154a1.86,1.86,0,0,1-.55,1.37,2.06,2.06,0,0,1-2.79,0Zm0,3.6h2.88v15.9H67.64Z"/><path d="M89.32,160.54a6.89,6.89,0,0,1,1.78,5.14v9.15H88.22V166a4.88,4.88,0,0,0-1.11-3.48,4.17,4.17,0,0,0-3.18-1.17,5,5,0,0,0-3.69,1.37,5.32,5.32,0,0,0-1.35,3.91v8.19H76v-15.9h2.76v2.4a5.61,5.61,0,0,1,2.36-1.89,8.21,8.21,0,0,1,3.37-.66A6.58,6.58,0,0,1,89.32,160.54Z"/><path d="M111.53,152.57v22.26h-2.76v-2.52a6.24,6.24,0,0,1-2.43,2,7.53,7.53,0,0,1-3.24.69A8.36,8.36,0,0,1,99,174a7.28,7.28,0,0,1-2.86-2.86,8.55,8.55,0,0,1-1-4.25,8.45,8.45,0,0,1,1-4.23A7.32,7.32,0,0,1,99,159.8a8.36,8.36,0,0,1,4.14-1,7.62,7.62,0,0,1,3.15.65,6.1,6.1,0,0,1,2.4,1.9v-8.76Zm-5.46,19.22a5,5,0,0,0,1.92-2,6.54,6.54,0,0,0,0-5.85,4.86,4.86,0,0,0-1.92-2,5.77,5.77,0,0,0-5.47,0,5,5,0,0,0-1.92,2,6.38,6.38,0,0,0,0,5.85,5.08,5.08,0,0,0,1.92,2,5.69,5.69,0,0,0,5.47,0Z"/><path d="M131.3,167.84H118.4a5,5,0,0,0,1.85,3.38,6,6,0,0,0,3.91,1.27,5.9,5.9,0,0,0,4.59-1.92l1.59,1.86a7,7,0,0,1-2.68,1.92,10.16,10.16,0,0,1-8.06-.37,7.38,7.38,0,0,1-3-2.9,8.3,8.3,0,0,1-1.07-4.2,8.43,8.43,0,0,1,1-4.17,7.4,7.4,0,0,1,2.85-2.89,8.1,8.1,0,0,1,4.09-1,8,8,0,0,1,4.07,1,7.26,7.26,0,0,1,2.79,2.89,8.82,8.82,0,0,1,1,4.26A8.25,8.25,0,0,1,131.3,167.84ZM120,162.47a5.08,5.08,0,0,0-1.64,3.3h10.2a5.1,5.1,0,0,0-1.63-3.28,5.36,5.36,0,0,0-6.93,0Z"/><path d="M148.66,160.54a6.89,6.89,0,0,1,1.78,5.14v9.15h-2.88V166a4.88,4.88,0,0,0-1.11-3.48,4.17,4.17,0,0,0-3.18-1.17,5,5,0,0,0-3.69,1.37,5.32,5.32,0,0,0-1.35,3.91v8.19h-2.88v-15.9h2.76v2.4a5.61,5.61,0,0,1,2.36-1.89,8.21,8.21,0,0,1,3.37-.66A6.58,6.58,0,0,1,148.66,160.54Z"/><path d="M172.79,173.9a4.3,4.3,0,0,1-1.56.83,6.51,6.51,0,0,1-1.92.28,5.1,5.1,0,0,1-3.72-1.29,4.93,4.93,0,0,1-1.32-3.69V161.3h-2.7v-2.37h2.7v-3.48h2.88v3.48h4.56v2.37h-4.56v8.61a2.79,2.79,0,0,0,.65,2,2.39,2.39,0,0,0,1.84.69,3.47,3.47,0,0,0,2.25-.75Z"/><path d="M176.32,155.33a1.78,1.78,0,0,1-.56-1.32,1.81,1.81,0,0,1,.56-1.33,1.88,1.88,0,0,1,1.39-.56,2,2,0,0,1,1.4.53,1.71,1.71,0,0,1,.55,1.3,1.86,1.86,0,0,1-.55,1.37,2.06,2.06,0,0,1-2.79,0Zm0,3.6h2.88v15.9h-2.88Z"/><path d="M199.64,152.57v22.26h-2.76v-2.52a6.24,6.24,0,0,1-2.43,2,7.53,7.53,0,0,1-3.24.69,8.36,8.36,0,0,1-4.14-1,7.28,7.28,0,0,1-2.86-2.86,8.55,8.55,0,0,1-1-4.25,8.45,8.45,0,0,1,1-4.23,7.32,7.32,0,0,1,2.86-2.85,8.36,8.36,0,0,1,4.14-1,7.62,7.62,0,0,1,3.15.65,6.1,6.1,0,0,1,2.4,1.9v-8.76Zm-5.46,19.22a5,5,0,0,0,1.92-2,6.54,6.54,0,0,0,0-5.85,4.86,4.86,0,0,0-1.92-2,5.77,5.77,0,0,0-5.47,0,5,5,0,0,0-1.92,2,6.38,6.38,0,0,0,0,5.85,5.08,5.08,0,0,0,1.92,2,5.69,5.69,0,0,0,5.47,0Z"/><path d="M219.41,167.84h-12.9a5,5,0,0,0,1.85,3.38,6,6,0,0,0,3.91,1.27,5.9,5.9,0,0,0,4.59-1.92l1.59,1.86a7,7,0,0,1-2.68,1.92,10.16,10.16,0,0,1-8.06-.37,7.38,7.38,0,0,1-3-2.9,8.3,8.3,0,0,1-1.07-4.2,8.43,8.43,0,0,1,1-4.17,7.4,7.4,0,0,1,2.85-2.89,8.1,8.1,0,0,1,4.09-1,8,8,0,0,1,4.07,1,7.26,7.26,0,0,1,2.79,2.89,8.82,8.82,0,0,1,1,4.26A8.25,8.25,0,0,1,219.41,167.84Zm-11.26-5.37a5.08,5.08,0,0,0-1.64,3.3h10.2a5.1,5.1,0,0,0-1.63-3.28,5.36,5.36,0,0,0-6.93,0Z"/><path d="M236.77,160.54a6.89,6.89,0,0,1,1.78,5.14v9.15h-2.88V166a4.88,4.88,0,0,0-1.11-3.48,4.17,4.17,0,0,0-3.18-1.17,5,5,0,0,0-3.69,1.37,5.32,5.32,0,0,0-1.35,3.91v8.19h-2.88v-15.9h2.76v2.4a5.61,5.61,0,0,1,2.36-1.89,8.21,8.21,0,0,1,3.37-.66A6.58,6.58,0,0,1,236.77,160.54Z"/><path d="M252,152.57h2.88v22.26H252Z"/><path d="M262.88,174a7.59,7.59,0,0,1-2.95-2.89,8.72,8.72,0,0,1,0-8.37,7.5,7.5,0,0,1,2.95-2.88,9.22,9.22,0,0,1,8.51,0,7.54,7.54,0,0,1,2.94,2.88,8.79,8.79,0,0,1,0,8.37,7.63,7.63,0,0,1-2.94,2.89,9.15,9.15,0,0,1-8.51,0Zm10-17.07h1.77L261.41,177h-1.8Zm-2.95,14.9a5,5,0,0,0,1.9-2,6.54,6.54,0,0,0,0-5.85,4.87,4.87,0,0,0-1.9-2,5.81,5.81,0,0,0-5.49,0,5,5,0,0,0-1.92,2,6.38,6.38,0,0,0,0,5.85,5.08,5.08,0,0,0,1.92,2,5.73,5.73,0,0,0,5.49,0Z"/><path d="M292,159.8a7.35,7.35,0,0,1,2.87,2.85,8.44,8.44,0,0,1,1,4.23,8.55,8.55,0,0,1-1,4.25A7.31,7.31,0,0,1,292,174a8.36,8.36,0,0,1-4.14,1,7.53,7.53,0,0,1-3.24-.69,6.24,6.24,0,0,1-2.43-2v2.52h-2.76V152.57h2.88v8.76a6.1,6.1,0,0,1,2.4-1.9,7.62,7.62,0,0,1,3.15-.65A8.36,8.36,0,0,1,292,159.8Zm-1.63,12a5.08,5.08,0,0,0,1.92-2,6.46,6.46,0,0,0,0-5.85,5,5,0,0,0-1.92-2,5.79,5.79,0,0,0-5.48,0,4.86,4.86,0,0,0-1.92,2,6.54,6.54,0,0,0,0,5.85,5,5,0,0,0,1.92,2,5.71,5.71,0,0,0,5.48,0Z"/><path d="M314.15,167.84h-12.9a5,5,0,0,0,1.85,3.38,6,6,0,0,0,3.91,1.27,5.9,5.9,0,0,0,4.59-1.92l1.59,1.86a7,7,0,0,1-2.68,1.92,10.16,10.16,0,0,1-8.06-.37,7.38,7.38,0,0,1-3-2.9,8.3,8.3,0,0,1-1.07-4.2,8.43,8.43,0,0,1,1-4.17,7.4,7.4,0,0,1,2.85-2.89,8.1,8.1,0,0,1,4.09-1,8,8,0,0,1,4.07,1,7.26,7.26,0,0,1,2.79,2.89,8.82,8.82,0,0,1,1,4.26A8.25,8.25,0,0,1,314.15,167.84Zm-11.26-5.37a5.08,5.08,0,0,0-1.64,3.3h10.2a5.1,5.1,0,0,0-1.63-3.28,5.36,5.36,0,0,0-6.93,0Z"/><path d="M323.18,159.5a8.06,8.06,0,0,1,3.57-.72v2.79a5.62,5.62,0,0,0-.66,0,4.84,4.84,0,0,0-3.67,1.4,5.51,5.51,0,0,0-1.34,4v7.92H318.2v-15.9H321v2.67A4.91,4.91,0,0,1,323.18,159.5Z"/><path d="M353.39,158.93v15.9h-2.73v-2.4a5.78,5.78,0,0,1-2.29,1.91,7.18,7.18,0,0,1-3.11.67,6.94,6.94,0,0,1-5-1.75,6.86,6.86,0,0,1-1.83-5.18v-9.15h2.88v8.82a5,5,0,0,0,1.11,3.5,4.14,4.14,0,0,0,3.18,1.18,4.75,4.75,0,0,0,3.6-1.38,5.42,5.42,0,0,0,1.32-3.9v-8.22Z"/><path d="M373.88,152.57v22.26h-2.76v-2.52a6.24,6.24,0,0,1-2.43,2,7.53,7.53,0,0,1-3.24.69,8.36,8.36,0,0,1-4.14-1,7.28,7.28,0,0,1-2.86-2.86,8.55,8.55,0,0,1-1-4.25,8.45,8.45,0,0,1,1-4.23,7.32,7.32,0,0,1,2.86-2.85,8.36,8.36,0,0,1,4.14-1,7.62,7.62,0,0,1,3.15.65,6.1,6.1,0,0,1,2.4,1.9v-8.76Zm-5.46,19.22a5,5,0,0,0,1.92-2,6.54,6.54,0,0,0,0-5.85,4.86,4.86,0,0,0-1.92-2,5.77,5.77,0,0,0-5.47,0,5,5,0,0,0-1.92,2,6.38,6.38,0,0,0,0,5.85,5.08,5.08,0,0,0,1.92,2,5.69,5.69,0,0,0,5.47,0Z"/><path d="M378.59,174.43a2,2,0,0,1-.6-1.49,1.94,1.94,0,0,1,.6-1.45,2,2,0,0,1,1.44-.59,1.92,1.92,0,0,1,1.41.57,2,2,0,0,1,.57,1.47,2,2,0,0,1-.58,1.49,1.91,1.91,0,0,1-1.4.58A2,2,0,0,1,378.59,174.43Z"/><path d="M412.7,153.83v21h-3v-9.36H397.64v9.36h-3v-21h3v9H409.7v-9Z"/><path d="M432.65,158.93l-7,15.9h-2.94l-7-15.9h3l5.46,12.75,5.58-12.75Z"/><path d="M435.4,155.33a1.78,1.78,0,0,1-.56-1.32,1.81,1.81,0,0,1,.56-1.33,1.88,1.88,0,0,1,1.39-.56,2,2,0,0,1,1.4.53,1.71,1.71,0,0,1,.55,1.3,1.86,1.86,0,0,1-.55,1.37,2.06,2.06,0,0,1-2.79,0Zm0,3.6h2.88v15.9h-2.88Z"/><path d="M444.53,174.49a8.23,8.23,0,0,1-2.82-1.34l1.2-2.28a8.61,8.61,0,0,0,2.55,1.2,10.49,10.49,0,0,0,3,.45q3.78,0,3.78-2.16a1.4,1.4,0,0,0-.51-1.14,3.25,3.25,0,0,0-1.28-.61c-.51-.13-1.23-.28-2.17-.44a21.4,21.4,0,0,1-3.14-.69,4.82,4.82,0,0,1-2.08-1.32,3.67,3.67,0,0,1-.87-2.61,4.07,4.07,0,0,1,1.8-3.46,8.06,8.06,0,0,1,4.83-1.31,13.31,13.31,0,0,1,3.18.39,8.55,8.55,0,0,1,2.61,1.05l-1.23,2.28a8.27,8.27,0,0,0-4.59-1.26,5.31,5.31,0,0,0-2.79.6,1.81,1.81,0,0,0-1,1.59,1.52,1.52,0,0,0,.54,1.23,3.39,3.39,0,0,0,1.33.66c.53.14,1.28.3,2.24.48a24,24,0,0,1,3.1.71,4.64,4.64,0,0,1,2,1.27,3.55,3.55,0,0,1,.84,2.52,4,4,0,0,1-1.85,3.44,8.7,8.7,0,0,1-5,1.27A13.32,13.32,0,0,1,444.53,174.49Z"/><path d="M481.82,152.57v22.26h-2.76v-2.52a6.24,6.24,0,0,1-2.43,2,7.53,7.53,0,0,1-3.24.69,8.36,8.36,0,0,1-4.14-1,7.31,7.31,0,0,1-2.87-2.86,8.55,8.55,0,0,1-1-4.25,8.44,8.44,0,0,1,1-4.23,7.35,7.35,0,0,1,2.87-2.85,8.36,8.36,0,0,1,4.14-1,7.62,7.62,0,0,1,3.15.65,6.1,6.1,0,0,1,2.4,1.9v-8.76Zm-5.46,19.22a5,5,0,0,0,1.92-2,6.54,6.54,0,0,0,0-5.85,4.86,4.86,0,0,0-1.92-2,5.79,5.79,0,0,0-5.48,0,5,5,0,0,0-1.92,2,6.46,6.46,0,0,0,0,5.85,5.08,5.08,0,0,0,1.92,2,5.71,5.71,0,0,0,5.48,0Z"/><path d="M502.1,158.93v15.9h-2.73v-2.4a5.82,5.82,0,0,1-2.3,1.91,7.13,7.13,0,0,1-3.1.67,6.94,6.94,0,0,1-5-1.75,6.86,6.86,0,0,1-1.83-5.18v-9.15H490v8.82a5,5,0,0,0,1.11,3.5,4.14,4.14,0,0,0,3.18,1.18,4.75,4.75,0,0,0,3.6-1.38,5.42,5.42,0,0,0,1.32-3.9v-8.22Z"/><path d="M518.9,157.55v1.38h4.62v2.37H519v13.53h-2.88V161.3h-2.7v-2.37h2.7v-1.41a5.07,5.07,0,0,1,1.38-3.75,5.23,5.23,0,0,1,3.87-1.38,6.53,6.53,0,0,1,1.8.24,4.38,4.38,0,0,1,1.44.69l-.87,2.19a3.59,3.59,0,0,0-2.22-.75Q518.9,154.76,518.9,157.55Z"/><path d="M536.79,160.4a6.26,6.26,0,0,1,1.76,4.83v9.6h-2.73v-2.1a4.58,4.58,0,0,1-2.06,1.7,7.82,7.82,0,0,1-3.16.58,6.64,6.64,0,0,1-4.28-1.29,4.43,4.43,0,0,1-.07-6.76,7.54,7.54,0,0,1,4.86-1.28h4.56v-.57a3.67,3.67,0,0,0-1.08-2.85,4.56,4.56,0,0,0-3.18-1,8.42,8.42,0,0,0-2.76.47,7.1,7.1,0,0,0-2.28,1.24l-1.2-2.16a8.7,8.7,0,0,1,2.94-1.51,12.3,12.3,0,0,1,3.63-.53A7.18,7.18,0,0,1,536.79,160.4Zm-2.86,11.66a4.22,4.22,0,0,0,1.74-2.09v-2.22h-4.44q-3.66,0-3.66,2.46a2.23,2.23,0,0,0,.93,1.89,4.25,4.25,0,0,0,2.58.69A5.35,5.35,0,0,0,533.93,172.06Z"/><path d="M557.19,160.54a6.89,6.89,0,0,1,1.79,5.14v9.15H556.1V166a4.88,4.88,0,0,0-1.11-3.48,4.17,4.17,0,0,0-3.18-1.17,5,5,0,0,0-3.69,1.37,5.32,5.32,0,0,0-1.35,3.91v8.19h-2.88v-15.9h2.76v2.4a5.58,5.58,0,0,1,2.35-1.89,8.25,8.25,0,0,1,3.38-.66A6.56,6.56,0,0,1,557.19,160.54Z"/><path d="M579.62,158.93v13.74q0,4.17-2.07,6.17t-6.18,2a14.78,14.78,0,0,1-4.29-.61,8.5,8.5,0,0,1-3.3-1.76l1.38-2.22a8.13,8.13,0,0,0,2.74,1.52,10.45,10.45,0,0,0,3.38.55A5.65,5.65,0,0,0,575.4,177a5.43,5.43,0,0,0,1.34-4v-1.26a6.4,6.4,0,0,1-2.51,1.85,8.32,8.32,0,0,1-3.22.61,8.71,8.71,0,0,1-4.13-1,7.24,7.24,0,0,1-2.89-2.73,8.16,8.16,0,0,1,0-8,7.15,7.15,0,0,1,2.89-2.72,8.82,8.82,0,0,1,4.13-1,8.4,8.4,0,0,1,3.34.66,6.22,6.22,0,0,1,2.54,1.95v-2.46ZM574.14,171a4.87,4.87,0,0,0,2-1.84,5.17,5.17,0,0,0,.71-2.69,4.86,4.86,0,0,0-1.53-3.73,6.16,6.16,0,0,0-7.89,0,4.86,4.86,0,0,0-1.53,3.73,5.16,5.16,0,0,0,.7,2.69,4.87,4.87,0,0,0,2,1.84,6,6,0,0,0,2.84.66A5.88,5.88,0,0,0,574.14,171Z"/><path d="M599.42,167.84h-12.9a5,5,0,0,0,1.84,3.38,6,6,0,0,0,3.92,1.27,5.9,5.9,0,0,0,4.59-1.92l1.59,1.86a7,7,0,0,1-2.69,1.92,10.14,10.14,0,0,1-8-.37,7.41,7.41,0,0,1-3-2.9,8.3,8.3,0,0,1-1.06-4.2,8.43,8.43,0,0,1,1-4.17,7.4,7.4,0,0,1,2.85-2.89,8.14,8.14,0,0,1,4.1-1,7.94,7.94,0,0,1,4.06,1,7.26,7.26,0,0,1,2.79,2.89,8.82,8.82,0,0,1,1,4.26A8.25,8.25,0,0,1,599.42,167.84Zm-11.27-5.37a5.07,5.07,0,0,0-1.63,3.3h10.2a5.11,5.11,0,0,0-1.64-3.28,4.93,4.93,0,0,0-3.46-1.28A5,5,0,0,0,588.15,162.47Z"/><path d="M608.45,159.5a8.06,8.06,0,0,1,3.57-.72v2.79a5.62,5.62,0,0,0-.66,0,4.86,4.86,0,0,0-3.68,1.4,5.51,5.51,0,0,0-1.33,4v7.92h-2.88v-15.9h2.76v2.67A4.91,4.91,0,0,1,608.45,159.5Z"/><path d="M61,193.55v1.38h4.62v2.37H61v13.53H58.15V197.3h-2.7v-2.37h2.7v-1.41a5.07,5.07,0,0,1,1.38-3.75,5.23,5.23,0,0,1,3.87-1.38,6.53,6.53,0,0,1,1.8.24,4.38,4.38,0,0,1,1.44.69l-.87,2.19a3.59,3.59,0,0,0-2.22-.75Q61,190.76,61,193.55Zm9.8-2.22a1.78,1.78,0,0,1-.56-1.32,1.81,1.81,0,0,1,.56-1.33,1.88,1.88,0,0,1,1.39-.56,2,2,0,0,1,1.4.53,1.71,1.71,0,0,1,.55,1.3,1.86,1.86,0,0,1-.55,1.37,2.06,2.06,0,0,1-2.79,0Zm0,3.6H73.6v15.9H70.72Z"/><path d="M79.9,210.49a8.23,8.23,0,0,1-2.82-1.34l1.2-2.28a8.61,8.61,0,0,0,2.55,1.2,10.49,10.49,0,0,0,3,.45q3.78,0,3.78-2.16a1.4,1.4,0,0,0-.51-1.14,3.2,3.2,0,0,0-1.27-.61c-.51-.13-1.24-.28-2.18-.44a21.23,21.23,0,0,1-3.13-.69,4.85,4.85,0,0,1-2.09-1.32,3.67,3.67,0,0,1-.87-2.61,4.07,4.07,0,0,1,1.8-3.46,8.06,8.06,0,0,1,4.83-1.31,13.31,13.31,0,0,1,3.18.39A8.55,8.55,0,0,1,90,196.22l-1.23,2.28a8.27,8.27,0,0,0-4.59-1.26,5.31,5.31,0,0,0-2.79.6,1.81,1.81,0,0,0-1,1.59,1.52,1.52,0,0,0,.54,1.23,3.44,3.44,0,0,0,1.34.66c.53.14,1.27.3,2.23.48a24.25,24.25,0,0,1,3.11.71,4.61,4.61,0,0,1,2,1.27,3.55,3.55,0,0,1,.84,2.52,4,4,0,0,1-1.84,3.44,8.73,8.73,0,0,1-5,1.27A13.32,13.32,0,0,1,79.9,210.49Z"/><path d="M100.3,203.42,97,206.48v4.35H94.12V188.57H97v14.28l8.67-7.92h3.48l-6.69,6.57,7.35,9.33h-3.54Z"/><path d="M145.32,196.52a7,7,0,0,1,1.75,5.16v9.15h-2.88V202a5,5,0,0,0-1.06-3.48,3.92,3.92,0,0,0-3-1.17,4.56,4.56,0,0,0-3.48,1.37,5.47,5.47,0,0,0-1.29,3.91v8.19h-2.88V202a5,5,0,0,0-1.06-3.48,3.92,3.92,0,0,0-3.05-1.17,4.56,4.56,0,0,0-3.48,1.37,5.47,5.47,0,0,0-1.29,3.91v8.19h-2.88v-15.9h2.76v2.37a5.57,5.57,0,0,1,2.28-1.87,7.64,7.64,0,0,1,3.21-.65,7,7,0,0,1,3.3.75,5.21,5.21,0,0,1,2.22,2.19,6.11,6.11,0,0,1,2.51-2.16,8.14,8.14,0,0,1,3.61-.78A6.47,6.47,0,0,1,145.32,196.52Z"/><path d="M152.42,191.33a1.77,1.77,0,0,1-.55-1.32,1.8,1.8,0,0,1,.55-1.33,2.06,2.06,0,0,1,2.79,0,1.68,1.68,0,0,1,.56,1.3,1.83,1.83,0,0,1-.56,1.37,1.88,1.88,0,0,1-1.39.55A2,2,0,0,1,152.42,191.33Zm0,3.6h2.88v15.9h-2.88Z"/><path d="M161.56,210.49a8.23,8.23,0,0,1-2.82-1.34l1.2-2.28a8.61,8.61,0,0,0,2.55,1.2,10.49,10.49,0,0,0,3,.45q3.78,0,3.78-2.16a1.4,1.4,0,0,0-.51-1.14,3.25,3.25,0,0,0-1.28-.61c-.51-.13-1.23-.28-2.17-.44a21.4,21.4,0,0,1-3.14-.69,4.82,4.82,0,0,1-2.08-1.32,3.67,3.67,0,0,1-.87-2.61,4.07,4.07,0,0,1,1.8-3.46,8.06,8.06,0,0,1,4.83-1.31,13.31,13.31,0,0,1,3.18.39,8.55,8.55,0,0,1,2.61,1.05l-1.23,2.28a8.27,8.27,0,0,0-4.59-1.26,5.31,5.31,0,0,0-2.79.6,1.81,1.81,0,0,0-1,1.59,1.52,1.52,0,0,0,.54,1.23,3.39,3.39,0,0,0,1.33.66c.53.14,1.28.3,2.24.48a24,24,0,0,1,3.1.71,4.64,4.64,0,0,1,2,1.27,3.55,3.55,0,0,1,.84,2.52,4,4,0,0,1-1.85,3.44,8.7,8.7,0,0,1-5,1.27A13.32,13.32,0,0,1,161.56,210.49Z"/><path d="M184.72,209.9a4.3,4.3,0,0,1-1.56.83,6.51,6.51,0,0,1-1.92.28,5.1,5.1,0,0,1-3.72-1.29A4.93,4.93,0,0,1,176.2,206V197.3h-2.7v-2.37h2.7v-3.48h2.88v3.48h4.56v2.37h-4.56v8.61a2.79,2.79,0,0,0,.64,2,2.41,2.41,0,0,0,1.85.69,3.47,3.47,0,0,0,2.25-.75Z"/><path d="M202,203.84h-12.9a5,5,0,0,0,1.84,3.38,6,6,0,0,0,3.92,1.27,5.9,5.9,0,0,0,4.59-1.92l1.59,1.86a7,7,0,0,1-2.69,1.92,10.14,10.14,0,0,1-8-.37,7.41,7.41,0,0,1-3-2.9,8.3,8.3,0,0,1-1.06-4.2,8.43,8.43,0,0,1,1-4.17,7.4,7.4,0,0,1,2.85-2.89,8.14,8.14,0,0,1,4.1-1,7.94,7.94,0,0,1,4.06,1,7.26,7.26,0,0,1,2.79,2.89,8.82,8.82,0,0,1,1,4.26A8.25,8.25,0,0,1,202,203.84Zm-11.27-5.37a5.07,5.07,0,0,0-1.63,3.3h10.2a5.11,5.11,0,0,0-1.64-3.28,4.93,4.93,0,0,0-3.46-1.28A5,5,0,0,0,190.7,198.47Z"/><path d="M211,195.5a8.06,8.06,0,0,1,3.57-.72v2.79a5.62,5.62,0,0,0-.66,0,4.86,4.86,0,0,0-3.68,1.4,5.51,5.51,0,0,0-1.33,4v7.92H206v-15.9h2.76v2.67A4.91,4.91,0,0,1,211,195.5Z"/><path d="M241.39,188.57v22.26h-2.76v-2.52a6.24,6.24,0,0,1-2.43,2A7.53,7.53,0,0,1,233,211a8.36,8.36,0,0,1-4.14-1,7.31,7.31,0,0,1-2.87-2.86,8.55,8.55,0,0,1-1-4.25,8.44,8.44,0,0,1,1-4.23,7.35,7.35,0,0,1,2.87-2.85,8.36,8.36,0,0,1,4.14-1,7.62,7.62,0,0,1,3.15.65,6.1,6.1,0,0,1,2.4,1.9v-8.76Zm-5.46,19.22a5,5,0,0,0,1.92-2,6.54,6.54,0,0,0,0-5.85,4.86,4.86,0,0,0-1.92-2,5.79,5.79,0,0,0-5.48,0,5,5,0,0,0-1.92,2,6.46,6.46,0,0,0,0,5.85,5.08,5.08,0,0,0,1.92,2,5.71,5.71,0,0,0,5.48,0Z"/><path d="M261.67,194.93v15.9h-2.73v-2.4a5.82,5.82,0,0,1-2.3,1.91,7.13,7.13,0,0,1-3.1.67,6.94,6.94,0,0,1-5-1.75,6.86,6.86,0,0,1-1.83-5.18v-9.15h2.88v8.82a5,5,0,0,0,1.11,3.5,4.14,4.14,0,0,0,3.18,1.18,4.75,4.75,0,0,0,3.6-1.38,5.42,5.42,0,0,0,1.32-3.9v-8.22Z"/><path d="M275.23,188.57h2.88v22.26h-2.88Z"/><path d="M283.64,191.33a1.77,1.77,0,0,1-.55-1.32,1.8,1.8,0,0,1,.55-1.33,1.91,1.91,0,0,1,1.4-.56,1.94,1.94,0,0,1,1.39.53A1.72,1.72,0,0,1,287,190a1.9,1.9,0,0,1-1.95,1.92A1.93,1.93,0,0,1,283.64,191.33Zm0,3.6h2.88v15.9H283.6Z"/><path d="M306,194.93l-7,15.9h-2.94l-7-15.9h3l5.46,12.75,5.58-12.75Z"/><path d="M309.86,207.49a2,2,0,0,1,.56,1.45,3.58,3.58,0,0,1-.11.87c-.07.28-.2.71-.4,1.29l-1.41,4.17h-1.89l1.11-4.47a1.89,1.89,0,0,1-.92-.7,2.17,2.17,0,0,1,.23-2.63,2,2,0,0,1,1.44-.57A1.84,1.84,0,0,1,309.86,207.49Z"/><path d="M325.18,210a7.62,7.62,0,0,1-3-2.89,8.79,8.79,0,0,1,0-8.37,7.52,7.52,0,0,1,3-2.88,8.72,8.72,0,0,1,4.26-1,8.62,8.62,0,0,1,4.24,1,7.54,7.54,0,0,1,2.94,2.88,8.72,8.72,0,0,1,0,8.37,7.63,7.63,0,0,1-2.94,2.89,8.52,8.52,0,0,1-4.24,1A8.62,8.62,0,0,1,325.18,210Zm7-2.17a5,5,0,0,0,1.91-2,6.54,6.54,0,0,0,0-5.85,4.9,4.9,0,0,0-1.91-2,5.81,5.81,0,0,0-5.49,0,5,5,0,0,0-1.92,2,6.46,6.46,0,0,0,0,5.85,5.08,5.08,0,0,0,1.92,2,5.73,5.73,0,0,0,5.49,0Z"/><path d="M356.89,194.93v13.74q0,4.17-2.07,6.17t-6.18,2a14.78,14.78,0,0,1-4.29-.61,8.5,8.5,0,0,1-3.3-1.76l1.38-2.22a8.13,8.13,0,0,0,2.74,1.52,10.45,10.45,0,0,0,3.38.55,5.65,5.65,0,0,0,4.12-1.32,5.43,5.43,0,0,0,1.34-4v-1.26a6.4,6.4,0,0,1-2.51,1.85,8.32,8.32,0,0,1-3.22.61,8.71,8.71,0,0,1-4.13-1,7.24,7.24,0,0,1-2.89-2.73,8.16,8.16,0,0,1,0-8,7.15,7.15,0,0,1,2.89-2.72,8.82,8.82,0,0,1,4.13-1,8.4,8.4,0,0,1,3.34.66,6.22,6.22,0,0,1,2.54,1.95v-2.46ZM351.41,207a4.87,4.87,0,0,0,1.95-1.84,5.17,5.17,0,0,0,.71-2.69,4.86,4.86,0,0,0-1.53-3.73,6.16,6.16,0,0,0-7.89,0,4.86,4.86,0,0,0-1.53,3.73,5.16,5.16,0,0,0,.7,2.69,4.87,4.87,0,0,0,1.95,1.84,6,6,0,0,0,2.84.66A5.88,5.88,0,0,0,351.41,207Z"/><path d="M385.45,188.57v22.26h-2.76v-2.52a6.24,6.24,0,0,1-2.43,2A7.53,7.53,0,0,1,377,211a8.36,8.36,0,0,1-4.14-1,7.31,7.31,0,0,1-2.87-2.86,8.55,8.55,0,0,1-1-4.25,8.44,8.44,0,0,1,1-4.23,7.35,7.35,0,0,1,2.87-2.85,8.36,8.36,0,0,1,4.14-1,7.62,7.62,0,0,1,3.15.65,6.1,6.1,0,0,1,2.4,1.9v-8.76ZM380,207.79a5,5,0,0,0,1.92-2,6.54,6.54,0,0,0,0-5.85,4.86,4.86,0,0,0-1.92-2,5.79,5.79,0,0,0-5.48,0,5,5,0,0,0-1.92,2,6.46,6.46,0,0,0,0,5.85,5.08,5.08,0,0,0,1.92,2,5.71,5.71,0,0,0,5.48,0Z"/><path d="M405.73,194.93v15.9H403v-2.4a5.82,5.82,0,0,1-2.3,1.91,7.13,7.13,0,0,1-3.1.67,6.94,6.94,0,0,1-5-1.75,6.86,6.86,0,0,1-1.83-5.18v-9.15h2.88v8.82a5,5,0,0,0,1.11,3.5,4.14,4.14,0,0,0,3.18,1.18,4.75,4.75,0,0,0,3.6-1.38,5.42,5.42,0,0,0,1.32-3.9v-8.22Z"/><path d="M431.86,195.8a7.32,7.32,0,0,1,2.86,2.85,8.45,8.45,0,0,1,1,4.23,8.55,8.55,0,0,1-1,4.25,7.28,7.28,0,0,1-2.86,2.86,8.36,8.36,0,0,1-4.14,1,7.53,7.53,0,0,1-3.24-.69,6.24,6.24,0,0,1-2.43-2v2.52h-2.76V188.57h2.88v8.76a6.1,6.1,0,0,1,2.4-1.9,7.62,7.62,0,0,1,3.15-.65A8.36,8.36,0,0,1,431.86,195.8Zm-1.64,12a5.08,5.08,0,0,0,1.92-2,6.38,6.38,0,0,0,0-5.85,5,5,0,0,0-1.92-2,5.77,5.77,0,0,0-5.47,0,4.86,4.86,0,0,0-1.92,2,6.54,6.54,0,0,0,0,5.85,5,5,0,0,0,1.92,2,5.69,5.69,0,0,0,5.47,0Z"/><path d="M439.79,191.33a1.77,1.77,0,0,1-.55-1.32,1.8,1.8,0,0,1,.55-1.33,1.91,1.91,0,0,1,1.4-.56,1.94,1.94,0,0,1,1.39.53,1.72,1.72,0,0,1,.56,1.3,1.9,1.9,0,0,1-1.95,1.92A1.93,1.93,0,0,1,439.79,191.33Zm0,3.6h2.88v15.9h-2.88Z"/><path d="M463.12,188.57v22.26h-2.76v-2.52a6.24,6.24,0,0,1-2.43,2,7.53,7.53,0,0,1-3.24.69,8.36,8.36,0,0,1-4.14-1,7.31,7.31,0,0,1-2.87-2.86,8.55,8.55,0,0,1-1-4.25,8.44,8.44,0,0,1,1-4.23,7.35,7.35,0,0,1,2.87-2.85,8.36,8.36,0,0,1,4.14-1,7.62,7.62,0,0,1,3.15.65,6.1,6.1,0,0,1,2.4,1.9v-8.76Zm-5.46,19.22a5,5,0,0,0,1.92-2,6.54,6.54,0,0,0,0-5.85,4.86,4.86,0,0,0-1.92-2,5.79,5.79,0,0,0-5.48,0,5,5,0,0,0-1.92,2,6.46,6.46,0,0,0,0,5.85,5.08,5.08,0,0,0,1.92,2,5.71,5.71,0,0,0,5.48,0Z"/><path d="M473.56,195.5a8,8,0,0,1,3.57-.72v2.79a5.74,5.74,0,0,0-.66,0,4.86,4.86,0,0,0-3.68,1.4,5.51,5.51,0,0,0-1.33,4v7.92h-2.88v-15.9h2.76v2.67A4.91,4.91,0,0,1,473.56,195.5Z"/><path d="M491.48,196.4a6.26,6.26,0,0,1,1.76,4.83v9.6h-2.73v-2.1a4.58,4.58,0,0,1-2.06,1.7,7.82,7.82,0,0,1-3.16.58,6.64,6.64,0,0,1-4.28-1.29,4.43,4.43,0,0,1-.07-6.76,7.54,7.54,0,0,1,4.86-1.28h4.56v-.57a3.67,3.67,0,0,0-1.08-2.85,4.56,4.56,0,0,0-3.18-1,8.38,8.38,0,0,0-2.76.47,7,7,0,0,0-2.28,1.24l-1.2-2.16a8.7,8.7,0,0,1,2.94-1.51,12.3,12.3,0,0,1,3.63-.53A7.18,7.18,0,0,1,491.48,196.4Zm-2.86,11.66a4.22,4.22,0,0,0,1.74-2.09v-2.22h-4.44q-3.66,0-3.66,2.46a2.23,2.23,0,0,0,.93,1.89,4.25,4.25,0,0,0,2.58.69A5.37,5.37,0,0,0,488.62,208.06Z"/><path d="M513.87,194.93v13.74q0,4.17-2.07,6.17t-6.18,2a14.78,14.78,0,0,1-4.29-.61,8.5,8.5,0,0,1-3.3-1.76l1.38-2.22a8.18,8.18,0,0,0,2.75,1.52,10.39,10.39,0,0,0,3.37.55,5.67,5.67,0,0,0,4.13-1.32,5.43,5.43,0,0,0,1.33-4v-1.26a6.37,6.37,0,0,1-2.5,1.85,8.37,8.37,0,0,1-3.23.61,8.67,8.67,0,0,1-4.12-1,7.27,7.27,0,0,1-2.9-2.73,8.16,8.16,0,0,1,0-8,7.17,7.17,0,0,1,2.9-2.72,8.78,8.78,0,0,1,4.12-1,8.45,8.45,0,0,1,3.35.66,6.19,6.19,0,0,1,2.53,1.95v-2.46ZM508.4,207a4.87,4.87,0,0,0,2-1.84,5.16,5.16,0,0,0,.7-2.69,4.86,4.86,0,0,0-1.53-3.73,6.16,6.16,0,0,0-7.89,0,4.86,4.86,0,0,0-1.53,3.73,5.17,5.17,0,0,0,.71,2.69,4.87,4.87,0,0,0,1.95,1.84,6.35,6.35,0,0,0,5.64,0Z"/><path d="M533.67,203.84h-12.9a5,5,0,0,0,1.85,3.38,6,6,0,0,0,3.91,1.27,5.9,5.9,0,0,0,4.59-1.92l1.59,1.86a7,7,0,0,1-2.68,1.92A10.16,10.16,0,0,1,522,210a7.38,7.38,0,0,1-3-2.9,8.3,8.3,0,0,1-1.07-4.2,8.43,8.43,0,0,1,1-4.17,7.4,7.4,0,0,1,2.85-2.89,8.1,8.1,0,0,1,4.09-1,8,8,0,0,1,4.07,1,7.26,7.26,0,0,1,2.79,2.89,8.82,8.82,0,0,1,1,4.26A8.25,8.25,0,0,1,533.67,203.84Zm-11.26-5.37a5.08,5.08,0,0,0-1.64,3.3H531a5.1,5.1,0,0,0-1.63-3.28,5.36,5.36,0,0,0-6.93,0Z"/><path d="M542.7,195.5a8.06,8.06,0,0,1,3.57-.72v2.79a5.62,5.62,0,0,0-.66,0,4.84,4.84,0,0,0-3.67,1.4,5.51,5.51,0,0,0-1.34,4v7.92h-2.88v-15.9h2.76v2.67A4.91,4.91,0,0,1,542.7,195.5Z"/><path d="M567,209.9a4.3,4.3,0,0,1-1.56.83,6.51,6.51,0,0,1-1.92.28,5.1,5.1,0,0,1-3.72-1.29,4.93,4.93,0,0,1-1.32-3.69V197.3h-2.7v-2.37h2.7v-3.48h2.88v3.48H566v2.37h-4.56v8.61a2.79,2.79,0,0,0,.65,2,2.39,2.39,0,0,0,1.84.69,3.47,3.47,0,0,0,2.25-.75Z"/><path d="M570.56,191.33A1.78,1.78,0,0,1,570,190a1.81,1.81,0,0,1,.56-1.33,1.88,1.88,0,0,1,1.39-.56,2,2,0,0,1,1.4.53,1.71,1.71,0,0,1,.55,1.3,1.86,1.86,0,0,1-.55,1.37,2.06,2.06,0,0,1-2.79,0Zm0,3.6h2.88v15.9h-2.88Z"/><path d="M578.88,188.57h2.88v22.26h-2.88Z"/><path d="M606.17,196.4a6.25,6.25,0,0,1,1.75,4.83v9.6h-2.73v-2.1a4.55,4.55,0,0,1-2.05,1.7A7.87,7.87,0,0,1,600,211a6.61,6.61,0,0,1-4.27-1.29,4.42,4.42,0,0,1-.08-6.76,7.54,7.54,0,0,1,4.86-1.28H605v-.57a3.67,3.67,0,0,0-1.08-2.85,4.56,4.56,0,0,0-3.18-1,8.42,8.42,0,0,0-2.76.47,7.1,7.1,0,0,0-2.28,1.24l-1.2-2.16a8.7,8.7,0,0,1,2.94-1.51,12.3,12.3,0,0,1,3.63-.53A7.2,7.2,0,0,1,606.17,196.4Zm-2.87,11.66A4.22,4.22,0,0,0,605,206v-2.22H600.6q-3.66,0-3.66,2.46a2.23,2.23,0,0,0,.93,1.89,4.25,4.25,0,0,0,2.58.69A5.35,5.35,0,0,0,603.3,208.06Z"/><path d="M622.2,209.9a4.3,4.3,0,0,1-1.56.83,6.51,6.51,0,0,1-1.92.28,5.1,5.1,0,0,1-3.72-1.29,4.93,4.93,0,0,1-1.32-3.69V197.3H611v-2.37h2.7v-3.48h2.88v3.48h4.56v2.37h-4.56v8.61a2.79,2.79,0,0,0,.65,2,2.39,2.39,0,0,0,1.84.69,3.47,3.47,0,0,0,2.25-.75Z"/><path d="M179.56,229.55v1.38h4.62v2.37h-4.56v13.53h-2.88V233.3H174v-2.37h2.7v-1.41a5.07,5.07,0,0,1,1.38-3.75,5.23,5.23,0,0,1,3.87-1.38,6.53,6.53,0,0,1,1.8.24,4.38,4.38,0,0,1,1.44.69l-.87,2.19a3.59,3.59,0,0,0-2.22-.75Q179.56,226.76,179.56,229.55Zm9.79-2.22a1.77,1.77,0,0,1-.55-1.32,1.8,1.8,0,0,1,.55-1.33,1.91,1.91,0,0,1,1.4-.56,1.94,1.94,0,0,1,1.39.53,1.72,1.72,0,0,1,.56,1.3,1.9,1.9,0,0,1-1.95,1.92A1.93,1.93,0,0,1,189.35,227.33Zm0,3.6h2.88v15.9h-2.88Z"/><path d="M198.49,246.49a8.23,8.23,0,0,1-2.82-1.34l1.2-2.28a8.61,8.61,0,0,0,2.55,1.2,10.49,10.49,0,0,0,3,.45q3.78,0,3.78-2.16a1.4,1.4,0,0,0-.51-1.14,3.25,3.25,0,0,0-1.28-.61c-.51-.13-1.23-.28-2.17-.44a21.4,21.4,0,0,1-3.14-.69,4.82,4.82,0,0,1-2.08-1.32,3.67,3.67,0,0,1-.87-2.61,4.07,4.07,0,0,1,1.8-3.46,8.06,8.06,0,0,1,4.83-1.31,13.31,13.31,0,0,1,3.18.39,8.55,8.55,0,0,1,2.61,1.05l-1.23,2.28a8.27,8.27,0,0,0-4.59-1.26,5.31,5.31,0,0,0-2.79.6,1.81,1.81,0,0,0-1,1.59,1.52,1.52,0,0,0,.54,1.23,3.39,3.39,0,0,0,1.33.66c.53.14,1.28.3,2.24.48a24,24,0,0,1,3.1.71,4.64,4.64,0,0,1,2,1.27,3.55,3.55,0,0,1,.84,2.52,4,4,0,0,1-1.85,3.44,8.7,8.7,0,0,1-5,1.27A13.32,13.32,0,0,1,198.49,246.49Z"/><path d="M218.89,239.42l-3.3,3.06v4.35h-2.88V224.57h2.88v14.28l8.67-7.92h3.48l-6.69,6.57,7.35,9.33h-3.54Z"/><path d="M244.84,239.84h-12.9a5,5,0,0,0,1.84,3.38,6,6,0,0,0,3.92,1.27,5.9,5.9,0,0,0,4.59-1.92l1.59,1.86a7,7,0,0,1-2.69,1.92,10.14,10.14,0,0,1-8.05-.37,7.41,7.41,0,0,1-3-2.9,8.3,8.3,0,0,1-1.06-4.2,8.43,8.43,0,0,1,1-4.17,7.4,7.4,0,0,1,2.85-2.89,8.14,8.14,0,0,1,4.1-1,7.94,7.94,0,0,1,4.06,1,7.26,7.26,0,0,1,2.79,2.89,8.82,8.82,0,0,1,1,4.26A8.25,8.25,0,0,1,244.84,239.84Zm-11.27-5.37a5.07,5.07,0,0,0-1.63,3.3h10.2a5.11,5.11,0,0,0-1.64-3.28,4.93,4.93,0,0,0-3.46-1.28A5,5,0,0,0,233.57,234.47Z"/><path d="M261.46,231.8a7.32,7.32,0,0,1,2.86,2.85,8.45,8.45,0,0,1,1,4.23,8.55,8.55,0,0,1-1,4.25,7.28,7.28,0,0,1-2.86,2.86,8.36,8.36,0,0,1-4.14,1,7.53,7.53,0,0,1-3.24-.69,6.24,6.24,0,0,1-2.43-2v2.52h-2.76V224.57h2.88v8.76a6.1,6.1,0,0,1,2.4-1.9,7.62,7.62,0,0,1,3.15-.65A8.36,8.36,0,0,1,261.46,231.8Zm-1.64,12a5.08,5.08,0,0,0,1.92-2,6.38,6.38,0,0,0,0-5.85,5,5,0,0,0-1.92-2,5.77,5.77,0,0,0-5.47,0,4.86,4.86,0,0,0-1.92,2,6.54,6.54,0,0,0,0,5.85,5,5,0,0,0,1.92,2,5.69,5.69,0,0,0,5.47,0Z"/><path d="M283.66,239.84h-12.9a5,5,0,0,0,1.84,3.38,6,6,0,0,0,3.92,1.27,5.9,5.9,0,0,0,4.59-1.92l1.59,1.86a7,7,0,0,1-2.69,1.92A10.14,10.14,0,0,1,272,246a7.41,7.41,0,0,1-3-2.9,8.3,8.3,0,0,1-1.06-4.2,8.43,8.43,0,0,1,1-4.17,7.4,7.4,0,0,1,2.85-2.89,8.14,8.14,0,0,1,4.1-1,7.94,7.94,0,0,1,4.06,1,7.26,7.26,0,0,1,2.79,2.89,8.82,8.82,0,0,1,1,4.26A8.25,8.25,0,0,1,283.66,239.84Zm-11.27-5.37a5.07,5.07,0,0,0-1.63,3.3H281a5.11,5.11,0,0,0-1.64-3.28,4.93,4.93,0,0,0-3.46-1.28A5,5,0,0,0,272.39,234.47Z"/><path d="M288.52,246.49a8.23,8.23,0,0,1-2.82-1.34l1.2-2.28a8.61,8.61,0,0,0,2.55,1.2,10.49,10.49,0,0,0,3,.45q3.78,0,3.78-2.16a1.4,1.4,0,0,0-.51-1.14,3.25,3.25,0,0,0-1.28-.61c-.51-.13-1.23-.28-2.17-.44a21.4,21.4,0,0,1-3.14-.69,4.82,4.82,0,0,1-2.08-1.32,3.67,3.67,0,0,1-.87-2.61,4.07,4.07,0,0,1,1.8-3.46,8.06,8.06,0,0,1,4.83-1.31,13.31,13.31,0,0,1,3.18.39,8.55,8.55,0,0,1,2.61,1.05l-1.23,2.28a8.27,8.27,0,0,0-4.59-1.26,5.31,5.31,0,0,0-2.79.6,1.81,1.81,0,0,0-1,1.59,1.52,1.52,0,0,0,.54,1.23,3.39,3.39,0,0,0,1.33.66c.53.14,1.28.3,2.24.48a24,24,0,0,1,3.1.71,4.64,4.64,0,0,1,2,1.27,3.55,3.55,0,0,1,.84,2.52,4,4,0,0,1-1.85,3.44,8.7,8.7,0,0,1-5,1.27A13.32,13.32,0,0,1,288.52,246.49Z"/><path d="M311.68,245.9a4.3,4.3,0,0,1-1.56.83,6.51,6.51,0,0,1-1.92.28,5.1,5.1,0,0,1-3.72-1.29,4.93,4.93,0,0,1-1.32-3.69V233.3h-2.7v-2.37h2.7v-3.48H306v3.48h4.56v2.37H306v8.61a2.79,2.79,0,0,0,.64,2,2.41,2.41,0,0,0,1.85.69,3.47,3.47,0,0,0,2.25-.75Z"/><path d="M326,232.4a6.26,6.26,0,0,1,1.76,4.83v9.6H325v-2.1a4.58,4.58,0,0,1-2.06,1.7,7.82,7.82,0,0,1-3.16.58,6.64,6.64,0,0,1-4.28-1.29,4.43,4.43,0,0,1-.07-6.76,7.54,7.54,0,0,1,4.86-1.28h4.56v-.57a3.67,3.67,0,0,0-1.08-2.85,4.56,4.56,0,0,0-3.18-1,8.42,8.42,0,0,0-2.76.47,7.1,7.1,0,0,0-2.28,1.24l-1.2-2.16a8.7,8.7,0,0,1,2.94-1.51,12.3,12.3,0,0,1,3.63-.53A7.18,7.18,0,0,1,326,232.4Zm-2.86,11.66a4.22,4.22,0,0,0,1.74-2.09v-2.22h-4.44q-3.66,0-3.66,2.46a2.23,2.23,0,0,0,.93,1.89,4.25,4.25,0,0,0,2.58.69A5.35,5.35,0,0,0,323.14,244.06Z"/><path d="M346.4,232.54a6.89,6.89,0,0,1,1.79,5.14v9.15h-2.88V238a4.88,4.88,0,0,0-1.11-3.48,4.17,4.17,0,0,0-3.18-1.17,5,5,0,0,0-3.69,1.37,5.32,5.32,0,0,0-1.35,3.91v8.19H333.1v-15.9h2.76v2.4a5.58,5.58,0,0,1,2.35-1.89,8.25,8.25,0,0,1,3.38-.66A6.56,6.56,0,0,1,346.4,232.54Z"/><path d="M368.62,224.57v22.26h-2.76v-2.52a6.24,6.24,0,0,1-2.43,2,7.53,7.53,0,0,1-3.24.69,8.36,8.36,0,0,1-4.14-1,7.31,7.31,0,0,1-2.87-2.86,8.55,8.55,0,0,1-1-4.25,8.44,8.44,0,0,1,1-4.23,7.35,7.35,0,0,1,2.87-2.85,8.36,8.36,0,0,1,4.14-1,7.62,7.62,0,0,1,3.15.65,6.1,6.1,0,0,1,2.4,1.9v-8.76Zm-5.46,19.22a5,5,0,0,0,1.92-2,6.54,6.54,0,0,0,0-5.85,4.86,4.86,0,0,0-1.92-2,5.79,5.79,0,0,0-5.48,0,5,5,0,0,0-1.92,2,6.46,6.46,0,0,0,0,5.85,5.08,5.08,0,0,0,1.92,2,5.71,5.71,0,0,0,5.48,0Z"/><path d="M388.39,239.84h-12.9a5,5,0,0,0,1.84,3.38,6,6,0,0,0,3.92,1.27,5.9,5.9,0,0,0,4.59-1.92l1.59,1.86a7,7,0,0,1-2.69,1.92,10.14,10.14,0,0,1-8.05-.37,7.41,7.41,0,0,1-3-2.9,8.3,8.3,0,0,1-1.06-4.2,8.43,8.43,0,0,1,1-4.17,7.4,7.4,0,0,1,2.85-2.89,8.14,8.14,0,0,1,4.1-1,7.94,7.94,0,0,1,4.06,1,7.26,7.26,0,0,1,2.79,2.89,8.82,8.82,0,0,1,1,4.26A8.25,8.25,0,0,1,388.39,239.84Zm-11.27-5.37a5.07,5.07,0,0,0-1.63,3.3h10.2a5.11,5.11,0,0,0-1.64-3.28,4.93,4.93,0,0,0-3.46-1.28A5,5,0,0,0,377.12,234.47Z"/><path d="M405.74,232.54a6.89,6.89,0,0,1,1.79,5.14v9.15h-2.88V238a4.88,4.88,0,0,0-1.11-3.48,4.17,4.17,0,0,0-3.18-1.17,5,5,0,0,0-3.69,1.37,5.32,5.32,0,0,0-1.35,3.91v8.19h-2.88v-15.9h2.76v2.4a5.58,5.58,0,0,1,2.35-1.89,8.25,8.25,0,0,1,3.38-.66A6.56,6.56,0,0,1,405.74,232.54Z"/><path d="M424.18,229.55v1.38h4.62v2.37h-4.56v13.53h-2.88V233.3h-2.7v-2.37h2.7v-1.41a5.07,5.07,0,0,1,1.38-3.75,5.23,5.23,0,0,1,3.87-1.38,6.53,6.53,0,0,1,1.8.24,4.38,4.38,0,0,1,1.44.69l-.87,2.19a3.59,3.59,0,0,0-2.22-.75Q424.18,226.76,424.18,229.55Z"/><path d="M442.07,232.4a6.26,6.26,0,0,1,1.76,4.83v9.6H441.1v-2.1a4.58,4.58,0,0,1-2.06,1.7,7.82,7.82,0,0,1-3.16.58,6.64,6.64,0,0,1-4.28-1.29,4.43,4.43,0,0,1-.07-6.76,7.54,7.54,0,0,1,4.86-1.28H441v-.57a3.67,3.67,0,0,0-1.08-2.85,4.56,4.56,0,0,0-3.18-1,8.42,8.42,0,0,0-2.76.47,7.1,7.1,0,0,0-2.28,1.24l-1.2-2.16a8.7,8.7,0,0,1,2.94-1.51,12.3,12.3,0,0,1,3.63-.53A7.18,7.18,0,0,1,442.07,232.4Zm-2.86,11.66A4.22,4.22,0,0,0,441,242v-2.22h-4.44q-3.66,0-3.66,2.46a2.23,2.23,0,0,0,.93,1.89,4.25,4.25,0,0,0,2.58.69A5.35,5.35,0,0,0,439.21,244.06Z"/><path d="M449.17,224.57h2.88v22.26h-2.88Z"/><path d="M472.54,224.57v22.26h-2.76v-2.52a6.38,6.38,0,0,1-2.43,2,7.53,7.53,0,0,1-3.24.69,8.36,8.36,0,0,1-4.14-1,7.31,7.31,0,0,1-2.87-2.86,8.55,8.55,0,0,1-1-4.25,8.44,8.44,0,0,1,1-4.23A7.35,7.35,0,0,1,460,231.8a8.36,8.36,0,0,1,4.14-1,7.62,7.62,0,0,1,3.15.65,6.17,6.17,0,0,1,2.4,1.9v-8.76Zm-5.46,19.22a5,5,0,0,0,1.92-2,6.54,6.54,0,0,0,0-5.85,4.92,4.92,0,0,0-1.92-2,5.79,5.79,0,0,0-5.48,0,5,5,0,0,0-1.92,2,6.46,6.46,0,0,0,0,5.85,5.08,5.08,0,0,0,1.92,2,5.71,5.71,0,0,0,5.48,0Z"/><path d="M492.31,239.84h-12.9a5,5,0,0,0,1.84,3.38,6,6,0,0,0,3.92,1.27,5.9,5.9,0,0,0,4.59-1.92l1.59,1.86a7,7,0,0,1-2.69,1.92,10.14,10.14,0,0,1-8.05-.37,7.35,7.35,0,0,1-3-2.9,8.3,8.3,0,0,1-1.06-4.2,8.43,8.43,0,0,1,1-4.17,7.4,7.4,0,0,1,2.85-2.89,8.11,8.11,0,0,1,4.1-1,7.94,7.94,0,0,1,4.06,1,7.26,7.26,0,0,1,2.79,2.89,8.82,8.82,0,0,1,1,4.26A8.25,8.25,0,0,1,492.31,239.84ZM481,234.47a5.07,5.07,0,0,0-1.63,3.3h10.2a5.15,5.15,0,0,0-1.64-3.28,4.93,4.93,0,0,0-3.46-1.28A5,5,0,0,0,481,234.47Z"/><path d="M501.34,231.5a8,8,0,0,1,3.56-.72v2.79a5.43,5.43,0,0,0-.65,0,4.86,4.86,0,0,0-3.68,1.4,5.51,5.51,0,0,0-1.34,4v7.92h-2.87v-15.9h2.76v2.67A4.86,4.86,0,0,1,501.34,231.5Z"/><path d="M507.61,246.43a2,2,0,0,1-.6-1.49,1.9,1.9,0,0,1,.6-1.45,2,2,0,0,1,1.44-.59,2,2,0,0,1,1.41.57,2.18,2.18,0,0,1,0,3,1.89,1.89,0,0,1-1.39.58A2,2,0,0,1,507.61,246.43Z"/><path d="M248.09,320.24a27.26,27.26,0,0,1-8.13-3.15l4.56-10.32a29.08,29.08,0,0,0,6.72,2.79,26.27,26.27,0,0,0,7.14,1.05,11.07,11.07,0,0,0,4.2-.57,1.83,1.83,0,0,0,1.26-1.71q0-1.32-1.65-2a35.48,35.48,0,0,0-5.43-1.44,61.58,61.58,0,0,1-8.1-2.19,13.8,13.8,0,0,1-5.64-3.84,10.41,10.41,0,0,1-2.4-7.23,12.45,12.45,0,0,1,2.22-7.2,14.67,14.67,0,0,1,6.63-5.1,27.54,27.54,0,0,1,10.71-1.86,38.88,38.88,0,0,1,8.49.93,26.6,26.6,0,0,1,7.35,2.73l-4.26,10.26a26,26,0,0,0-11.7-3.12q-5.46,0-5.46,2.64,0,1.26,1.62,1.89a34.31,34.31,0,0,0,5.34,1.35,54.91,54.91,0,0,1,8.1,2.07,14.09,14.09,0,0,1,5.73,3.81,10.22,10.22,0,0,1,2.43,7.2,12.32,12.32,0,0,1-2.22,7.17,14.94,14.94,0,0,1-6.63,5.1,27.15,27.15,0,0,1-10.71,1.89A44.06,44.06,0,0,1,248.09,320.24Z"/><path d="M290.54,289.43h-12.3v-11H317v11H304.7v31H290.54Z"/><path d="M347.18,313.13h-16l-2.82,7.32H314l18.36-42h13.92l18.36,42H350Zm-3.9-10.2-4.08-10.56-4.08,10.56Z"/><path d="M384.92,309.89h-3.84v10.56H366.92v-42h20.22a24.79,24.79,0,0,1,10.14,1.92,15.52,15.52,0,0,1,7,21.78,14.4,14.4,0,0,1-5.88,5.34l8.82,13H392.06Zm5.64-19.23a6.3,6.3,0,0,0-4.32-1.29h-5.16v9.84h5.16a6.3,6.3,0,0,0,4.32-1.29,5.3,5.3,0,0,0,0-7.26Z"/><path d="M420.14,289.43h-12.3v-11H446.6v11H434.3v31H420.14Z"/></g></svg>
