<svg xmlns="http://www.w3.org/2000/svg" width="1470" height="840" viewBox="0 0 1470 840"><defs><style>.cls-1{fill:#1c63b2;}.cls-2{fill:#b0d5ff;}.cls-3{fill:#ff911e;}.cls-4{fill:#b06315;}.cls-5{fill:#fff;}.cls-6{fill:#136641;}.cls-7{fill:#1d9660;}.cls-8{fill:#22b573;}.cls-9{fill:#156e46;}</style></defs><title>level_complete</title><g id="Tillykke"><rect class="cls-1" x="4.02" y="4" width="1461.75" height="832" rx="30"/><path class="cls-2" d="M322.85,142H287.58V110.48H398.74V142H363.46v89H322.85Z"/><path class="cls-2" d="M409.23,110.48h40.61V230.94H409.23Z"/><path class="cls-2" d="M469.46,110.48h40.6v89h54.38v31.49h-95Z"/><path class="cls-2" d="M575.62,110.48h40.61v89h54.38v31.49h-95Z"/><path class="cls-2" d="M741.33,187.23v43.71H700.72V186.71l-45.43-76.23h42.85l24.6,41.65,24.78-41.65h39.23Z"/><path class="cls-2" d="M841,191l-9.12,10.16v29.77H791.92V110.48h39.92v43.71l39.57-43.71h44.23l-48.18,53L918,230.94h-47Z"/><path class="cls-2" d="M972.59,191l-9.12,10.16v29.77H923.55V110.48h39.92v43.71l39.58-43.71h44.22l-48.18,53,50.59,67.46h-47Z"/><path class="cls-2" d="M1155.33,200.31v30.63H1055.19V110.48h97.91v30.63h-58v14.11H1146v29.26h-50.93v15.83Z"/><path class="cls-2" d="M1165,110.48h46.46l-7.75,74.34h-31Zm6.88,116.15a19.34,19.34,0,0,1-6.37-14.62,18.75,18.75,0,0,1,6.37-14.54q6.36-5.78,16.35-5.77t16.34,5.77a18.75,18.75,0,0,1,6.37,14.54,19.34,19.34,0,0,1-6.37,14.62q-6.36,6-16.34,6T1171.85,226.63Z"/><path class="cls-3" d="M130.26,836c8-25.86,4.42-62.35,3.73-68.58,0-.26-.06-.46-.07-.61s0-.31,0-.31l-.17.08-.17.09-.95.49c-10,5.16-75.26,39.83-70.74,68.84h68.41Z"/><path class="cls-4" d="M130.26,836h46.48c-10.07-30-36.93-62.3-42.21-68.47l-.61-.72-.21-.23-.08-.1-.09.19-.28.62c-2.47,5.53-16.8,38.39-21.87,68.71Z"/><path class="cls-3" d="M160.34,626s32.93,117.61,135.84,87.62l-27.33,54.67c-.41.82-.81,1.66-1.14,2.51-1.52,3.94-11.35,22-60.8,7.88a16.11,16.11,0,0,0-2.56-.51c-6-.64-33-3.71-69.82-10.59l-.54-.11-.73-.13-.67-.13c-36.95-7-83.44-17.78-128.57-33.75V570c15.3-8.42,31.59-16.72,48.7-24.5,29.6-13.47,61.61-25.42,95-33.89.73-.2,1.46-.38,2.2-.56q12.47-3.1,25.17-5.52l.14,0q13.6-2.58,27.43-4.26c175.24-21.17,108.2,158.77,108.2,158.77S238,697.69,160.34,626Z"/><path class="cls-4" d="M148.58,769.26a1,1,0,0,1-.82-.43A123.72,123.72,0,0,1,138,750.94a225,225,0,0,1-16.11-51.19,278,278,0,0,1-3.12-81.15c3.63-35,13.47-71.23,29.25-107.69a1,1,0,0,1,1.31-.52,1,1,0,0,1,.52,1.31C134.18,548,124.39,584,120.78,618.81a276,276,0,0,0,3.09,80.56,223.87,223.87,0,0,0,16,50.74,125,125,0,0,0,9.55,17.58,1,1,0,0,1-.24,1.38A.93.93,0,0,1,148.58,769.26Z"/><path class="cls-4" d="M175.27,505.53h0l-.14,0c-1.35.35-11.2,2.91-25.62,7.05l-2.47.71c-25.33,7.32-63.18,19.09-94.3,32.21l0,0c-9.17,3.86-17.76,7.84-25.26,11.86,0,0,22.09-37.53-23.41-44.92v-9.9C39.49,483.29,129.76,443.18,175.27,505.53Z"/><circle class="cls-5" cx="249.14" cy="568.9" r="41.16"/><circle cx="249.14" cy="568.9" r="9.41"/><path class="cls-4" d="M110.48,674.58a1,1,0,0,1-.82-.43c-.18-.27-4.53-6.62-6.74-18.09-2-10.52-2.52-27.52,6.65-48.7a1,1,0,0,1,1.31-.52,1,1,0,0,1,.52,1.31c-17.14,39.59-.27,64.61-.1,64.86a1,1,0,0,1-.25,1.39A1,1,0,0,1,110.48,674.58Z"/><path class="cls-4" d="M97.28,667.52a1,1,0,0,1-.79-.4c-.16-.2-15-20.7-.11-52.73a1,1,0,0,1,1.81.84c-14.45,31-.25,50.5-.11,50.7a1,1,0,0,1-.2,1.39A1,1,0,0,1,97.28,667.52Z"/><path class="cls-6" d="M1214.59,737.22s-25.62,97.36,24.22,78.31S1214.59,737.22,1214.59,737.22Z"/><path class="cls-7" d="M1214.76,737.2s-71,52.14-23.49,65.23S1214.76,737.2,1214.76,737.2Z"/><path class="cls-8" d="M1365.05,532.55c33.41,2.16,67.4,5.7,100.72,10.5V731.18c-74.12,14.7-159.24,21-249.29,7.61l-1.32-.2a.8.8,0,0,1-.15,0l-.7-.1h0c-.33,0-.65-.09-1-.15a655.09,655.09,0,0,1-198-63.72,14.37,14.37,0,0,1-4.52-3.6c-4.78-5.7-15.93-20.44-11.24-28.65,0,0,42.78,29.51,64.91,16.23,0,0-50.34-15.58-61.35-38.1a13.08,13.08,0,0,1,1-13.12c9.13-13.34,42.87-47.82,154.93-67l.59-.1q11.85-2,24.88-3.8l2.41-.32q7-.93,14.34-1.72c48.26-5.2,105-5.65,163.58-1.86A1.34,1.34,0,0,1,1365.05,532.55Z"/><circle class="cls-5" cx="1067.36" cy="608.4" r="23.6"/><circle cx="1067.36" cy="608.4" r="6.98"/><path class="cls-6" d="M1328.11,507.9s28.4-29.32,53.48-24.89c0,0,21.51,9.09-16.54,49.54,0,0-13.86-3.15-41.44-2.74S1328.11,507.9,1328.11,507.9Z"/><path class="cls-7" d="M1184.44,536.44s21.59-75.56,48.15-71.14,78.18,8.68,132.77,67.87C1365.36,533.17,1238.08,527.92,1184.44,536.44Z"/><path class="cls-9" d="M1159,727.47a.94.94,0,0,1-.53-.16,1,1,0,0,1-.28-1.34c17.24-26.11,28-52,32-77.07a131.22,131.22,0,0,0-3.39-57.89c-9.2-31.34-27.8-48.93-28-49.11a1,1,0,0,1,0-1.37,1,1,0,0,1,1.37,0c.19.18,19.17,18.14,28.52,50A133,133,0,0,1,1192,649.2c-4,25.31-14.85,51.5-32.24,77.84A1,1,0,0,1,1159,727.47Z"/><path class="cls-9" d="M1201.33,657.92a1,1,0,0,1-.81-1.5c7.71-11.68,10.18-23.37,7.15-33.81a30,30,0,0,0-7-12.43,1,1,0,1,1,1.33-1.41,31.27,31.27,0,0,1,7.51,13.2c2.26,7.69,2.82,20.09-7.36,35.51A1,1,0,0,1,1201.33,657.92Z"/><path class="cls-9" d="M1215.85,652.83a1,1,0,0,1-.57-.18,1,1,0,0,1-.22-1.35c15.62-22,.79-35.44.15-36a1,1,0,0,1-.09-1.37,1,1,0,0,1,1.36-.09c.17.15,16.82,15.17.16,38.59A1,1,0,0,1,1215.85,652.83Z"/></g></svg>
