<svg id="Spilskærm" xmlns="http://www.w3.org/2000/svg" width="680" height="410" viewBox="0 0 680 410"><defs><style>.cls-1{fill:#fff;}.cls-2{fill:#aed3ff;}.cls-3{fill:#bf272d;}.cls-4{fill:none;stroke:#7f272d;stroke-miterlimit:10;stroke-width:0.14px;}.cls-5{fill:#ff911e;}.cls-6{fill:#b06315;}</style></defs><title>liv_og_point</title><path class="cls-1" d="M676.32,216.45A86.69,86.69,0,0,0,626.54,138,86.73,86.73,0,0,0,502.73,50.81a86.71,86.71,0,0,0-153.89,0A86.75,86.75,0,0,0,247,70.73,86.72,86.72,0,0,0,79.55,85.3,86.7,86.7,0,0,0,26.26,228.73,86.71,86.71,0,0,0,98.13,363.92a87.69,87.69,0,0,0,17.65-1.8A86.7,86.7,0,0,0,252.25,380.7c2.66.25,5.37.38,8.1.38a86.43,86.43,0,0,0,61.27-25.35A86.75,86.75,0,0,0,421,369.85a86.86,86.86,0,0,0,78,.78,86.74,86.74,0,0,0,128-75.94A86.71,86.71,0,0,0,676.32,216.45Z"/><rect x="338.09" y="148.73" width="4.63" height="53.52" rx="2.32" transform="translate(223.79 -189.3) rotate(45)"/><rect x="338.09" y="148.73" width="4.63" height="53.52" rx="2.32" transform="translate(705.19 58.87) rotate(135)"/><path d="M431.38,175.28q5.82,5.13,5.81,13.58a18.66,18.66,0,0,1-2.69,10,18.09,18.09,0,0,1-8,6.87,30.1,30.1,0,0,1-12.82,2.49,38.13,38.13,0,0,1-13.73-2.45,24.25,24.25,0,0,1-10-6.57l2.5-3.75a23.65,23.65,0,0,0,8.88,6,32.27,32.27,0,0,0,12.33,2.3q8.93,0,13.73-4a13.41,13.41,0,0,0,4.8-10.9q0-7-4.9-10.94T412.62,174h-4.23v-3.55L428.26,145h-35.8v-4.42H434.6V144l-20.16,25.82Q425.57,170.14,431.38,175.28Z"/><g id="Plastikflaske"><path class="cls-2" d="M298.92,144.54a2.66,2.66,0,0,0-.37-1.34L281.2,118.48a2.74,2.74,0,0,0-2.36-1.36h-7.59a2.71,2.71,0,0,0-2.26,1.21L251.91,143a2.8,2.8,0,0,0-.48,1.5h0V223h0a2.1,2.1,0,0,0,.12.77l2.77,7.18c1.07,2.4,2.08,5,4.63,5h3.84a4.84,4.84,0,0,0,4.63-5v2.17a2.84,2.84,0,0,0,2.83,2.83h9.83a2.83,2.83,0,0,0,2.83-2.83V231a4.85,4.85,0,0,0,4.64,5h3.83c2.55,0,3.57-2.6,4.64-5l2.76-7.18a1.92,1.92,0,0,0,.13-.77h0V144.54Z"/><rect class="cls-3" x="251.18" y="153.69" width="48" height="57.14"/><rect class="cls-3" x="265.91" y="116.1" width="18.54" height="2.29"/><path class="cls-1" d="M264,183.69a9.1,9.1,0,0,1-3.6-.74,6.37,6.37,0,0,1-2.75-2.16,6.7,6.7,0,0,1-1.25-3.11,12.88,12.88,0,0,1-.09-1.59,16.45,16.45,0,0,1,.21-2.29,12.6,12.6,0,0,1,1-3.09,13.52,13.52,0,0,1,1.75-3,11.82,11.82,0,0,1-.41-3,9.88,9.88,0,0,1,.31-2.54.46.46,0,0,1,.16-.28.36.36,0,0,1,.15-.08c.16,0,.21.19.15.59a10.4,10.4,0,0,0-.1,1.69,15.75,15.75,0,0,0,.32,2.78,11.47,11.47,0,0,1,4.53-3.61,10.43,10.43,0,0,1,4.2-.87,11.7,11.7,0,0,1,1.3.07q3.72.41,5,2.85a4.48,4.48,0,0,1,.53,2.1,5.54,5.54,0,0,1-.51,2.24,6.69,6.69,0,0,1-3.64,3.42,8.9,8.9,0,0,1-3.64.73,12.29,12.29,0,0,1-1.71-.12,7.33,7.33,0,0,1-6-4.1,10.79,10.79,0,0,0-1.19,2.75,14.88,14.88,0,0,0-.71,3c-.07.7-.1,1.28-.1,1.74a10.4,10.4,0,0,0,.1,1.45,4.83,4.83,0,0,0,1,2.4,4.39,4.39,0,0,0,2.25,1.5,8.85,8.85,0,0,0,2.45.42,11,11,0,0,0,5.72-1.4,7.48,7.48,0,0,0,2.23-1.92,18.3,18.3,0,0,0,1.73-3c.09-.2.2-.28.3-.21s.1.21,0,.46a20.86,20.86,0,0,1-1.7,2.94,9.1,9.1,0,0,1-2.14,2A10,10,0,0,1,264,183.69Zm-3.62-14.82c1.15,2.92,3.53,4.37,7.15,4.37a7,7,0,0,0,4.91-1.71,5.19,5.19,0,0,0,1.84-3.89,3.8,3.8,0,0,0-1.88-3.37,6.24,6.24,0,0,0-3.45-.9,8.3,8.3,0,0,0-4.13,1.19A13.49,13.49,0,0,0,260.42,168.87Z"/><path class="cls-1" d="M277.8,172.81c1.17,0,1.76.74,1.76,2.22a5.3,5.3,0,0,1-.53,2.17,8.76,8.76,0,0,1-2,2.84,1.16,1.16,0,0,0,1.13.61,1.65,1.65,0,0,0,1.23-.65,6.4,6.4,0,0,0,1-1.32l.46-.83c.1-.18.22-.43.37-.76s.25-.53.28-.6a.16.16,0,0,1,.17-.11c.16,0,.24,0,.24.17a.51.51,0,0,1-.05.17l-.14.33c-.1.23-.17.39-.22.49s-.13.27-.25.51-.23.45-.32.6l-.36.57a4.26,4.26,0,0,1-.41.58c-.12.15-.27.31-.44.49a3.39,3.39,0,0,1-.51.41,2.23,2.23,0,0,1-1.14.36,2,2,0,0,1-1.54-.63,3.51,3.51,0,0,1-2.05.82c-1.17,0-1.76-.74-1.76-2.22a5.3,5.3,0,0,1,.53-2.17,8,8,0,0,1,2-2.87A3.83,3.83,0,0,1,277.8,172.81Zm.26.75a2.43,2.43,0,0,0-1.54.86,8,8,0,0,0-1.6,2.37,7,7,0,0,0-.84,2.84q0,1.11.84,1.11a2.1,2.1,0,0,0,1.35-.65,2.07,2.07,0,0,1-.38-1.18c0-.69.31-1,.84-1a.69.69,0,0,1,.52.22.63.63,0,0,1,.21.4,1.64,1.64,0,0,1,0,.37,13.34,13.34,0,0,0,.94-1.71,5.46,5.46,0,0,0,.6-2.41C279,174,278.66,173.56,278.06,173.56Z"/><path class="cls-1" d="M282.6,177.26q-.19.57-.33,1.08a4.17,4.17,0,0,0-.13,1,2,2,0,0,0,.24,1,.82.82,0,0,0,.77.44,2.22,2.22,0,0,0,1.69-1.17,23.9,23.9,0,0,0,1.74-3c.13-.22.25-.31.36-.26a.19.19,0,0,1,.05.25c-.05.11-.15.33-.3.68l-.34.72c-.08.14-.2.38-.39.72a4.56,4.56,0,0,1-.48.78l-.56.65a3.12,3.12,0,0,1-.66.59,3,3,0,0,1-1.59.53,1.8,1.8,0,0,1-1.16-.33,1.23,1.23,0,0,1-.49-.7,2.87,2.87,0,0,1-.09-.66q0-.29,0-.75a6.26,6.26,0,0,1,.3-1.49l.25-.82a34.23,34.23,0,0,1,1.58-4.37,31.46,31.46,0,0,1,1.74-3.56A10.11,10.11,0,0,1,286,167a2.31,2.31,0,0,1,1.62-.87c.37,0,.62.27.74.8a1.86,1.86,0,0,1,0,.36,5.18,5.18,0,0,1-.58,2.08,21.61,21.61,0,0,1-4.95,7.23C282.8,176.66,282.72,176.88,282.6,177.26Zm2.84-4.6a23.25,23.25,0,0,0,1.78-3.24,6.19,6.19,0,0,0,.56-1.82c0-.33,0-.49-.17-.49s-.46.32-.91,1a23.39,23.39,0,0,0-1.82,3.42q-1.15,2.47-1.87,4.33A18.62,18.62,0,0,0,285.44,172.66Z"/><path class="cls-1" d="M292.71,176.68a10,10,0,0,0-1,2.29,6.72,6.72,0,0,0-.15,1.23c0,.32.12.47.36.47s.68-.28,1.13-.84a17.45,17.45,0,0,0,2-3.21q.09-.23.21-.24c.13,0,.2,0,.2.14a.75.75,0,0,1-.08.29c-1.48,3-2.72,4.49-3.74,4.49a1.31,1.31,0,0,1-1.13-.68,1.8,1.8,0,0,1-.22-1,5.7,5.7,0,0,1,.24-1.47q-1.92,3.1-3.33,3.11a1.14,1.14,0,0,1-.7-.24,2,2,0,0,1-.72-1.74,7.51,7.51,0,0,1,2.05-4.8,5.29,5.29,0,0,1,2.85-1.76,3.37,3.37,0,0,1,.87-.12,2.58,2.58,0,0,1,1.88.77.47.47,0,0,1,.14.51c-.06.16-.2.22-.41.19a1.1,1.1,0,0,0-1.15-.87c-.7,0-1.55.55-2.56,1.64a13.46,13.46,0,0,0-1.62,2.27,5.34,5.34,0,0,0-.94,2.51c0,.63.2.94.6.94q1.45,0,3.79-4.44a6.41,6.41,0,0,1,.77-1.22,1.09,1.09,0,0,1,.8-.32,3.75,3.75,0,0,1,.5.07,1.34,1.34,0,0,0,.59,0A9.29,9.29,0,0,0,292.71,176.68Z"/><rect class="cls-2" x="269.61" y="115.08" width="10.92" height="1.02"/><rect class="cls-3" x="265.81" y="106.2" width="18.54" height="8.89" rx="0.7"/><line class="cls-4" x1="268.98" y1="106.7" x2="268.98" y2="114.58"/><line class="cls-4" x1="267.96" y1="106.7" x2="267.96" y2="114.58"/><line class="cls-4" x1="270" y1="106.7" x2="270" y2="114.58"/><line class="cls-4" x1="266.95" y1="106.7" x2="266.95" y2="114.58"/><line class="cls-4" x1="273.04" y1="106.7" x2="273.04" y2="114.58"/><line class="cls-4" x1="272.03" y1="106.7" x2="272.03" y2="114.58"/><line class="cls-4" x1="274.06" y1="106.7" x2="274.06" y2="114.58"/><line class="cls-4" x1="271.01" y1="106.7" x2="271.01" y2="114.58"/><line class="cls-4" x1="277.11" y1="106.7" x2="277.11" y2="114.58"/><line class="cls-4" x1="276.09" y1="106.7" x2="276.09" y2="114.58"/><line class="cls-4" x1="278.12" y1="106.7" x2="278.12" y2="114.58"/><line class="cls-4" x1="275.08" y1="106.7" x2="275.08" y2="114.58"/><line class="cls-4" x1="281.17" y1="106.7" x2="281.17" y2="114.58"/><line class="cls-4" x1="280.15" y1="106.7" x2="280.15" y2="114.58"/><line class="cls-4" x1="282.19" y1="106.7" x2="282.19" y2="114.58"/><line class="cls-4" x1="279.14" y1="106.7" x2="279.14" y2="114.58"/><line class="cls-4" x1="283.2" y1="106.7" x2="283.2" y2="114.58"/></g><path class="cls-5" d="M232.42,310.36s-22.15,11-9.65,16.89S232.42,310.36,232.42,310.36Z"/><path class="cls-6" d="M232.37,310.36s-11.8,25.66,2.9,22.81S232.37,310.36,232.37,310.36Z"/><path class="cls-5" d="M262.69,300.49l-5.1,10.2a4,4,0,0,0-.21.47c-.29.73-2.12,4.09-11.34,1.46l-.48-.09c-3.5-.37-44.82-5.12-61.61-22.13,0,0,28.62-25.55,61.3-29.5s20.18,29.61,20.18,29.61-13.6,7-28.08-6.36C237.35,284.15,243.49,306.08,262.69,300.49Z"/><path class="cls-6" d="M235.16,310.88a.18.18,0,0,1-.15-.08,23,23,0,0,1-1.82-3.34,42.11,42.11,0,0,1-3-9.55,51.72,51.72,0,0,1-.58-15.13,68.4,68.4,0,0,1,5.45-20.08.19.19,0,0,1,.25-.1.19.19,0,0,1,.09.25,68,68,0,0,0-5.42,20,51.33,51.33,0,0,0,.57,15,41.68,41.68,0,0,0,3,9.47,22.36,22.36,0,0,0,1.78,3.27.19.19,0,0,1,0,.26A.17.17,0,0,1,235.16,310.88Z"/><path class="cls-6" d="M212.57,271.37s4.46-7.58-5.47-8.51a.52.52,0,0,1-.22-1c5.34-3.1,24.13-12.7,33.26-.19C240.14,261.7,221.89,266.38,212.57,271.37Z"/><path class="cls-6" d="M184,290.4s-3.47-19-15.63-25.14a1.75,1.75,0,0,0-2.3,2.44c4,7.05,10.56,22.78,3.83,43.38a1.75,1.75,0,0,0,3.08,1.59C176,308.52,179.93,301.64,184,290.4Z"/><circle class="cls-1" cx="253.91" cy="273.51" r="7.68"/><circle cx="253.91" cy="273.51" r="1.75"/><path class="cls-6" d="M228.06,293.22a.21.21,0,0,1-.16-.08,9.63,9.63,0,0,1-1.26-3.37,15.48,15.48,0,0,1,1.24-9.09.2.2,0,0,1,.25-.09.19.19,0,0,1,.1.24c-3.2,7.39,0,12.05,0,12.1a.18.18,0,0,1-.05.26A.19.19,0,0,1,228.06,293.22Z"/><path class="cls-6" d="M225.59,291.9a.16.16,0,0,1-.14-.07s-2.81-3.86,0-9.83a.18.18,0,1,1,.33.15c-2.69,5.78,0,9.42,0,9.46a.19.19,0,0,1,0,.26Z"/><path class="cls-5" d="M356.42,310.36s-22.15,11-9.65,16.89S356.42,310.36,356.42,310.36Z"/><path class="cls-6" d="M356.37,310.36s-11.8,25.66,2.9,22.81S356.37,310.36,356.37,310.36Z"/><path class="cls-5" d="M386.69,300.49l-5.1,10.2a4,4,0,0,0-.21.47c-.29.73-2.12,4.09-11.34,1.46l-.48-.09c-3.5-.37-44.82-5.12-61.61-22.13,0,0,28.62-25.55,61.3-29.5s20.18,29.61,20.18,29.61-13.6,7-28.08-6.36C361.35,284.15,367.49,306.08,386.69,300.49Z"/><path class="cls-6" d="M359.16,310.88a.18.18,0,0,1-.15-.08,23,23,0,0,1-1.82-3.34,42.11,42.11,0,0,1-3-9.55,51.72,51.72,0,0,1-.58-15.13,68.4,68.4,0,0,1,5.45-20.08.19.19,0,0,1,.25-.1.19.19,0,0,1,.09.25,68,68,0,0,0-5.42,20,51.33,51.33,0,0,0,.57,15,41.68,41.68,0,0,0,3,9.47,22.36,22.36,0,0,0,1.78,3.27.19.19,0,0,1,0,.26A.17.17,0,0,1,359.16,310.88Z"/><path class="cls-6" d="M336.57,271.37s4.46-7.58-5.47-8.51a.52.52,0,0,1-.22-1c5.34-3.1,24.13-12.7,33.26-.19C364.14,261.7,345.89,266.38,336.57,271.37Z"/><path class="cls-6" d="M308,290.4s-3.47-19-15.63-25.14a1.75,1.75,0,0,0-2.3,2.44c4.05,7.05,10.56,22.78,3.83,43.38a1.75,1.75,0,0,0,3.08,1.59C300,308.52,303.93,301.64,308,290.4Z"/><circle class="cls-1" cx="377.91" cy="273.51" r="7.68"/><circle cx="377.91" cy="273.51" r="1.75"/><path class="cls-6" d="M352.06,293.22a.21.21,0,0,1-.16-.08,9.63,9.63,0,0,1-1.26-3.37,15.48,15.48,0,0,1,1.24-9.09.2.2,0,0,1,.25-.09.19.19,0,0,1,.1.24c-3.2,7.39-.05,12.05,0,12.1a.18.18,0,0,1,0,.26A.19.19,0,0,1,352.06,293.22Z"/><path class="cls-6" d="M349.59,291.9a.16.16,0,0,1-.14-.07s-2.81-3.86,0-9.83a.18.18,0,0,1,.33.15c-2.69,5.78,0,9.42,0,9.46a.19.19,0,0,1,0,.26Z"/><path d="M479.43,310.37s-22.17,11-9.66,16.9S479.43,310.37,479.43,310.37Z"/><path d="M479.38,310.37s-11.8,25.68,2.9,22.83S479.38,310.37,479.38,310.37Z"/><path d="M509.71,300.5l-5.1,10.2c-.07.15-.15.31-.21.47-.28.73-2.12,4.09-11.34,1.47a2.73,2.73,0,0,0-.48-.1c-3.51-.37-44.85-5.12-61.66-22.14,0,0,28.65-25.57,61.35-29.52s20.19,29.63,20.19,29.63-13.61,7-28.09-6.37C484.37,284.14,490.51,306.09,509.71,300.5Z"/><path d="M482.17,310.89a.19.19,0,0,1-.15-.08,24.22,24.22,0,0,1-1.82-3.34,42.11,42.11,0,0,1-3-9.55,51.87,51.87,0,0,1-.59-15.15,68.8,68.8,0,0,1,5.46-20.09.19.19,0,0,1,.25-.1.19.19,0,0,1,.09.25,68.36,68.36,0,0,0-5.43,20,51.81,51.81,0,0,0,.58,15,41.57,41.57,0,0,0,3,9.46,23.43,23.43,0,0,0,1.78,3.28.19.19,0,0,1,0,.26A.15.15,0,0,1,482.17,310.89Z"/><path d="M459.57,271.36s4.46-7.59-5.48-8.52a.52.52,0,0,1-.21-1c5.34-3.11,24.14-12.71,33.27-.2C487.15,261.67,468.89,266.36,459.57,271.36Z"/><path d="M430.92,290.4s-3.46-19.07-15.63-25.16a1.76,1.76,0,0,0-2.31,2.45c4.06,7,10.57,22.78,3.84,43.4a1.76,1.76,0,0,0,3.09,1.6C423,308.53,426.91,301.65,430.92,290.4Z"/><circle cx="500.94" cy="273.5" r="7.68"/><circle cx="500.94" cy="273.5" r="1.76"/><path d="M475.06,293.22a.19.19,0,0,1-.15-.08,9.51,9.51,0,0,1-1.26-3.38,15.37,15.37,0,0,1,1.24-9.08.19.19,0,0,1,.25-.1.18.18,0,0,1,.09.24c-3.2,7.39-.05,12.06,0,12.11a.19.19,0,0,1,0,.26A.2.2,0,0,1,475.06,293.22Z"/><path d="M472.6,291.9a.18.18,0,0,1-.15-.07s-2.81-3.86,0-9.84a.18.18,0,0,1,.25-.09.18.18,0,0,1,.09.24c-2.7,5.78,0,9.43,0,9.46a.18.18,0,0,1-.15.3Z"/></svg>
