<svg id="Spilskærm" xmlns="http://www.w3.org/2000/svg" width="1920" height="1080" viewBox="0 0 1920 1080"><defs><style>.cls-1{fill:#4e90de;}</style></defs><title>mellemgrund</title><path class="cls-1" d="M0,712c29.27,5.63,122.16,24.31,151.72,20.5C194.17,727,242.49,675,291,675c72.95,0,139,55.82,196.27,67.59a281.13,281.13,0,0,0,118-1.33C665.08,727.86,739.7,671,818,671c61.91,0,118.27,53.91,169.54,62.59a278.94,278.94,0,0,0,86.52.77C1120.15,727.7,1173.24,675,1227,675c75.81,0,144.29,56.36,203,69a278.58,278.58,0,0,0,120.69-1.15C1611,729.09,1686.55,672,1766,672c102.17,0,138.67,9.37,154,30V876c-13.78,23.66-48.14,35-154,35-75.81,0-146.29-7.36-205-20a278.58,278.58,0,0,0-120.69,1.15C1380.05,905.91,1306.45,914,1227,914c-61.91,0-120.27-4.91-171.54-13.59a278.94,278.94,0,0,0-86.52-.77A1064.22,1064.22,0,0,1,818,910c-73,0-141-6.82-198.27-18.59a281.13,281.13,0,0,0-118,1.33C441.92,906.14,369.3,914,291,914c-69,0-133.63-6.1-188.93-16.73C72.8,891.64,29.56,893.18,0,897Z"/></svg>
