<svg xmlns="http://www.w3.org/2000/svg" width="210" height="210" viewBox="0 0 210 210"><defs><style>.cls-1{fill:#b0d5ff;}.cls-2{fill:#1c63b2;}</style></defs><title>music_button</title><g id="Musik"><circle class="cls-1" cx="105" cy="105" r="100"/><path class="cls-2" d="M149.7,138.92a26.23,26.23,0,0,1-.35-3.95l-.12-69.38V63.76l0-19.25L68.68,56.45l0,16.16h0l.11,67.16a25.32,25.32,0,0,0-10.86-2.28c-10,0-18,5.12-18,11.4S48,160.25,58,160.24s18-5.12,18-11.41a6.73,6.73,0,0,0-.07-1,29.31,29.31,0,0,1-.36-4.08l-.11-67.22,67.06-9.94.1,64.33a25.47,25.47,0,0,0-10.86-2.28c-9.95,0-18,5.12-18,11.41s8.09,11.36,18.05,11.34,18-5.12,18-11.4A6.35,6.35,0,0,0,149.7,138.92Z"/></g></svg>
