<svg xmlns="http://www.w3.org/2000/svg" width="830" height="630" viewBox="0 0 830 630"><defs><style>.cls-1{fill:#ff911e;}.cls-2{fill:#b06315;}.cls-3{fill:#fff;}</style></defs><title>orange_fish</title><g id="Levende_fisk" data-name="Levende fisk"><path class="cls-1" d="M541.29,443.73s-178.86,88.55-77.92,136.36S541.29,443.73,541.29,443.73Z"/><path class="cls-2" d="M540.92,443.71s-95.26,207.22,23.39,184.2S540.92,443.71,540.92,443.71Z"/><path class="cls-1" d="M785.68,364l-41.16,82.32c-.62,1.24-1.21,2.49-1.71,3.78-2.29,5.93-17.09,33-91.55,11.86a23.12,23.12,0,0,0-3.86-.76c-28.28-3-361.87-41.35-497.48-178.66,0,0,231.1-206.31,495-238.19S807.81,283.46,807.81,283.46,698,340.13,581.14,232.11C581.14,232.11,630.72,409.2,785.68,364Z"/><path class="cls-2" d="M563.43,447.89a1.49,1.49,0,0,1-1.23-.64c-.27-.38-6.63-9.49-14.65-26.94a339.42,339.42,0,0,1-24.27-77.08c-7.48-38.88-9.06-80-4.68-122.18,5.46-52.71,20.28-107.26,44-162.15a1.5,1.5,0,0,1,2.75,1.19C541.75,114.7,527,169,521.58,221.36c-4.34,41.9-2.78,82.71,4.65,121.3a336.85,336.85,0,0,0,24,76.4c7.92,17.2,14.32,26.37,14.39,26.46a1.5,1.5,0,0,1-.37,2.09A1.45,1.45,0,0,1,563.43,447.89Z"/><path class="cls-2" d="M381,128.92s36-61.21-44.15-68.75a4.21,4.21,0,0,1-1.74-7.82c43.12-25,194.79-102.53,268.48-1.55C603.61,50.8,456.29,88.61,381,128.92Z"/><path class="cls-2" d="M149.92,282.58s-28-153.83-126.16-203C11.26,73.31-1.8,87.18,5.16,99.29c32.7,56.88,85.29,183.88,31,350.26-5,15.37,15.24,25.85,24.86,12.86C85.83,428.87,117.51,373.33,149.92,282.58Z"/><circle class="cls-3" cx="714.84" cy="146.22" r="61.98"/><circle cx="714.84" cy="146.22" r="14.17"/><path class="cls-2" d="M506.07,305.33a1.52,1.52,0,0,1-1.24-.65c-.27-.39-6.82-10-10.15-27.22-3.06-15.86-3.8-41.45,10-73.34a1.5,1.5,0,1,1,2.75,1.19c-25.8,59.61-.4,97.29-.14,97.66a1.51,1.51,0,0,1-1.23,2.36Z"/><path class="cls-2" d="M486.2,294.7a1.46,1.46,0,0,1-1.2-.6c-.23-.3-22.66-31.16-.16-79.4a1.5,1.5,0,0,1,2.72,1.27c-21.75,46.62-.38,76-.16,76.33a1.5,1.5,0,0,1-.31,2.1A1.41,1.41,0,0,1,486.2,294.7Z"/></g></svg>
