<svg xmlns="http://www.w3.org/2000/svg" width="860" height="530" viewBox="0 0 860 530"><defs><style>.cls-1{fill:#ff911e;}.cls-2{fill:#b06315;}</style></defs><title>orange_fish_dead</title><g id="Død_fisk" data-name="Død fisk"><path class="cls-1" d="M299.56,70.6s180.4.7,76.14-48.69S299.56,70.6,299.56,70.6Z"/><path class="cls-2" d="M299.94,70.61s73.93-88.94-48.62-65.16S299.94,70.61,299.94,70.61Z"/><path class="cls-1" d="M47.14,152.91l42.51-85A42.83,42.83,0,0,0,91.41,64c2.37-6.12,17.65-34.12,94.57-12.24a23.34,23.34,0,0,0,4,.78c29.21,3.13,373.76,42.71,513.83,184.54,0,0-238.7,213.09-511.24,246S24.27,236.13,24.27,236.13s185,27.22,174-42.28C198.28,193.85,70.24,239.58,47.14,152.91Z"/><path class="cls-2" d="M276.09,469a1.61,1.61,0,0,1-.6-.12,1.51,1.51,0,0,1-.78-2c24.42-56.4,39.65-112.45,45.26-166.58,4.48-43.28,2.87-85.44-4.81-125.3a347.6,347.6,0,0,0-24.83-78.92c-8.18-17.77-14.8-27.25-14.86-27.34A1.5,1.5,0,0,1,277.92,67c.28.39,6.84,9.8,15.13,27.81a350.29,350.29,0,0,1,25.06,79.61c7.73,40.16,9.36,82.61,4.84,126.18C317.31,355,302,411.37,277.47,468.05A1.51,1.51,0,0,1,276.09,469Z"/><path class="cls-2" d="M465.09,395.75s-37.2,63.22,45.6,71a4.34,4.34,0,0,1,1.8,8.07c-44.53,25.86-201.19,105.9-277.3,1.6C235.19,476.44,387.36,437.39,465.09,395.75Z"/><path class="cls-2" d="M703.79,237.05S732.68,395.93,834.1,446.72c12.91,6.47,26.4-7.85,19.21-20.37-33.78-58.74-88.1-189.92-32-361.76,5.18-15.88-15.75-26.71-25.69-13.28C770,86,737.27,143.31,703.79,237.05Z"/><path class="cls-2" d="M335.94,319a1.61,1.61,0,0,1-.6-.12,1.5,1.5,0,0,1-.78-2c26.67-61.61.42-100.54.15-100.93a1.5,1.5,0,1,1,2.46-1.71c.29.41,7.05,10.29,10.48,28.11,3.16,16.36,3.93,42.78-10.33,75.72A1.51,1.51,0,0,1,335.94,319Z"/><path class="cls-2" d="M356.46,308a1.56,1.56,0,0,1-.63-.14,1.51,1.51,0,0,1-.73-2c11.73-25.14,11.15-45.25,8.6-57.69-2.77-13.48-8.38-21.13-8.44-21.2a1.5,1.5,0,0,1,2.4-1.8c.24.32,23.39,32.17.16,82A1.49,1.49,0,0,1,356.46,308Z"/><rect x="123.28" y="310.91" width="20.12" height="122.55" rx="5.5" transform="translate(302.23 14.72) rotate(45)"/><rect x="123.28" y="310.91" width="20.12" height="122.55" rx="5.5" transform="translate(-224.12 203.3) rotate(-45)"/></g></svg>
