<svg xmlns="http://www.w3.org/2000/svg" width="340" height="910" viewBox="0 0 340 910"><defs><style>.cls-1{fill:#aed3ff;}.cls-2{fill:#bf272d;}.cls-3{fill:#fff;}.cls-4{fill:none;stroke:#7f272d;stroke-miterlimit:10;}</style></defs><title>plastic_bottle</title><g id="Plastflaske"><g id="Plastikflaske"><path class="cls-1" d="M336.26,269.17a19.18,19.18,0,0,0-2.63-9.44l-121.49-173a19.1,19.1,0,0,0-16.53-9.57h-53.1a19.06,19.06,0,0,0-15.85,8.49L7.05,258.65a19.12,19.12,0,0,0-3.31,10.52h0V818.65h0a13.62,13.62,0,0,0,.9,5.39L24,874.3c7.49,16.84,14.6,35.05,32.45,35.05H83.31c17.85,0,32.45-15.78,32.45-35.05v15.21a19.9,19.9,0,0,0,19.84,19.84h68.8a19.9,19.9,0,0,0,19.84-19.84V874.3c0,19.27,14.6,35.05,32.45,35.05h26.85c17.85,0,25-18.21,32.45-35.05L335.34,824a13.62,13.62,0,0,0,.9-5.39h0V269.17Z"/><rect class="cls-2" x="1.95" y="333.19" width="336.09" height="400.11"/><rect class="cls-2" x="105.09" y="70.01" width="129.81" height="16"/><path class="cls-3" d="M92,543.25a63.63,63.63,0,0,1-25.26-5.16A44.8,44.8,0,0,1,47.52,523a47.17,47.17,0,0,1-8.7-21.79A84.92,84.92,0,0,1,38.15,490a112.31,112.31,0,0,1,1.52-16,86.28,86.28,0,0,1,6.67-21.62,94.76,94.76,0,0,1,12.25-20.61,85.06,85.06,0,0,1-2.87-20.87,69.49,69.49,0,0,1,2.19-17.82,3.5,3.5,0,0,1,1.1-1.94,2.34,2.34,0,0,1,1.1-.59q1.68,0,1,4.14a78.53,78.53,0,0,0-.67,11.82A111.14,111.14,0,0,0,62.64,426q13.52-17.38,31.76-25.34a73.2,73.2,0,0,1,29.4-6.08,85,85,0,0,1,9.12.51q26,2.88,35.14,19.93a31.27,31.27,0,0,1,3.72,14.7,39.15,39.15,0,0,1-3.55,15.71q-7.44,16.21-25.51,24a63.28,63.28,0,0,1-25.51,5.07,86,86,0,0,1-12-.85Q75,469.26,63.32,444.92q-4.05,5.74-8.36,19.26T50,485q-.67,7.28-.67,12.17A79.24,79.24,0,0,0,50,507.26a33.62,33.62,0,0,0,7.1,16.81,30.69,30.69,0,0,0,15.8,10.47,61.13,61.13,0,0,0,17.14,3q23.49,0,40-9.8a53.11,53.11,0,0,0,15.63-13.43,129.76,129.76,0,0,0,12.07-20.69c.68-1.46,1.38-2,2.12-1.52s.7,1.52-.09,3.21a147.88,147.88,0,0,1-11.91,20.61,61.37,61.37,0,0,1-15,14.19Q114,543.24,92,543.25ZM66.7,439.52q12,30.59,50,30.58,21.45,0,34.38-12T164,430.9q0-15.19-13.17-23.65Q141,401,126.67,401t-28.89,8.28Q79.54,419.93,66.7,439.52Z"/><path class="cls-3" d="M188.33,467.06q12.33,0,12.33,15.54A36.71,36.71,0,0,1,197,497.8a60.36,60.36,0,0,1-14.19,19.94Q185,522,190.7,522q4.56,0,8.61-4.56a46.43,46.43,0,0,0,7.27-9.21c1.46-2.64,2.53-4.59,3.21-5.83s1.54-3,2.61-5.32,1.72-3.71,1.95-4.22a1.18,1.18,0,0,1,1.18-.76c1.12-.11,1.69.28,1.69,1.18a2.78,2.78,0,0,1-.34,1.18l-1,2.37c-.68,1.58-1.19,2.7-1.52,3.38s-.93,1.88-1.78,3.63-1.58,3.12-2.19,4.14-1.47,2.36-2.54,4.05a39.42,39.42,0,0,1-2.87,4.06c-.84,1-1.89,2.14-3.12,3.37a19.27,19.27,0,0,1-3.55,2.88,15.59,15.59,0,0,1-7.94,2.53q-6.93,0-10.81-4.39-7.78,5.74-14.36,5.74-12.34,0-12.34-15.54a36.58,36.58,0,0,1,3.72-15.2,56.65,56.65,0,0,1,14.28-20.11Q180,467.07,188.33,467.06Zm1.86,5.23q-4.56,0-10.81,6.08t-11.15,16.56q-5.92,12.17-5.92,19.93c0,5.19,2,7.77,5.92,7.77q4.22,0,9.46-4.56A14.16,14.16,0,0,1,175,509.8q.35-7.26,5.92-7.27a4.8,4.8,0,0,1,3.63,1.52,4.33,4.33,0,0,1,1.44,2.79,11.09,11.09,0,0,1-.34,2.62,95.94,95.94,0,0,0,6.59-12,38.24,38.24,0,0,0,4.22-16.89Q196.44,472.29,190.19,472.29Z"/><path class="cls-3" d="M222,498.22q-1.37,4-2.28,7.61a29.15,29.15,0,0,0-.93,7.26,14,14,0,0,0,1.69,6.76,5.69,5.69,0,0,0,5.4,3.12q6.09,0,11.83-8.19a173.65,173.65,0,0,0,12.16-20.86c.9-1.58,1.75-2.2,2.54-1.86a1.33,1.33,0,0,1,.33,1.77c-.33.74-1,2.31-2.11,4.73s-1.86,4.11-2.36,5.07-1.41,2.65-2.71,5.07a35.1,35.1,0,0,1-3.38,5.4c-.95,1.19-2.25,2.71-3.88,4.57a21.29,21.29,0,0,1-4.65,4.13q-5.91,3.72-11.15,3.72t-8.11-2.28a9,9,0,0,1-3.46-4.9,21.55,21.55,0,0,1-.59-4.64c0-1.36.06-3.1.17-5.24A50.33,50.33,0,0,1,212.57,499c1.07-3.37,1.66-5.29,1.77-5.74a235.68,235.68,0,0,1,11.07-30.58q7.18-16.55,12.16-24.91t7.86-11.41q5.74-6.07,11.32-6.08,3.88,0,5.23,5.57a15.13,15.13,0,0,1,.17,2.54q0,5.75-4,14.53-14.54,32.27-34.63,50.68C223.35,494,222.85,495.58,222,498.22ZM241.88,466a164,164,0,0,0,12.42-22.72q4-9.37,4-12.75c0-2.26-.4-3.38-1.18-3.38q-1.69,0-6.42,6.67t-12.76,24q-8,17.31-13.09,30.32A133.35,133.35,0,0,0,241.88,466Z"/><path class="cls-3" d="M292.73,494.17q-5.58,10.72-6.67,16.05a44.13,44.13,0,0,0-1.1,8.61c0,2.2.84,3.3,2.53,3.3q3.21,0,7.94-5.91a120.69,120.69,0,0,0,13.69-22.47c.44-1,.95-1.58,1.52-1.69.9-.34,1.35,0,1.35,1a5.28,5.28,0,0,1-.51,2q-15.54,31.42-26.18,31.42-4.91,0-7.94-4.73a13,13,0,0,1-1.52-6.76,39.49,39.49,0,0,1,1.69-10.3Q264,526.53,254.21,526.52a7.84,7.84,0,0,1-4.9-1.69q-5.07-3.54-5.06-12.16,0-16.56,14.35-33.62a37.25,37.25,0,0,1,19.94-12.33,24,24,0,0,1,6.08-.85,18,18,0,0,1,13.18,5.41c1.12,1.24,1.46,2.42,1,3.55s-1.41,1.58-2.87,1.35q-1.86-6.09-8.11-6.08-7.26,0-17.91,11.48a92.85,92.85,0,0,0-11.32,15.88Q252,508.46,252,515c0,4.39,1.4,6.59,4.22,6.59q10.14,0,26.52-31.08,3.21-6.26,5.41-8.53a7.4,7.4,0,0,1,5.57-2.28,27.39,27.39,0,0,1,3.47.5,10.51,10.51,0,0,0,4.13.17Q298.31,483.45,292.73,494.17Z"/><rect class="cls-1" x="131.04" y="62.89" width="76.47" height="7.11"/><rect class="cls-2" x="104.37" y="0.65" width="129.81" height="62.24" rx="4.93"/><line class="cls-4" x1="126.6" y1="4.21" x2="126.6" y2="59.34"/><line class="cls-4" x1="119.49" y1="4.21" x2="119.49" y2="59.34"/><line class="cls-4" x1="133.71" y1="4.21" x2="133.71" y2="59.34"/><line class="cls-4" x1="112.37" y1="4.21" x2="112.37" y2="59.34"/><line class="cls-4" x1="155.05" y1="4.21" x2="155.05" y2="59.34"/><line class="cls-4" x1="147.94" y1="4.21" x2="147.94" y2="59.34"/><line class="cls-4" x1="162.16" y1="4.21" x2="162.16" y2="59.34"/><line class="cls-4" x1="140.83" y1="4.21" x2="140.83" y2="59.34"/><line class="cls-4" x1="183.5" y1="4.21" x2="183.5" y2="59.34"/><line class="cls-4" x1="176.39" y1="4.21" x2="176.39" y2="59.34"/><line class="cls-4" x1="190.62" y1="4.21" x2="190.62" y2="59.34"/><line class="cls-4" x1="169.28" y1="4.21" x2="169.28" y2="59.34"/><line class="cls-4" x1="211.96" y1="4.21" x2="211.96" y2="59.34"/><line class="cls-4" x1="204.84" y1="4.21" x2="204.84" y2="59.34"/><line class="cls-4" x1="219.07" y1="4.21" x2="219.07" y2="59.34"/><line class="cls-4" x1="197.73" y1="4.21" x2="197.73" y2="59.34"/><line class="cls-4" x1="226.18" y1="4.21" x2="226.18" y2="59.34"/></g></g></svg>
