<svg xmlns="http://www.w3.org/2000/svg" width="340" height="360" viewBox="0 0 340 360"><defs><style>.cls-1{fill:#aed3ff;}.cls-2{fill:#bf272d;}.cls-3{fill:#fff;}.cls-4{fill:none;stroke:#7f272d;stroke-miterlimit:10;stroke-width:0.39px;}</style></defs><title>point</title><g id="Point"><rect x="283.5" y="144.6" width="11.46" height="132.42" rx="5.73" transform="translate(233.78 -142.77) rotate(45)"/><rect x="283.5" y="144.6" width="11.46" height="132.42" rx="5.73" transform="translate(642.8 155.36) rotate(135)"/><g id="Plastikflaske"><path class="cls-1" d="M132.26,107.75a7.35,7.35,0,0,0-1-3.67L84,36.8a7.45,7.45,0,0,0-6.43-3.72H56.94a7.44,7.44,0,0,0-6.17,3.3L4.27,103.66A7.47,7.47,0,0,0,3,107.75H3V321.39H3a5.29,5.29,0,0,0,.35,2.09L10.86,343c2.91,6.55,5.68,13.63,12.62,13.63H33.92c6.94,0,12.62-6.13,12.62-13.63v5.92a7.73,7.73,0,0,0,7.71,7.71H81a7.73,7.73,0,0,0,7.71-7.71V343c0,7.5,5.68,13.63,12.62,13.63h10.44c6.94,0,9.7-7.08,12.62-13.63l7.52-19.54a5.29,5.29,0,0,0,.35-2.09h0V107.75Z"/><rect class="cls-2" x="2.29" y="132.64" width="130.67" height="155.56"/><rect class="cls-2" x="42.39" y="30.31" width="50.47" height="6.22"/><path class="cls-3" d="M37.31,214.31a24.89,24.89,0,0,1-9.82-2A17.47,17.47,0,0,1,20,206.43,18.27,18.27,0,0,1,16.62,198a34,34,0,0,1-.26-4.34,44,44,0,0,1,.59-6.24,33.37,33.37,0,0,1,2.6-8.41,36.48,36.48,0,0,1,4.76-8,32.9,32.9,0,0,1-1.12-8.11,27,27,0,0,1,.85-6.93,1.37,1.37,0,0,1,.43-.76.94.94,0,0,1,.43-.23c.44,0,.57.54.39,1.61a31.36,31.36,0,0,0-.26,4.6,43.11,43.11,0,0,0,.85,7.59,31.47,31.47,0,0,1,12.35-9.85,28.41,28.41,0,0,1,11.43-2.37,33.8,33.8,0,0,1,3.55.2q10.11,1.11,13.66,7.75a12.19,12.19,0,0,1,1.44,5.71,15.19,15.19,0,0,1-1.38,6.11A18.39,18.39,0,0,1,57,185.61a24.67,24.67,0,0,1-9.92,2,33.62,33.62,0,0,1-4.66-.33q-11.76-1.71-16.29-11.17a29.4,29.4,0,0,0-3.26,7.49A41.92,41.92,0,0,0,21,191.65c-.18,1.88-.27,3.46-.27,4.73a30,30,0,0,0,.27,3.94,13,13,0,0,0,2.76,6.54,12,12,0,0,0,6.14,4.07,24,24,0,0,0,6.66,1.15,30,30,0,0,0,15.57-3.81,20.69,20.69,0,0,0,6.08-5.22A50.5,50.5,0,0,0,62.86,195c.27-.57.54-.77.82-.59s.28.59,0,1.25a57.31,57.31,0,0,1-4.63,8,23.94,23.94,0,0,1-5.81,5.52A27.34,27.34,0,0,1,37.31,214.31ZM27.46,174q4.66,11.9,19.44,11.89,8.34,0,13.37-4.66t5-10.58a10.35,10.35,0,0,0-5.12-9.19A17.12,17.12,0,0,0,50.78,159a22.45,22.45,0,0,0-11.23,3.22A36.27,36.27,0,0,0,27.46,174Z"/><path class="cls-3" d="M74.75,184.69q4.8,0,4.8,6a14.3,14.3,0,0,1-1.45,5.91,23.43,23.43,0,0,1-5.52,7.75A3.17,3.17,0,0,0,75.67,206,4.53,4.53,0,0,0,79,204.26a17.89,17.89,0,0,0,2.82-3.58l1.25-2.26c.26-.49.6-1.17,1-2.07l.76-1.64a.46.46,0,0,1,.46-.3c.43,0,.65.11.65.46a1,1,0,0,1-.13.46l-.39.92c-.27.61-.46,1.05-.59,1.31s-.37.74-.69,1.41-.62,1.22-.86,1.61-.57.92-1,1.58a16.1,16.1,0,0,1-1.12,1.58c-.33.39-.73.83-1.21,1.31a8.38,8.38,0,0,1-1.38,1.12,6.14,6.14,0,0,1-3.09,1,5.29,5.29,0,0,1-4.2-1.71,9.67,9.67,0,0,1-5.59,2.24q-4.78,0-4.79-6.05a14.35,14.35,0,0,1,1.44-5.91A22.16,22.16,0,0,1,68,187.91C70.34,185.76,72.6,184.69,74.75,184.69Zm.72,2q-1.77,0-4.2,2.37a21.74,21.74,0,0,0-4.34,6.44,18.83,18.83,0,0,0-2.29,7.75c0,2,.76,3,2.29,3a5.89,5.89,0,0,0,3.68-1.78,5.5,5.5,0,0,1-1-3.21c.09-1.89.86-2.83,2.3-2.83a1.86,1.86,0,0,1,1.41.59,1.71,1.71,0,0,1,.56,1.09,4.06,4.06,0,0,1-.13,1,36.38,36.38,0,0,0,2.56-4.66,14.76,14.76,0,0,0,1.64-6.57C77.9,187.8,77.09,186.72,75.47,186.72Z"/><path class="cls-3" d="M87.82,196.81c-.35,1-.65,2-.89,2.95a11.44,11.44,0,0,0-.36,2.83,5.39,5.39,0,0,0,.66,2.62,2.22,2.22,0,0,0,2.1,1.22q2.37,0,4.6-3.19a67.26,67.26,0,0,0,4.73-8.11c.35-.61.68-.85,1-.72a.51.51,0,0,1,.13.69c-.13.28-.4.9-.82,1.84s-.72,1.6-.92,2-.54,1-1,2a13.94,13.94,0,0,1-1.31,2.1c-.37.46-.88,1.05-1.51,1.77A8.73,8.73,0,0,1,88,207.81a5,5,0,0,1-3.16-.89,3.45,3.45,0,0,1-1.34-1.9,7.92,7.92,0,0,1-.23-1.81q0-.78.06-2a19.86,19.86,0,0,1,.83-4.07c.41-1.31.64-2.06.68-2.23A92.69,92.69,0,0,1,89.17,183a88.88,88.88,0,0,1,4.73-9.69,28.64,28.64,0,0,1,3-4.43q2.23-2.37,4.4-2.37c1,0,1.69.73,2,2.17a6.71,6.71,0,0,1,.06,1,14.23,14.23,0,0,1-1.57,5.65Q96.23,187.84,88.41,195C88.37,195.18,88.17,195.78,87.82,196.81Zm7.75-12.52a63.28,63.28,0,0,0,4.83-8.83,16.13,16.13,0,0,0,1.54-5c0-.87-.15-1.31-.46-1.31s-1.27.86-2.49,2.59a65.63,65.63,0,0,0-5,9.33q-3.12,6.73-5.09,11.79A52.31,52.31,0,0,0,95.57,184.29Z"/><path class="cls-3" d="M115.34,195.23a27.51,27.51,0,0,0-2.59,6.24,17,17,0,0,0-.43,3.35c0,.85.33,1.28,1,1.28.84,0,1.87-.76,3.09-2.3a46.25,46.25,0,0,0,5.32-8.73c.18-.4.37-.62.59-.66s.53,0,.53.39a2.08,2.08,0,0,1-.2.79q-6,12.22-10.18,12.22a3.55,3.55,0,0,1-3.09-1.84,5.12,5.12,0,0,1-.59-2.63,15.3,15.3,0,0,1,.66-4q-5.25,8.46-9.07,8.47a3,3,0,0,1-1.9-.66c-1.31-.92-2-2.49-2-4.73q0-6.43,5.58-13.07a14.49,14.49,0,0,1,7.75-4.79,9.25,9.25,0,0,1,2.37-.33,7,7,0,0,1,5.12,2.1,1.29,1.29,0,0,1,.4,1.38.92.92,0,0,1-1.12.53,3,3,0,0,0-3.15-2.37q-2.84,0-7,4.47a36.5,36.5,0,0,0-4.4,6.17c-1.71,2.85-2.56,5.12-2.56,6.83s.55,2.56,1.64,2.56q3.94,0,10.32-12.08a15,15,0,0,1,2.1-3.32,2.88,2.88,0,0,1,2.16-.89,11.4,11.4,0,0,1,1.35.2,4.16,4.16,0,0,0,1.61.07A25.28,25.28,0,0,0,115.34,195.23Z"/><rect class="cls-1" x="52.48" y="27.55" width="29.73" height="2.77"/><rect class="cls-2" x="42.11" y="3.35" width="50.47" height="24.2" rx="1.92"/><line class="cls-4" x1="50.75" y1="4.73" x2="50.75" y2="26.17"/><line class="cls-4" x1="47.98" y1="4.73" x2="47.98" y2="26.17"/><line class="cls-4" x1="53.52" y1="4.73" x2="53.52" y2="26.17"/><line class="cls-4" x1="45.22" y1="4.73" x2="45.22" y2="26.17"/><line class="cls-4" x1="61.81" y1="4.73" x2="61.81" y2="26.17"/><line class="cls-4" x1="59.05" y1="4.73" x2="59.05" y2="26.17"/><line class="cls-4" x1="64.58" y1="4.73" x2="64.58" y2="26.17"/><line class="cls-4" x1="56.28" y1="4.73" x2="56.28" y2="26.17"/><line class="cls-4" x1="72.87" y1="4.73" x2="72.87" y2="26.17"/><line class="cls-4" x1="70.11" y1="4.73" x2="70.11" y2="26.17"/><line class="cls-4" x1="75.64" y1="4.73" x2="75.64" y2="26.17"/><line class="cls-4" x1="67.34" y1="4.73" x2="67.34" y2="26.17"/><line class="cls-4" x1="83.94" y1="4.73" x2="83.94" y2="26.17"/><line class="cls-4" x1="81.17" y1="4.73" x2="81.17" y2="26.17"/><line class="cls-4" x1="86.7" y1="4.73" x2="86.7" y2="26.17"/><line class="cls-4" x1="78.41" y1="4.73" x2="78.41" y2="26.17"/><line class="cls-4" x1="89.47" y1="4.73" x2="89.47" y2="26.17"/></g></g></svg>
