<svg xmlns="http://www.w3.org/2000/svg" width="680" height="410" viewBox="0 0 680 410"><defs><style>.cls-1{fill:#fff;}</style></defs><title>sky</title><g id="UI"><path class="cls-1" d="M676.32,216.45A86.69,86.69,0,0,0,626.54,138,86.73,86.73,0,0,0,502.73,50.81a86.71,86.71,0,0,0-153.89,0A86.75,86.75,0,0,0,247,70.73,86.72,86.72,0,0,0,79.55,85.3,86.7,86.7,0,0,0,26.26,228.73,86.71,86.71,0,0,0,98.13,363.92a87.69,87.69,0,0,0,17.65-1.8A86.7,86.7,0,0,0,252.25,380.7c2.66.25,5.37.38,8.1.38a86.43,86.43,0,0,0,61.27-25.35A86.75,86.75,0,0,0,421,369.85a86.86,86.86,0,0,0,78,.78,86.74,86.74,0,0,0,128-75.94A86.71,86.71,0,0,0,676.32,216.45Z"/></g></svg>
