<svg xmlns="http://www.w3.org/2000/svg" xmlns:xlink="http://www.w3.org/1999/xlink" width="1920" height="1080" viewBox="0 0 1920 1080"><defs><style>.cls-1{fill:url(#linear-gradient);}.cls-2{fill:#ffb841;}.cls-3{fill:#b0d5ff;}.cls-4{fill:#e0bda7;}.cls-5{fill:#123f70;}.cls-6{fill:#39b34a;}.cls-7{fill:#88ff98;}.cls-8{fill:#16882d;}.cls-10,.cls-12,.cls-15,.cls-17,.cls-24,.cls-9{fill:none;stroke-miterlimit:10;}.cls-10,.cls-17,.cls-9{stroke:#603813;}.cls-9{stroke-width:2px;}.cls-10,.cls-12{stroke-linecap:round;}.cls-10{stroke-width:6px;}.cls-11{fill:#fff;}.cls-12{stroke:#000;}.cls-13{fill:#a47d65;}.cls-14{fill:#ff7baa;}.cls-15{stroke:#754c24;stroke-width:3px;}.cls-16{fill:#603813;}.cls-18{fill:#d7b09a;}.cls-19{fill:#38a84e;}.cls-20{fill:#247033;}.cls-21{opacity:0.1;}.cls-22{fill:#aed3ff;}.cls-23{fill:#bf272d;}.cls-24{stroke:#7f272d;stroke-width:0.35px;}</style><linearGradient id="linear-gradient" x1="959.5" y1="-160.05" x2="959.5" y2="953.12" gradientUnits="userSpaceOnUse"><stop offset="0" stop-color="#ffb841"/><stop offset="0.29" stop-color="#ffc361"/><stop offset="0.72" stop-color="#4b7cb0"/><stop offset="1" stop-color="#1c63b0"/></linearGradient></defs><title>start_screen</title><g id="Titelskærm"><rect class="cls-1" x="-0.5" y="0.5" width="1920" height="1080"/><path class="cls-2" d="M1122.55,859.64q0,11.76,8.4,11.75,19.72,0,55.83-73.88,2.94-5.88,5.25-4.62a3.79,3.79,0,0,1,2.31,3.36c0,1.4-1.62,5.39-4.83,12s-6.44,12.88-9.66,18.9-7.91,13.92-14.06,23.71q-19.32,29.4-41.14,29.39-14.28,0-22.67-11.75-3.78-5.46-3.78-14.91t4.2-22.88q4.18-13.42,23.09-43.66,4.62-7.54,4.62-12t-7.14-4.41q-7.14,0-27.29,18.89-30.23,27.71-58.77,83.12-2.94,6.3-15.53,6.3c-7.56.56-12.31,1.4-14.28,2.52q79.77-165.83,115.45-231.31,8-14.7,14.06-20.57a20.14,20.14,0,0,1,14.49-5.88,74.08,74.08,0,0,1,8.81,1,39.54,39.54,0,0,0,10.08.63q-12.6,13-45.13,72t-62.34,119.85q19.73-24.76,35.47-38.62t38.41-26.24Q1159.08,740,1169.57,740a12.37,12.37,0,0,1,4.62.84Q1122.55,831.51,1122.55,859.64Z"/><path class="cls-2" d="M1205.67,813.88a82.88,82.88,0,0,0-5.88,31.91q0,11.75,5.25,18.68t14.9,6.92q38.19,0,69.27-71.78,2.93-6.72,7.13-5.88a2,2,0,0,1,1.68,2.1q0,1.68-9.44,22t-19.1,33q-21.42,29.4-52.9,29.39-16.8,0-28.55-10.91t-11.75-29.81q0-18.88,9-40.09a153.7,153.7,0,0,1,24.56-39.46q15.53-18.27,35.69-26.66a46.25,46.25,0,0,1,18.47-4.2,28.92,28.92,0,0,1,16.37,5q7.14,5.88,7.14,13,0,25.18-30.23,48.28-9.24,7.14-26,12.8T1205.67,813.88Zm70.52-67.17q0-8.38-6.71-8.39-11.76,0-35.69,29a216.19,216.19,0,0,0-25.19,39.47q7.14,0,20.78-5a79.54,79.54,0,0,0,23.72-13.44Q1276.19,768.55,1276.19,746.71Z"/><path class="cls-2" d="M1309.77,809.05q-3.36,9.87-5.67,18.9a72.54,72.54,0,0,0-2.31,18,34.74,34.74,0,0,0,4.2,16.79q4.2,7.77,13.44,7.76,15.1,0,29.38-20.36T1379,798.35q3.36-5.88,6.3-4.62c1.39,1.12,1.68,2.59.84,4.41s-2.6,5.74-5.25,11.75-4.62,10.22-5.88,12.6-3.5,6.58-6.72,12.59a90.2,90.2,0,0,1-8.39,13.44q-3.57,4.4-9.66,11.33a53,53,0,0,1-11.54,10.28q-14.7,9.24-27.71,9.24t-20.15-5.67q-7.14-5.67-8.61-12.17A53.16,53.16,0,0,1,1280.8,850q0-5,.42-13a124.53,124.53,0,0,1,5.25-26q4-12.59,4.41-14.27,9.64-34.84,27.5-76t30.22-61.92Q1361,638,1368.12,630.43q14.27-15.12,28.13-15.12,9.66,0,13,13.86a39.28,39.28,0,0,1,.42,6.29q0,14.28-10.07,36.11-36.1,80.19-86.06,125.94Q1313.13,799.19,1309.77,809.05Zm49.54-80q21-33.15,30.85-56.46t9.87-31.7c0-5.59-1-8.39-2.94-8.39q-4.2,0-15.95,16.58t-31.7,59.61q-19.93,43-32.53,75.36Q1338.32,762.25,1359.31,729.08Z"/><path class="cls-2" d="M1491.12,732l-2.1,7.56q-21.4,66.75-39.46,97.39-26.44,44.5-55.41,44.5-23.52,0-23.51-22.67,0-17.2,12.59-53.31-4.2,6.72-6.5,4.4a4.92,4.92,0,0,1-1-5.66l7.55-14.28a74.15,74.15,0,0,0,8-32.74q0-16.38-6.72-19.31,25.2-4.2,29.39-4t5.25,3.57a25.61,25.61,0,0,1,1,7.55q0,25.62-13.23,60.46t-13.22,46.8q0,12,3.78,13.86a16.73,16.73,0,0,0,7.55,1.89q10.92,0,24.77-17.64t27.71-52q-5.88-13.43-5.88-23.72a60.64,60.64,0,0,1,2.52-18.26q7.56-23.93,23.93-29.81a18,18,0,0,1,6.3-1.26C1488.88,725.3,1491.12,727.55,1491.12,732Z"/><path class="cls-2" d="M1507.91,813.88a83.06,83.06,0,0,0-5.87,31.91q0,11.75,5.24,18.68t14.91,6.92q38.19,0,69.26-71.78,2.94-6.72,7.14-5.88a2,2,0,0,1,1.68,2.1q0,1.68-9.45,22t-19.1,33q-21.4,29.4-52.89,29.39-16.8,0-28.55-10.91t-11.75-29.81q0-18.88,9-40.09a153.42,153.42,0,0,1,24.56-39.46q15.53-18.27,35.68-26.66a46.32,46.32,0,0,1,18.47-4.2,29,29,0,0,1,16.38,5q7.13,5.88,7.13,13,0,25.18-30.22,48.28-9.24,7.14-26,12.8T1507.91,813.88Zm70.53-67.17q0-8.38-6.72-8.39-11.76,0-35.68,29a215.66,215.66,0,0,0-25.19,39.47q7.14,0,20.78-5a79.79,79.79,0,0,0,23.72-13.44Q1578.44,768.55,1578.44,746.71Z"/><path class="cls-2" d="M1681.29,854.18q0,13.44,10.91,13.44,19.72,0,52.48-65.91c.84-1.68,1.6-3.36,2.3-5a5.71,5.71,0,0,1,3.36-3.36q2.31-.84,3.15,1.05t-.84,6.09q-33.59,78.07-68,78.08-11.33,0-18.05-10.07t-6.71-19.94a75.29,75.29,0,0,1,2.09-18.27q-24.35,40.31-42,45.76a25.32,25.32,0,0,1-9.86,2.1,35.76,35.76,0,0,1-9.45-1.26q-20.57-5.45-20.57-32.74,0-18.48,9.45-40.93a169.41,169.41,0,0,1,26.66-43q17.21-20.56,41.56-27.71a65.8,65.8,0,0,1,20.78-2.94q12,0,26.65,7.56,28.55-53.73,48.7-99.5,5.88-13.84,11.55-17.84c3.77-2.65,7.27-4,10.49-4h5.88c.69,0,3.36.36,8,1a43,43,0,0,0,10.71.63q-9.66,8.82-51.22,85.64-52.89,98.24-63.81,131Q1681.28,846.21,1681.29,854.18Zm20.57-110.41q-5.47-5.44-15.33-5.45T1659,753q-28.14,23.52-46.6,57.93-12.18,22.68-12.18,37.37a26.78,26.78,0,0,0,2.73,12.17,9,9,0,0,0,8.61,5.46q14.26,0,35.26-29.39T1701.86,743.77Z"/><path class="cls-2" d="M1765.24,813.88a83.06,83.06,0,0,0-5.88,31.91q0,11.75,5.25,18.68t14.9,6.92q38.21,0,69.27-71.78,2.94-6.72,7.14-5.88a2,2,0,0,1,1.68,2.1q0,1.68-9.45,22t-19.1,33q-21.4,29.4-52.89,29.39-16.8,0-28.55-10.91t-11.75-29.81q0-18.88,9-40.09a153.42,153.42,0,0,1,24.56-39.46q15.52-18.27,35.68-26.66a46.32,46.32,0,0,1,18.47-4.2,29,29,0,0,1,16.38,5q7.13,5.88,7.13,13,0,25.18-30.22,48.28-9.24,7.14-26,12.8T1765.24,813.88Zm70.53-67.17q0-8.38-6.72-8.39-11.76,0-35.68,29a216.19,216.19,0,0,0-25.19,39.47q7.14,0,20.78-5a79.79,79.79,0,0,0,23.72-13.44Q1835.77,768.55,1835.77,746.71Z"/><g id="Plstik"><path class="cls-3" d="M676.35,363.68q22.32,9.92,34.41,28.52t12.09,43.4q0,24.79-12.09,43.4t-34.41,28.52Q654,517.43,624,517.44H592.65v53.32H519.49v-217H624Q654,353.76,676.35,363.68Zm-34.72,90.67q7.44-6.66,7.44-18.75t-7.44-18.76q-7.44-6.66-22.32-6.66H592.65V461h26.66Q634.19,461,641.63,454.35Z"/><path class="cls-3" d="M746.72,353.76h73.16V514h98v56.73H746.72Z"/><path class="cls-3" d="M1152.34,569.67q-25.58-6-42-16.27l23.56-53.32a150.25,150.25,0,0,0,34.72,14.41,135.63,135.63,0,0,0,36.89,5.43q15.2,0,21.71-2.95t6.5-8.83q0-6.83-8.52-10.23t-28.06-7.44q-25.11-5.28-41.84-11.32a71.28,71.28,0,0,1-29.15-19.84q-12.39-13.79-12.39-37.35a64.39,64.39,0,0,1,11.46-37.2q11.47-16.74,34.26-26.35t55.33-9.61a201.2,201.2,0,0,1,43.87,4.8,137.59,137.59,0,0,1,38,14.11l-22,53q-31.92-16.12-60.45-16.12-28.2,0-28.21,13.64,0,6.51,8.37,9.76t27.59,7q24.81,4.65,41.86,10.69a72.78,72.78,0,0,1,29.6,19.69q12.55,13.63,12.55,37.2a63.59,63.59,0,0,1-11.47,37Q1283,556.19,1260.22,566t-55.34,9.77A227.61,227.61,0,0,1,1152.34,569.67Z"/><path class="cls-3" d="M1371.67,410.49h-63.55V353.76h200.26v56.73h-63.55V570.76h-73.16Z"/><path class="cls-3" d="M1527.28,353.76h73.16v217h-73.16Z"/><path class="cls-3" d="M1724.13,498.84l-16.43,18.29v53.63h-71.92v-217h71.92V432.5l71.3-78.74h79.67l-86.8,95.48L1863,570.76h-84.63Z"/></g><g id="Bogstav_smelt" data-name="Bogstav smelt"><rect class="cls-3" x="885" y="545" width="33" height="101" rx="16.5"/><path class="cls-3" d="M885,524v72.5c0-9.11-5.82-16.5-13-16.5s-13,7.39-13,16.5V524Z"/><rect class="cls-3" x="826" y="533" width="33" height="89" rx="16.5"/></g><g id="Figur"><rect id="Hals" class="cls-4" x="234.02" y="547.51" width="23.38" height="55.61"/><g id="Bagerste_arm" data-name="Bagerste arm"><path class="cls-4" d="M369.74,658.45h0c-3.14,6.6-8.63,10.52-12.26,8.78l-68.63-33,5.68-11.93Z"/><path class="cls-4" d="M408.54,624.73l3.47,5.82c.82,1.38.7,3-.28,3.57l-51.64,31.06-6.77-11.34L404.59,623C405.77,622.29,407.54,623.07,408.54,624.73Z"/><rect class="cls-4" x="411.53" y="599.9" width="8.87" height="21.76" rx="3.23" transform="translate(685.12 -77.43) rotate(55.62)"/><rect class="cls-4" x="417.32" y="608.36" width="8.87" height="21.76" rx="3.23" transform="translate(694.63 -78.52) rotate(55.62)"/><rect class="cls-4" x="399.15" y="617.42" width="29.64" height="14.3" rx="4.63" transform="translate(695.63 -69.78) rotate(55.62)"/><rect class="cls-4" x="423.11" y="616.83" width="8.87" height="21.76" rx="3.23" transform="translate(704.14 -79.62) rotate(55.62)"/></g><g id="Højre_ben" data-name="Højre ben"><path class="cls-4" d="M266,882.18h24.51a0,0,0,0,1,0,0v12a5.86,5.86,0,0,1-5.86,5.86H271.84a5.86,5.86,0,0,1-5.86-5.86v-12A0,0,0,0,1,266,882.18Z"/><path class="cls-5" d="M293.4,886.29H261.87l8.25-53.69a14.7,14.7,0,0,0-.24-2.29L246.79,767h60.32l-5.4,64.87c0,.62-.07,1.25-.06,1.88Z"/></g><g id="Venstre_ben" data-name="Venstre ben"><path class="cls-4" d="M224.67,882.18V892a8.05,8.05,0,0,1-8,8H208.2a8.06,8.06,0,0,1-8-8v-9.79Z"/><path class="cls-5" d="M241.3,767,241,770.5l-5.11,61.38a16.8,16.8,0,0,0-.05,1.88l0,.18-8.23,52.35H196.06l8.25-53.69a12.54,12.54,0,0,0-.25-2.29l-22.32-61.18L181,767Z"/></g><g id="Trøje"><path class="cls-6" d="M323.48,596.48V749.2A21.36,21.36,0,0,1,306.87,770a20.68,20.68,0,0,1-4.69.53H189.24a21,21,0,0,1-7.5-1.37,21.35,21.35,0,0,1-13.8-19.93V596.48a21.36,21.36,0,0,1,21.3-21.3h34.42a16.72,16.72,0,0,1,7.45,1.75l2.91,1.46,1.8.89,4.11,2.05,3.07,1.54a6.45,6.45,0,0,0,6.05-.15L257.4,578l1.63-.92a14.58,14.58,0,0,1,7.24-1.9h35.91A21.36,21.36,0,0,1,323.48,596.48Z"/><path class="cls-7" d="M296.51,678h-7.82s-9.83-2.61-2.41-12.43h10.23Z"/><path class="cls-7" d="M282.47,673s-.2-4.62,1.4-6.42l7.42-12.24,3,1.81-4.21-10.63-11.83,1,2.2,1.41-4.41,8.62a7.2,7.2,0,0,0,0,5.82Z"/><path class="cls-7" d="M286.61,636.51l3.91-6.77s7.18-7.21,12,4.13l-5.12,8.86Z"/><path class="cls-7" d="M298,626.86s4.09,2.13,4.85,4.42l6.89,12.55-3.07,1.7L318,647.2,323,636.45l-2.32,1.21-5.26-8.14a7.18,7.18,0,0,0-5-2.91Z"/><path class="cls-7" d="M323.48,651.42v12.81c-.46,0-1-.06-1.5-.12l-5.12-8.86Z"/><path class="cls-7" d="M323.48,665.67v9.87a7.23,7.23,0,0,1-4.2,1.93l-9.67.5-.12,2.6-6.78-9.75,7.09-9-.05,3.51Z"/><path class="cls-8" d="M197,606.34s-6.45,20.15,26.59,45.95l8.87-18.54s-24.18-6.45-25.79-27.41Z"/></g><g id="Fiskestang"><path class="cls-9" d="M488.77,451.41s15.26,24.58,22,14S488.77,451.41,488.77,451.41Z"/><path class="cls-10" d="M436.33,576.52s158.31-428.65,314-485.17,286.43,0,286.43,0"/><rect x="422.63" y="574.91" width="15.31" height="62.87" transform="translate(141.68 -78.86) rotate(12.52)"/><path class="cls-9" d="M550.83,328.09s15.26,24.58,22,14S550.83,328.09,550.83,328.09Z"/><path class="cls-9" d="M624.18,207.19s15.26,24.58,22,14S624.18,207.19,624.18,207.19Z"/><path class="cls-9" d="M716.62,109.63s6.19,28.25,16,20.56S716.62,109.63,716.62,109.63Z"/><path class="cls-9" d="M867,67.51s-8.54,27.64,3.83,25.81S867,67.51,867,67.51Z"/><path class="cls-9" d="M1033.94,91.32s-19.6,21.27-7.65,24.94S1033.94,91.32,1033.94,91.32Z"/><rect x="437.82" y="602.91" width="33.85" height="5.64" transform="translate(144.69 -85.33) rotate(12.73)"/><circle cx="489.33" cy="613.61" r="20.15"/><circle class="cls-11" cx="485.85" cy="627.15" r="2.82"/><circle class="cls-11" cx="479.13" cy="623.98" r="2.82"/><circle class="cls-11" cx="475.66" cy="617.41" r="2.82"/><circle class="cls-11" cx="475.68" cy="609.98" r="2.82"/><circle class="cls-11" cx="478.97" cy="603.4" r="2.68"/><circle class="cls-11" cx="485.54" cy="599.93" r="2.68"/><circle class="cls-11" cx="492.97" cy="599.96" r="2.68"/><circle class="cls-11" cx="499.69" cy="603.13" r="2.68"/><circle class="cls-11" cx="503.17" cy="609.7" r="2.71"/><circle class="cls-11" cx="503.14" cy="617.13" r="2.67"/><circle class="cls-11" cx="499.97" cy="623.85" r="2.68"/><circle class="cls-11" cx="493.4" cy="627.32" r="2.68"/><path d="M1036,289.81c2-4.51.41-6.13.41-6.13a2.57,2.57,0,0,0-3.5,0c-1.68,1.82.54,7.48.54,7.48V307.5a19.5,19.5,0,0,1-.34,3.36,7.76,7.76,0,0,1-8.68,5.25c-4.37-1.27-2.89-7.4-2.89-7.4a1.79,1.79,0,0,0,2.55.81c-2.75-4-1.55-10.5-1.55-10.5-5.51,9.63-3.49,15.41-3.49,15.41,1.75,6,9,4.31,9,4.31,7.86-2.69,7.6-9.22,7.6-9.22v-18.1Zm-1.41-.68s-2.28-4.7,0-4.7S1034.6,289.13,1034.6,289.13Z"/><path class="cls-12" d="M1035.79,287a1.58,1.58,0,0,1-1.61-1.61c0-60-5.68-172.92-5.68-172.92C931,158.44,869.94,89,869.94,89c-31.43,85.43-139.85,38.39-139.85,38.39,9.67,103.17-86.38,91.86-86.38,91.86,31.44,83-74,120.65-74,120.65,39.49,87-61.7,123.4-61.7,123.4,33,100.75-5.16,164.39-5.16,164.39"/><path class="cls-9" d="M488.77,451.41s15.26,24.58,22,14c.15-.23.28-.46.4-.69"/><path class="cls-9" d="M550.83,328.09s15.26,24.58,22,14c.12-.18.22-.36.32-.54"/><path class="cls-9" d="M624.18,207.19s15.26,24.58,22,14l.2-.33"/><path class="cls-9" d="M716.62,109.63s5.88,26.85,15.31,21.08a6.58,6.58,0,0,0,.73-.52"/><path class="cls-9" d="M867,67.51s-8.54,27.64,3.83,25.81l.38-.07"/><path class="cls-9" d="M1033.94,91.32s-19.6,21.27-7.65,24.94a7.78,7.78,0,0,0,.76.2"/></g><g id="Hoved"><path class="cls-4" d="M373.44,520.55,166,544.27A24.23,24.23,0,0,1,139.28,523l-28.4-248.24A24.23,24.23,0,0,1,132.15,248l183.38-21a24.25,24.25,0,0,1,26.77,21.27l1.39,33,.42,9.75.31,7.28h0l.06,1.37.12,2.92s0,0,0,0l.09,2,.51,12.18.23,5.35,3.29,78.19,1.1,25.7.1,2.36C349.8,448.62,414.63,511.78,373.44,520.55Z"/><circle class="cls-11" cx="261.36" cy="320.82" r="20.15"/><circle cx="270.17" cy="319.81" r="4.84"/><path class="cls-13" d="M278.87,310.71c.88,1.35-37.05,5.81-36.84,4.21.43-3.29,6-12.85,17-14.12S275.91,306.18,278.87,310.71Z"/><path class="cls-11" d="M345,303.08l.06,1.36.72,17.09a17.74,17.74,0,1,1-27.57-21.6c.17-.17.34-.31.51-.46.38-.32.78-.63,1.19-.93l.45-.31.57-.36a3.66,3.66,0,0,1,.42-.26l.5-.28c.21-.11.42-.23.65-.33l.24-.11.51-.24.13,0c.21-.09.42-.18.63-.25s.48-.18.72-.26l.81-.24a16.46,16.46,0,0,1,2.71-.52l1-.09c.31,0,.62,0,.92,0h.09a17.75,17.75,0,0,1,12.3,5l.33.34a16.41,16.41,0,0,1,1.95,2.36h0A1.27,1.27,0,0,1,345,303.08Z"/><circle cx="337.98" cy="312.06" r="4.26"/><path class="cls-13" d="M345,303.06v0l.06,1.36c-4.39,1.43-30.77,4.45-31.78,3.39a.07.07,0,0,1,0-.08c.21-1.62,1.84-5,5-7.82.17-.17.34-.31.51-.46.38-.32.78-.63,1.19-.93l.45-.31.57-.36a3.66,3.66,0,0,1,.42-.26l.5-.28c.21-.11.42-.23.65-.33l.24-.11.51-.24.13,0c.21-.09.42-.18.63-.25s.48-.18.72-.26l.81-.24a16.46,16.46,0,0,1,2.71-.52l1-.09c.31,0,.62,0,.92,0h.09a16.31,16.31,0,0,1,12.3,5l.33.34a22.09,22.09,0,0,1,1.95,2.36h0Z"/><path class="cls-11" d="M348.73,400.25,349.82,426a65.86,65.86,0,0,1-7.39,3.88A87.9,87.9,0,0,1,294,436c-18.81-3.13-32.67-12.85-34.15-25.76l54.11-5.66Z"/><path class="cls-14" d="M342.43,429.84A87.9,87.9,0,0,1,294,436c2.19-5.19,11.69-9.92,23.48-11.26C328.76,423.44,338.7,425.65,342.43,429.84Z"/><path class="cls-15" d="M300.88,347.13s.85,14.5,11,18.21,13,14.73-10.12,10.89"/><circle class="cls-16" cx="380.11" cy="490.18" r="35.87"/><path class="cls-16" d="M152.29,347.83a25.34,25.34,0,0,1-19.73,13.68,25.1,25.1,0,0,1-11.93-1.5,25.37,25.37,0,0,1-5.11-44.79c.55-.38,1.12-.74,1.71-1.07a25.39,25.39,0,0,1,35.06,33.68Z"/><path class="cls-16" d="M151.69,323.64a25.35,25.35,0,0,1-21.42,17.85A25.23,25.23,0,0,1,118.34,340a16.79,16.79,0,0,1-1.71-.72,25.32,25.32,0,0,1-14.47-20.1,25.39,25.39,0,1,1,49.53,4.48Z"/><path class="cls-16" d="M151.06,307.08a25.4,25.4,0,0,1-33.83,7.07c-.68-.41-1.35-.86-2-1.34a25.26,25.26,0,0,1-8.55-11.2,25,25,0,0,1-1.73-9.14,25.45,25.45,0,0,1,16.27-23.77,25.58,25.58,0,0,1,6.23-1.52,25,25,0,0,1,6.41.08h0a25.42,25.42,0,0,1,16.43,9.47,25.15,25.15,0,0,1,4.77,10,27.23,27.23,0,0,1,.48,2.8A25.29,25.29,0,0,1,151.06,307.08Z"/><circle class="cls-16" cx="339.32" cy="509.45" r="35.87"/><circle class="cls-16" cx="284.89" cy="522.97" r="35.87"/><path class="cls-16" d="M264.57,532.56c0,.16,0,.31,0,.46a35.79,35.79,0,0,1-5.14,15.16c-.62,1-1.28,2-2,2.89a36.26,36.26,0,0,1-6.06,6.26,35.69,35.69,0,0,1-11.41,6.17,36.4,36.4,0,0,1-4.11,1.07c-.59.11-1.2.21-1.8.3l-1.11.15a35.89,35.89,0,0,1-38-24,36.43,36.43,0,0,1-1.69-7.51,35.63,35.63,0,0,1,1.92-16.28,8.8,8.8,0,0,1,.35-.93,34.3,34.3,0,0,1,3.18-6.21c.42-.69.89-1.36,1.37-2a35.77,35.77,0,0,1,24.75-14.27,35.38,35.38,0,0,1,10.09.27l1,.18a35.41,35.41,0,0,1,4.11,1.07,33.1,33.1,0,0,1,4.18,1.67,35.89,35.89,0,0,1,10.24,7.23c.13.12.25.26.37.38a31,31,0,0,1,2.83,3.34,35.47,35.47,0,0,1,6.92,17.42c0,.29.07.58.1.88.05.59.08,1.18.11,1.77A33.54,33.54,0,0,1,264.57,532.56Z"/><path class="cls-16" d="M212.66,535.38h0a32.63,32.63,0,0,1-.18,3.58,35.88,35.88,0,0,1-69.95,7,37.1,37.1,0,0,1-1.37-6.58,36.31,36.31,0,0,1,.12-9.21,35.86,35.86,0,0,1,57.23-23.41c.51.39,1,.8,1.51,1.22a33.71,33.71,0,0,1,3.62,3.55,34.93,34.93,0,0,1,5.8,8.92,35.7,35.7,0,0,1,3.22,14.89Z"/><path class="cls-16" d="M165.81,517.65a36,36,0,0,1-14.38,23.63,35.13,35.13,0,0,1-8.9,4.72,36.26,36.26,0,0,1-8.12,1.89,35.87,35.87,0,0,1-8.14-71.27,35.85,35.85,0,0,1,18.19,2.66,36.13,36.13,0,0,1,8.16,4.87,35,35,0,0,1,3.22,2.88,35.76,35.76,0,0,1,8.76,14.56,36.45,36.45,0,0,1,1.37,6.6A35.15,35.15,0,0,1,165.81,517.65Z"/><path class="cls-16" d="M152.62,484.15a36.34,36.34,0,0,1-7.91,7.34,35.16,35.16,0,0,1-8.54,4.26,35.87,35.87,0,1,1-15.67-69.58,35,35,0,0,1,6-.18h0q.89,0,1.74.12A35.81,35.81,0,0,1,159.78,455c.18.89.31,1.81.42,2.73A35.7,35.7,0,0,1,152.62,484.15Z"/><path class="cls-16" d="M172.12,421.86v0a35.87,35.87,0,0,1-29.55,30.92c-.64.12-1.3.2-2,.28A35.92,35.92,0,0,1,104,432.46a35.13,35.13,0,0,1-2.53-7.66,32,32,0,0,1-.53-3.28,35.58,35.58,0,0,1,4.85-22.46h0a35.75,35.75,0,0,1,10.18-11,33.54,33.54,0,0,1,7.47-4,34.9,34.9,0,0,1,9.06-2.27,35.28,35.28,0,0,1,16.52,2,33.47,33.47,0,0,1,6,2.85,35.89,35.89,0,0,1,17.21,26.69A35.51,35.51,0,0,1,172.12,421.86Z"/><path class="cls-16" d="M157,368.73v0a27.49,27.49,0,0,1-4.91,11.5,26.21,26.21,0,0,1-3.09,3.57,27.66,27.66,0,0,1-16.22,7.69,28,28,0,0,1-16.83-3.42,28.06,28.06,0,0,1-7.67-6.39,27.76,27.76,0,0,1-1.26-34,28.08,28.08,0,0,1,9.64-8.43c.51-.26,1-.51,1.55-.74a27.25,27.25,0,0,1,8.25-2.27A27.83,27.83,0,0,1,157,368.73Z"/><circle class="cls-16" cx="179.92" cy="484.68" r="35.87"/><circle class="cls-16" cx="151.77" cy="451.4" r="35.87"/><circle class="cls-16" cx="234.37" cy="506.85" r="35.87"/><circle class="cls-16" cx="290.45" cy="507.73" r="35.87"/><circle class="cls-16" cx="343.62" cy="490.29" r="35.87"/><path class="cls-16" d="M156,394.65a24.61,24.61,0,0,1-1.33,7.28A25.41,25.41,0,0,1,127.56,419l-.18,0a24.7,24.7,0,0,1-5.16-1.21,25.43,25.43,0,0,1-16.48-18.7h0c-.16-.78-.28-1.56-.38-2.37A25.38,25.38,0,0,1,121.77,370a24.72,24.72,0,0,1,5.92-1.41A25.18,25.18,0,0,1,136,369a25.47,25.47,0,0,1,16,11.27,23.68,23.68,0,0,1,1.37,2.46,25.75,25.75,0,0,1,1.52,4,24.26,24.26,0,0,1,.81,3.95l0,.28A24.92,24.92,0,0,1,156,394.65Z"/><path class="cls-16" d="M142.57,452.8a25.33,25.33,0,0,1-10,11.7,25,25,0,0,1-10.54,3.68c-.65.07-1.29.12-1.92.14a25.38,25.38,0,0,1-26.19-22.48,19.9,19.9,0,0,1-.15-2.42,25.36,25.36,0,0,1,22.5-25.68,24.49,24.49,0,0,1,5.93,0,25.28,25.28,0,0,1,5.16,1.17l.18.07a23.9,23.9,0,0,1,4.77,2.25,25.39,25.39,0,0,1,10.24,31.55Z"/><circle class="cls-16" cx="259.29" cy="533.2" r="25.39"/><circle class="cls-16" cx="268.81" cy="502.91" r="25.39"/><circle class="cls-16" cx="318" cy="493.23" r="25.39"/><circle class="cls-16" cx="209.5" cy="495.09" r="25.39"/><rect class="cls-16" x="225.56" y="287.57" width="46.75" height="9.67" rx="3.53" transform="translate(-66.09 72.8) rotate(-14.71)"/><path class="cls-16" d="M344.11,291l-29.45-2.71a4.84,4.84,0,0,1,.45-9.65,3.1,3.1,0,0,1,.43,0l28.15,2.59Z"/><line class="cls-17" x1="251.75" y1="445.95" x2="252.96" y2="449.58"/><line class="cls-17" x1="257.8" y1="438.29" x2="256.99" y2="443.13"/><line class="cls-17" x1="259.01" y1="449.17" x2="257.8" y2="452.8"/><line class="cls-17" x1="242.08" y1="446.75" x2="240.07" y2="449.58"/><line class="cls-17" x1="268.28" y1="446.35" x2="266.67" y2="449.58"/><line class="cls-17" x1="236.84" y1="438.29" x2="234.42" y2="441.52"/><line class="cls-17" x1="246.11" y1="437.08" x2="244.1" y2="439.9"/><line class="cls-17" x1="250.54" y1="438.29" x2="249.74" y2="442.32"/><line class="cls-17" x1="275.53" y1="443.93" x2="274.73" y2="447.96"/><line class="cls-17" x1="266.67" y1="456.02" x2="264.25" y2="458.44"/><line class="cls-17" x1="264.25" y1="438.29" x2="263.44" y2="442.32"/><line class="cls-17" x1="274.73" y1="438.29" x2="272.31" y2="441.52"/><line class="cls-17" x1="275.53" y1="453.61" x2="273.11" y2="456.83"/><line class="cls-17" x1="284.4" y1="450.38" x2="283.59" y2="453.61"/><line class="cls-17" x1="281.98" y1="441.52" x2="281.17" y2="445.55"/><line class="cls-17" x1="280.37" y1="460.86" x2="277.95" y2="463.28"/><line class="cls-17" x1="269.49" y1="462.07" x2="269.08" y2="464.89"/><line class="cls-17" x1="258.2" y1="460.46" x2="255.38" y2="464.08"/><line class="cls-17" x1="250.95" y1="458.04" x2="250.54" y2="462.47"/><line class="cls-17" x1="243.69" y1="457.23" x2="243.29" y2="461.67"/><line class="cls-17" x1="244.1" y1="430.23" x2="242.48" y2="433.46"/><line class="cls-17" x1="254.98" y1="426.6" x2="252.96" y2="429.43"/><line class="cls-17" x1="262.64" y1="431.04" x2="261.02" y2="433.46"/><line class="cls-17" x1="271.5" y1="470.53" x2="270.7" y2="473.76"/><line class="cls-17" x1="261.02" y1="469.73" x2="260.22" y2="473.76"/><line class="cls-17" x1="250.95" y1="467.71" x2="248.93" y2="471.34"/><line class="cls-17" x1="237.25" y1="457.23" x2="234.42" y2="460.05"/><line class="cls-17" x1="234.83" y1="449.17" x2="232.81" y2="453.61"/><line class="cls-17" x1="229.19" y1="462.07" x2="228.78" y2="466.5"/><line class="cls-17" x1="238.45" y1="467.31" x2="237.65" y2="471.34"/><line class="cls-17" x1="200.17" y1="440.31" x2="201.38" y2="443.93"/><line class="cls-17" x1="208.23" y1="441.92" x2="207.02" y2="445.55"/><line class="cls-17" x1="191.3" y1="439.5" x2="189.29" y2="442.32"/><line class="cls-17" x1="217.5" y1="439.1" x2="215.89" y2="442.32"/><line class="cls-17" x1="186.06" y1="431.04" x2="183.65" y2="434.26"/><line class="cls-17" x1="195.33" y1="429.83" x2="193.32" y2="432.65"/><line class="cls-17" x1="215.89" y1="448.77" x2="213.47" y2="451.19"/><line class="cls-17" x1="213.47" y1="431.04" x2="212.66" y2="435.07"/><line class="cls-17" x1="224.75" y1="446.35" x2="222.33" y2="449.58"/><line class="cls-17" x1="231.2" y1="434.26" x2="230.39" y2="438.29"/><line class="cls-17" x1="229.59" y1="453.61" x2="227.17" y2="456.02"/><line class="cls-17" x1="218.71" y1="454.82" x2="218.3" y2="457.64"/><line class="cls-17" x1="207.42" y1="453.2" x2="204.6" y2="456.83"/><line class="cls-17" x1="200.17" y1="450.78" x2="199.77" y2="455.22"/><line class="cls-17" x1="192.92" y1="449.98" x2="192.51" y2="454.41"/><line class="cls-17" x1="193.32" y1="422.98" x2="191.71" y2="426.2"/><line class="cls-17" x1="204.2" y1="419.35" x2="202.18" y2="422.17"/><line class="cls-17" x1="211.86" y1="423.78" x2="210.24" y2="426.2"/><line class="cls-17" x1="220.72" y1="463.28" x2="219.92" y2="466.5"/><line class="cls-17" x1="210.24" y1="462.47" x2="209.44" y2="466.5"/><line class="cls-17" x1="200.17" y1="460.46" x2="198.15" y2="464.08"/><line class="cls-17" x1="186.47" y1="449.98" x2="183.65" y2="452.8"/><line class="cls-17" x1="184.05" y1="441.92" x2="182.03" y2="446.35"/><line class="cls-17" x1="178.41" y1="454.82" x2="178" y2="459.25"/><line class="cls-17" x1="187.68" y1="460.05" x2="186.87" y2="464.08"/><line class="cls-17" x1="224.35" y1="416.13" x2="225.56" y2="419.75"/><line class="cls-17" x1="230.39" y1="408.47" x2="229.59" y2="413.31"/><line class="cls-17" x1="231.6" y1="419.35" x2="230.39" y2="422.98"/><line class="cls-17" x1="214.68" y1="416.93" x2="212.66" y2="419.75"/><line class="cls-17" x1="240.87" y1="416.53" x2="239.26" y2="419.75"/><line class="cls-17" x1="209.44" y1="408.47" x2="207.02" y2="411.69"/><line class="cls-17" x1="218.71" y1="407.26" x2="216.69" y2="410.08"/><line class="cls-17" x1="223.14" y1="408.47" x2="222.33" y2="412.5"/><line class="cls-17" x1="248.13" y1="414.11" x2="247.32" y2="418.14"/><line class="cls-17" x1="239.26" y1="426.2" x2="236.84" y2="428.62"/><line class="cls-17" x1="236.84" y1="408.47" x2="236.04" y2="412.5"/><line class="cls-17" x1="248.13" y1="423.78" x2="245.71" y2="427.01"/><line class="cls-17" x1="256.99" y1="420.56" x2="256.19" y2="423.78"/><line class="cls-17" x1="254.57" y1="411.69" x2="253.77" y2="415.72"/><line class="cls-17" x1="252.96" y1="431.04" x2="250.54" y2="433.46"/><line class="cls-17" x1="230.8" y1="430.63" x2="227.98" y2="434.26"/><line class="cls-17" x1="223.54" y1="428.22" x2="223.14" y2="432.65"/><line class="cls-17" x1="216.29" y1="427.41" x2="215.89" y2="431.84"/><line class="cls-17" x1="223.54" y1="437.89" x2="221.53" y2="441.52"/><line class="cls-17" x1="207.42" y1="426.6" x2="205.41" y2="431.04"/><line class="cls-17" x1="201.78" y1="432.25" x2="201.38" y2="436.68"/><line class="cls-17" x1="211.05" y1="437.49" x2="210.24" y2="441.52"/><line class="cls-17" x1="304.14" y1="459.65" x2="305.35" y2="463.28"/><line class="cls-17" x1="310.19" y1="451.99" x2="309.38" y2="456.83"/><line class="cls-17" x1="311.4" y1="462.88" x2="310.19" y2="466.5"/><line class="cls-17" x1="294.47" y1="460.46" x2="292.46" y2="463.28"/><line class="cls-17" x1="289.23" y1="451.99" x2="286.82" y2="455.22"/><line class="cls-17" x1="298.5" y1="450.78" x2="296.49" y2="453.61"/><line class="cls-17" x1="302.94" y1="451.99" x2="302.13" y2="456.02"/><line class="cls-17" x1="327.92" y1="457.64" x2="327.12" y2="461.67"/><line class="cls-17" x1="319.06" y1="469.73" x2="316.64" y2="472.14"/><line class="cls-17" x1="316.64" y1="451.99" x2="315.83" y2="456.02"/><line class="cls-17" x1="327.12" y1="451.99" x2="324.7" y2="455.22"/><line class="cls-17" x1="327.92" y1="467.31" x2="325.5" y2="470.53"/><line class="cls-17" x1="336.79" y1="464.08" x2="335.98" y2="467.31"/><line class="cls-17" x1="334.37" y1="455.22" x2="333.56" y2="459.25"/><line class="cls-17" x1="332.76" y1="474.56" x2="330.34" y2="476.98"/><line class="cls-17" x1="321.88" y1="475.77" x2="321.47" y2="478.59"/><line class="cls-17" x1="310.59" y1="474.16" x2="307.77" y2="477.79"/><line class="cls-17" x1="303.34" y1="471.74" x2="302.94" y2="476.17"/><line class="cls-17" x1="296.08" y1="470.94" x2="295.68" y2="475.37"/><line class="cls-17" x1="296.49" y1="443.93" x2="294.88" y2="447.16"/><line class="cls-17" x1="307.37" y1="440.31" x2="305.35" y2="443.13"/><line class="cls-17" x1="315.03" y1="444.74" x2="313.41" y2="447.16"/><line class="cls-17" x1="323.89" y1="484.23" x2="323.09" y2="487.46"/><line class="cls-17" x1="313.41" y1="483.43" x2="312.61" y2="487.46"/><line class="cls-17" x1="303.34" y1="481.41" x2="301.32" y2="485.04"/><line class="cls-17" x1="289.64" y1="470.94" x2="286.82" y2="473.76"/><line class="cls-17" x1="287.22" y1="462.88" x2="285.2" y2="467.31"/><line class="cls-17" x1="281.58" y1="475.77" x2="281.17" y2="480.2"/><line class="cls-17" x1="290.85" y1="481.01" x2="290.04" y2="485.04"/><line class="cls-17" x1="339.61" y1="454.01" x2="340.82" y2="457.64"/><line class="cls-17" x1="345.65" y1="446.35" x2="344.85" y2="451.19"/><line class="cls-17" x1="346.86" y1="457.23" x2="345.65" y2="460.86"/><line class="cls-17" x1="356.13" y1="454.41" x2="354.52" y2="457.64"/><line class="cls-17" x1="324.7" y1="446.35" x2="322.28" y2="449.58"/><line class="cls-17" x1="333.97" y1="445.14" x2="331.95" y2="447.96"/><line class="cls-17" x1="338.4" y1="446.35" x2="337.59" y2="450.38"/><line class="cls-17" x1="354.52" y1="464.08" x2="352.1" y2="466.5"/><line class="cls-17" x1="352.1" y1="446.35" x2="351.3" y2="450.38"/><line class="cls-17" x1="363.39" y1="461.67" x2="360.97" y2="464.89"/><line class="cls-17" x1="372.25" y1="458.44" x2="371.45" y2="461.67"/><line class="cls-17" x1="368.22" y1="468.92" x2="365.8" y2="471.34"/><line class="cls-17" x1="357.34" y1="470.13" x2="356.94" y2="472.95"/><line class="cls-17" x1="346.06" y1="468.52" x2="343.24" y2="472.14"/><line class="cls-17" x1="338.8" y1="466.1" x2="338.4" y2="470.53"/><line class="cls-17" x1="331.55" y1="465.29" x2="331.15" y2="469.73"/><line class="cls-17" x1="331.95" y1="438.29" x2="330.34" y2="441.52"/><line class="cls-17" x1="342.83" y1="434.66" x2="340.82" y2="437.49"/><line class="cls-17" x1="350.49" y1="439.1" x2="348.88" y2="441.52"/><line class="cls-17" x1="359.36" y1="478.59" x2="358.55" y2="481.82"/><line class="cls-17" x1="348.88" y1="477.79" x2="348.07" y2="481.82"/><line class="cls-17" x1="338.8" y1="475.77" x2="336.79" y2="479.4"/><line class="cls-17" x1="325.1" y1="465.29" x2="322.28" y2="468.11"/><line class="cls-17" x1="322.68" y1="457.23" x2="320.67" y2="461.67"/><line class="cls-17" x1="317.04" y1="470.13" x2="316.64" y2="474.56"/><line class="cls-17" x1="326.31" y1="475.37" x2="325.5" y2="479.4"/><line class="cls-17" x1="175.63" y1="394.78" x2="175.51" y2="398.6"/><line class="cls-17" x1="183.96" y1="389.7" x2="181.52" y2="393.95"/><line class="cls-17" x1="181.32" y1="400.32" x2="178.92" y2="403.3"/><line class="cls-17" x1="166.28" y1="392.18" x2="163.41" y2="394.12"/><line class="cls-17" x1="190.99" y1="400.89" x2="188.36" y2="403.36"/><line class="cls-17" x1="164.31" y1="382.42" x2="160.92" y2="384.61"/><line class="cls-17" x1="173.42" y1="384.51" x2="170.55" y2="386.45"/><line class="cls-17" x1="177.16" y1="387.18" x2="175" y2="390.68"/><line class="cls-17" x1="198.63" y1="401.15" x2="196.47" y2="404.64"/><line class="cls-17" x1="186.12" y1="409.41" x2="183.01" y2="410.83"/><line class="cls-17" x1="190.01" y1="391.94" x2="187.85" y2="395.44"/><line class="cls-17" x1="199.83" y1="395.57" x2="196.45" y2="397.76"/><line class="cls-17" x1="195.27" y1="410.22" x2="191.88" y2="412.4"/><line class="cls-17" x1="204.71" y1="410.27" x2="202.83" y2="413.01"/><line class="cls-17" x1="205.52" y1="401.12" x2="203.36" y2="404.62"/><line class="cls-17" x1="197.29" y1="418.7" x2="194.18" y2="420.13"/><line class="cls-17" x1="186.66" y1="416.05" x2="185.31" y2="418.56"/><line class="cls-17" x1="176.64" y1="410.62" x2="172.74" y2="413.05"/><line class="cls-17" x1="170.68" y1="405.84" x2="168.76" y2="409.86"/><line class="cls-17" x1="164.16" y1="402.56" x2="162.24" y2="406.58"/><line class="cls-17" x1="173.91" y1="377.38" x2="171.28" y2="379.85"/><line class="cls-17" x1="185.62" y1="424.69" x2="183.74" y2="427.43"/><line class="cls-17" x1="176.07" y1="420.3" x2="173.91" y2="423.8"/><line class="cls-17" x1="167.32" y1="414.91" x2="164.17" y2="417.61"/><line class="cls-17" x1="158.11" y1="400.32" x2="154.48" y2="401.99"/><line class="cls-17" x1="158.64" y1="391.93" x2="155.21" y2="395.38"/><line class="cls-17" x1="148.87" y1="402.06" x2="146.95" y2="406.08"/><line class="cls-17" x1="155.74" y1="410.19" x2="153.59" y2="413.69"/><line class="cls-17" x1="136.14" y1="365.76" x2="136.01" y2="369.58"/><line class="cls-17" x1="144.46" y1="360.68" x2="142.03" y2="364.94"/><line class="cls-17" x1="141.82" y1="371.31" x2="139.43" y2="374.29"/><line class="cls-17" x1="126.79" y1="363.16" x2="123.92" y2="365.11"/><line class="cls-17" x1="151.49" y1="371.88" x2="148.86" y2="374.34"/><line class="cls-17" x1="124.81" y1="353.41" x2="121.43" y2="355.59"/><line class="cls-17" x1="133.92" y1="355.49" x2="131.06" y2="357.44"/><line class="cls-17" x1="137.66" y1="358.16" x2="135.51" y2="361.66"/><line class="cls-17" x1="159.14" y1="372.13" x2="156.98" y2="375.63"/><line class="cls-17" x1="146.62" y1="380.39" x2="143.52" y2="381.82"/><line class="cls-17" x1="150.51" y1="362.92" x2="148.36" y2="366.42"/><line class="cls-17" x1="160.34" y1="366.56" x2="156.95" y2="368.74"/><line class="cls-17" x1="155.78" y1="381.2" x2="152.39" y2="383.38"/><line class="cls-17" x1="166.02" y1="372.1" x2="163.87" y2="375.6"/><line class="cls-17" x1="157.79" y1="389.68" x2="154.69" y2="391.11"/><line class="cls-17" x1="147.17" y1="387.04" x2="145.81" y2="389.54"/><line class="cls-17" x1="137.15" y1="381.61" x2="133.24" y2="384.03"/><line class="cls-17" x1="131.18" y1="376.82" x2="129.27" y2="380.84"/><line class="cls-17" x1="124.66" y1="373.55" x2="122.74" y2="377.56"/><line class="cls-17" x1="134.41" y1="348.37" x2="131.78" y2="350.83"/><line class="cls-17" x1="145.88" y1="348.74" x2="143.01" y2="350.69"/><line class="cls-17" x1="151.52" y1="355.56" x2="149.17" y2="357.27"/><line class="cls-17" x1="146.12" y1="395.67" x2="144.25" y2="398.42"/><line class="cls-17" x1="136.57" y1="391.28" x2="134.42" y2="394.78"/><line class="cls-17" x1="127.83" y1="385.89" x2="124.68" y2="388.59"/><line class="cls-17" x1="118.61" y1="371.31" x2="114.99" y2="372.97"/><line class="cls-17" x1="119.14" y1="362.91" x2="115.72" y2="366.37"/><line class="cls-17" x1="109.38" y1="373.05" x2="107.46" y2="377.06"/><line class="cls-17" x1="116.25" y1="381.18" x2="114.1" y2="384.68"/><path class="cls-18" d="M211,370.8c-16.48-20.75-15.69-48.9-7-72.71.22-.61-.74-.87-1-.27-8.87,24.19-9.49,52.64,7.21,73.69.4.51,1.11-.21.71-.71Z"/><path class="cls-18" d="M204.55,370.11a49.56,49.56,0,0,1-13.23-33.39,120.52,120.52,0,0,1,5.94-39.25c.2-.62-.77-.88-1-.27a118.68,118.68,0,0,0-5.92,41.43,50.09,50.09,0,0,0,13.46,32.18c.44.47,1.15-.24.71-.7Z"/><path class="cls-18" d="M293.66,301.45a66.79,66.79,0,0,0,1.81,12.82c.15.63,1.12.36,1-.26a64.12,64.12,0,0,1-1.78-12.56c0-.64-1-.64-1,0Z"/><path class="cls-18" d="M298.8,302.13a16.9,16.9,0,0,0,1.72,9.28c.29.58,1.15.07.87-.5a16,16,0,0,1-1.59-8.78c.06-.64-.94-.63-1,0Z"/></g><g id="Hat"><path class="cls-19" d="M351.44,264.27l-8.43,1L239.93,277l-4.11.47-80.73,9.24-42.29,4.84-7.85.9-.15,0-1.2-10.41-1.19-10.39c0-.27,0-.55-.08-.82a41.25,41.25,0,0,1,36.28-44.71l81.45-9.33,1-.11.79-.08,14-1.6,4.11-.47,63.59-7.28A41.24,41.24,0,0,1,349,242.66c0,.28.08.55.11.83l1.19,10.38Z"/><polygon class="cls-20" points="353.44 253.5 350.25 253.87 342.57 254.74 239.93 266.48 235.82 266.94 150.32 276.74 111.61 281.16 107.33 281.66 103.61 282.08 101.2 282.36 99.92 271.14 102.33 270.87 110.82 269.89 121.22 268.7 133.86 267.26 133.89 267.26 235.82 255.59 239.93 255.13 341.27 243.54 348.94 242.66 352.17 242.29 353.44 253.5"/><path class="cls-20" d="M235.16,212.27c.18,1.49-5.73,3.41-13.31,4.37l-.79.08-1,.11c-7.5.76-13.57.22-13.73-1.26s6.12-3.54,14.09-4.45S235,210.72,235.16,212.27Z"/></g><g id="Forreste_arm" data-name="Forreste arm"><path class="cls-18" d="M347.26,704.66a9,9,0,0,0,6.14.63c2.22-.66,4.1-2.39,5.94-3.74.51-.38,0-1.24-.51-.86-3.5,2.57-6.49,5-11.07,3.1-.58-.24-1.09.62-.5.87Z"/><path class="cls-18" d="M349.9,702.53a7,7,0,0,0,4.9-1.56c.5-.41-.21-1.11-.71-.71a5.92,5.92,0,0,1-4.19,1.27c-.64,0-.64,1,0,1Z"/><path class="cls-4" d="M363.29,700.37h0a13.16,13.16,0,0,1-17.57,6.24L221.67,647.2l5.68-11.93Z"/><path class="cls-4" d="M414.8,635l4.78,4.79a2.92,2.92,0,0,1,0,4.13l-59.94,60.15-9.32-9.35L409.83,635A3.5,3.5,0,0,1,414.8,635Z"/><rect class="cls-4" x="414.57" y="610.37" width="8.87" height="21.76" rx="3.23" transform="translate(562.02 -114.32) rotate(45)"/><rect class="cls-4" x="421.82" y="617.63" width="8.87" height="21.76" rx="3.23" transform="translate(569.27 -117.32) rotate(45)"/><rect class="cls-4" x="404.77" y="628.03" width="29.64" height="14.3" rx="4.63" transform="translate(572.03 -110.65) rotate(45)"/><rect class="cls-4" x="429.07" y="624.88" width="8.87" height="21.76" rx="3.23" transform="translate(576.52 -120.33) rotate(45)"/><path class="cls-18" d="M434.72,633.61a14.92,14.92,0,0,0,1.55,1.53c.49.41,1.2-.29.71-.71a14.84,14.84,0,0,1-1.55-1.52c-.43-.49-1.13.22-.71.7Z"/><path class="cls-18" d="M427.87,625.39a15.78,15.78,0,0,0,1.54,1.52c.49.42,1.2-.29.71-.71a14.82,14.82,0,0,1-1.55-1.52c-.42-.48-1.13.23-.7.71Z"/><path class="cls-18" d="M421,617.16a13.91,13.91,0,0,0,1.55,1.52c.48.42,1.2-.28.7-.7a14.83,14.83,0,0,1-1.54-1.53c-.43-.48-1.13.23-.71.71Z"/></g><path id="Skygge" class="cls-21" d="M235.82,215v618.9l-8.23,52.35h-2.92V892a8.05,8.05,0,0,1-8,8H208.2a8.06,8.06,0,0,1-8-8v-5.68h-4.11l8.25-53.69a12.54,12.54,0,0,0-.25-2.29l-22.32-61.18a21.35,21.35,0,0,1-13.8-19.93V596.48a21.36,21.36,0,0,1,21.3-21.3h34.42a16.72,16.72,0,0,1,7.45,1.75l2.91,1.46V564.87l-1.11.15a35.71,35.71,0,0,1-27.31-8.32A35.88,35.88,0,0,1,142.53,546a36.26,36.26,0,0,1-8.12,1.89,35.87,35.87,0,0,1-32.12-58,35.81,35.81,0,0,1-8.5-46.49,25.31,25.31,0,0,1,7.63-18.62,32,32,0,0,1-.53-3.28,35.58,35.58,0,0,1,4.85-22.46h0c-.16-.78-.28-1.56-.38-2.37a25.25,25.25,0,0,1,2.89-15,27.76,27.76,0,0,1-1.26-34,25.42,25.42,0,0,1-1.62-18.76,25.55,25.55,0,0,1-3.21-9.77,25.22,25.22,0,0,1,4.52-17.55,25,25,0,0,1-1.73-9.14l-.15,0-1.2-10.41-2.39.28-1.29-11.22,2.41-.27a41.25,41.25,0,0,1,36.28-44.71l81.45-9.33c-7.5.76-13.57.22-13.73-1.26s6.12-3.54,14.09-4.45,14.56-.4,14.74,1.15-5.73,3.41-13.31,4.37Z"/></g><g id="Plastikflaske"><path class="cls-22" d="M1065.38,384.86a6.61,6.61,0,0,0-.9-3.26l-41.94-59.72a6.57,6.57,0,0,0-5.7-3.3H998.51a6.57,6.57,0,0,0-5.47,2.93l-41.28,59.72a6.6,6.6,0,0,0-1.14,3.63h0V574.51h0a4.88,4.88,0,0,0,.31,1.86l6.68,17.35c2.59,5.81,5,12.09,11.2,12.09h9.27c6.16,0,11.2-5.44,11.2-12.09V599a6.86,6.86,0,0,0,6.85,6.84h23.74a6.86,6.86,0,0,0,6.85-6.84v-5.25c0,6.65,5,12.09,11.2,12.09h9.27c6.16,0,8.61-6.28,11.2-12.09l6.68-17.35a4.88,4.88,0,0,0,.31-1.86h0V384.86Z"/><rect class="cls-23" x="950" y="406.96" width="116" height="138.1"/><rect class="cls-23" x="985.6" y="316.12" width="44.8" height="5.52"/><path class="cls-11" d="M981.09,479.46a22,22,0,0,1-8.71-1.78,15.47,15.47,0,0,1-6.65-5.22,16.26,16.26,0,0,1-3-7.52,30.31,30.31,0,0,1-.23-3.85,38.73,38.73,0,0,1,.53-5.54,29.56,29.56,0,0,1,2.3-7.46,32.14,32.14,0,0,1,4.23-7.11,29.55,29.55,0,0,1-1-7.21,24.21,24.21,0,0,1,.75-6.15,1.24,1.24,0,0,1,.38-.67.85.85,0,0,1,.38-.2c.39,0,.51.48.35,1.43a27.82,27.82,0,0,0-.23,4.08A37.82,37.82,0,0,0,971,439a27.9,27.9,0,0,1,11-8.74,25.2,25.2,0,0,1,10.14-2.1,31.44,31.44,0,0,1,3.15.17q9,1,12.13,6.88a10.91,10.91,0,0,1,1.28,5.08,13.63,13.63,0,0,1-1.22,5.42,16.33,16.33,0,0,1-8.81,8.28,21.91,21.91,0,0,1-8.8,1.75,30.78,30.78,0,0,1-4.14-.29q-10.44-1.51-14.46-9.92a26.12,26.12,0,0,0-2.89,6.65,37.54,37.54,0,0,0-1.72,7.17c-.15,1.67-.23,3.07-.23,4.2a28.41,28.41,0,0,0,.23,3.5,11.57,11.57,0,0,0,2.45,5.8,10.67,10.67,0,0,0,5.45,3.62,21.54,21.54,0,0,0,5.92,1,26.64,26.64,0,0,0,13.82-3.39,18.3,18.3,0,0,0,5.39-4.63,44.35,44.35,0,0,0,4.17-7.14c.24-.51.48-.68.73-.53s.24.53,0,1.11a50.73,50.73,0,0,1-4.11,7.11,21.18,21.18,0,0,1-5.16,4.9A24.22,24.22,0,0,1,981.09,479.46Zm-8.74-35.8q4.14,10.54,17.25,10.55,7.41,0,11.87-4.14a12.55,12.55,0,0,0,4.46-9.39,9.19,9.19,0,0,0-4.55-8.16,15.17,15.17,0,0,0-8.34-2.16,20.09,20.09,0,0,0-10,2.86A32.3,32.3,0,0,0,972.35,443.66Z"/><path class="cls-11" d="M1014.33,453.16q4.24,0,4.25,5.37a12.68,12.68,0,0,1-1.28,5.24,20.7,20.7,0,0,1-4.9,6.88,2.8,2.8,0,0,0,2.74,1.46,4,4,0,0,0,3-1.57,16.19,16.19,0,0,0,2.5-3.18q.76-1.37,1.11-2c.23-.43.53-1,.9-1.84l.68-1.46a.4.4,0,0,1,.4-.26c.39,0,.59.1.59.41a.93.93,0,0,1-.12.41l-.35.81c-.23.55-.41.94-.52,1.17s-.33.65-.62,1.25a14.32,14.32,0,0,1-.76,1.43c-.21.35-.5.82-.87,1.4a14.38,14.38,0,0,1-1,1.4q-.44.53-1.08,1.17a7.58,7.58,0,0,1-1.22,1,5.43,5.43,0,0,1-2.74.87,4.74,4.74,0,0,1-3.74-1.51,8.54,8.54,0,0,1-4.95,2q-4.26,0-4.26-5.37a12.68,12.68,0,0,1,1.28-5.24,19.57,19.57,0,0,1,4.93-6.94Q1011.47,453.16,1014.33,453.16ZM1015,455c-1.05,0-2.3.7-3.73,2.1a19.11,19.11,0,0,0-3.85,5.71,16.78,16.78,0,0,0-2,6.88c0,1.79.68,2.68,2,2.68a5.22,5.22,0,0,0,3.26-1.57,4.93,4.93,0,0,1-.93-2.86c.08-1.67.76-2.5,2-2.5a1.63,1.63,0,0,1,1.25.52,1.5,1.5,0,0,1,.5,1,3.67,3.67,0,0,1-.12.91,34,34,0,0,0,2.28-4.14,13.23,13.23,0,0,0,1.45-5.83C1017.12,455.92,1016.41,455,1015,455Z"/><path class="cls-11" d="M1025.93,463.92c-.31.91-.58,1.79-.79,2.62a10.28,10.28,0,0,0-.32,2.51,4.79,4.79,0,0,0,.58,2.33,2,2,0,0,0,1.87,1.08q2.1,0,4.08-2.83a59.64,59.64,0,0,0,4.2-7.2c.31-.54.6-.76.87-.64a.45.45,0,0,1,.12.61l-.73,1.64c-.37.83-.64,1.42-.81,1.74l-.94,1.75a11.89,11.89,0,0,1-1.16,1.87c-.33.41-.78.93-1.35,1.57a7,7,0,0,1-1.6,1.43,7.26,7.26,0,0,1-3.85,1.29,4.44,4.44,0,0,1-2.8-.79,3.12,3.12,0,0,1-1.19-1.69,7.2,7.2,0,0,1-.2-1.61c0-.46,0-1.06.05-1.8a17.47,17.47,0,0,1,.73-3.62c.37-1.16.58-1.83.61-2a82.51,82.51,0,0,1,3.82-10.55,80.48,80.48,0,0,1,4.2-8.6,25,25,0,0,1,2.71-3.94,5.57,5.57,0,0,1,3.91-2.1c.89,0,1.5.64,1.81,1.92a5.44,5.44,0,0,1,.06.88,12.66,12.66,0,0,1-1.4,5q-5,11.15-12,17.5C1026.41,462.47,1026.24,463,1025.93,463.92Zm6.88-11.11a56.25,56.25,0,0,0,4.28-7.84,14.21,14.21,0,0,0,1.37-4.4c0-.78-.13-1.17-.4-1.17s-1.13.77-2.22,2.3a58.37,58.37,0,0,0-4.4,8.28q-2.78,6-4.52,10.47A46.6,46.6,0,0,0,1032.81,452.81Z"/><path class="cls-11" d="M1050.36,462.52a24.37,24.37,0,0,0-2.3,5.54,14.79,14.79,0,0,0-.38,3q0,1.14.87,1.14c.74,0,1.65-.68,2.74-2a41.31,41.31,0,0,0,4.72-7.76c.16-.35.33-.54.53-.58s.46,0,.46.35a1.73,1.73,0,0,1-.17.7q-5.37,10.85-9,10.85a3.16,3.16,0,0,1-2.74-1.64,4.49,4.49,0,0,1-.52-2.33,13.65,13.65,0,0,1,.58-3.56q-4.66,7.53-8,7.53a2.72,2.72,0,0,1-1.69-.59c-1.16-.81-1.75-2.21-1.75-4.2q0-5.7,5-11.6a12.93,12.93,0,0,1,6.88-4.26,8.47,8.47,0,0,1,2.1-.29,6.22,6.22,0,0,1,4.55,1.87,1.15,1.15,0,0,1,.35,1.22.81.81,0,0,1-1,.47,2.69,2.69,0,0,0-2.8-2.1q-2.51,0-6.18,4a31.91,31.91,0,0,0-3.91,5.48c-1.52,2.52-2.27,4.54-2.27,6.06s.48,2.27,1.45,2.27q3.51,0,9.16-10.72a13.88,13.88,0,0,1,1.86-2.95,2.59,2.59,0,0,1,1.93-.79,9.61,9.61,0,0,1,1.19.18,3.59,3.59,0,0,0,1.43.06A22.15,22.15,0,0,0,1050.36,462.52Z"/><rect class="cls-22" x="994.55" y="313.67" width="26.39" height="2.46"/><rect class="cls-23" x="985.35" y="292.19" width="44.8" height="21.48" rx="1.7"/><line class="cls-24" x1="993.02" y1="293.41" x2="993.02" y2="312.44"/><line class="cls-24" x1="990.57" y1="293.41" x2="990.57" y2="312.44"/><line class="cls-24" x1="995.48" y1="293.41" x2="995.48" y2="312.44"/><line class="cls-24" x1="988.11" y1="293.41" x2="988.11" y2="312.44"/><line class="cls-24" x1="1002.84" y1="293.41" x2="1002.84" y2="312.44"/><line class="cls-24" x1="1000.39" y1="293.41" x2="1000.39" y2="312.44"/><line class="cls-24" x1="1005.3" y1="293.41" x2="1005.3" y2="312.44"/><line class="cls-24" x1="997.93" y1="293.41" x2="997.93" y2="312.44"/><line class="cls-24" x1="1012.66" y1="293.41" x2="1012.66" y2="312.44"/><line class="cls-24" x1="1010.21" y1="293.41" x2="1010.21" y2="312.44"/><line class="cls-24" x1="1015.12" y1="293.41" x2="1015.12" y2="312.44"/><line class="cls-24" x1="1007.75" y1="293.41" x2="1007.75" y2="312.44"/><line class="cls-24" x1="1022.48" y1="293.41" x2="1022.48" y2="312.44"/><line class="cls-24" x1="1020.03" y1="293.41" x2="1020.03" y2="312.44"/><line class="cls-24" x1="1024.94" y1="293.41" x2="1024.94" y2="312.44"/><line class="cls-24" x1="1017.57" y1="293.41" x2="1017.57" y2="312.44"/><line class="cls-24" x1="1027.39" y1="293.41" x2="1027.39" y2="312.44"/></g></g></svg>
