<svg xmlns="http://www.w3.org/2000/svg" width="210" height="70" viewBox="0 0 210 70"><title>start_knap</title><g id="Instruktioner"><path d="M10.08,52.19A27.26,27.26,0,0,1,2,49L6.51,38.72a29.08,29.08,0,0,0,6.72,2.79,26.27,26.27,0,0,0,7.14,1.05,11.07,11.07,0,0,0,4.2-.57,1.83,1.83,0,0,0,1.26-1.71q0-1.32-1.65-2a35.48,35.48,0,0,0-5.43-1.44,61.58,61.58,0,0,1-8.1-2.19A13.8,13.8,0,0,1,5,30.83a10.41,10.41,0,0,1-2.4-7.23,12.45,12.45,0,0,1,2.22-7.2,14.67,14.67,0,0,1,6.63-5.1A27.54,27.54,0,0,1,22.17,9.44a38.88,38.88,0,0,1,8.49.93A26.6,26.6,0,0,1,38,13.1L33.75,23.36a26,26,0,0,0-11.7-3.12q-5.46,0-5.46,2.64,0,1.26,1.62,1.89a34.31,34.31,0,0,0,5.34,1.35,54.91,54.91,0,0,1,8.1,2.07A14.09,14.09,0,0,1,37.38,32a10.22,10.22,0,0,1,2.43,7.2,12.32,12.32,0,0,1-2.22,7.17A14.94,14.94,0,0,1,31,51.47a27.15,27.15,0,0,1-10.71,1.89A44.06,44.06,0,0,1,10.08,52.19Z"/><path d="M52.53,21.38H40.23v-11H79v11H66.69v31H52.53Z"/><path d="M109.17,45.08h-16L90.39,52.4H76l18.36-42h13.92l18.36,42H112Zm-3.9-10.2-4.08-10.56L97.11,34.88Z"/><path d="M146.91,41.84h-3.84V52.4H128.91v-42h20.22a24.79,24.79,0,0,1,10.14,1.92,14.53,14.53,0,0,1,9,13.92,14.85,14.85,0,0,1-2,7.86,14.4,14.4,0,0,1-5.88,5.34l8.82,13H154.05Zm5.64-19.23a6.3,6.3,0,0,0-4.32-1.29h-5.16v9.84h5.16a6.3,6.3,0,0,0,4.32-1.29A4.62,4.62,0,0,0,154,26.24,4.62,4.62,0,0,0,152.55,22.61Z"/><path d="M182.13,21.38h-12.3v-11h38.76v11h-12.3v31H182.13Z"/></g></svg>
